<svg width="631" height="440" viewBox="0 0 631 440" fill="none" xmlns="http://www.w3.org/2000/svg">
<path d="M-117.493 436.923C-117.979 437.363 -118.525 437.648 -119.132 437.777C-119.733 437.9 -120.35 437.844 -120.984 437.609C-121.618 437.363 -122.225 436.92 -122.805 436.279C-123.38 435.645 -123.756 434.998 -123.933 434.338C-124.115 433.672 -124.115 433.04 -123.933 432.443C-123.756 431.84 -123.416 431.311 -122.912 430.854C-122.526 430.505 -122.131 430.286 -121.724 430.199C-121.317 430.1 -120.944 430.064 -120.606 430.092L-120.595 431.248C-120.854 431.224 -121.107 431.249 -121.355 431.321C-121.601 431.383 -121.849 431.526 -122.098 431.752C-122.406 432.031 -122.601 432.364 -122.682 432.751C-122.769 433.132 -122.738 433.541 -122.59 433.979C-122.435 434.412 -122.159 434.847 -121.762 435.286C-121.364 435.724 -120.961 436.05 -120.553 436.263C-120.138 436.47 -119.734 436.552 -119.341 436.509C-118.954 436.46 -118.588 436.28 -118.244 435.968C-118.09 435.829 -117.961 435.674 -117.856 435.503C-117.757 435.327 -117.703 435.16 -117.696 435.001L-118.832 433.748L-119.837 434.658L-120.602 433.814L-118.664 432.057L-116.343 434.618C-116.361 434.979 -116.465 435.371 -116.656 435.792C-116.84 436.207 -117.119 436.584 -117.493 436.923ZM-114.365 433.894L-119.635 428.079L-115.91 424.703L-115.12 425.574L-117.814 428.016L-116.468 429.501L-114.183 427.43L-113.393 428.301L-115.679 430.372L-114.123 432.088L-111.34 429.566L-110.551 430.437L-114.365 433.894ZM-107.167 427.566C-107.576 427.936 -108.035 428.217 -108.543 428.407C-109.05 428.597 -109.573 428.688 -110.111 428.678L-110.143 427.428C-109.746 427.425 -109.352 427.359 -108.96 427.231C-108.574 427.097 -108.227 426.89 -107.919 426.611C-107.581 426.305 -107.382 426.006 -107.323 425.714C-107.268 425.417 -107.333 425.167 -107.515 424.966C-107.671 424.794 -107.836 424.695 -108.01 424.67C-108.19 424.638 -108.386 424.654 -108.599 424.717C-108.806 424.775 -109.042 424.854 -109.307 424.954L-110.413 425.325C-110.69 425.424 -110.985 425.497 -111.299 425.544C-111.607 425.586 -111.914 425.562 -112.221 425.473C-112.522 425.379 -112.802 425.19 -113.06 424.906C-113.339 424.597 -113.503 424.244 -113.551 423.845C-113.605 423.44 -113.545 423.03 -113.372 422.613C-113.198 422.186 -112.915 421.795 -112.524 421.44C-112.168 421.118 -111.769 420.88 -111.325 420.726C-110.881 420.561 -110.435 420.481 -109.988 420.486L-109.925 421.627C-110.266 421.645 -110.583 421.711 -110.878 421.827C-111.172 421.931 -111.467 422.118 -111.764 422.387C-112.036 422.634 -112.205 422.894 -112.269 423.169C-112.334 423.443 -112.267 423.69 -112.068 423.909C-111.934 424.058 -111.776 424.136 -111.595 424.145C-111.414 424.154 -111.218 424.127 -111.005 424.064C-110.786 423.995 -110.562 423.915 -110.331 423.825L-109.268 423.461C-108.933 423.33 -108.609 423.247 -108.296 423.211C-107.982 423.176 -107.681 423.21 -107.392 423.315C-107.108 423.414 -106.837 423.606 -106.579 423.89C-106.294 424.205 -106.12 424.57 -106.055 424.987C-105.991 425.403 -106.046 425.837 -106.221 426.287C-106.401 426.731 -106.717 427.157 -107.167 427.566ZM-102.466 423.111L-106.954 418.158L-108.786 419.818L-109.568 418.955L-104.873 414.701L-104.091 415.563L-105.923 417.223L-101.434 422.176L-102.466 423.111ZM-98.5392 419.552L-99.3289 418.681L-97.924 417.407L-101.615 413.335L-103.02 414.608L-103.809 413.737L-99.968 410.256L-99.1783 411.127L-100.583 412.4L-96.8925 416.473L-95.4876 415.199L-94.6979 416.071L-98.5392 419.552ZM-91.1902 413.086C-91.6408 413.495 -92.1454 413.736 -92.7041 413.81C-93.2628 413.885 -93.8441 413.786 -94.448 413.512C-95.046 413.234 -95.6404 412.768 -96.2314 412.116C-96.8062 411.482 -97.2002 410.857 -97.4134 410.24C-97.6261 409.612 -97.6653 409.027 -97.5309 408.484C-97.3966 407.941 -97.1042 407.466 -96.6537 407.058C-96.2032 406.649 -95.7013 406.405 -95.1479 406.325C-94.5946 406.244 -94.0189 406.343 -93.421 406.622C-92.8224 406.889 -92.2358 407.34 -91.6609 407.974C-91.07 408.626 -90.6682 409.266 -90.4555 409.894C-90.237 410.517 -90.1921 411.102 -90.3211 411.651C-90.45 412.2 -90.7397 412.678 -91.1902 413.086ZM-92.0041 412.188C-91.7551 411.963 -91.614 411.684 -91.5806 411.351C-91.5473 411.019 -91.6253 410.647 -91.8146 410.235C-92.0039 409.824 -92.3054 409.39 -92.7191 408.933C-93.122 408.489 -93.5135 408.158 -93.8936 407.941C-94.2791 407.718 -94.6363 407.61 -94.9651 407.616C-95.2993 407.617 -95.5909 407.73 -95.8398 407.956C-96.0888 408.181 -96.23 408.46 -96.2633 408.793C-96.302 409.12 -96.2294 409.486 -96.0455 409.891C-95.8669 410.291 -95.5761 410.713 -95.1732 411.157C-94.7596 411.614 -94.3573 411.956 -93.9664 412.185C-93.5756 412.414 -93.213 412.528 -92.8788 412.528C-92.5447 412.527 -92.2531 412.414 -92.0041 412.188ZM-97.1244 407.128L-98.0453 407.023L-97.746 404.566L-96.5734 404.734L-97.1244 407.128ZM-87.9649 409.969L-93.2349 404.154L-92.1501 403.171L-87.6545 405.04L-86.0017 405.809L-85.975 405.785C-86.2614 405.505 -86.5838 405.209 -86.9423 404.896C-87.2948 404.579 -87.6188 404.257 -87.9143 403.931L-90.2028 401.406L-89.2158 400.511L-83.9457 406.327L-85.0305 407.31L-89.5343 405.432L-91.179 404.671L-91.2056 404.695C-90.9085 404.987 -90.5864 405.289 -90.2392 405.601C-89.8915 405.901 -89.5726 406.211 -89.2825 406.531L-86.9779 409.075L-87.9649 409.969ZM-76.8926 399.935L-82.1626 394.119L-81.1401 393.193L-76.6597 398.137L-73.9299 395.663L-73.1402 396.534L-76.8926 399.935ZM-71.7121 395.24L-76.9822 389.425L-73.2565 386.048L-72.4668 386.92L-75.161 389.361L-73.8153 390.846L-71.5301 388.775L-70.7404 389.647L-73.0256 391.718L-71.4703 393.434L-68.6872 390.912L-67.8975 391.783L-71.7121 395.24ZM-65.1445 389.288L-66.9737 387.27L-72.3263 385.205L-71.2326 384.214L-69.0763 385.11C-68.7768 385.238 -68.4802 385.369 -68.1866 385.502C-67.893 385.636 -67.5854 385.773 -67.2638 385.913L-67.2282 385.881C-67.3423 385.552 -67.4484 385.233 -67.5464 384.922C-67.6384 384.606 -67.7362 384.29 -67.8395 383.973L-68.5384 381.773L-67.4713 380.806L-65.9422 386.335L-64.113 388.353L-65.1445 389.288ZM-55.8861 380.898L-61.1562 375.082L-59.2178 373.326C-58.8147 372.96 -58.4047 372.686 -57.9879 372.503C-57.5652 372.314 -57.1435 372.261 -56.7228 372.344C-56.3074 372.421 -55.9037 372.676 -55.5115 373.109C-55.1355 373.524 -54.9214 373.95 -54.8694 374.389C-54.8173 374.828 -54.8952 375.26 -55.1031 375.686C-55.305 376.106 -55.6075 376.499 -56.0106 376.865L-56.9176 377.687L-54.8547 379.963L-55.8861 380.898ZM-57.6589 376.869L-56.8587 376.143C-56.4556 375.778 -56.2255 375.418 -56.1684 375.064C-56.1054 374.705 -56.2244 374.359 -56.5252 374.027C-56.826 373.695 -57.1423 373.561 -57.4739 373.624C-57.8049 373.676 -58.172 373.884 -58.5751 374.249L-59.3753 374.975L-57.6589 376.869ZM-56.4471 376.758L-56.2562 375.468L-51.5736 376.989L-52.7384 378.045L-56.4471 376.758ZM-50.3855 375.913L-55.6556 370.098L-51.9299 366.721L-51.1402 367.593L-53.8344 370.034L-52.4887 371.519L-50.2035 369.448L-49.4138 370.32L-51.699 372.391L-50.1438 374.107L-47.3606 371.584L-46.5709 372.456L-50.3855 375.913ZM-45.1873 371.202L-50.4573 365.387L-48.5456 363.654C-48.1188 363.267 -47.6884 362.98 -47.2543 362.792C-46.8203 362.603 -46.3903 362.554 -45.9642 362.643C-45.5322 362.726 -45.1121 362.993 -44.7038 363.444C-44.317 363.871 -44.0951 364.312 -44.0383 364.768C-43.9755 365.218 -44.0512 365.665 -44.2656 366.107C-44.474 366.545 -44.7886 366.954 -45.2095 367.335L-46.0898 368.133L-44.1558 370.267L-45.1873 371.202ZM-46.8392 367.306L-46.0389 366.581C-45.6062 366.189 -45.3667 365.81 -45.3204 365.444C-45.2681 365.073 -45.4005 364.712 -45.7174 364.362C-46.0505 363.995 -46.3885 363.842 -46.7314 363.905C-47.0737 363.956 -47.4553 364.172 -47.8762 364.554L-48.6765 365.279L-46.8392 367.306ZM-36.9337 359.058L-37.6106 358.311L-33.6626 354.733L-32.9857 355.48L-36.9337 359.058ZM-23.8785 351.891L-29.1486 346.076L-27.3435 344.44C-26.9464 344.08 -26.5507 343.808 -26.1565 343.623C-25.7617 343.427 -25.3814 343.353 -25.0155 343.399C-24.6497 343.445 -24.3056 343.646 -23.9833 344.002C-23.7361 344.275 -23.5854 344.608 -23.5312 345.001C-23.4763 345.383 -23.5805 345.775 -23.8438 346.175L-23.8115 346.211C-23.3262 345.9 -22.8688 345.756 -22.4394 345.777C-22.01 345.798 -21.6153 346.007 -21.2554 346.404C-20.9062 346.79 -20.711 347.196 -20.6697 347.623C-20.6283 348.049 -20.7202 348.478 -20.9453 348.909C-21.1698 349.328 -21.4955 349.731 -21.9223 350.118L-23.8785 351.891ZM-25.9495 347.533L-25.2648 346.912C-24.8617 346.547 -24.6357 346.213 -24.5868 345.909C-24.5379 345.606 -24.637 345.318 -24.8841 345.045C-25.1259 344.778 -25.387 344.675 -25.6674 344.735C-25.9533 344.789 -26.2859 344.987 -26.6653 345.331L-27.3677 345.968L-25.9495 347.533ZM-23.5965 350.129L-22.7784 349.388C-22.3516 349.001 -22.0957 348.634 -22.0107 348.287C-21.9251 347.929 -22.0327 347.584 -22.3335 347.252C-22.6075 346.95 -22.916 346.83 -23.2588 346.892C-23.6017 346.954 -23.9896 347.182 -24.4223 347.574L-25.2403 348.315L-23.5965 350.129ZM-18.3957 346.922L-23.6658 341.107L-19.9401 337.73L-19.1504 338.602L-21.8446 341.043L-20.4989 342.528L-18.2137 340.457L-17.424 341.329L-19.7092 343.4L-18.154 345.116L-15.3708 342.594L-14.5811 343.465L-18.3957 346.922ZM-12.9129 341.953L-18.183 336.138L-17.1604 335.211L-12.68 340.155L-9.95025 337.681L-9.16054 338.553L-12.9129 341.953ZM-5.88404 335.778C-6.33456 336.186 -6.83917 336.427 -7.39787 336.502C-7.95658 336.576 -8.53788 336.477 -9.14179 336.204C-9.73976 335.925 -10.3342 335.46 -10.9252 334.808C-11.5 334.173 -11.894 333.548 -12.1072 332.932C-12.3199 332.304 -12.3591 331.718 -12.2247 331.176C-12.0904 330.633 -11.798 330.157 -11.3475 329.749C-10.897 329.341 -10.3951 329.096 -9.84173 329.016C-9.2884 328.936 -8.71275 329.035 -8.11477 329.313C-7.51624 329.581 -6.92956 330.031 -6.35474 330.666C-5.76381 331.318 -5.36201 331.958 -5.14934 332.586C-4.93075 333.208 -4.88592 333.794 -5.01486 334.342C-5.14379 334.891 -5.43352 335.369 -5.88404 335.778ZM-6.69792 334.88C-6.44894 334.654 -6.30779 334.375 -6.27444 334.042C-6.2411 333.71 -6.31909 333.338 -6.50841 332.927C-6.69773 332.515 -6.99922 332.081 -7.41287 331.625C-7.81578 331.18 -8.2073 330.849 -8.58743 330.632C-8.97293 330.41 -9.33008 330.301 -9.6589 330.308C-9.99308 330.308 -10.2847 330.422 -10.5336 330.647C-10.7826 330.873 -10.9238 331.152 -10.9571 331.484C-10.9958 331.811 -10.9232 332.177 -10.7393 332.583C-10.5607 332.982 -10.2699 333.404 -9.86702 333.849C-9.45337 334.305 -9.05111 334.648 -8.66024 334.877C-8.26937 335.105 -7.90684 335.22 -7.57265 335.219C-7.23847 335.218 -6.94689 335.105 -6.69792 334.88ZM-0.552399 330.946C-1.00292 331.354 -1.50753 331.596 -2.06624 331.67C-2.62494 331.745 -3.20624 331.645 -3.81015 331.372C-4.40812 331.093 -5.00258 330.628 -5.59352 329.976C-6.16834 329.342 -6.56236 328.716 -6.77558 328.1C-6.98824 327.472 -7.02742 326.887 -6.89311 326.344C-6.75881 325.801 -6.4664 325.326 -6.01587 324.917C-5.56535 324.509 -5.06343 324.265 -4.5101 324.184C-3.95676 324.104 -3.38111 324.203 -2.78313 324.482C-2.1846 324.749 -1.59793 325.2 -1.02311 325.834C-0.432169 326.486 -0.0303695 327.126 0.182293 327.754C0.400884 328.376 0.445713 328.962 0.31678 329.51C0.187848 330.059 -0.101878 330.538 -0.552399 330.946ZM-1.36628 330.048C-1.11731 329.822 -0.976149 329.543 -0.942804 329.211C-0.90946 328.878 -0.987448 328.506 -1.17677 328.095C-1.36609 327.683 -1.66758 327.249 -2.08124 326.793C-2.48415 326.348 -2.87567 326.018 -3.25579 325.801C-3.64129 325.578 -3.99845 325.47 -4.32726 325.476C-4.66144 325.477 -4.95302 325.59 -5.20199 325.815C-5.45097 326.041 -5.59212 326.32 -5.62547 326.653C-5.66419 326.979 -5.59157 327.345 -5.40762 327.751C-5.22904 328.15 -4.9383 328.572 -4.53539 329.017C-4.12173 329.473 -3.71947 329.816 -3.3286 330.045C-2.93773 330.274 -2.5752 330.388 -2.24101 330.387C-1.90683 330.387 -1.61525 330.274 -1.36628 330.048ZM2.79747 327.716L-2.47261 321.901L-0.560864 320.168C-0.134055 319.781 0.296367 319.494 0.7304 319.306C1.16443 319.117 1.59448 319.068 2.02055 319.157C2.45255 319.24 2.87269 319.507 3.28097 319.958C3.66776 320.384 3.8896 320.826 3.94647 321.282C4.00926 321.732 3.9335 322.179 3.71917 322.621C3.51076 323.059 3.19612 323.468 2.77524 323.849L1.89495 324.647L3.82892 326.781L2.79747 327.716ZM1.14553 323.82L1.9458 323.095C2.37854 322.703 2.61806 322.324 2.66437 321.958C2.71661 321.587 2.58425 321.226 2.2673 320.876C1.93422 320.509 1.59624 320.356 1.25335 320.419C0.911014 320.47 0.529406 320.686 0.108524 321.067L-0.691742 321.793L1.14553 323.82ZM15.4603 316.434C15.0513 316.805 14.5929 317.086 14.0851 317.276C13.5774 317.466 13.0547 317.557 12.5171 317.547L12.4851 316.297C12.8818 316.294 13.2758 316.228 13.6672 316.1C14.0533 315.966 14.4004 315.759 14.7087 315.48C15.0465 315.174 15.2453 314.875 15.305 314.583C15.3592 314.286 15.2951 314.036 15.1124 313.835C14.9566 313.663 14.7916 313.564 14.6172 313.539C14.4376 313.507 14.2414 313.523 14.0287 313.586C13.822 313.644 13.5859 313.723 13.3204 313.823L12.2148 314.193C11.938 314.293 11.6427 314.366 11.3289 314.413C11.021 314.455 10.7135 314.431 10.4064 314.342C10.1052 314.248 9.82565 314.059 9.56779 313.774C9.28843 313.466 9.12458 313.113 9.07623 312.714C9.02251 312.309 9.08235 311.899 9.25574 311.482C9.42969 311.055 9.71228 310.664 10.1035 310.309C10.4592 309.987 10.8589 309.749 11.3025 309.595C11.7468 309.43 12.1925 309.35 12.6396 309.355L12.7024 310.496C12.3618 310.514 12.0442 310.58 11.7496 310.696C11.4556 310.8 11.1604 310.987 10.8641 311.256C10.5914 311.503 10.4228 311.763 10.3583 312.038C10.2939 312.312 10.361 312.559 10.5598 312.778C10.6941 312.926 10.8516 313.005 11.0324 313.014C11.2132 313.023 11.41 312.996 11.6226 312.932C11.8412 312.864 12.066 312.784 12.297 312.694L13.3599 312.33C13.6948 312.199 14.0189 312.116 14.3321 312.08C14.6454 312.045 14.9467 312.079 15.2361 312.184C15.52 312.283 15.791 312.475 16.0488 312.759C16.3336 313.074 16.5081 313.439 16.5726 313.856C16.6371 314.272 16.5818 314.706 16.4067 315.156C16.2263 315.6 15.9108 316.026 15.4603 316.434ZM20.7742 311.619C20.3236 312.027 19.819 312.268 19.2603 312.343C18.7016 312.417 18.1203 312.318 17.5164 312.045C16.9184 311.766 16.324 311.301 15.733 310.649C15.1582 310.014 14.7642 309.389 14.551 308.773C14.3383 308.145 14.2991 307.559 14.4334 307.017C14.5677 306.474 14.8602 305.998 15.3107 305.59C15.7612 305.182 16.2631 304.938 16.8165 304.857C17.3698 304.777 17.9454 304.876 18.5434 305.154C19.1419 305.422 19.7286 305.873 20.3034 306.507C20.8944 307.159 21.2962 307.799 21.5088 308.427C21.7274 309.049 21.7723 309.635 21.6433 310.183C21.5144 310.732 21.2247 311.211 20.7742 311.619ZM19.9603 310.721C20.2092 310.495 20.3504 310.216 20.3837 309.884C20.4171 309.551 20.3391 309.179 20.1498 308.768C19.9605 308.356 19.659 307.922 19.2453 307.466C18.8424 307.021 18.4509 306.69 18.0708 306.473C17.6853 306.251 17.3281 306.142 16.9993 306.149C16.6651 306.149 16.3735 306.263 16.1246 306.488C15.8756 306.714 15.7344 306.993 15.7011 307.325C15.6624 307.652 15.735 308.018 15.9189 308.424C16.0975 308.823 16.3883 309.245 16.7912 309.69C17.2048 310.146 17.6071 310.489 17.998 310.718C18.3888 310.946 18.7513 311.061 19.0855 311.06C19.4197 311.059 19.7113 310.946 19.9603 310.721ZM24.3997 308.139L19.1296 302.324L22.8464 298.955L23.6361 299.827L20.9507 302.26L22.4415 303.905L24.7267 301.834L25.5164 302.706L23.2312 304.777L25.4311 307.204L24.3997 308.139ZM30.825 302.316L26.3366 297.363L24.5048 299.023L23.7232 298.161L28.4181 293.906L29.1997 294.768L27.368 296.428L31.8565 301.381L30.825 302.316ZM34.894 298.628L28.797 293.563L29.8996 292.563L33.2471 295.667C33.404 295.817 33.5555 295.96 33.7017 296.098C33.8424 296.229 33.983 296.366 34.1232 296.509C34.2634 296.652 34.4198 296.813 34.5922 296.991L34.6189 296.967C34.482 296.756 34.3612 296.563 34.2566 296.388C34.1578 296.208 34.0588 296.033 33.9595 295.864C33.8549 295.689 33.7478 295.505 33.6383 295.313L32.4101 292.993L33.1837 292.292L35.3455 293.766C35.5321 293.888 35.7046 294.007 35.8632 294.122C36.0218 294.238 36.1857 294.359 36.355 294.486C36.519 294.608 36.699 294.747 36.8952 294.904L36.9308 294.872C36.7761 294.677 36.6346 294.503 36.5062 294.349C36.3725 294.19 36.2441 294.036 36.1211 293.889C35.9981 293.741 35.87 293.582 35.7368 293.411L32.9673 289.783L34.0076 288.84L38.4952 295.365L37.3304 296.42L35.0074 294.769C34.7993 294.622 34.5999 294.474 34.4091 294.323C34.2129 294.166 34.0224 294.009 33.8375 293.853L33.8109 293.877C33.9483 294.076 34.0855 294.281 34.2224 294.492C34.3598 294.691 34.4911 294.902 34.6161 295.123L36.041 297.589L34.894 298.628ZM39.5143 294.441L36.1293 286.918L37.3386 285.822L44.4937 289.929L43.4 290.92L39.7155 288.623C39.3531 288.39 38.9768 288.154 38.5865 287.914C38.2021 287.668 37.8263 287.42 37.4592 287.17L37.4236 287.202C37.6307 287.598 37.8375 287.998 38.0441 288.405C38.2566 288.806 38.458 289.201 38.6484 289.59L40.5635 293.49L39.5143 294.441ZM39.1995 291.86L38.4662 291.051L41.196 288.577L41.9293 289.386L39.1995 291.86ZM45.415 289.094L40.1449 283.278L42.0833 281.522C42.4864 281.156 42.8964 280.882 43.3132 280.699C43.7359 280.51 44.1576 280.457 44.5783 280.54C44.9937 280.617 45.3974 280.872 45.7896 281.305C46.1656 281.72 46.3797 282.147 46.4317 282.585C46.4838 283.024 46.4059 283.456 46.198 283.882C45.9961 284.303 45.6936 284.695 45.2905 285.061L44.3835 285.883L46.4465 288.159L45.415 289.094ZM43.6422 285.065L44.4425 284.339C44.8456 283.974 45.0756 283.614 45.1327 283.26C45.1957 282.901 45.0767 282.555 44.7759 282.223C44.4751 281.891 44.1588 281.757 43.8273 281.82C43.4962 281.872 43.1292 282.08 42.7261 282.445L41.9258 283.171L43.6422 285.065ZM44.854 284.954L45.0449 283.664L49.7275 285.186L48.5627 286.241L44.854 284.954ZM50.9156 284.109L45.6455 278.294L49.3712 274.917L50.1609 275.789L47.4667 278.23L48.8124 279.715L51.0976 277.644L51.8873 278.516L49.6021 280.587L51.1573 282.303L53.9405 279.78L54.7302 280.652L50.9156 284.109ZM59.0358 272.086L58.3589 271.339L62.3069 267.761L62.9838 268.508L59.0358 272.086ZM74.4462 262.979C73.9601 263.419 73.4137 263.704 72.807 263.833C72.2063 263.956 71.5889 263.9 70.9548 263.665C70.3212 263.419 69.7143 262.975 69.1342 262.335C68.5593 261.701 68.1834 261.054 68.0063 260.394C67.8238 259.728 67.8237 259.096 68.006 258.499C68.1829 257.896 68.5233 257.366 69.0272 256.91C69.4125 256.56 69.8084 256.342 70.2148 256.254C70.6218 256.156 70.9945 256.12 71.3329 256.148L71.3441 257.304C71.0847 257.28 70.8315 257.304 70.5844 257.377C70.3378 257.439 70.09 257.582 69.8411 257.808C69.5328 258.087 69.338 258.42 69.2567 258.807C69.17 259.188 69.2008 259.597 69.3492 260.035C69.5035 260.467 69.7795 260.903 70.177 261.341C70.5745 261.78 70.9776 262.106 71.3863 262.318C71.8009 262.526 72.2046 262.608 72.5975 262.565C72.9851 262.516 73.3507 262.336 73.6946 262.024C73.8487 261.884 73.9781 261.729 74.0827 261.559C74.182 261.383 74.2356 261.215 74.2434 261.057L73.1071 259.803L72.1024 260.714L71.3368 259.869L73.2753 258.113L75.596 260.673C75.5782 261.035 75.474 261.426 75.2834 261.847C75.0987 262.263 74.8197 262.64 74.4462 262.979ZM77.5738 259.95L72.3037 254.135L76.0294 250.758L76.8191 251.63L74.1248 254.071L75.4706 255.556L77.7558 253.485L78.5455 254.357L76.2603 256.428L77.8155 258.144L80.5987 255.622L81.3884 256.493L77.5738 259.95ZM84.7716 253.621C84.3626 253.992 83.9042 254.272 83.3964 254.463C82.8886 254.653 82.366 254.743 81.8284 254.734L81.7964 253.483C82.193 253.48 82.5871 253.415 82.9785 253.287C83.3645 253.153 83.7117 252.946 84.0199 252.667C84.3578 252.361 84.5566 252.062 84.6163 251.77C84.6705 251.473 84.6063 251.223 84.4237 251.022C84.2679 250.85 84.1028 250.751 83.9285 250.725C83.7488 250.694 83.5527 250.71 83.34 250.773C83.1333 250.831 82.8972 250.91 82.6317 251.01L81.5261 251.38C81.2493 251.48 80.954 251.553 80.6402 251.6C80.3323 251.642 80.0248 251.618 79.7177 251.529C79.4165 251.435 79.1369 251.246 78.8791 250.961C78.5997 250.653 78.4359 250.299 78.3875 249.901C78.3338 249.496 78.3936 249.085 78.567 248.669C78.741 248.242 79.0236 247.85 79.4148 247.496C79.7705 247.174 80.1702 246.936 80.6138 246.782C81.058 246.617 81.5037 246.537 81.9509 246.542L82.0137 247.683C81.6731 247.7 81.3555 247.767 81.0609 247.883C80.7669 247.987 80.4717 248.174 80.1753 248.442C79.9027 248.689 79.7341 248.95 79.6696 249.225C79.6051 249.499 79.6723 249.746 79.8711 249.965C80.0054 250.113 80.1629 250.192 80.3437 250.201C80.5245 250.21 80.7213 250.182 80.9339 250.119C81.1525 250.051 81.3773 249.971 81.6083 249.881L82.6712 249.517C83.0061 249.386 83.3302 249.303 83.6434 249.267C83.9567 249.231 84.258 249.266 84.5473 249.371C84.8313 249.47 85.1023 249.662 85.3601 249.946C85.6448 250.26 85.8194 250.626 85.8839 251.042C85.9484 251.459 85.8931 251.892 85.718 252.342C85.5376 252.787 85.2221 253.213 84.7716 253.621ZM89.473 249.166L84.9846 244.213L83.1529 245.873L82.3712 245.011L87.0661 240.756L87.8478 241.619L86.016 243.279L90.5045 248.232L89.473 249.166ZM93.3997 245.608L92.61 244.736L94.0149 243.463L90.3243 239.391L88.9194 240.664L88.1297 239.792L91.9709 236.311L92.7606 237.183L91.3557 238.456L95.0464 242.528L96.4513 241.255L97.241 242.127L93.3997 245.608ZM100.749 239.142C100.298 239.55 99.7936 239.792 99.2349 239.866C98.6762 239.941 98.0949 239.841 97.491 239.568C96.893 239.289 96.2985 238.824 95.7076 238.172C95.1328 237.538 94.7388 236.912 94.5255 236.296C94.3129 235.668 94.2737 235.083 94.408 234.54C94.5423 233.997 94.8347 233.522 95.2852 233.113C95.7358 232.705 96.2377 232.461 96.791 232.38C97.3443 232.3 97.92 232.399 98.518 232.678C99.1165 232.945 99.7032 233.396 100.278 234.03C100.869 234.682 101.271 235.322 101.483 235.95C101.702 236.572 101.747 237.158 101.618 237.707C101.489 238.255 101.199 238.734 100.749 239.142ZM99.9348 238.244C100.184 238.018 100.325 237.739 100.358 237.407C100.392 237.074 100.314 236.702 100.124 236.291C99.935 235.879 99.6335 235.445 99.2199 234.989C98.817 234.544 98.4254 234.214 98.0453 233.997C97.6598 233.774 97.3027 233.666 96.9739 233.672C96.6397 233.673 96.3481 233.786 96.0991 234.011C95.8501 234.237 95.709 234.516 95.6756 234.849C95.6369 235.175 95.7095 235.541 95.8935 235.947C96.0721 236.346 96.3628 236.768 96.7657 237.213C97.1794 237.669 97.5816 238.012 97.9725 238.241C98.3634 238.47 98.7259 238.584 99.0601 238.583C99.3943 238.583 99.6859 238.47 99.9348 238.244ZM94.8145 233.184L93.8937 233.079L94.1929 230.621L95.3655 230.79L94.8145 233.184ZM103.974 236.025L98.704 230.209L99.7888 229.226L104.284 231.096L105.937 231.865L105.964 231.841C105.678 231.561 105.355 231.264 104.997 230.952C104.644 230.635 104.32 230.313 104.025 229.987L101.736 227.462L102.723 226.567L107.993 232.382L106.908 233.365L102.405 231.487L100.76 230.727L100.733 230.751C101.03 231.043 101.353 231.345 101.7 231.657C102.047 231.957 102.366 232.267 102.656 232.587L104.961 235.13L103.974 236.025ZM115.046 225.99L109.776 220.175L110.799 219.248L115.279 224.192L118.009 221.718L118.799 222.59L115.046 225.99ZM120.227 221.296L114.957 215.48L118.682 212.104L119.472 212.975L116.778 215.417L118.124 216.902L120.409 214.831L121.199 215.702L118.913 217.773L120.469 219.489L123.252 216.967L124.041 217.839L120.227 221.296ZM126.794 215.344L124.965 213.325L119.613 211.261L120.706 210.27L122.863 211.166C123.162 211.294 123.459 211.425 123.752 211.558C124.046 211.691 124.354 211.828 124.675 211.969L124.711 211.937C124.597 211.608 124.491 211.289 124.393 210.978C124.3 210.662 124.203 210.346 124.099 210.029L123.401 207.828L124.468 206.861L125.997 212.391L127.826 214.409L126.794 215.344ZM136.053 206.953L130.783 201.138L132.721 199.381C133.124 199.016 133.534 198.742 133.951 198.558C134.374 198.37 134.795 198.317 135.216 198.4C135.631 198.477 136.035 198.732 136.427 199.164C136.803 199.579 137.018 200.006 137.07 200.445C137.122 200.883 137.044 201.316 136.836 201.742C136.634 202.162 136.331 202.555 135.928 202.92L135.021 203.742L137.084 206.019L136.053 206.953ZM134.28 202.924L135.08 202.199C135.483 201.834 135.713 201.474 135.771 201.12C135.834 200.761 135.715 200.415 135.414 200.083C135.113 199.751 134.797 199.617 134.465 199.68C134.134 199.731 133.767 199.94 133.364 200.305L132.564 201.03L134.28 202.924ZM135.492 202.814L135.683 201.524L140.365 203.045L139.201 204.101L135.492 202.814ZM141.553 201.968L136.283 196.153L140.009 192.777L140.799 193.648L138.104 196.09L139.45 197.575L141.735 195.504L142.525 196.375L140.24 198.446L141.795 200.162L144.578 197.64L145.368 198.512L141.553 201.968ZM146.752 197.258L141.482 191.442L143.393 189.71C143.82 189.323 144.251 189.035 144.685 188.847C145.119 188.659 145.549 188.609 145.975 188.698C146.407 188.782 146.827 189.049 147.235 189.499C147.622 189.926 147.844 190.368 147.901 190.823C147.963 191.274 147.888 191.721 147.673 192.163C147.465 192.6 147.15 193.01 146.729 193.391L145.849 194.189L147.783 196.323L146.752 197.258ZM145.1 193.362L145.9 192.637C146.333 192.244 146.572 191.865 146.619 191.5C146.671 191.128 146.538 190.768 146.222 190.418C145.888 190.051 145.55 189.898 145.208 189.96C144.865 190.012 144.484 190.228 144.063 190.609L143.262 191.334L145.1 193.362ZM155.005 185.114L154.328 184.367L158.276 180.789L158.953 181.536L155.005 185.114ZM168.06 177.947L162.79 172.131L164.595 170.495C164.993 170.136 165.388 169.863 165.782 169.679C166.177 169.483 166.558 169.408 166.923 169.455C167.289 169.501 167.633 169.702 167.956 170.058C168.203 170.33 168.354 170.663 168.408 171.057C168.463 171.439 168.358 171.83 168.095 172.231L168.127 172.266C168.613 171.956 169.07 171.811 169.5 171.833C169.929 171.854 170.324 172.063 170.684 172.46C171.033 172.845 171.228 173.251 171.269 173.678C171.311 174.105 171.219 174.534 170.994 174.964C170.769 175.384 170.443 175.787 170.017 176.174L168.06 177.947ZM165.989 173.588L166.674 172.968C167.077 172.603 167.303 172.268 167.352 171.965C167.401 171.661 167.302 171.373 167.055 171.101C166.813 170.834 166.552 170.73 166.272 170.79C165.986 170.844 165.653 171.043 165.274 171.387L164.571 172.023L165.989 173.588ZM168.342 176.185L169.161 175.443C169.587 175.057 169.843 174.69 169.928 174.343C170.014 173.985 169.906 173.639 169.605 173.308C169.331 173.005 169.023 172.885 168.68 172.948C168.337 173.01 167.949 173.237 167.517 173.63L166.699 174.371L168.342 176.185ZM173.543 172.978L168.273 167.162L171.999 163.786L172.789 164.658L170.094 167.099L171.44 168.584L173.725 166.513L174.515 167.385L172.23 169.455L173.785 171.172L176.568 168.649L177.358 169.521L173.543 172.978ZM179.026 168.009L173.756 162.194L174.779 161.267L179.259 166.211L181.989 163.737L182.778 164.608L179.026 168.009ZM186.055 161.833C185.604 162.242 185.1 162.483 184.541 162.558C183.982 162.632 183.401 162.533 182.797 162.259C182.199 161.981 181.605 161.515 181.014 160.863C180.439 160.229 180.045 159.604 179.832 158.987C179.619 158.359 179.58 157.774 179.714 157.231C179.848 156.689 180.141 156.213 180.591 155.805C181.042 155.396 181.544 155.152 182.097 155.072C182.651 154.991 183.226 155.09 183.824 155.369C184.423 155.636 185.009 156.087 185.584 156.721C186.175 157.374 186.577 158.013 186.79 158.641C187.008 159.264 187.053 159.849 186.924 160.398C186.795 160.947 186.505 161.425 186.055 161.833ZM185.241 160.935C185.49 160.71 185.631 160.431 185.665 160.098C185.698 159.766 185.62 159.394 185.431 158.982C185.241 158.571 184.94 158.137 184.526 157.68C184.123 157.236 183.732 156.905 183.352 156.688C182.966 156.465 182.609 156.357 182.28 156.364C181.946 156.364 181.654 156.477 181.405 156.703C181.156 156.928 181.015 157.208 180.982 157.54C180.943 157.867 181.016 158.233 181.2 158.638C181.378 159.038 181.669 159.46 182.072 159.904C182.486 160.361 182.888 160.704 183.279 160.932C183.67 161.161 184.032 161.275 184.366 161.275C184.7 161.274 184.992 161.161 185.241 160.935ZM191.387 157.002C190.936 157.41 190.431 157.651 189.873 157.726C189.314 157.8 188.733 157.701 188.129 157.428C187.531 157.149 186.936 156.684 186.345 156.032C185.771 155.397 185.377 154.772 185.163 154.155C184.951 153.528 184.912 152.942 185.046 152.4C185.18 151.857 185.473 151.381 185.923 150.973C186.374 150.565 186.876 150.32 187.429 150.24C187.982 150.16 188.558 150.259 189.156 150.537C189.754 150.805 190.341 151.255 190.916 151.89C191.507 152.542 191.909 153.182 192.121 153.809C192.34 154.432 192.385 155.017 192.256 155.566C192.127 156.115 191.837 156.593 191.387 157.002ZM190.573 156.104C190.822 155.878 190.963 155.599 190.996 155.266C191.029 154.934 190.951 154.562 190.762 154.15C190.573 153.739 190.271 153.305 189.858 152.849C189.455 152.404 189.063 152.073 188.683 151.856C188.298 151.633 187.94 151.525 187.612 151.532C187.278 151.532 186.986 151.645 186.737 151.871C186.488 152.097 186.347 152.376 186.313 152.708C186.275 153.035 186.347 153.401 186.531 153.806C186.71 154.206 187.001 154.628 187.404 155.073C187.817 155.529 188.219 155.872 188.61 156.101C189.001 156.329 189.364 156.443 189.698 156.443C190.032 156.442 190.324 156.329 190.573 156.104ZM194.736 153.771L189.466 147.956L191.378 146.224C191.805 145.837 192.235 145.549 192.669 145.361C193.103 145.173 193.533 145.123 193.959 145.212C194.391 145.296 194.812 145.563 195.22 146.013C195.607 146.44 195.829 146.882 195.885 147.337C195.948 147.788 195.872 148.234 195.658 148.677C195.45 149.114 195.135 149.524 194.714 149.905L193.834 150.703L195.768 152.837L194.736 153.771ZM193.084 149.876L193.885 149.151C194.317 148.758 194.557 148.379 194.603 148.013C194.656 147.642 194.523 147.282 194.206 146.932C193.873 146.564 193.535 146.412 193.192 146.474C192.85 146.525 192.468 146.742 192.047 147.123L191.247 147.848L193.084 149.876ZM207.399 142.49C206.99 142.861 206.532 143.141 206.024 143.332C205.516 143.522 204.994 143.612 204.456 143.603L204.424 142.352C204.821 142.349 205.215 142.284 205.606 142.156C205.992 142.022 206.339 141.815 206.648 141.536C206.985 141.229 207.184 140.931 207.244 140.639C207.298 140.341 207.234 140.092 207.051 139.89C206.896 139.718 206.731 139.62 206.556 139.594C206.376 139.563 206.18 139.579 205.968 139.642C205.761 139.7 205.525 139.779 205.259 139.879L204.154 140.249C203.877 140.349 203.582 140.422 203.268 140.469C202.96 140.51 202.652 140.487 202.345 140.398C202.044 140.304 201.765 140.115 201.507 139.83C201.227 139.522 201.064 139.168 201.015 138.769C200.961 138.365 201.021 137.954 201.195 137.538C201.369 137.11 201.651 136.719 202.042 136.365C202.398 136.042 202.798 135.804 203.241 135.651C203.686 135.486 204.131 135.406 204.579 135.411L204.641 136.552C204.301 136.569 203.983 136.636 203.689 136.752C203.395 136.856 203.099 137.043 202.803 137.311C202.53 137.558 202.362 137.819 202.297 138.093C202.233 138.368 202.3 138.615 202.499 138.834C202.633 138.982 202.791 139.061 202.971 139.07C203.152 139.078 203.349 139.051 203.562 138.988C203.78 138.92 204.005 138.84 204.236 138.749L205.299 138.385C205.634 138.255 205.958 138.172 206.271 138.136C206.584 138.1 206.886 138.135 207.175 138.24C207.459 138.339 207.73 138.531 207.988 138.815C208.272 139.129 208.447 139.495 208.512 139.911C208.576 140.328 208.521 140.761 208.346 141.211C208.165 141.656 207.85 142.082 207.399 142.49ZM212.713 137.674C212.263 138.083 211.758 138.324 211.199 138.399C210.641 138.473 210.059 138.374 209.455 138.1C208.857 137.822 208.263 137.357 207.672 136.704C207.097 136.07 206.703 135.445 206.49 134.828C206.277 134.2 206.238 133.615 206.372 133.072C206.507 132.53 206.799 132.054 207.25 131.646C207.7 131.238 208.202 130.993 208.755 130.913C209.309 130.832 209.884 130.932 210.482 131.21C211.081 131.477 211.668 131.928 212.242 132.563C212.833 133.215 213.235 133.855 213.448 134.482C213.666 135.105 213.711 135.69 213.582 136.239C213.453 136.788 213.164 137.266 212.713 137.674ZM211.899 136.776C212.148 136.551 212.289 136.272 212.323 135.939C212.356 135.607 212.278 135.235 212.089 134.823C211.899 134.412 211.598 133.978 211.184 133.521C210.781 133.077 210.39 132.746 210.01 132.529C209.624 132.306 209.267 132.198 208.938 132.205C208.604 132.205 208.312 132.318 208.063 132.544C207.815 132.77 207.673 133.049 207.64 133.381C207.601 133.708 207.674 134.074 207.858 134.479C208.036 134.879 208.327 135.301 208.73 135.746C209.144 136.202 209.546 136.545 209.937 136.773C210.328 137.002 210.69 137.116 211.024 137.116C211.359 137.115 211.65 137.002 211.899 136.776ZM216.339 134.195L211.069 128.379L214.785 125.011L215.575 125.882L212.89 128.316L214.38 129.961L216.666 127.89L217.455 128.761L215.17 130.832L217.37 133.26L216.339 134.195ZM222.764 128.372L218.276 123.419L216.444 125.079L215.662 124.216L220.357 119.962L221.139 120.824L219.307 122.484L223.795 127.437L222.764 128.372ZM226.833 124.684L220.736 119.618L221.839 118.619L225.186 121.723C225.343 121.872 225.494 122.016 225.641 122.153C225.781 122.285 225.922 122.422 226.062 122.565C226.202 122.708 226.359 122.868 226.531 123.047L226.558 123.022C226.421 122.812 226.3 122.619 226.196 122.444C226.097 122.263 225.998 122.089 225.898 121.92C225.794 121.744 225.687 121.561 225.577 121.369L224.349 119.048L225.123 118.347L227.284 119.821C227.471 119.944 227.644 120.063 227.802 120.178C227.961 120.294 228.125 120.415 228.294 120.542C228.458 120.663 228.638 120.803 228.834 120.96L228.87 120.927C228.715 120.733 228.574 120.559 228.445 120.405C228.311 120.246 228.183 120.092 228.06 119.944C227.937 119.797 227.809 119.638 227.676 119.467L224.906 115.839L225.947 114.896L230.434 121.42L229.269 122.476L226.946 120.824C226.738 120.678 226.539 120.529 226.348 120.378C226.152 120.222 225.961 120.065 225.776 119.909L225.75 119.933C225.887 120.132 226.024 120.337 226.161 120.548C226.299 120.747 226.43 120.957 226.555 121.179L227.98 123.645L226.833 124.684ZM231.453 120.497L228.068 112.973L229.278 111.877L236.433 115.984L235.339 116.975L231.654 114.679C231.292 114.446 230.916 114.209 230.525 113.969C230.141 113.724 229.765 113.476 229.398 113.226L229.363 113.258C229.57 113.653 229.776 114.054 229.983 114.461C230.195 114.862 230.397 115.257 230.587 115.646L232.502 119.546L231.453 120.497ZM231.138 117.916L230.405 117.107L233.135 114.633L233.868 115.442L231.138 117.916ZM237.354 115.149L232.084 109.334L234.022 107.577C234.425 107.212 234.835 106.938 235.252 106.754C235.675 106.566 236.097 106.513 236.517 106.596C236.933 106.673 237.336 106.928 237.729 107.36C238.105 107.775 238.319 108.202 238.371 108.641C238.423 109.08 238.345 109.512 238.137 109.938C237.935 110.358 237.633 110.751 237.229 111.116L236.322 111.938L238.385 114.215L237.354 115.149ZM235.581 111.12L236.381 110.395C236.784 110.03 237.015 109.67 237.072 109.316C237.135 108.957 237.016 108.611 236.715 108.279C236.414 107.947 236.098 107.813 235.766 107.876C235.435 107.927 235.068 108.136 234.665 108.501L233.865 109.226L235.581 111.12ZM236.793 111.01L236.984 109.72L241.666 111.241L240.502 112.297L236.793 111.01ZM242.855 110.165L237.584 104.349L241.31 100.973L242.1 101.844L239.406 104.286L240.751 105.771L243.037 103.7L243.826 104.571L241.541 106.642L243.096 108.358L245.879 105.836L246.669 106.708L242.855 110.165ZM250.975 98.1416L250.298 97.3947L254.246 93.8168L254.923 94.5637L250.975 98.1416ZM266.385 89.0343C265.899 89.4748 265.353 89.7594 264.746 89.8882C264.145 90.0116 263.528 89.9557 262.894 89.7206C262.26 89.4743 261.653 89.031 261.073 88.3907C260.498 87.7565 260.122 87.1093 259.945 86.4493C259.763 85.7833 259.763 85.1518 259.945 84.5547C260.122 83.9518 260.462 83.422 260.966 82.9653C261.351 82.6161 261.747 82.3977 262.154 82.3101C262.561 82.2112 262.933 82.1757 263.272 82.2037L263.283 83.3596C263.024 83.3355 262.77 83.3599 262.523 83.4327C262.277 83.4942 262.029 83.6378 261.78 83.8634C261.472 84.1428 261.277 84.4758 261.196 84.8626C261.109 85.2435 261.14 85.6528 261.288 86.0905C261.442 86.5229 261.718 86.9584 262.116 87.3971C262.513 87.8357 262.917 88.1614 263.325 88.3741C263.74 88.5814 264.144 88.6635 264.536 88.6205C264.924 88.5716 265.29 88.3914 265.634 88.0798C265.788 87.9401 265.917 87.7851 266.022 87.6147C266.121 87.4383 266.175 87.271 266.182 87.1128L265.046 85.8591L264.041 86.7696L263.276 85.9249L265.214 84.1682L267.535 86.7291C267.517 87.0907 267.413 87.482 267.222 87.9031C267.038 88.3188 266.759 88.6958 266.385 89.0343ZM269.513 86.0056L264.243 80.1903L267.968 76.8139L268.758 77.6853L266.064 80.127L267.41 81.6119L269.695 79.541L270.484 80.4124L268.199 82.4833L269.754 84.1994L272.538 81.6772L273.327 82.5486L269.513 86.0056ZM276.711 79.6769C276.302 80.0476 275.843 80.3281 275.335 80.5183C274.828 80.7086 274.305 80.799 273.767 80.7895L273.735 79.5391C274.132 79.536 274.526 79.4704 274.917 79.3424C275.303 79.2084 275.651 79.0018 275.959 78.7224C276.297 78.4162 276.496 78.1173 276.555 77.8258C276.609 77.5283 276.545 77.2787 276.363 77.0772C276.207 76.9053 276.042 76.8065 275.867 76.781C275.688 76.7495 275.492 76.7653 275.279 76.8285C275.072 76.8863 274.836 76.9653 274.571 77.0655L273.465 77.4359C273.188 77.5356 272.893 77.6088 272.579 77.6557C272.271 77.6972 271.964 77.6736 271.657 77.5848C271.355 77.4907 271.076 77.3014 270.818 77.0169C270.539 76.7086 270.375 76.3551 270.326 75.9562C270.273 75.5515 270.333 75.141 270.506 74.7247C270.68 74.2972 270.963 73.9061 271.354 73.5516C271.709 73.2292 272.109 72.9912 272.553 72.8374C272.997 72.6724 273.443 72.5924 273.89 72.5974L273.953 73.7388C273.612 73.7561 273.294 73.8226 273 73.9384C272.706 74.0428 272.411 74.2294 272.114 74.498C271.842 74.7451 271.673 75.0058 271.609 75.2802C271.544 75.5545 271.611 75.8014 271.81 76.0207C271.944 76.1689 272.102 76.2475 272.283 76.2563C272.463 76.2652 272.66 76.2381 272.873 76.1749C273.091 76.1064 273.316 76.0268 273.547 75.9362L274.61 75.5722C274.945 75.4414 275.269 75.3583 275.582 75.3227C275.896 75.2871 276.197 75.3218 276.486 75.4266C276.77 75.5256 277.041 75.7173 277.299 76.0018C277.584 76.316 277.758 76.6814 277.823 77.098C277.887 77.5146 277.832 77.948 277.657 78.3982C277.477 78.8424 277.161 79.2686 276.711 79.6769ZM281.412 75.2219L276.924 70.2692L275.092 71.9292L274.31 71.0667L279.005 66.8119L279.787 67.6744L277.955 69.3344L282.443 74.2872L281.412 75.2219ZM285.339 71.6633L284.549 70.7919L285.954 69.5187L282.263 65.4463L280.858 66.7195L280.069 65.8481L283.91 62.3669L284.7 63.2383L283.295 64.5115L286.985 68.584L288.39 67.3108L289.18 68.1822L285.339 71.6633ZM292.688 65.1977C292.237 65.606 291.733 65.8473 291.174 65.9218C290.615 65.9963 290.034 65.8969 289.43 65.6237C288.832 65.345 288.237 64.8797 287.647 64.2276C287.072 63.5934 286.678 62.968 286.464 62.3515C286.252 61.7237 286.213 61.1384 286.347 60.5956C286.481 60.0528 286.774 59.5773 287.224 59.169C287.675 58.7607 288.177 58.5164 288.73 58.436C289.283 58.3556 289.859 58.4547 290.457 58.7333C291.055 59.0006 291.642 59.4514 292.217 60.0857C292.808 60.7378 293.21 61.3777 293.422 62.0055C293.641 62.6279 293.686 63.2135 293.557 63.7622C293.428 64.3109 293.138 64.7894 292.688 65.1977ZM291.874 64.2996C292.123 64.074 292.264 63.7949 292.297 63.4624C292.331 63.1299 292.253 62.7579 292.063 62.3465C291.874 61.935 291.572 61.5011 291.159 61.0446C290.756 60.6 290.364 60.2693 289.984 60.0524C289.599 59.8295 289.242 59.7213 288.913 59.7278C288.579 59.7284 288.287 59.8415 288.038 60.0671C287.789 60.2927 287.648 60.5718 287.615 60.9043C287.576 61.2309 287.648 61.597 287.832 62.0025C288.011 62.402 288.302 62.8241 288.705 63.2687C289.118 63.7252 289.521 64.0678 289.911 64.2966C290.302 64.5253 290.665 64.6394 290.999 64.6389C291.333 64.6383 291.625 64.5252 291.874 64.2996ZM286.753 59.2393L285.833 59.1346L286.132 56.6771L287.304 56.8452L286.753 59.2393ZM295.913 62.0804L290.643 56.2651L291.728 55.282L296.223 57.1512L297.876 57.9206L297.903 57.8965C297.616 57.6162 297.294 57.32 296.936 57.0078C296.583 56.6903 296.259 56.3686 295.964 56.0425L293.675 53.5172L294.662 52.6228L299.932 58.438L298.847 59.4211L294.344 57.543L292.699 56.7825L292.672 56.8067C292.969 57.0988 293.292 57.4007 293.639 57.7122C293.986 58.0125 294.305 58.3227 294.595 58.6428L296.9 61.1859L295.913 62.0804ZM306.985 52.0461L301.715 46.2308L302.738 45.3041L307.218 50.248L309.948 47.7741L310.738 48.6455L306.985 52.0461ZM312.166 47.3513L306.896 41.536L310.621 38.1596L311.411 39.031L308.717 41.4727L310.063 42.9576L312.348 40.8867L313.138 41.7581L310.852 43.829L312.408 45.5452L315.191 43.0229L315.98 43.8943L312.166 47.3513ZM318.733 41.3994L316.904 39.381L311.552 37.3167L312.645 36.3255L314.802 37.2216C315.101 37.3497 315.398 37.4803 315.691 37.6137C315.985 37.7471 316.293 37.884 316.614 38.0244L316.65 37.9922C316.536 37.6637 316.43 37.3442 316.332 37.0335C316.239 36.7175 316.142 36.4012 316.038 36.0846L315.34 33.8839L316.407 32.9169L317.936 38.4462L319.765 40.4647L318.733 41.3994ZM327.992 33.0091L322.722 27.1938L324.66 25.4371C325.063 25.0718 325.473 24.7974 325.89 24.614C326.313 24.4253 326.734 24.3724 327.155 24.4554C327.57 24.5324 327.974 24.7873 328.366 25.2201C328.742 25.635 328.956 26.0618 329.009 26.5005C329.061 26.9392 328.983 27.3714 328.775 27.7973C328.573 28.2178 328.27 28.6107 327.867 28.976L326.96 29.798L329.023 32.0743L327.992 33.0091ZM326.219 28.9799L327.019 28.2547C327.422 27.8894 327.652 27.5297 327.709 27.1757C327.772 26.8163 327.654 26.4707 327.353 26.1387C327.052 25.8068 326.736 25.6723 326.404 25.7352C326.073 25.7869 325.706 25.9954 325.303 26.3607L324.503 27.086L326.219 28.9799ZM327.431 28.8696L327.622 27.5792L332.304 29.1008L331.139 30.1564L327.431 28.8696ZM333.492 28.0242L328.222 22.2089L331.948 18.8325L332.738 19.7039L330.043 22.1455L331.389 23.6305L333.674 21.5595L334.464 22.4309L332.179 24.5019L333.734 26.218L336.517 23.6958L337.307 24.5672L333.492 28.0242ZM338.691 23.3132L333.421 17.498L335.332 15.7655C335.759 15.3787 336.19 15.0912 336.624 14.903C337.058 14.7147 337.488 14.6651 337.914 14.754C338.346 14.8376 338.766 15.1046 339.174 15.5551C339.561 15.9819 339.783 16.4233 339.84 16.8792C339.902 17.3297 339.827 17.7762 339.612 18.2188C339.404 18.656 339.089 19.0653 338.668 19.4467L337.788 20.2445L339.722 22.3785L338.691 23.3132ZM337.039 19.4175L337.839 18.6923C338.272 18.3001 338.511 17.9211 338.558 17.5552C338.61 17.184 338.477 16.8235 338.16 16.4738C337.827 16.1062 337.489 15.9537 337.147 16.0161C336.804 16.0672 336.423 16.2835 336.002 16.6649L335.201 17.3902L337.039 19.4175ZM346.944 11.1694L346.267 10.4225L350.215 6.84464L350.892 7.59155L346.944 11.1694ZM359.999 4.00222L354.729 -1.81305L356.534 -3.44887C356.932 -3.80881 357.327 -4.08103 357.721 -4.26553C358.116 -4.46134 358.496 -4.53608 358.862 -4.48977C359.228 -4.44346 359.572 -4.24247 359.895 -3.88679C360.142 -3.61411 360.292 -3.28103 360.347 -2.88757C360.402 -2.50541 360.297 -2.11407 360.034 -1.71357L360.066 -1.678C360.552 -1.98829 361.009 -2.13287 361.438 -2.11176C361.868 -2.09064 362.263 -1.88149 362.622 -1.48432C362.972 -1.09901 363.167 -0.69295 363.208 -0.266141C363.25 0.160667 363.158 0.589421 362.933 1.02012C362.708 1.43952 362.382 1.84261 361.956 2.22941L359.999 4.00222ZM357.928 -0.355898L358.613 -0.976382C359.016 -1.34169 359.242 -1.67606 359.291 -1.97949C359.34 -2.28293 359.241 -2.57098 358.994 -2.84367C358.752 -3.11042 358.491 -3.21388 358.21 -3.15405C357.925 -3.10014 357.592 -2.90128 357.213 -2.55746L356.51 -1.92086L357.928 -0.355898ZM360.281 2.24052L361.099 1.49917C361.526 1.11237 361.782 0.74549 361.867 0.398523C361.953 0.0402557 361.845 -0.304859 361.544 -0.636821C361.27 -0.939144 360.962 -1.05909 360.619 -0.996664C360.276 -0.934236 359.888 -0.706939 359.456 -0.314772L358.638 0.426585L360.281 2.24052ZM365.482 -0.966558L360.212 -6.78183L363.938 -10.1582L364.727 -9.28682L362.033 -6.84518L363.379 -5.36024L365.664 -7.43121L366.454 -6.5598L364.169 -4.48884L365.724 -2.77271L368.507 -5.29494L369.297 -4.42354L365.482 -0.966558ZM370.965 -5.93533L365.695 -11.7506L366.717 -12.6773L371.198 -7.73343L373.928 -10.2073L374.717 -9.33591L370.965 -5.93533ZM377.994 -12.1109C377.543 -11.7026 377.039 -11.4612 376.48 -11.3868C375.921 -11.3123 375.34 -11.4117 374.736 -11.6849C374.138 -11.9635 373.544 -12.4289 372.953 -13.0809C372.378 -13.7152 371.984 -14.3406 371.771 -14.9571C371.558 -15.5849 371.519 -16.1702 371.653 -16.713C371.787 -17.2558 372.08 -17.7313 372.53 -18.1396C372.981 -18.5479 373.483 -18.7922 374.036 -18.8726C374.589 -18.953 375.165 -18.8539 375.763 -18.5753C376.362 -18.308 376.948 -17.8572 377.523 -17.2229C378.114 -16.5708 378.516 -15.9309 378.729 -15.3031C378.947 -14.6806 378.992 -14.0951 378.863 -13.5464C378.734 -12.9977 378.444 -12.5192 377.994 -12.1109ZM377.18 -13.009C377.429 -13.2346 377.57 -13.5137 377.603 -13.8462C377.637 -14.1787 377.559 -14.5507 377.369 -14.9621C377.18 -15.3736 376.879 -15.8075 376.465 -16.2639C376.062 -16.7085 375.671 -17.0393 375.29 -17.2562C374.905 -17.4791 374.548 -17.5873 374.219 -17.5808C373.885 -17.5802 373.593 -17.4671 373.344 -17.2415C373.095 -17.0159 372.954 -16.7368 372.921 -16.4043C372.882 -16.0777 372.955 -15.7116 373.139 -15.3061C373.317 -14.9066 373.608 -14.4845 374.011 -14.0399C374.425 -13.5834 374.827 -13.2408 375.218 -13.012C375.609 -12.7833 375.971 -12.6691 376.305 -12.6697C376.639 -12.6703 376.931 -12.7833 377.18 -13.009ZM383.325 -16.9427C382.875 -16.5344 382.37 -16.293 381.812 -16.2186C381.253 -16.1441 380.672 -16.2435 380.068 -16.5167C379.47 -16.7953 378.875 -17.2607 378.284 -17.9127C377.71 -18.547 377.316 -19.1724 377.102 -19.7889C376.89 -20.4167 376.85 -21.002 376.985 -21.5448C377.119 -22.0876 377.411 -22.5631 377.862 -22.9714C378.313 -23.3796 378.814 -23.624 379.368 -23.7044C379.921 -23.7848 380.497 -23.6857 381.095 -23.4071C381.693 -23.1397 382.28 -22.6889 382.855 -22.0547C383.446 -21.4026 383.848 -20.7627 384.06 -20.1349C384.279 -19.5124 384.324 -18.9269 384.195 -18.3782C384.066 -17.8295 383.776 -17.351 383.325 -16.9427ZM382.512 -17.8408C382.761 -18.0664 382.902 -18.3455 382.935 -18.678C382.968 -19.0105 382.89 -19.3825 382.701 -19.7939C382.512 -20.2053 382.21 -20.6393 381.797 -21.0957C381.394 -21.5403 381.002 -21.8711 380.622 -22.088C380.237 -22.3109 379.879 -22.419 379.551 -22.4126C379.216 -22.412 378.925 -22.2989 378.676 -22.0733C378.427 -21.8477 378.286 -21.5686 378.252 -21.2361C378.214 -20.9095 378.286 -20.5434 378.47 -20.1379C378.649 -19.7383 378.94 -19.3163 379.343 -18.8717C379.756 -18.4152 380.158 -18.0726 380.549 -17.8438C380.94 -17.615 381.303 -17.5009 381.637 -17.5015C381.971 -17.502 382.263 -17.6151 382.512 -17.8408ZM386.675 -20.1728L381.405 -25.9881L383.317 -27.7206C383.744 -28.1074 384.174 -28.3949 384.608 -28.5831C385.042 -28.7713 385.472 -28.821 385.898 -28.7321C386.33 -28.6485 386.751 -28.3815 387.159 -27.931C387.546 -27.5042 387.767 -27.0628 387.824 -26.6069C387.887 -26.1564 387.811 -25.7099 387.597 -25.2673C387.389 -24.8301 387.074 -24.4208 386.653 -24.0394L385.773 -23.2416L387.707 -21.1076L386.675 -20.1728ZM385.023 -24.0686L385.824 -24.7938C386.256 -25.186 386.496 -25.565 386.542 -25.9309C386.595 -26.3021 386.462 -26.6626 386.145 -27.0123C385.812 -27.3799 385.474 -27.5324 385.131 -27.47C384.789 -27.4189 384.407 -27.2026 383.986 -26.8212L383.186 -26.0959L385.023 -24.0686ZM399.338 -31.4542C398.929 -31.0835 398.471 -30.803 397.963 -30.6128C397.455 -30.4225 396.933 -30.3321 396.395 -30.3416L396.363 -31.592C396.76 -31.5951 397.154 -31.6607 397.545 -31.7887C397.931 -31.9227 398.278 -32.1293 398.587 -32.4086C398.924 -32.7149 399.123 -33.0138 399.183 -33.3053C399.237 -33.6028 399.173 -33.8524 398.99 -34.0539C398.835 -34.2258 398.669 -34.3246 398.495 -34.3501C398.315 -34.3816 398.119 -34.3658 397.907 -34.3026C397.7 -34.2448 397.464 -34.1658 397.198 -34.0656L396.093 -33.6952C395.816 -33.5955 395.521 -33.5223 395.207 -33.4754C394.899 -33.4339 394.591 -33.4575 394.284 -33.5463C393.983 -33.6404 393.704 -33.8297 393.446 -34.1142C393.166 -34.4225 393.002 -34.776 392.954 -35.1749C392.9 -35.5796 392.96 -35.9901 393.134 -36.4064C393.308 -36.8339 393.59 -37.225 393.981 -37.5795C394.337 -37.9019 394.737 -38.1399 395.18 -38.2937C395.625 -38.4587 396.07 -38.5387 396.518 -38.5337L396.58 -37.3923C396.24 -37.375 395.922 -37.3085 395.628 -37.1927C395.334 -37.0883 395.038 -36.9017 394.742 -36.6331C394.469 -36.386 394.301 -36.1253 394.236 -35.8509C394.172 -35.5766 394.239 -35.3297 394.438 -35.1104C394.572 -34.9622 394.73 -34.8836 394.91 -34.8747C395.091 -34.8659 395.288 -34.893 395.501 -34.9562C395.719 -35.0247 395.944 -35.1043 396.175 -35.1949L397.238 -35.5589C397.573 -35.6896 397.897 -35.7728 398.21 -35.8084C398.523 -35.844 398.825 -35.8093 399.114 -35.7045C399.398 -35.6055 399.669 -35.4138 399.927 -35.1293C400.211 -34.8151 400.386 -34.4497 400.451 -34.0331C400.515 -33.6165 400.46 -33.1831 400.285 -32.7329C400.104 -32.2887 399.789 -31.8624 399.338 -31.4542ZM404.652 -36.2698C404.202 -35.8616 403.697 -35.6202 403.138 -35.5457C402.579 -35.4712 401.998 -35.5706 401.394 -35.8439C400.796 -36.1225 400.202 -36.5878 399.611 -37.2399C399.036 -37.8742 398.642 -38.4996 398.429 -39.1161C398.216 -39.7439 398.177 -40.3292 398.311 -40.8719C398.446 -41.4147 398.738 -41.8902 399.189 -42.2985C399.639 -42.7068 400.141 -42.9511 400.694 -43.0315C401.248 -43.1119 401.823 -43.0128 402.421 -42.7342C403.02 -42.4669 403.607 -42.0161 404.181 -41.3818C404.772 -40.7297 405.174 -40.0898 405.387 -39.462C405.605 -38.8396 405.65 -38.254 405.521 -37.7053C405.392 -37.1566 405.103 -36.6781 404.652 -36.2698ZM403.838 -37.1679C404.087 -37.3935 404.228 -37.6726 404.262 -38.0051C404.295 -38.3377 404.217 -38.7096 404.028 -39.1211C403.838 -39.5325 403.537 -39.9664 403.123 -40.4229C402.72 -40.8675 402.329 -41.1982 401.949 -41.4152C401.563 -41.638 401.206 -41.7462 400.877 -41.7397C400.543 -41.7392 400.251 -41.6261 400.002 -41.4004C399.753 -41.1748 399.612 -40.8957 399.579 -40.5632C399.54 -40.2366 399.613 -39.8706 399.797 -39.4651C399.975 -39.0655 400.266 -38.6434 400.669 -38.1988C401.083 -37.7424 401.485 -37.3997 401.876 -37.171C402.267 -36.9422 402.629 -36.8281 402.963 -36.8286C403.298 -36.8292 403.589 -36.9423 403.838 -37.1679ZM408.278 -39.7498L403.007 -45.5651L406.724 -48.9334L407.514 -48.062L404.829 -45.6284L406.319 -43.9834L408.605 -46.0544L409.394 -45.183L407.109 -43.112L409.309 -40.6845L408.278 -39.7498ZM414.703 -45.5727L410.214 -50.5255L408.383 -48.8655L407.601 -49.728L412.296 -53.9828L413.078 -53.1202L411.246 -51.4602L415.734 -46.5075L414.703 -45.5727ZM418.772 -49.2603L412.675 -54.3261L413.777 -55.3253L417.125 -52.2212C417.282 -52.0719 417.433 -51.9285 417.58 -51.7911C417.72 -51.6596 417.861 -51.5224 418.001 -51.3796C418.141 -51.2367 418.298 -51.0761 418.47 -50.8977L418.497 -50.9219C418.36 -51.1325 418.239 -51.3254 418.134 -51.5004C418.036 -51.6809 417.937 -51.8557 417.837 -52.0248C417.733 -52.1998 417.626 -52.3835 417.516 -52.5758L416.288 -54.896L417.062 -55.5971L419.223 -54.123C419.41 -54.0005 419.583 -53.8816 419.741 -53.7662C419.9 -53.6508 420.064 -53.5294 420.233 -53.4022C420.397 -53.2808 420.577 -53.1417 420.773 -52.9848L420.809 -53.0171C420.654 -53.2116 420.512 -53.3856 420.384 -53.5392C420.25 -53.6987 420.122 -53.8522 419.999 -53.9999C419.876 -54.1475 419.748 -54.3067 419.615 -54.4775L416.845 -58.1054L417.885 -59.0482L422.373 -52.5238L421.208 -51.4682L418.885 -53.1201C418.677 -53.2663 418.478 -53.4149 418.287 -53.5658C418.091 -53.7228 417.9 -53.8794 417.715 -54.0357L417.689 -54.0116C417.826 -53.8122 417.963 -53.6073 418.1 -53.3966C418.238 -53.1973 418.369 -52.987 418.494 -52.7656L419.919 -50.2998L418.772 -49.2603ZM423.392 -53.4474L420.007 -60.971L421.216 -62.0669L428.372 -57.96L427.278 -56.9688L423.593 -59.2654C423.231 -59.4985 422.855 -59.735 422.464 -59.9751C422.08 -60.2206 421.704 -60.4684 421.337 -60.7187L421.301 -60.6865C421.509 -60.2911 421.715 -59.8902 421.922 -59.4836C422.134 -59.0823 422.336 -58.6873 422.526 -58.2984L424.441 -54.3983L423.392 -53.4474ZM423.077 -56.0285L422.344 -56.8377L425.074 -59.3115L425.807 -58.5024L423.077 -56.0285ZM429.293 -58.7949L424.023 -64.6102L425.961 -66.3669C426.364 -66.7322 426.774 -67.0065 427.191 -67.1899C427.614 -67.3787 428.036 -67.4316 428.456 -67.3486C428.872 -67.2715 429.275 -67.0166 429.667 -66.5839C430.044 -66.1689 430.258 -65.7421 430.31 -65.3034C430.362 -64.8648 430.284 -64.4325 430.076 -64.0066C429.874 -63.5861 429.572 -63.1932 429.168 -62.8279L428.261 -62.006L430.324 -59.7296L429.293 -58.7949ZM427.52 -62.824L428.32 -63.5493C428.723 -63.9146 428.954 -64.2742 429.011 -64.6282C429.074 -64.9876 428.955 -65.3333 428.654 -65.6652C428.353 -65.9972 428.037 -66.1317 427.705 -66.0687C427.374 -66.017 427.007 -65.8085 426.604 -65.4432L425.804 -64.718L427.52 -62.824ZM428.732 -62.9343L428.923 -64.2248L433.605 -62.7031L432.441 -61.6475L428.732 -62.9343ZM434.793 -63.7798L429.523 -69.5951L433.249 -72.9715L434.039 -72.1001L431.345 -69.6584L432.69 -68.1735L434.975 -70.2444L435.765 -69.373L433.48 -67.3021L435.035 -65.5859L437.818 -68.1082L438.608 -67.2368L434.793 -63.7798ZM442.914 -75.8028L442.237 -76.5497L446.185 -80.1275L446.862 -79.3806L442.914 -75.8028ZM458.324 -84.91C457.838 -84.4695 457.292 -84.1849 456.685 -84.0561C456.084 -83.9328 455.467 -83.9886 454.833 -84.2237C454.199 -84.4701 453.592 -84.9134 453.012 -85.5536C452.437 -86.1879 452.061 -86.835 451.884 -87.4951C451.702 -88.161 451.702 -88.7925 451.884 -89.3896C452.061 -89.9926 452.401 -90.5224 452.905 -90.979C453.29 -91.3282 453.686 -91.5466 454.093 -91.6342C454.5 -91.7331 454.872 -91.7686 455.211 -91.7406L455.222 -90.5847C454.963 -90.6088 454.709 -90.5844 454.462 -90.5116C454.216 -90.4501 453.968 -90.3065 453.719 -90.0809C453.411 -89.8016 453.216 -89.4685 453.135 -89.0817C453.048 -88.7008 453.079 -88.2915 453.227 -87.8538C453.381 -87.4214 453.657 -86.9859 454.055 -86.5472C454.452 -86.1086 454.856 -85.7829 455.264 -85.5703C455.679 -85.363 456.083 -85.2808 456.475 -85.3238C456.863 -85.3727 457.229 -85.5529 457.572 -85.8645C457.727 -86.0042 457.856 -86.1592 457.961 -86.3297C458.06 -86.506 458.113 -86.6733 458.121 -86.8315L456.985 -88.0853L455.98 -87.1747L455.215 -88.0194L457.153 -89.7761L459.474 -87.2152C459.456 -86.8536 459.352 -86.4623 459.161 -86.0412C458.977 -85.6255 458.698 -85.2485 458.324 -84.91ZM461.452 -87.9387L456.182 -93.754L459.907 -97.1304L460.697 -96.259L458.003 -93.8173L459.348 -92.3324L461.634 -94.4034L462.423 -93.532L460.138 -91.461L461.693 -89.7449L464.477 -92.2671L465.266 -91.3957L461.452 -87.9387ZM468.649 -94.2674C468.24 -93.8967 467.782 -93.6162 467.274 -93.426C466.767 -93.2358 466.244 -93.1454 465.706 -93.1548L465.674 -94.4052C466.071 -94.4084 466.465 -94.4739 466.856 -94.6019C467.242 -94.7359 467.59 -94.9425 467.898 -95.2219C468.236 -95.5281 468.434 -95.827 468.494 -96.1186C468.548 -96.4161 468.484 -96.6656 468.302 -96.8671C468.146 -97.0391 467.981 -97.1378 467.806 -97.1634C467.627 -97.1948 467.431 -97.179 467.218 -97.1158C467.011 -97.058 466.775 -96.979 466.51 -96.8788L465.404 -96.5084C465.127 -96.4088 464.832 -96.3355 464.518 -96.2886C464.21 -96.2471 463.903 -96.2707 463.596 -96.3595C463.294 -96.4536 463.015 -96.6429 462.757 -96.9274C462.478 -97.2357 462.314 -97.5892 462.265 -97.9881C462.212 -98.3928 462.272 -98.8033 462.445 -99.2196C462.619 -99.6471 462.901 -100.038 463.293 -100.393C463.648 -100.715 464.048 -100.953 464.492 -101.107C464.936 -101.272 465.382 -101.352 465.829 -101.347L465.892 -100.205C465.551 -100.188 465.233 -100.122 464.939 -100.006C464.645 -99.9015 464.35 -99.7149 464.053 -99.4463C463.781 -99.1992 463.612 -98.9385 463.548 -98.6641C463.483 -98.3898 463.55 -98.1429 463.749 -97.9236C463.883 -97.7754 464.041 -97.6969 464.222 -97.688C464.402 -97.6791 464.599 -97.7062 464.812 -97.7694C465.03 -97.8379 465.255 -97.9175 465.486 -98.0081L466.549 -98.3721C466.884 -98.5029 467.208 -98.5861 467.521 -98.6216C467.835 -98.6572 468.136 -98.6225 468.425 -98.5177C468.709 -98.4188 468.98 -98.227 469.238 -97.9425C469.523 -97.6283 469.697 -97.2629 469.762 -96.8463C469.826 -96.4297 469.771 -95.9963 469.596 -95.5461C469.415 -95.1019 469.1 -94.6757 468.649 -94.2674ZM473.351 -98.7224L468.862 -103.675L467.031 -102.015L466.249 -102.878L470.944 -107.132L471.726 -106.27L469.894 -104.61L474.382 -99.6571L473.351 -98.7224ZM477.278 -102.281L476.488 -103.152L477.893 -104.426L474.202 -108.498L472.797 -107.225L472.008 -108.096L475.849 -111.577L476.639 -110.706L475.234 -109.433L478.924 -105.36L480.329 -106.634L481.119 -105.762L477.278 -102.281ZM484.627 -108.747C484.176 -108.338 483.671 -108.097 483.113 -108.023C482.554 -107.948 481.973 -108.047 481.369 -108.321C480.771 -108.599 480.176 -109.065 479.585 -109.717C479.011 -110.351 478.617 -110.976 478.403 -111.593C478.191 -112.221 478.152 -112.806 478.286 -113.349C478.42 -113.891 478.713 -114.367 479.163 -114.775C479.614 -115.184 480.116 -115.428 480.669 -115.508C481.222 -115.589 481.798 -115.49 482.396 -115.211C482.994 -114.944 483.581 -114.493 484.156 -113.859C484.747 -113.207 485.149 -112.567 485.361 -111.939C485.58 -111.316 485.625 -110.731 485.496 -110.182C485.367 -109.633 485.077 -109.155 484.627 -108.747ZM483.813 -109.645C484.062 -109.87 484.203 -110.149 484.236 -110.482C484.27 -110.814 484.192 -111.186 484.002 -111.598C483.813 -112.009 483.511 -112.443 483.098 -112.9C482.695 -113.344 482.303 -113.675 481.923 -113.892C481.538 -114.115 481.181 -114.223 480.852 -114.217C480.518 -114.216 480.226 -114.103 479.977 -113.877C479.728 -113.652 479.587 -113.373 479.554 -113.04C479.515 -112.713 479.587 -112.347 479.771 -111.942C479.95 -111.542 480.241 -111.12 480.644 -110.676C481.057 -110.219 481.46 -109.877 481.85 -109.648C482.241 -109.419 482.604 -109.305 482.938 -109.305C483.272 -109.306 483.564 -109.419 483.813 -109.645ZM478.692 -114.705L477.772 -114.81L478.071 -117.267L479.243 -117.099L478.692 -114.705ZM487.852 -111.864L482.582 -117.679L483.667 -118.662L488.162 -116.793L489.815 -116.024L489.842 -116.048C489.555 -116.328 489.233 -116.624 488.875 -116.936C488.522 -117.254 488.198 -117.576 487.903 -117.902L485.614 -120.427L486.601 -121.322L491.871 -115.506L490.786 -114.523L486.283 -116.401L484.638 -117.162L484.611 -117.138C484.908 -116.846 485.23 -116.544 485.578 -116.232C485.925 -115.932 486.244 -115.622 486.534 -115.301L488.839 -112.758L487.852 -111.864ZM498.924 -121.898L493.654 -127.713L494.677 -128.64L499.157 -123.696L501.887 -126.17L502.677 -125.299L498.924 -121.898ZM504.105 -126.593L498.835 -132.408L502.56 -135.785L503.35 -134.913L500.656 -132.472L502.002 -130.987L504.287 -133.058L505.076 -132.186L502.791 -130.115L504.347 -128.399L507.13 -130.921L507.919 -130.05L504.105 -126.593ZM510.672 -132.545L508.843 -134.563L503.491 -136.628L504.584 -137.619L506.741 -136.723C507.04 -136.595 507.337 -136.464 507.63 -136.331C507.924 -136.197 508.231 -136.06 508.553 -135.92L508.589 -135.952C508.475 -136.281 508.368 -136.6 508.27 -136.911C508.178 -137.227 508.081 -137.543 507.977 -137.86L507.278 -140.06L508.345 -141.027L509.875 -135.498L511.704 -133.48L510.672 -132.545ZM519.931 -140.935L514.661 -146.751L516.599 -148.507C517.002 -148.873 517.412 -149.147 517.829 -149.33C518.252 -149.519 518.673 -149.572 519.094 -149.489C519.509 -149.412 519.913 -149.157 520.305 -148.724C520.681 -148.309 520.895 -147.882 520.947 -147.444C521 -147.005 520.922 -146.573 520.714 -146.147C520.512 -145.726 520.209 -145.334 519.806 -144.968L518.899 -144.146L520.962 -141.87L519.931 -140.935ZM518.158 -144.964L518.958 -145.69C519.361 -146.055 519.591 -146.415 519.648 -146.769C519.711 -147.128 519.592 -147.474 519.292 -147.806C518.991 -148.138 518.675 -148.272 518.343 -148.209C518.012 -148.157 517.645 -147.949 517.242 -147.584L516.442 -146.858L518.158 -144.964ZM519.37 -145.075L519.561 -146.365L524.243 -144.844L523.078 -143.788L519.37 -145.075ZM525.431 -145.92L520.161 -151.735L523.887 -155.112L524.677 -154.24L521.982 -151.799L523.328 -150.314L525.613 -152.385L526.403 -151.513L524.118 -149.442L525.673 -147.726L528.456 -150.249L529.246 -149.377L525.431 -145.92ZM530.63 -150.631L525.359 -156.446L527.271 -158.179C527.698 -158.566 528.128 -158.853 528.562 -159.041C528.997 -159.23 529.427 -159.279 529.853 -159.19C530.285 -159.107 530.705 -158.84 531.113 -158.389C531.5 -157.962 531.722 -157.521 531.779 -157.065C531.841 -156.615 531.766 -156.168 531.551 -155.726C531.343 -155.288 531.028 -154.879 530.607 -154.498L529.727 -153.7L531.661 -151.566L530.63 -150.631ZM528.978 -154.527L529.778 -155.252C530.211 -155.644 530.45 -156.023 530.496 -156.389C530.549 -156.76 530.416 -157.121 530.099 -157.471C529.766 -157.838 529.428 -157.991 529.085 -157.928C528.743 -157.877 528.362 -157.661 527.941 -157.279L527.14 -156.554L528.978 -154.527ZM538.883 -162.775L538.206 -163.522L542.154 -167.1L542.831 -166.353L538.883 -162.775ZM551.938 -169.942L546.668 -175.757L548.473 -177.393C548.87 -177.753 549.266 -178.025 549.66 -178.21C550.055 -178.406 550.435 -178.48 550.801 -178.434C551.167 -178.388 551.511 -178.187 551.834 -177.831C552.081 -177.558 552.231 -177.225 552.286 -176.832C552.341 -176.45 552.236 -176.058 551.973 -175.658L552.005 -175.622C552.491 -175.933 552.948 -176.077 553.377 -176.056C553.807 -176.035 554.201 -175.826 554.561 -175.429C554.911 -175.043 555.106 -174.637 555.147 -174.21C555.188 -173.784 555.097 -173.355 554.872 -172.924C554.647 -172.505 554.321 -172.102 553.895 -171.715L551.938 -169.942ZM549.867 -174.3L550.552 -174.921C550.955 -175.286 551.181 -175.62 551.23 -175.924C551.279 -176.227 551.18 -176.515 550.933 -176.788C550.691 -177.055 550.43 -177.158 550.149 -177.098C549.864 -177.044 549.531 -176.846 549.152 -176.502L548.449 -175.865L549.867 -174.3ZM552.22 -171.704L553.038 -172.445C553.465 -172.832 553.721 -173.199 553.806 -173.546C553.892 -173.904 553.784 -174.249 553.483 -174.581C553.209 -174.883 552.901 -175.003 552.558 -174.941C552.215 -174.879 551.827 -174.651 551.395 -174.259L550.576 -173.518L552.22 -171.704ZM557.421 -174.911L552.151 -180.726L555.877 -184.103L556.666 -183.231L553.972 -180.79L555.318 -179.305L557.603 -181.376L558.393 -180.504L556.108 -178.433L557.663 -176.717L560.446 -179.239L561.236 -178.368L557.421 -174.911ZM562.904 -179.88L557.634 -185.695L558.656 -186.622L563.137 -181.678L565.867 -184.152L566.656 -183.28L562.904 -179.88ZM569.933 -186.055C569.482 -185.647 568.978 -185.406 568.419 -185.331C567.86 -185.257 567.279 -185.356 566.675 -185.629C566.077 -185.908 565.483 -186.373 564.892 -187.025C564.317 -187.66 563.923 -188.285 563.71 -188.901C563.497 -189.529 563.458 -190.115 563.592 -190.657C563.726 -191.2 564.019 -191.676 564.469 -192.084C564.92 -192.492 565.422 -192.737 565.975 -192.817C566.528 -192.897 567.104 -192.798 567.702 -192.52C568.301 -192.252 568.887 -191.801 569.462 -191.167C570.053 -190.515 570.455 -189.875 570.667 -189.247C570.886 -188.625 570.931 -188.039 570.802 -187.491C570.673 -186.942 570.383 -186.464 569.933 -186.055ZM569.119 -186.953C569.368 -187.179 569.509 -187.458 569.542 -187.791C569.576 -188.123 569.498 -188.495 569.308 -188.906C569.119 -189.318 568.818 -189.752 568.404 -190.208C568.001 -190.653 567.61 -190.984 567.229 -191.201C566.844 -191.423 566.487 -191.532 566.158 -191.525C565.824 -191.525 565.532 -191.411 565.283 -191.186C565.034 -190.96 564.893 -190.681 564.86 -190.349C564.821 -190.022 564.894 -189.656 565.078 -189.25C565.256 -188.851 565.547 -188.429 565.95 -187.984C566.363 -187.528 566.766 -187.185 567.157 -186.956C567.547 -186.728 567.91 -186.613 568.244 -186.614C568.578 -186.615 568.87 -186.728 569.119 -186.953ZM575.264 -190.887C574.814 -190.479 574.309 -190.237 573.751 -190.163C573.192 -190.088 572.611 -190.188 572.007 -190.461C571.409 -190.74 570.814 -191.205 570.223 -191.857C569.648 -192.491 569.254 -193.117 569.041 -193.733C568.829 -194.361 568.789 -194.946 568.924 -195.489C569.058 -196.032 569.35 -196.507 569.801 -196.916C570.251 -197.324 570.753 -197.568 571.307 -197.649C571.86 -197.729 572.436 -197.63 573.034 -197.351C573.632 -197.084 574.219 -196.633 574.794 -195.999C575.385 -195.347 575.786 -194.707 575.999 -194.079C576.218 -193.457 576.263 -192.871 576.134 -192.322C576.005 -191.774 575.715 -191.295 575.264 -190.887ZM574.451 -191.785C574.7 -192.011 574.841 -192.29 574.874 -192.622C574.907 -192.955 574.829 -193.327 574.64 -193.738C574.451 -194.15 574.149 -194.584 573.736 -195.04C573.333 -195.485 572.941 -195.815 572.561 -196.032C572.176 -196.255 571.818 -196.363 571.49 -196.357C571.155 -196.356 570.864 -196.243 570.615 -196.018C570.366 -195.792 570.225 -195.513 570.191 -195.18C570.153 -194.854 570.225 -194.488 570.409 -194.082C570.588 -193.683 570.879 -193.261 571.281 -192.816C571.695 -192.36 572.097 -192.017 572.488 -191.788C572.879 -191.559 573.242 -191.445 573.576 -191.446C573.91 -191.446 574.202 -191.559 574.451 -191.785ZM578.614 -194.117L573.344 -199.932L575.256 -201.665C575.683 -202.052 576.113 -202.339 576.547 -202.527C576.981 -202.716 577.411 -202.765 577.837 -202.676C578.269 -202.593 578.69 -202.326 579.098 -201.875C579.485 -201.448 579.706 -201.007 579.763 -200.551C579.826 -200.101 579.75 -199.654 579.536 -199.212C579.328 -198.774 579.013 -198.365 578.592 -197.984L577.712 -197.186L579.646 -195.052L578.614 -194.117ZM576.962 -198.013L577.763 -198.738C578.195 -199.13 578.435 -199.509 578.481 -199.875C578.533 -200.246 578.401 -200.607 578.084 -200.957C577.751 -201.324 577.413 -201.477 577.07 -201.414C576.728 -201.363 576.346 -201.147 575.925 -200.765L575.125 -200.04L576.962 -198.013ZM591.277 -205.398C590.868 -205.028 590.41 -204.747 589.902 -204.557C589.394 -204.367 588.872 -204.276 588.334 -204.286L588.302 -205.536C588.699 -205.539 589.093 -205.605 589.484 -205.733C589.87 -205.867 590.217 -206.074 590.525 -206.353C590.863 -206.659 591.062 -206.958 591.122 -207.25C591.176 -207.547 591.112 -207.797 590.929 -207.998C590.773 -208.17 590.608 -208.269 590.434 -208.294C590.254 -208.326 590.058 -208.31 589.846 -208.247C589.639 -208.189 589.403 -208.11 589.137 -208.01L588.032 -207.64C587.755 -207.54 587.46 -207.467 587.146 -207.42C586.838 -207.378 586.53 -207.402 586.223 -207.491C585.922 -207.585 585.642 -207.774 585.385 -208.059C585.105 -208.367 584.941 -208.72 584.893 -209.119C584.839 -209.524 584.899 -209.934 585.073 -210.351C585.247 -210.778 585.529 -211.169 585.92 -211.524C586.276 -211.846 586.676 -212.084 587.119 -212.238C587.564 -212.403 588.009 -212.483 588.456 -212.478L588.519 -211.337C588.179 -211.319 587.861 -211.253 587.566 -211.137C587.272 -211.033 586.977 -210.846 586.681 -210.577C586.408 -210.33 586.24 -210.07 586.175 -209.795C586.111 -209.521 586.178 -209.274 586.377 -209.055C586.511 -208.907 586.668 -208.828 586.849 -208.819C587.03 -208.81 587.227 -208.837 587.439 -208.9C587.658 -208.969 587.883 -209.049 588.114 -209.139L589.177 -209.503C589.512 -209.634 589.836 -209.717 590.149 -209.753C590.462 -209.788 590.764 -209.754 591.053 -209.649C591.337 -209.55 591.608 -209.358 591.866 -209.074C592.15 -208.759 592.325 -208.394 592.389 -207.977C592.454 -207.561 592.399 -207.127 592.224 -206.677C592.043 -206.233 591.728 -205.807 591.277 -205.398ZM596.591 -210.214C596.14 -209.806 595.636 -209.564 595.077 -209.49C594.518 -209.416 593.937 -209.515 593.333 -209.788C592.735 -210.067 592.141 -210.532 591.55 -211.184C590.975 -211.818 590.581 -212.444 590.368 -213.06C590.155 -213.688 590.116 -214.273 590.25 -214.816C590.385 -215.359 590.677 -215.835 591.128 -216.243C591.578 -216.651 592.08 -216.895 592.633 -216.976C593.187 -217.056 593.762 -216.957 594.36 -216.679C594.959 -216.411 595.545 -215.96 596.12 -215.326C596.711 -214.674 597.113 -214.034 597.326 -213.406C597.544 -212.784 597.589 -212.198 597.46 -211.65C597.331 -211.101 597.042 -210.622 596.591 -210.214ZM595.777 -211.112C596.026 -211.338 596.167 -211.617 596.201 -211.949C596.234 -212.282 596.156 -212.654 595.967 -213.065C595.777 -213.477 595.476 -213.911 595.062 -214.367C594.659 -214.812 594.268 -215.143 593.888 -215.359C593.502 -215.582 593.145 -215.691 592.816 -215.684C592.482 -215.683 592.19 -215.57 591.941 -215.345C591.692 -215.119 591.551 -214.84 591.518 -214.508C591.479 -214.181 591.552 -213.815 591.736 -213.409C591.914 -213.01 592.205 -212.588 592.608 -212.143C593.022 -211.687 593.424 -211.344 593.815 -211.115C594.206 -210.887 594.568 -210.772 594.902 -210.773C595.237 -210.774 595.528 -210.887 595.777 -211.112ZM600.216 -213.694L594.946 -219.509L598.663 -222.878L599.453 -222.006L596.768 -219.573L598.258 -217.928L600.544 -219.999L601.333 -219.127L599.048 -217.056L601.248 -214.629L600.216 -213.694ZM606.642 -219.517L602.153 -224.47L600.322 -222.81L599.54 -223.672L604.235 -227.927L605.017 -227.065L603.185 -225.405L607.673 -220.452L606.642 -219.517ZM610.711 -223.205L604.614 -228.27L605.716 -229.27L609.064 -226.166C609.221 -226.016 609.372 -225.873 609.518 -225.735C609.659 -225.604 609.8 -225.467 609.94 -225.324C610.08 -225.181 610.237 -225.02 610.409 -224.842L610.436 -224.866C610.299 -225.077 610.178 -225.27 610.073 -225.445C609.975 -225.625 609.876 -225.8 609.776 -225.969C609.672 -226.144 609.565 -226.328 609.455 -226.52L608.227 -228.84L609.001 -229.541L611.162 -228.067C611.349 -227.945 611.521 -227.826 611.68 -227.711C611.839 -227.595 612.003 -227.474 612.172 -227.347C612.336 -227.225 612.516 -227.086 612.712 -226.929L612.748 -226.961C612.593 -227.156 612.451 -227.33 612.323 -227.483C612.189 -227.643 612.061 -227.797 611.938 -227.944C611.815 -228.092 611.687 -228.251 611.554 -228.422L608.784 -232.05L609.824 -232.993L614.312 -226.468L613.147 -225.413L610.824 -227.064C610.616 -227.211 610.417 -227.359 610.226 -227.51C610.03 -227.667 609.839 -227.824 609.654 -227.98L609.628 -227.956C609.765 -227.757 609.902 -227.552 610.039 -227.341C610.177 -227.142 610.308 -226.931 610.433 -226.71L611.858 -224.244L610.711 -223.205ZM615.331 -227.392L611.946 -234.915L613.155 -236.011L620.311 -231.904L619.217 -230.913L615.532 -233.21C615.17 -233.443 614.794 -233.679 614.403 -233.919C614.019 -234.165 613.643 -234.413 613.276 -234.663L613.24 -234.631C613.448 -234.235 613.654 -233.834 613.861 -233.428C614.073 -233.027 614.275 -232.632 614.465 -232.243L616.38 -228.343L615.331 -227.392ZM615.016 -229.973L614.283 -230.782L617.013 -233.256L617.746 -232.447L615.016 -229.973ZM621.232 -232.739L615.962 -238.554L617.9 -240.311C618.303 -240.676 618.713 -240.951 619.13 -241.134C619.553 -241.323 619.974 -241.376 620.395 -241.293C620.81 -241.216 621.214 -240.961 621.606 -240.528C621.982 -240.113 622.197 -239.686 622.249 -239.248C622.301 -238.809 622.223 -238.377 622.015 -237.951C621.813 -237.53 621.51 -237.138 621.107 -236.772L620.2 -235.95L622.263 -233.674L621.232 -232.739ZM619.459 -236.768L620.259 -237.494C620.662 -237.859 620.892 -238.219 620.95 -238.573C621.013 -238.932 620.894 -239.278 620.593 -239.61C620.292 -239.942 619.976 -240.076 619.644 -240.013C619.313 -239.961 618.946 -239.753 618.543 -239.388L617.743 -238.662L619.459 -236.768ZM620.671 -236.879L620.862 -238.169L625.544 -236.647L624.38 -235.592L620.671 -236.879ZM626.732 -237.724L621.462 -243.539L625.188 -246.916L625.978 -246.044L623.283 -243.603L624.629 -242.118L626.914 -244.189L627.704 -243.317L625.419 -241.246L626.974 -239.53L629.757 -242.052L630.547 -241.181L626.732 -237.724Z" fill="#F9F9F9"/>
</svg>
