<svg width="756" height="330" viewBox="0 0 756 330" fill="none" xmlns="http://www.w3.org/2000/svg">
<path d="M-160.572 327.417C-161.003 327.647 -161.45 327.786 -161.914 327.835C-162.371 327.879 -162.825 327.827 -163.276 327.678C-163.721 327.526 -164.143 327.27 -164.543 326.913C-164.935 326.551 -165.285 326.085 -165.59 325.513C-165.993 324.758 -166.201 324.039 -166.212 323.356C-166.22 322.662 -166.06 322.045 -165.731 321.507C-165.399 320.957 -164.929 320.52 -164.322 320.196C-163.892 319.966 -163.46 319.849 -163.027 319.844C-162.594 319.84 -162.212 319.894 -161.88 320.006L-162.15 321.13C-162.413 321.044 -162.677 321.009 -162.942 321.023C-163.206 321.037 -163.476 321.118 -163.751 321.265C-164.132 321.469 -164.416 321.752 -164.603 322.115C-164.787 322.467 -164.86 322.873 -164.822 323.334C-164.785 323.795 -164.627 324.286 -164.347 324.808C-164.068 325.33 -163.746 325.739 -163.38 326.033C-163.014 326.327 -162.628 326.497 -162.223 326.544C-161.821 326.583 -161.422 326.497 -161.027 326.286C-160.738 326.131 -160.512 325.934 -160.351 325.693C-160.193 325.445 -160.072 325.163 -159.987 324.846L-158.908 325.235C-159.01 325.707 -159.197 326.129 -159.47 326.501C-159.746 326.867 -160.114 327.172 -160.572 327.417ZM-154.787 324.325C-155.168 324.529 -155.541 324.655 -155.904 324.705C-156.261 324.75 -156.606 324.716 -156.938 324.604C-157.263 324.487 -157.575 324.286 -157.872 324.001C-158.167 323.705 -158.44 323.32 -158.693 322.848L-160.978 318.572L-159.75 317.916L-157.414 322.287C-157.214 322.661 -157.004 322.943 -156.785 323.134C-156.561 323.314 -156.328 323.412 -156.084 323.426C-155.84 323.441 -155.598 323.385 -155.359 323.256C-155.105 323.121 -154.92 322.949 -154.803 322.742C-154.68 322.531 -154.632 322.283 -154.657 321.997C-154.68 321.701 -154.791 321.366 -154.991 320.992L-157.326 316.621L-156.152 315.993L-153.867 320.269C-153.614 320.741 -153.446 321.182 -153.364 321.592C-153.285 321.994 -153.291 322.365 -153.382 322.703C-153.466 323.039 -153.626 323.342 -153.862 323.613C-154.098 323.884 -154.406 324.122 -154.787 324.325ZM-151.007 322.142L-154.706 315.22L-153.351 314.496L-151.083 316.754L-150.243 317.638L-150.201 317.616L-150.48 316.431L-151.086 313.286L-149.732 312.562L-146.033 319.483L-147.112 320.06L-148.605 317.266C-148.703 317.083 -148.815 316.866 -148.94 316.615C-149.061 316.354 -149.185 316.08 -149.311 315.793C-149.437 315.507 -149.553 315.238 -149.66 314.987C-149.771 314.728 -149.865 314.511 -149.941 314.334L-149.973 314.351L-149.579 316.208L-149.17 318.806L-149.869 319.18L-151.791 317.39L-153.106 316.025L-153.137 316.042C-153.026 316.2 -152.893 316.397 -152.74 316.632C-152.591 316.861 -152.436 317.109 -152.274 317.377C-152.106 317.641 -151.951 317.898 -151.808 318.148C-151.662 318.387 -151.54 318.599 -151.442 318.782L-149.949 321.576L-151.007 322.142ZM-144.418 318.62L-148.117 311.699L-145.841 310.483C-145.333 310.211 -144.846 310.037 -144.379 309.96C-143.912 309.883 -143.483 309.939 -143.091 310.129C-142.693 310.315 -142.35 310.676 -142.063 311.212C-141.792 311.72 -141.684 312.202 -141.739 312.658C-141.788 313.111 -141.97 313.525 -142.286 313.903C-142.594 314.276 -142.999 314.597 -143.5 314.864L-144.547 315.424L-143.19 317.964L-144.418 318.62ZM-145.073 314.44L-144.121 313.931C-143.606 313.656 -143.281 313.346 -143.147 313.003C-143.007 312.655 -143.047 312.273 -143.27 311.857C-143.504 311.42 -143.794 311.189 -144.142 311.167C-144.487 311.133 -144.909 311.25 -145.41 311.518L-146.363 312.027L-145.073 314.44ZM-137.733 315.048L-141.432 308.126L-140.215 307.476L-137.07 313.36L-133.821 311.624L-133.267 312.661L-137.733 315.048ZM-131.567 311.753L-135.266 304.831L-130.831 302.461L-130.277 303.499L-133.484 305.212L-132.539 306.98L-129.819 305.526L-129.265 306.563L-131.985 308.017L-130.893 310.06L-127.581 308.289L-127.027 309.326L-131.567 311.753ZM-116.151 303.677C-116.581 303.907 -117.028 304.047 -117.492 304.095C-117.949 304.14 -118.403 304.088 -118.855 303.939C-119.299 303.786 -119.721 303.531 -120.121 303.173C-120.514 302.812 -120.863 302.345 -121.168 301.774C-121.572 301.019 -121.779 300.3 -121.79 299.616C-121.799 298.922 -121.638 298.306 -121.309 297.767C-120.977 297.218 -120.507 296.781 -119.901 296.457C-119.47 296.227 -119.039 296.109 -118.606 296.105C-118.173 296.1 -117.79 296.154 -117.458 296.267L-117.728 297.391C-117.991 297.305 -118.256 297.269 -118.52 297.283C-118.784 297.298 -119.054 297.378 -119.329 297.526C-119.71 297.729 -119.994 298.012 -120.181 298.375C-120.365 298.728 -120.438 299.134 -120.401 299.595C-120.363 300.055 -120.205 300.547 -119.926 301.069C-119.647 301.591 -119.324 301.999 -118.958 302.293C-118.592 302.588 -118.207 302.758 -117.801 302.804C-117.399 302.843 -117.001 302.757 -116.605 302.546C-116.316 302.392 -116.091 302.194 -115.929 301.953C-115.771 301.706 -115.65 301.423 -115.565 301.106L-114.487 301.496C-114.588 301.967 -114.775 302.389 -115.048 302.762C-115.324 303.127 -115.692 303.432 -116.151 303.677ZM-110.376 300.592C-110.912 300.878 -111.461 300.99 -112.021 300.926C-112.581 300.863 -113.12 300.625 -113.64 300.213C-114.152 299.798 -114.616 299.202 -115.03 298.426C-115.434 297.671 -115.664 296.968 -115.721 296.318C-115.775 295.658 -115.671 295.08 -115.408 294.587C-115.146 294.093 -114.747 293.702 -114.211 293.416C-113.675 293.129 -113.128 293.014 -112.572 293.071C-112.016 293.127 -111.482 293.363 -110.969 293.779C-110.454 294.184 -109.994 294.763 -109.591 295.518C-109.176 296.295 -108.942 297.013 -108.888 297.674C-108.827 298.33 -108.926 298.909 -109.184 299.41C-109.443 299.911 -109.84 300.305 -110.376 300.592ZM-110.947 299.523C-110.651 299.364 -110.446 299.128 -110.333 298.813C-110.22 298.499 -110.205 298.119 -110.289 297.674C-110.373 297.229 -110.56 296.735 -110.85 296.191C-111.133 295.662 -111.432 295.246 -111.748 294.943C-112.068 294.634 -112.388 294.442 -112.709 294.368C-113.033 294.288 -113.343 294.326 -113.64 294.485C-113.936 294.643 -114.141 294.88 -114.254 295.194C-114.371 295.501 -114.389 295.874 -114.309 296.312C-114.233 296.743 -114.054 297.223 -113.771 297.752C-113.481 298.296 -113.174 298.726 -112.85 299.043C-112.527 299.36 -112.203 299.558 -111.878 299.639C-111.554 299.72 -111.244 299.681 -110.947 299.523ZM-106.49 298.351L-110.189 291.43L-108.898 290.74L-104.991 293.645L-103.575 294.793L-103.543 294.776C-103.753 294.435 -103.994 294.069 -104.265 293.679C-104.53 293.286 -104.766 292.895 -104.974 292.507L-106.58 289.501L-105.405 288.873L-101.706 295.795L-102.997 296.485L-106.91 293.569L-108.32 292.431L-108.352 292.448C-108.135 292.804 -107.896 293.175 -107.635 293.562C-107.37 293.937 -107.136 294.316 -106.933 294.697L-105.315 297.724L-106.49 298.351ZM-93.3112 291.309L-97.0102 284.387L-95.7931 283.736L-92.6484 289.621L-89.3992 287.885L-88.8449 288.922L-93.3112 291.309ZM-88.0236 288.483L-89.4788 280.362L-88.0395 279.593L-82.0968 285.315L-83.3986 286.011L-86.4146 282.888C-86.7095 282.574 -87.017 282.253 -87.3373 281.925C-87.6505 281.594 -87.9548 281.262 -88.2501 280.93L-88.2925 280.953C-88.1876 281.386 -88.0844 281.826 -87.9829 282.27C-87.8743 282.711 -87.7749 283.143 -87.6846 283.567L-86.7747 287.815L-88.0236 288.483ZM-87.7017 285.902L-88.2164 284.939L-84.9673 283.203L-84.4526 284.166L-87.7017 285.902ZM-74.2733 281.134L-77.9723 274.213L-76.7552 273.562L-73.6105 279.447L-70.3613 277.71L-69.8071 278.748L-74.2733 281.134ZM-68.1072 277.839L-71.8062 270.918L-67.3717 268.548L-66.8175 269.585L-70.0243 271.299L-69.0797 273.066L-66.3598 271.613L-65.8055 272.65L-68.5254 274.103L-67.4338 276.146L-64.1212 274.376L-63.5669 275.413L-68.1072 277.839ZM-60.2902 273.662L-61.5741 271.259L-66.2646 267.956L-64.9628 267.26L-63.089 268.654C-62.8295 268.851 -62.5736 269.05 -62.3212 269.25C-62.0688 269.451 -61.8036 269.659 -61.5258 269.873L-61.4835 269.85C-61.5144 269.504 -61.5396 269.168 -61.5592 268.843C-61.5717 268.514 -61.5896 268.184 -61.6129 267.851L-61.756 265.547L-60.486 264.868L-60.3464 270.603L-59.0625 273.006L-60.2902 273.662ZM-49.2704 267.773L-52.9694 260.851L-50.6622 259.618C-50.1824 259.362 -49.7181 259.195 -49.2692 259.119C-48.8133 259.038 -48.3914 259.089 -48.0035 259.272C-47.6193 259.448 -47.2896 259.793 -47.0143 260.308C-46.7504 260.802 -46.6465 261.268 -46.7026 261.706C-46.7587 262.144 -46.9393 262.545 -47.2444 262.907C-47.5425 263.266 -47.9314 263.574 -48.4112 263.83L-49.4907 264.407L-48.0428 267.117L-49.2704 267.773ZM-50.011 263.434L-49.0585 262.924C-48.5787 262.668 -48.2681 262.375 -48.1268 262.046C-47.9783 261.712 -48.0097 261.348 -48.2209 260.953C-48.432 260.558 -48.7061 260.351 -49.043 260.331C-49.3767 260.301 -49.7834 260.414 -50.2632 260.67L-51.2157 261.179L-50.011 263.434ZM-48.8087 263.621L-48.31 262.416L-44.1374 265.03L-45.5239 265.77L-48.8087 263.621ZM-42.7234 264.274L-46.4224 257.352L-41.9879 254.982L-41.4336 256.02L-44.6404 257.733L-43.6959 259.501L-40.9759 258.047L-40.4216 259.084L-43.1416 260.538L-42.05 262.581L-38.7374 260.81L-38.1831 261.847L-42.7234 264.274ZM-36.5362 260.967L-40.2352 254.046L-37.9597 252.83C-37.4517 252.558 -36.9643 252.384 -36.4976 252.307C-36.0308 252.23 -35.6016 252.286 -35.2099 252.476C-34.8111 252.662 -34.4685 253.023 -34.1819 253.559C-33.9104 254.067 -33.8025 254.549 -33.8581 255.005C-33.9067 255.458 -34.0887 255.872 -34.4041 256.25C-34.7125 256.623 -35.1172 256.944 -35.6182 257.211L-36.6659 257.771L-35.3085 260.311L-36.5362 260.967ZM-37.1919 256.787L-36.2394 256.278C-35.7243 256.003 -35.3999 255.693 -35.2661 255.35C-35.1252 255.002 -35.166 254.62 -35.3884 254.204C-35.6222 253.767 -35.913 253.536 -36.2608 253.514C-36.6053 253.48 -37.028 253.597 -37.529 253.865L-38.4815 254.374L-37.1919 256.787ZM-24.0877 254.315L-24.4666 253.606C-24.0853 252.622 -23.7705 251.76 -23.5222 251.019C-23.2668 250.275 -23.1088 249.637 -23.048 249.106C-22.984 248.564 -23.0444 248.12 -23.2292 247.774C-23.4215 247.414 -23.6816 247.19 -24.0097 247.103C-24.3416 247.008 -24.7192 247.074 -25.1425 247.3C-25.4318 247.454 -25.6603 247.672 -25.8281 247.952C-25.9958 248.232 -26.1274 248.529 -26.2226 248.843L-27.2514 248.522C-27.104 248.017 -26.8976 247.58 -26.632 247.211C-26.3702 246.836 -25.9923 246.516 -25.4984 246.252C-25.0328 246.003 -24.5853 245.873 -24.1562 245.861C-23.72 245.846 -23.3236 245.942 -22.9672 246.151C-22.6108 246.36 -22.3214 246.672 -22.0989 247.088C-21.8878 247.483 -21.7944 247.955 -21.8189 248.503C-21.8472 249.045 -21.9579 249.644 -22.1513 250.3C-22.3376 250.953 -22.5654 251.655 -22.8349 252.407C-22.6487 252.28 -22.45 252.151 -22.2388 252.02C-22.0276 251.889 -21.8303 251.775 -21.6468 251.677L-19.7418 250.659L-19.1875 251.696L-24.0877 254.315ZM-15.1867 249.721C-15.6947 249.993 -16.2092 250.091 -16.7302 250.015C-17.2512 249.94 -17.7536 249.696 -18.2372 249.283C-18.7208 248.871 -19.1644 248.287 -19.5678 247.532C-20.1749 246.396 -20.4092 245.414 -20.2706 244.587C-20.132 243.76 -19.6816 243.143 -18.9196 242.736C-18.1506 242.325 -17.3873 242.294 -16.6298 242.642C-15.8653 242.986 -15.1795 243.726 -14.5724 244.862C-14.169 245.617 -13.93 246.31 -13.8556 246.942C-13.7742 247.569 -13.8469 248.121 -14.0738 248.596C-14.3007 249.071 -14.6717 249.446 -15.1867 249.721ZM-15.6958 248.769C-15.4276 248.625 -15.233 248.413 -15.1118 248.13C-14.9944 247.841 -14.9757 247.477 -15.0556 247.039C-15.1392 246.594 -15.3451 246.064 -15.6731 245.45C-16.0012 244.836 -16.3232 244.378 -16.6392 244.075C-16.9552 243.773 -17.2624 243.597 -17.5608 243.547C-17.8592 243.498 -18.1425 243.545 -18.4106 243.689C-18.6787 243.832 -18.8752 244.041 -19.0002 244.317C-19.1251 244.592 -19.1495 244.945 -19.0734 245.376C-18.9973 245.807 -18.7952 246.33 -18.4672 246.944C-18.1391 247.557 -17.8133 248.023 -17.4898 248.34C-17.17 248.649 -16.8571 248.836 -16.5512 248.899C-16.249 248.956 -15.9639 248.912 -15.6958 248.769ZM-16.6912 246.906C-16.8888 247.012 -17.0974 247.037 -17.3173 246.982C-17.53 246.923 -17.6986 246.778 -17.823 246.545C-17.9475 246.312 -17.9749 246.091 -17.9055 245.881C-17.8289 245.668 -17.6919 245.509 -17.4943 245.403C-17.2897 245.294 -17.081 245.268 -16.8683 245.327C-16.6555 245.386 -16.4869 245.531 -16.3625 245.764C-16.2381 245.997 -16.2106 246.218 -16.2801 246.428C-16.3495 246.637 -16.4866 246.797 -16.6912 246.906ZM-8.84075 246.33C-9.13709 246.488 -9.44224 246.52 -9.75621 246.425C-10.0631 246.325 -10.2976 246.124 -10.4598 245.821C-10.6257 245.51 -10.6626 245.204 -10.5707 244.9C-10.4754 244.587 -10.2796 244.35 -9.98325 244.192C-9.67986 244.03 -9.37471 243.998 -9.0678 244.097C-8.76467 244.189 -8.53015 244.391 -8.36424 244.701C-8.2021 245.004 -8.16514 245.311 -8.25335 245.621C-8.34156 245.932 -8.53736 246.168 -8.84075 246.33ZM-2.90755 243.159C-3.35205 243.397 -3.78324 243.532 -4.20109 243.565C-4.61566 243.587 -4.99404 243.558 -5.33622 243.477L-5.07596 242.386C-4.83827 242.44 -4.58367 242.458 -4.31215 242.44C-4.03358 242.418 -3.77435 242.343 -3.53446 242.215C-3.20284 242.038 -2.94822 241.793 -2.7706 241.48C-2.58593 241.164 -2.5145 240.763 -2.55632 240.277C-2.59108 239.788 -2.78945 239.205 -3.15143 238.527C-3.44554 237.977 -3.752 237.565 -4.07082 237.291C-4.38636 237.006 -4.69849 236.846 -5.00723 236.811C-5.31973 236.77 -5.62415 236.828 -5.92049 236.987C-6.13922 237.103 -6.31744 237.262 -6.45515 237.463C-6.58581 237.66 -6.65668 237.883 -6.66776 238.134C-6.68262 238.378 -6.61652 238.638 -6.46946 238.913C-6.25454 239.315 -5.98657 239.562 -5.66555 239.653C-5.34125 239.734 -4.98859 239.672 -4.60758 239.469C-4.36769 239.341 -4.15115 239.143 -3.95796 238.877C-3.75772 238.606 -3.61519 238.254 -3.53038 237.818L-3.01933 238.647C-3.14088 239.048 -3.32246 239.412 -3.56406 239.741C-3.80567 240.07 -4.07817 240.315 -4.38156 240.477C-4.79079 240.696 -5.19375 240.816 -5.59044 240.838C-5.98384 240.848 -6.35333 240.751 -6.69892 240.546C-7.04122 240.329 -7.33868 239.985 -7.59131 239.512C-7.82886 239.068 -7.93041 238.623 -7.89596 238.178C-7.85446 237.73 -7.70444 237.323 -7.44593 236.958C-7.18412 236.582 -6.84861 236.285 -6.43938 236.067C-6.07954 235.874 -5.70505 235.76 -5.3159 235.725C-4.93053 235.682 -4.54272 235.729 -4.15249 235.865C-3.76226 236.001 -3.38535 236.239 -3.02177 236.58C-2.66196 236.914 -2.33123 237.363 -2.02958 237.928C-1.67891 238.584 -1.4584 239.192 -1.36805 239.751C-1.27442 240.3 -1.28247 240.794 -1.39222 241.234C-1.50197 241.673 -1.692 242.056 -1.96232 242.382C-2.22558 242.704 -2.54065 242.963 -2.90755 243.159ZM1.29618 240.749L0.917231 240.04C1.29852 239.056 1.61333 238.194 1.86165 237.454C2.11703 236.71 2.27508 236.072 2.33581 235.54C2.39983 234.998 2.33945 234.554 2.15469 234.209C1.96239 233.849 1.7022 233.625 1.37413 233.537C1.04229 233.442 0.664694 233.508 0.241354 233.734C-0.0479284 233.889 -0.276452 234.106 -0.444217 234.387C-0.611982 234.667 -0.743498 234.964 -0.838764 235.278L-1.8675 234.957C-1.72016 234.452 -1.51371 234.015 -1.24813 233.646C-0.98633 233.27 -0.60848 232.95 -0.114584 232.686C0.35109 232.438 0.79851 232.307 1.22768 232.296C1.6639 232.28 2.06022 232.377 2.41663 232.586C2.77304 232.794 3.06248 233.107 3.28494 233.523C3.4961 233.918 3.58943 234.39 3.56495 234.938C3.5367 235.479 3.42591 236.078 3.23258 236.735C3.0463 237.388 2.81842 238.09 2.54893 238.842C2.73518 238.715 2.93389 238.586 3.14508 238.455C3.35626 238.324 3.55358 238.21 3.73703 238.111L5.64205 237.093L6.19634 238.131L1.29618 240.749ZM10.1971 236.156C9.68913 236.427 9.17462 236.525 8.65362 236.45C8.13261 236.375 7.63029 236.131 7.14665 235.718C6.66301 235.305 6.21946 234.721 5.816 233.966C5.20893 232.83 4.9747 231.849 5.1133 231.022C5.2519 230.195 5.7022 229.578 6.46422 229.171C7.23328 228.76 7.99655 228.728 8.75402 229.076C9.51854 229.421 10.2043 230.161 10.8114 231.297C11.2149 232.052 11.4538 232.745 11.5282 233.376C11.6097 234.004 11.537 234.555 11.3101 235.03C11.0832 235.505 10.7122 235.881 10.1971 236.156ZM9.6881 235.203C9.95622 235.06 10.1509 234.847 10.272 234.565C10.3894 234.275 10.4082 233.911 10.3283 233.473C10.2446 233.028 10.0388 232.499 9.71073 231.885C9.38268 231.271 9.06065 230.813 8.74463 230.51C8.42862 230.207 8.12141 230.031 7.82301 229.982C7.52462 229.933 7.24137 229.98 6.97325 230.123C6.70514 230.267 6.5086 230.476 6.38366 230.751C6.25871 231.027 6.2343 231.38 6.31043 231.811C6.38656 232.242 6.58864 232.764 6.91669 233.378C7.24473 233.992 7.57053 234.457 7.89409 234.774C8.21388 235.084 8.52674 235.271 8.83268 235.334C9.13484 235.39 9.41998 235.347 9.6881 235.203ZM8.69266 233.341C8.4951 233.446 8.28641 233.472 8.0666 233.417C7.85385 233.358 7.68525 233.212 7.56082 232.979C7.43639 232.747 7.40891 232.525 7.47838 232.316C7.55491 232.103 7.69195 231.943 7.88951 231.838C8.09413 231.728 8.30281 231.703 8.51557 231.762C8.72832 231.82 8.89691 231.966 9.02134 232.199C9.14578 232.432 9.17325 232.653 9.10378 232.862C9.03431 233.072 8.89727 233.231 8.69266 233.341ZM18.8427 227.454L18.3676 226.565L23.0667 224.053L23.5418 224.942L18.8427 227.454ZM36.1525 222.285C35.7221 222.515 35.2749 222.654 34.811 222.703C34.3541 222.747 33.8999 222.695 33.4485 222.546C33.0041 222.394 32.582 222.139 32.1822 221.781C31.7894 221.419 31.4403 220.953 31.1349 220.381C30.7314 219.626 30.524 218.907 30.5126 218.224C30.5045 217.53 30.6649 216.913 30.9939 216.375C31.3261 215.825 31.7957 215.388 32.4024 215.064C32.8328 214.834 33.2645 214.717 33.6974 214.712C34.1304 214.708 34.513 214.762 34.8453 214.874L34.5752 215.998C34.3116 215.912 34.0476 215.877 33.7831 215.891C33.5187 215.905 33.2489 215.986 32.9737 216.133C32.5927 216.337 32.3087 216.62 32.1217 216.983C31.938 217.335 31.8649 217.742 31.9025 218.202C31.94 218.663 32.0983 219.154 32.3774 219.676C32.6564 220.199 32.9789 220.607 33.3447 220.901C33.7106 221.195 34.0964 221.366 34.5021 221.412C34.904 221.451 35.3025 221.365 35.6977 221.154C35.9869 220.999 36.2124 220.802 36.3741 220.561C36.532 220.313 36.6532 220.031 36.7376 219.714L37.8165 220.103C37.7148 220.575 37.5277 220.997 37.255 221.369C36.9786 221.735 36.6111 222.04 36.1525 222.285ZM41.9375 219.193C41.5565 219.397 41.1842 219.523 40.8204 219.573C40.4638 219.618 40.1193 219.585 39.7869 219.472C39.4617 219.355 39.1502 219.155 38.8526 218.869C38.5582 218.573 38.2847 218.188 38.0321 217.716L35.7471 213.44L36.9747 212.784L39.3106 217.155C39.5105 217.529 39.7204 217.811 39.9403 218.002C40.1635 218.182 40.397 218.28 40.6408 218.294C40.8846 218.309 41.1264 218.253 41.3663 218.124C41.6203 217.989 41.8053 217.817 41.9214 217.61C42.0445 217.399 42.0932 217.151 42.0676 216.865C42.0452 216.569 41.9341 216.234 41.7343 215.86L39.3984 211.489L40.5731 210.861L42.8581 215.137C43.1108 215.609 43.2784 216.05 43.3611 216.46C43.44 216.862 43.434 217.233 43.343 217.572C43.259 217.907 43.0991 218.21 42.8631 218.481C42.627 218.752 42.3185 218.99 41.9375 219.193ZM45.7179 217.01L42.0189 210.088L43.3736 209.364L45.6414 211.622L46.4814 212.506L46.5238 212.484L46.2447 211.3L45.6385 208.154L46.9932 207.43L50.6922 214.352L49.6126 214.928L48.1195 212.134C48.0214 211.951 47.91 211.734 47.7851 211.483C47.6634 211.222 47.5397 210.948 47.4138 210.661C47.2879 210.375 47.1714 210.106 47.0644 209.855C46.9536 209.596 46.86 209.379 46.7836 209.202L46.7519 209.219L47.1459 211.076L47.5547 213.674L46.8561 214.048L44.9339 212.258L43.6191 210.893L43.5874 210.91C43.6991 211.068 43.8315 211.265 43.9846 211.5C44.134 211.729 44.2892 211.977 44.4504 212.245C44.6186 212.509 44.7741 212.766 44.9169 213.016C45.063 213.255 45.1851 213.467 45.2831 213.65L46.7763 216.444L45.7179 217.01ZM52.3073 213.488L48.6083 206.567L50.8838 205.351C51.3918 205.079 51.8792 204.905 52.3459 204.828C52.8127 204.751 53.2419 204.807 53.6336 204.997C54.0323 205.183 54.375 205.544 54.6616 206.08C54.933 206.588 55.041 207.07 54.9854 207.526C54.9368 207.979 54.7548 208.393 54.4393 208.771C54.131 209.144 53.7263 209.465 53.2253 209.732L52.1776 210.292L53.535 212.832L52.3073 213.488ZM51.6516 209.308L52.6041 208.799C53.1191 208.524 53.4436 208.214 53.5774 207.871C53.7183 207.523 53.6775 207.141 53.455 206.725C53.2213 206.288 52.9305 206.058 52.5827 206.035C52.2382 206.001 51.8155 206.118 51.3145 206.386L50.362 206.895L51.6516 209.308ZM58.9919 209.916L55.293 202.994L56.5101 202.344L59.6548 208.228L62.9039 206.492L63.4582 207.529L58.9919 209.916ZM65.158 206.621L61.459 199.699L65.8935 197.329L66.4478 198.367L63.241 200.08L64.1855 201.848L66.9055 200.394L67.4597 201.431L64.7398 202.885L65.8314 204.928L69.144 203.157L69.6983 204.194L65.158 206.621ZM80.5742 198.546C80.1438 198.776 79.6967 198.915 79.2327 198.963C78.7758 199.008 78.3216 198.956 77.8702 198.807C77.4259 198.654 77.0038 198.399 76.6039 198.041C76.2112 197.68 75.8621 197.213 75.5566 196.642C75.1532 195.887 74.9458 195.168 74.9344 194.484C74.9262 193.79 75.0867 193.174 75.4156 192.635C75.7479 192.086 76.2174 191.649 76.8242 191.325C77.2546 191.095 77.6862 190.977 78.1192 190.973C78.5521 190.968 78.9348 191.022 79.2671 191.135L78.997 192.259C78.7334 192.173 78.4693 192.137 78.2049 192.151C77.9404 192.166 77.6706 192.247 77.3954 192.394C77.0144 192.597 76.7304 192.881 76.5434 193.243C76.3597 193.596 76.2867 194.002 76.3242 194.463C76.3618 194.923 76.5201 195.415 76.7991 195.937C77.0781 196.459 77.4006 196.867 77.7665 197.162C78.1324 197.456 78.5182 197.626 78.9239 197.672C79.3258 197.712 79.7243 197.626 80.1194 197.414C80.4087 197.26 80.6342 197.062 80.7958 196.822C80.9538 196.574 81.0749 196.291 81.1594 195.974L82.2383 196.364C82.1366 196.835 81.9494 197.257 81.6768 197.63C81.4004 197.995 81.0329 198.3 80.5742 198.546ZM86.3487 195.46C85.8125 195.746 85.2643 195.858 84.7043 195.794C84.1442 195.731 83.6045 195.493 83.0851 195.081C82.5727 194.666 82.1092 194.07 81.6944 193.294C81.2909 192.539 81.0607 191.836 81.0037 191.186C80.95 190.526 81.0542 189.948 81.3164 189.455C81.5785 188.961 81.9777 188.571 82.514 188.284C83.0502 187.997 83.5965 187.882 84.1527 187.939C84.709 187.995 85.2433 188.231 85.7557 188.647C86.2713 189.052 86.7309 189.631 87.1343 190.386C87.5491 191.163 87.7833 191.881 87.8371 192.542C87.8979 193.199 87.799 193.777 87.5406 194.278C87.2822 194.779 86.8849 195.173 86.3487 195.46ZM85.7774 194.391C86.0738 194.232 86.2785 193.996 86.3917 193.681C86.5048 193.367 86.5196 192.987 86.4359 192.542C86.3522 192.097 86.1652 191.603 85.8749 191.06C85.5921 190.53 85.2927 190.114 84.9767 189.812C84.6569 189.502 84.3367 189.31 84.0162 189.236C83.6919 189.156 83.3816 189.195 83.0852 189.353C82.7889 189.511 82.5841 189.748 82.471 190.062C82.3541 190.37 82.3356 190.742 82.4155 191.18C82.4916 191.611 82.671 192.091 82.9538 192.621C83.2442 193.164 83.5511 193.594 83.8747 193.911C84.1982 194.228 84.5222 194.427 84.8465 194.507C85.1708 194.588 85.4811 194.549 85.7774 194.391ZM90.2349 193.219L86.5359 186.298L87.8271 185.608L91.7338 188.514L93.15 189.661L93.1818 189.645C92.9721 189.303 92.7313 188.937 92.4595 188.547C92.1947 188.154 91.9586 187.763 91.7512 187.375L90.1449 184.369L91.3197 183.741L95.0187 190.663L93.7275 191.353L89.8151 188.437L88.4045 187.299L88.3728 187.316C88.59 187.672 88.8292 188.043 89.0902 188.43C89.3545 188.805 89.5885 189.184 89.7921 189.565L91.4097 192.592L90.2349 193.219ZM103.414 186.177L99.7147 179.255L100.932 178.605L104.076 184.489L107.326 182.753L107.88 183.79L103.414 186.177ZM108.701 183.351L107.246 175.23L108.685 174.461L114.628 180.184L113.326 180.879L110.31 177.756C110.015 177.442 109.708 177.121 109.388 176.793C109.074 176.462 108.77 176.13 108.475 175.798L108.432 175.821C108.537 176.254 108.64 176.694 108.742 177.138C108.851 177.579 108.95 178.011 109.04 178.435L109.95 182.683L108.701 183.351ZM109.023 180.771L108.508 179.807L111.758 178.071L112.272 179.034L109.023 180.771ZM122.452 176.003L118.753 169.081L119.97 168.43L123.114 174.315L126.364 172.579L126.918 173.616L122.452 176.003ZM128.618 172.707L124.919 165.786L129.353 163.416L129.907 164.453L126.701 166.167L127.645 167.934L130.365 166.481L130.919 167.518L128.199 168.971L129.291 171.014L132.604 169.244L133.158 170.281L128.618 172.707ZM136.435 168.53L135.151 166.127L130.46 162.824L131.762 162.129L133.636 163.522C133.895 163.719 134.151 163.918 134.404 164.118C134.656 164.319 134.921 164.527 135.199 164.741L135.241 164.718C135.21 164.372 135.185 164.036 135.166 163.711C135.153 163.382 135.135 163.052 135.112 162.719L134.969 160.415L136.239 159.736L136.378 165.471L137.662 167.874L136.435 168.53ZM147.454 162.641L143.755 155.719L146.063 154.486C146.542 154.23 147.007 154.063 147.456 153.987C147.912 153.906 148.333 153.957 148.721 154.14C149.106 154.316 149.435 154.661 149.711 155.176C149.974 155.67 150.078 156.136 150.022 156.574C149.966 157.013 149.786 157.413 149.48 157.776C149.182 158.134 148.793 158.442 148.314 158.698L147.234 159.275L148.682 161.985L147.454 162.641ZM146.714 158.302L147.666 157.793C148.146 157.536 148.457 157.243 148.598 156.914C148.747 156.58 148.715 156.216 148.504 155.821C148.293 155.426 148.019 155.219 147.682 155.199C147.348 155.169 146.941 155.282 146.462 155.538L145.509 156.047L146.714 158.302ZM147.916 158.489L148.415 157.284L152.587 159.898L151.201 160.639L147.916 158.489ZM154.001 159.142L150.302 152.22L154.737 149.85L155.291 150.888L152.084 152.601L153.029 154.369L155.749 152.915L156.303 153.952L153.583 155.406L154.675 157.449L157.988 155.678L158.542 156.716L154.001 159.142ZM160.189 155.835L156.49 148.914L158.765 147.698C159.273 147.426 159.761 147.252 160.227 147.175C160.694 147.098 161.123 147.154 161.515 147.344C161.914 147.53 162.256 147.891 162.543 148.427C162.814 148.935 162.922 149.417 162.867 149.873C162.818 150.326 162.636 150.74 162.321 151.118C162.012 151.491 161.608 151.812 161.107 152.079L160.059 152.639L161.416 155.179L160.189 155.835ZM159.533 151.655L160.485 151.146C161.001 150.871 161.325 150.561 161.459 150.218C161.6 149.87 161.559 149.488 161.336 149.072C161.103 148.635 160.812 148.405 160.464 148.382C160.12 148.348 159.697 148.465 159.196 148.733L158.243 149.242L159.533 151.655ZM172.637 149.183L172.258 148.474C172.64 147.49 172.954 146.628 173.203 145.887C173.458 145.143 173.616 144.505 173.677 143.974C173.741 143.432 173.68 142.988 173.496 142.642C173.303 142.282 173.043 142.058 172.715 141.971C172.383 141.876 172.006 141.942 171.582 142.168C171.293 142.323 171.065 142.54 170.897 142.82C170.729 143.1 170.598 143.397 170.502 143.711L169.473 143.39C169.621 142.885 169.827 142.448 170.093 142.08C170.355 141.704 170.733 141.384 171.226 141.12C171.692 140.871 172.14 140.741 172.569 140.729C173.005 140.714 173.401 140.81 173.758 141.019C174.114 141.228 174.403 141.54 174.626 141.956C174.837 142.352 174.93 142.823 174.906 143.371C174.878 143.913 174.767 144.512 174.574 145.168C174.387 145.821 174.159 146.523 173.89 147.275C174.076 147.148 174.275 147.02 174.486 146.889C174.697 146.758 174.895 146.643 175.078 146.545L176.983 145.527L177.537 146.564L172.637 149.183ZM181.538 144.589C181.03 144.861 180.516 144.959 179.995 144.884C179.474 144.808 178.971 144.564 178.488 144.151C178.004 143.739 177.56 143.155 177.157 142.4C176.55 141.264 176.316 140.282 176.454 139.455C176.593 138.628 177.043 138.011 177.805 137.604C178.574 137.193 179.338 137.162 180.095 137.51C180.86 137.854 181.545 138.594 182.152 139.73C182.556 140.485 182.795 141.178 182.869 141.81C182.951 142.438 182.878 142.989 182.651 143.464C182.424 143.939 182.053 144.314 181.538 144.589ZM181.029 143.637C181.297 143.493 181.492 143.281 181.613 142.998C181.73 142.709 181.749 142.345 181.669 141.907C181.586 141.462 181.38 140.932 181.052 140.318C180.724 139.705 180.402 139.246 180.086 138.943C179.77 138.641 179.462 138.465 179.164 138.416C178.866 138.366 178.582 138.413 178.314 138.557C178.046 138.7 177.85 138.909 177.725 139.185C177.6 139.46 177.575 139.813 177.651 140.244C177.728 140.675 177.93 141.198 178.258 141.812C178.586 142.425 178.912 142.891 179.235 143.208C179.555 143.518 179.868 143.704 180.174 143.767C180.476 143.824 180.761 143.78 181.029 143.637ZM180.034 141.774C179.836 141.88 179.627 141.905 179.408 141.85C179.195 141.791 179.026 141.646 178.902 141.413C178.777 141.18 178.75 140.959 178.819 140.749C178.896 140.536 179.033 140.377 179.231 140.271C179.435 140.162 179.644 140.137 179.857 140.195C180.069 140.254 180.238 140.4 180.362 140.632C180.487 140.865 180.514 141.086 180.445 141.296C180.375 141.505 180.238 141.665 180.034 141.774ZM187.884 141.198C187.588 141.356 187.283 141.388 186.969 141.293C186.662 141.194 186.427 140.992 186.265 140.689C186.099 140.378 186.062 140.072 186.154 139.769C186.249 139.455 186.445 139.218 186.742 139.06C187.045 138.898 187.35 138.866 187.657 138.965C187.96 139.057 188.195 139.259 188.361 139.569C188.523 139.872 188.56 140.179 188.472 140.489C188.383 140.8 188.187 141.036 187.884 141.198ZM193.817 138.027C193.373 138.265 192.942 138.4 192.524 138.433C192.109 138.455 191.731 138.426 191.389 138.345L191.649 137.254C191.887 137.308 192.141 137.326 192.413 137.308C192.691 137.286 192.951 137.211 193.19 137.083C193.522 136.906 193.777 136.661 193.954 136.348C194.139 136.032 194.21 135.631 194.169 135.145C194.134 134.656 193.935 134.073 193.573 133.395C193.279 132.845 192.973 132.433 192.654 132.159C192.338 131.874 192.026 131.714 191.718 131.68C191.405 131.638 191.101 131.696 190.804 131.855C190.586 131.972 190.407 132.13 190.27 132.331C190.139 132.528 190.068 132.751 190.057 133.002C190.042 133.246 190.108 133.506 190.255 133.781C190.47 134.183 190.738 134.43 191.059 134.521C191.384 134.602 191.736 134.54 192.117 134.337C192.357 134.209 192.574 134.011 192.767 133.745C192.967 133.474 193.11 133.122 193.194 132.686L193.706 133.515C193.584 133.916 193.402 134.28 193.161 134.609C192.919 134.938 192.647 135.183 192.343 135.345C191.934 135.564 191.531 135.684 191.134 135.706C190.741 135.716 190.372 135.619 190.026 135.414C189.684 135.197 189.386 134.853 189.134 134.38C188.896 133.936 188.794 133.491 188.829 133.046C188.87 132.598 189.02 132.191 189.279 131.826C189.541 131.451 189.876 131.153 190.285 130.935C190.645 130.742 191.02 130.628 191.409 130.593C191.794 130.55 192.182 130.597 192.572 130.733C192.963 130.869 193.34 131.108 193.703 131.448C194.063 131.782 194.394 132.231 194.695 132.796C195.046 133.452 195.266 134.06 195.357 134.619C195.45 135.168 195.442 135.662 195.333 136.102C195.223 136.541 195.033 136.924 194.763 137.25C194.499 137.572 194.184 137.831 193.817 138.027ZM198.021 135.617L197.642 134.908C198.023 133.924 198.338 133.062 198.587 132.322C198.842 131.578 199 130.94 199.061 130.409C199.125 129.866 199.064 129.422 198.88 129.077C198.687 128.717 198.427 128.493 198.099 128.405C197.767 128.311 197.39 128.376 196.966 128.602C196.677 128.757 196.448 128.974 196.281 129.255C196.113 129.535 195.981 129.832 195.886 130.146L194.857 129.825C195.005 129.32 195.211 128.883 195.477 128.514C195.739 128.138 196.116 127.819 196.61 127.555C197.076 127.306 197.523 127.175 197.953 127.164C198.389 127.148 198.785 127.245 199.141 127.454C199.498 127.662 199.787 127.975 200.01 128.391C200.221 128.786 200.314 129.258 200.29 129.806C200.262 130.347 200.151 130.946 199.957 131.603C199.771 132.256 199.543 132.958 199.274 133.71C199.46 133.583 199.659 133.454 199.87 133.323C200.081 133.192 200.278 133.078 200.462 132.98L202.367 131.961L202.921 132.999L198.021 135.617ZM206.922 131.024C206.414 131.295 205.899 131.393 205.378 131.318C204.857 131.243 204.355 130.999 203.872 130.586C203.388 130.173 202.944 129.589 202.541 128.834C201.934 127.698 201.7 126.717 201.838 125.89C201.977 125.063 202.427 124.446 203.189 124.039C203.958 123.628 204.721 123.596 205.479 123.944C206.243 124.289 206.929 125.029 207.536 126.165C207.94 126.92 208.179 127.613 208.253 128.244C208.335 128.872 208.262 129.423 208.035 129.898C207.808 130.373 207.437 130.749 206.922 131.024ZM206.413 130.071C206.681 129.928 206.876 129.715 206.997 129.433C207.114 129.143 207.133 128.779 207.053 128.341C206.969 127.896 206.764 127.367 206.436 126.753C206.108 126.139 205.786 125.681 205.469 125.378C205.153 125.075 204.846 124.899 204.548 124.85C204.249 124.801 203.966 124.848 203.698 124.991C203.43 125.135 203.233 125.344 203.109 125.619C202.984 125.895 202.959 126.248 203.035 126.679C203.111 127.11 203.313 127.632 203.642 128.246C203.97 128.86 204.295 129.325 204.619 129.642C204.939 129.952 205.252 130.139 205.558 130.202C205.86 130.258 206.145 130.215 206.413 130.071ZM205.418 128.209C205.22 128.314 205.011 128.34 204.791 128.285C204.579 128.226 204.41 128.08 204.286 127.848C204.161 127.615 204.134 127.394 204.203 127.184C204.28 126.971 204.417 126.811 204.614 126.706C204.819 126.596 205.028 126.571 205.24 126.63C205.453 126.688 205.622 126.834 205.746 127.067C205.871 127.3 205.898 127.521 205.829 127.73C205.759 127.94 205.622 128.099 205.418 128.209ZM215.568 122.322L215.092 121.433L219.792 118.921L220.267 119.811L215.568 122.322ZM232.877 117.153C232.447 117.383 232 117.522 231.536 117.571C231.079 117.615 230.625 117.563 230.173 117.414C229.729 117.262 229.307 117.007 228.907 116.649C228.514 116.287 228.165 115.821 227.86 115.249C227.456 114.494 227.249 113.775 227.237 113.092C227.229 112.398 227.39 111.781 227.719 111.243C228.051 110.693 228.521 110.256 229.127 109.932C229.558 109.702 229.989 109.585 230.422 109.58C230.855 109.576 231.238 109.63 231.57 109.742L231.3 110.866C231.036 110.78 230.772 110.745 230.508 110.759C230.244 110.773 229.974 110.854 229.699 111.001C229.318 111.205 229.034 111.488 228.847 111.851C228.663 112.203 228.59 112.61 228.627 113.07C228.665 113.531 228.823 114.022 229.102 114.544C229.381 115.067 229.704 115.475 230.07 115.769C230.435 116.063 230.821 116.234 231.227 116.28C231.629 116.319 232.027 116.233 232.423 116.022C232.712 115.867 232.937 115.67 233.099 115.429C233.257 115.181 233.378 114.899 233.462 114.582L234.541 114.971C234.44 115.443 234.253 115.865 233.98 116.237C233.703 116.603 233.336 116.908 232.877 117.153ZM238.662 114.061C238.281 114.265 237.909 114.392 237.545 114.441C237.189 114.486 236.844 114.453 236.512 114.34C236.187 114.224 235.875 114.023 235.577 113.737C235.283 113.441 235.01 113.057 234.757 112.584L232.472 108.308L233.7 107.652L236.036 112.023C236.235 112.397 236.445 112.679 236.665 112.87C236.888 113.05 237.122 113.148 237.366 113.163C237.609 113.177 237.851 113.121 238.091 112.993C238.345 112.857 238.53 112.685 238.646 112.478C238.769 112.267 238.818 112.019 238.792 111.733C238.77 111.437 238.659 111.102 238.459 110.728L236.123 106.357L237.298 105.729L239.583 110.005C239.836 110.477 240.003 110.918 240.086 111.328C240.165 111.73 240.159 112.101 240.068 112.44C239.984 112.775 239.824 113.078 239.588 113.349C239.352 113.62 239.043 113.858 238.662 114.061ZM242.443 111.878L238.744 104.956L240.098 104.232L242.366 106.49L243.206 107.374L243.249 107.352L242.97 106.168L242.363 103.022L243.718 102.298L247.417 109.22L246.338 109.797L244.844 107.002C244.746 106.819 244.635 106.602 244.51 106.351C244.388 106.09 244.265 105.816 244.139 105.529C244.013 105.243 243.896 104.974 243.789 104.723C243.678 104.464 243.585 104.247 243.508 104.07L243.477 104.087L243.871 105.944L244.28 108.542L243.581 108.916L241.659 107.127L240.344 105.761L240.312 105.778C240.424 105.936 240.556 106.133 240.709 106.369C240.859 106.597 241.014 106.845 241.175 107.113C241.343 107.377 241.499 107.634 241.642 107.884C241.788 108.123 241.91 108.335 242.008 108.518L243.501 111.312L242.443 111.878ZM249.032 108.356L245.333 101.435L247.609 100.219C248.117 99.9474 248.604 99.7731 249.071 99.696C249.538 99.6189 249.967 99.6752 250.358 99.865C250.757 100.051 251.1 100.412 251.386 100.948C251.658 101.456 251.766 101.938 251.71 102.394C251.662 102.847 251.48 103.261 251.164 103.639C250.856 104.012 250.451 104.333 249.95 104.6L248.902 105.16L250.26 107.7L249.032 108.356ZM248.376 104.176L249.329 103.667C249.844 103.392 250.168 103.082 250.302 102.739C250.443 102.391 250.402 102.009 250.18 101.593C249.946 101.156 249.655 100.926 249.308 100.903C248.963 100.869 248.54 100.986 248.039 101.254L247.087 101.763L248.376 104.176ZM255.717 104.784L252.018 97.8625L253.235 97.2121L256.38 103.097L259.629 101.36L260.183 102.397L255.717 104.784ZM261.883 101.489L258.184 94.5673L262.618 92.1975L263.173 93.2347L259.966 94.9484L260.91 96.7159L263.63 95.2623L264.185 96.2995L261.465 97.753L262.556 99.7957L265.869 98.0253L266.423 99.0625L261.883 101.489ZM277.299 93.4136C276.869 93.6436 276.422 93.7828 275.958 93.8312C275.501 93.8758 275.046 93.8237 274.595 93.6749C274.151 93.5223 273.729 93.2672 273.329 92.9094C272.936 92.5478 272.587 92.0813 272.281 91.5098C271.878 90.7548 271.671 90.0357 271.659 89.3524C271.651 88.6583 271.812 88.0419 272.14 87.5033C272.473 86.9539 272.942 86.517 273.549 86.1927C273.979 85.9627 274.411 85.8454 274.844 85.8408C275.277 85.8362 275.66 85.8902 275.992 86.0029L275.722 87.1269C275.458 87.041 275.194 87.0052 274.93 87.0196C274.665 87.0339 274.395 87.1146 274.12 87.2617C273.739 87.4653 273.455 87.7486 273.268 88.1116C273.085 88.4637 273.012 88.8701 273.049 89.3308C273.087 89.7915 273.245 90.2829 273.524 90.805C273.803 91.3271 274.125 91.7353 274.491 92.0296C274.857 92.3239 275.243 92.4941 275.649 92.5404C276.051 92.5796 276.449 92.4936 276.844 92.2824C277.134 92.1278 277.359 91.9302 277.521 91.6896C277.679 91.442 277.8 91.1595 277.884 90.8423L278.963 91.2317C278.861 91.7033 278.674 92.1254 278.402 92.4978C278.125 92.8632 277.758 93.1685 277.299 93.4136ZM283.074 90.3277C282.537 90.6142 281.989 90.7257 281.429 90.6622C280.869 90.5987 280.329 90.361 279.81 89.9492C279.298 89.5336 278.834 88.9378 278.419 88.1617C278.016 87.4067 277.786 86.7043 277.729 86.0545C277.675 85.3938 277.779 84.8166 278.041 84.3227C278.303 83.8288 278.703 83.4386 279.239 83.152C279.775 82.8655 280.321 82.7504 280.878 82.8069C281.434 82.8634 281.968 83.0994 282.481 83.515C282.996 83.9197 283.456 84.4996 283.859 85.2545C284.274 86.0306 284.508 86.749 284.562 87.4097C284.623 88.0666 284.524 88.6455 284.265 89.1464C284.007 89.6473 283.61 90.0411 283.074 90.3277ZM282.502 89.2587C282.799 89.1004 283.003 88.8639 283.117 88.5495C283.23 88.235 283.244 87.8553 283.161 87.4102C283.077 86.9651 282.89 86.4709 282.6 85.9276C282.317 85.3984 282.018 84.9824 281.702 84.6796C281.382 84.3698 281.062 84.178 280.741 84.1044C280.417 84.0238 280.106 84.0626 279.81 84.221C279.514 84.3793 279.309 84.6157 279.196 84.9302C279.079 85.2376 279.06 85.6103 279.14 86.0484C279.216 86.4794 279.396 86.9594 279.679 87.4886C279.969 88.0319 280.276 88.462 280.6 88.7789C280.923 89.0958 281.247 89.2946 281.571 89.3753C281.896 89.4559 282.206 89.4171 282.502 89.2587ZM286.96 88.0875L283.261 81.1659L284.552 80.4759L288.459 83.3816L289.875 84.5296L289.907 84.5126C289.697 84.1711 289.456 83.8054 289.184 83.4156C288.92 83.0219 288.683 82.631 288.476 82.243L286.87 79.2373L288.045 78.6094L291.744 85.5311L290.452 86.2211L286.54 83.3048L285.129 82.1674L285.098 82.1844C285.315 82.54 285.554 82.9111 285.815 83.2977C286.079 83.6735 286.313 84.0518 286.517 84.4329L288.135 87.4597L286.96 88.0875ZM300.139 81.0447L296.44 74.1231L297.657 73.4726L300.801 79.357L304.05 77.6207L304.605 78.6579L300.139 81.0447ZM305.426 78.2189L303.971 70.0982L305.41 69.329L311.353 75.0516L310.051 75.7473L307.035 72.6241C306.74 72.31 306.433 71.9891 306.112 71.6614C305.799 71.3299 305.495 70.9981 305.2 70.6661L305.157 70.6888C305.262 71.1226 305.365 71.5618 305.467 72.0064C305.575 72.4472 305.675 72.8794 305.765 73.3029L306.675 77.5515L305.426 78.2189ZM305.748 75.6386L305.233 74.6755L308.482 72.9392L308.997 73.9023L305.748 75.6386ZM319.176 70.8706L315.477 63.949L316.695 63.2986L319.839 69.183L323.088 67.4466L323.643 68.4838L319.176 70.8706ZM325.342 67.5754L321.643 60.6538L326.078 58.284L326.632 59.3211L323.425 61.0349L324.37 62.8023L327.09 61.3488L327.644 62.3859L324.924 63.8395L326.016 65.8821L329.329 64.1118L329.883 65.149L325.342 67.5754ZM333.16 63.3979L331.876 60.9954L327.185 57.6923L328.487 56.9966L330.361 58.3899C330.62 58.5868 330.876 58.7857 331.129 58.9864C331.381 59.1871 331.646 59.3947 331.924 59.609L331.966 59.5864C331.935 59.2401 331.91 58.9043 331.891 58.5792C331.878 58.2502 331.86 57.9197 331.837 57.5875L331.694 55.2829L332.964 54.6042L333.103 60.3393L334.387 62.7418L333.16 63.3979ZM344.179 57.5088L340.48 50.5872L342.787 49.3542C343.267 49.0978 343.732 48.9313 344.18 48.8547C344.636 48.7743 345.058 48.8255 345.446 49.0082C345.83 49.1839 346.16 49.5293 346.435 50.0443C346.699 50.5382 346.803 51.0043 346.747 51.4424C346.691 51.8806 346.51 52.281 346.205 52.6436C345.907 53.0024 345.518 53.31 345.039 53.5664L343.959 54.1433L345.407 56.8527L344.179 57.5088ZM343.439 53.1697L344.391 52.6606C344.871 52.4042 345.182 52.1113 345.323 51.7817C345.471 51.4484 345.44 51.0842 345.229 50.6891C345.018 50.294 344.744 50.0867 344.407 50.0672C344.073 50.0369 343.666 50.1499 343.186 50.4063L342.234 50.9154L343.439 53.1697ZM344.641 53.3571L345.14 52.1518L349.312 54.7657L347.926 55.5066L344.641 53.3571ZM350.726 54.01L347.027 47.0884L351.462 44.7185L352.016 45.7557L348.809 47.4695L349.754 49.2369L352.474 47.7833L353.028 48.8205L350.308 50.2741L351.4 52.3167L354.712 50.5464L355.267 51.5836L350.726 54.01ZM356.914 50.7035L353.215 43.7819L355.49 42.5658C355.998 42.2944 356.485 42.1201 356.952 42.043C357.419 41.9659 357.848 42.0222 358.24 42.212C358.639 42.398 358.981 42.7592 359.268 43.2954C359.539 43.8034 359.647 44.2854 359.592 44.7415C359.543 45.1937 359.361 45.6085 359.046 45.9857C358.737 46.3591 358.333 46.6797 357.832 46.9474L356.784 47.5073L358.141 50.0474L356.914 50.7035ZM356.258 46.5231L357.21 46.0141C357.725 45.7388 358.05 45.4293 358.184 45.0857C358.325 44.7383 358.284 44.3564 358.061 43.9402C357.827 43.5027 357.537 43.2726 357.189 43.2498C356.844 43.2162 356.422 43.3333 355.921 43.601L354.968 44.11L356.258 46.5231ZM369.362 44.0509L368.983 43.3418C369.364 42.3579 369.679 41.4958 369.928 40.7553C370.183 40.0111 370.341 39.3733 370.402 38.842C370.466 38.2998 370.405 37.8559 370.221 37.5101C370.028 37.1503 369.768 36.9265 369.44 36.8388C369.108 36.744 368.731 36.8097 368.307 37.036C368.018 37.1906 367.789 37.4079 367.622 37.6881C367.454 37.9682 367.322 38.2653 367.227 38.5792L366.198 38.2582C366.346 37.7532 366.552 37.3163 366.818 36.9476C367.08 36.5718 367.457 36.252 367.951 35.988C368.417 35.7392 368.864 35.6089 369.294 35.5973C369.73 35.5818 370.126 35.6784 370.482 35.8871C370.839 36.0957 371.128 36.4082 371.351 36.8245C371.562 37.2196 371.655 37.6913 371.631 38.2395C371.603 38.7807 371.492 39.3797 371.298 40.0363C371.112 40.6892 370.884 41.3915 370.615 42.1432C370.801 42.0165 371 41.8876 371.211 41.7566C371.422 41.6256 371.619 41.5111 371.803 41.413L373.708 40.395L374.262 41.4322L369.362 44.0509ZM378.263 39.4574C377.755 39.7288 377.24 39.8269 376.719 39.7516C376.198 39.6763 375.696 39.4322 375.213 39.0195C374.729 38.6067 374.285 38.0228 373.882 37.2679C373.275 36.1319 373.041 35.1504 373.179 34.3235C373.318 33.4966 373.768 32.8795 374.53 32.4723C375.299 32.0613 376.062 32.0298 376.82 32.3779C377.584 32.7222 378.27 33.4623 378.877 34.5983C379.281 35.3532 379.52 36.0464 379.594 36.6779C379.676 37.3056 379.603 37.8569 379.376 38.332C379.149 38.807 378.778 39.1821 378.263 39.4574ZM377.754 38.5048C378.022 38.3616 378.217 38.1487 378.338 37.8662C378.455 37.5767 378.474 37.2129 378.394 36.7749C378.31 36.3298 378.105 35.8003 377.777 35.1865C377.449 34.5726 377.127 34.1143 376.81 33.8115C376.494 33.5087 376.187 33.3327 375.889 33.2836C375.59 33.2344 375.307 33.2815 375.039 33.4248C374.771 33.5681 374.574 33.7774 374.45 34.0528C374.325 34.3282 374.3 34.6814 374.376 35.1124C374.452 35.5434 374.654 36.0658 374.983 36.6796C375.311 37.2935 375.636 37.7589 375.96 38.0758C376.28 38.3856 376.593 38.5722 376.899 38.6354C377.201 38.6917 377.486 38.6481 377.754 38.5048ZM376.759 36.6422C376.561 36.7477 376.352 36.7731 376.132 36.7182C375.92 36.6596 375.751 36.5138 375.627 36.281C375.502 36.0481 375.475 35.827 375.544 35.6175C375.621 35.4043 375.758 35.2449 375.955 35.1393C376.16 35.0299 376.369 35.0046 376.581 35.0632C376.794 35.1219 376.963 35.2676 377.087 35.5005C377.212 35.7333 377.239 35.9545 377.17 36.1639C377.1 36.3734 376.963 36.5328 376.759 36.6422ZM384.609 36.066C384.313 36.2244 384.007 36.2559 383.694 36.1607C383.387 36.0616 383.152 35.8604 382.99 35.557C382.824 35.2466 382.787 34.9398 382.879 34.6366C382.974 34.3227 383.17 34.0865 383.466 33.9281C383.77 33.766 384.075 33.7345 384.382 33.8335C384.685 33.9255 384.92 34.1267 385.085 34.4371C385.248 34.7405 385.285 35.0473 385.196 35.3575C385.108 35.6677 384.912 35.9039 384.609 36.066ZM390.542 32.8952C390.098 33.1328 389.666 33.268 389.249 33.3008C388.834 33.3228 388.456 33.2937 388.113 33.2135L388.374 32.122C388.611 32.1764 388.866 32.1945 389.138 32.1764C389.416 32.1545 389.675 32.0795 389.915 31.9513C390.247 31.7741 390.501 31.5292 390.679 31.2165C390.864 30.9001 390.935 30.4991 390.893 30.0135C390.859 29.5241 390.66 28.9408 390.298 28.2634C390.004 27.7131 389.698 27.3009 389.379 27.0268C389.063 26.7419 388.751 26.5822 388.442 26.5476C388.13 26.506 387.826 26.5643 387.529 26.7227C387.31 26.8396 387.132 26.9983 386.995 27.1989C386.864 27.3957 386.793 27.6196 386.782 27.8704C386.767 28.1142 386.833 28.3736 386.98 28.6488C387.195 29.051 387.463 29.2978 387.784 29.3893C388.108 29.47 388.461 29.4085 388.842 29.2049C389.082 29.0767 389.299 28.8793 389.492 28.6128C389.692 28.3425 389.835 27.9897 389.919 27.5543L390.43 28.3833C390.309 28.7839 390.127 29.1485 389.886 29.4772C389.644 29.8059 389.372 30.0513 389.068 30.2134C388.659 30.4321 388.256 30.5522 387.859 30.5737C387.466 30.5844 387.096 30.4871 386.751 30.2817C386.408 30.0655 386.111 29.7211 385.858 29.2483C385.621 28.8038 385.519 28.3592 385.554 27.9145C385.595 27.466 385.745 27.0593 386.004 26.6943C386.266 26.3186 386.601 26.0214 387.01 25.8027C387.37 25.6104 387.745 25.4964 388.134 25.4608C388.519 25.4181 388.907 25.4648 389.297 25.601C389.687 25.7371 390.064 25.9756 390.428 26.3165C390.788 26.6503 391.118 27.0995 391.42 27.6639C391.771 28.3201 391.991 28.9279 392.082 29.4874C392.175 30.036 392.167 30.5301 392.057 30.9697C391.948 31.4094 391.758 31.7921 391.487 32.118C391.224 32.4401 390.909 32.6992 390.542 32.8952ZM394.746 30.4854L394.367 29.7764C394.748 28.7925 395.063 27.9304 395.311 27.1899C395.567 26.4457 395.725 25.8079 395.786 25.2766C395.85 24.7344 395.789 24.2905 395.604 23.9447C395.412 23.5849 395.152 23.3611 394.824 23.2734C394.492 23.1786 394.114 23.2443 393.691 23.4706C393.402 23.6252 393.173 23.8425 393.005 24.1227C392.838 24.4028 392.706 24.6999 392.611 25.0138L391.582 24.6928C391.73 24.1877 391.936 23.7509 392.202 23.3822C392.463 23.0064 392.841 22.6866 393.335 22.4226C393.801 22.1738 394.248 22.0435 394.677 22.0319C395.114 22.0164 395.51 22.113 395.866 22.3217C396.223 22.5303 396.512 22.8428 396.735 23.2591C396.946 23.6542 397.039 24.1259 397.015 24.6741C396.986 25.2153 396.876 25.8142 396.682 26.4709C396.496 27.1237 396.268 27.8261 395.999 28.5778C396.185 28.4511 396.384 28.3222 396.595 28.1912C396.806 28.0602 397.003 27.9457 397.187 27.8476L399.092 26.8296L399.646 27.8667L394.746 30.4854ZM403.647 25.892C403.139 26.1634 402.624 26.2615 402.103 26.1862C401.582 26.1109 401.08 25.8668 400.596 25.454C400.113 25.0413 399.669 24.4574 399.266 23.7024C398.659 22.5665 398.424 21.585 398.563 20.7581C398.702 19.9312 399.152 19.3141 399.914 18.9068C400.683 18.4958 401.446 18.4644 402.204 18.8125C402.968 19.1568 403.654 19.8969 404.261 21.0328C404.665 21.7878 404.904 22.481 404.978 23.1125C405.059 23.7402 404.987 24.2915 404.76 24.7665C404.533 25.2416 404.162 25.6167 403.647 25.892ZM403.138 24.9394C403.406 24.7962 403.601 24.5833 403.722 24.3008C403.839 24.0113 403.858 23.6475 403.778 23.2095C403.694 22.7644 403.488 22.2349 403.16 21.6211C402.832 21.0072 402.51 20.5489 402.194 20.2461C401.878 19.9433 401.571 19.7673 401.273 19.7182C400.974 19.669 400.691 19.7161 400.423 19.8594C400.155 20.0026 399.958 20.212 399.833 20.4874C399.708 20.7628 399.684 21.116 399.76 21.547C399.836 21.978 400.038 22.5004 400.366 23.1142C400.694 23.7281 401.02 24.1934 401.344 24.5104C401.664 24.8202 401.976 25.0068 402.282 25.07C402.585 25.1263 402.87 25.0827 403.138 24.9394ZM402.142 23.0767C401.945 23.1823 401.736 23.2077 401.516 23.1528C401.304 23.0942 401.135 22.9484 401.011 22.7156C400.886 22.4827 400.859 22.2616 400.928 22.0521C401.005 21.8389 401.142 21.6795 401.339 21.5739C401.544 21.4645 401.753 21.4392 401.965 21.4978C402.178 21.5565 402.347 21.7022 402.471 21.9351C402.595 22.1679 402.623 22.389 402.553 22.5985C402.484 22.808 402.347 22.9674 402.142 23.0767ZM412.292 17.1898L411.817 16.3008L416.516 13.7896L416.992 14.6786L412.292 17.1898ZM429.602 12.0211C429.172 12.2511 428.725 12.3903 428.261 12.4387C427.804 12.4833 427.35 12.4312 426.898 12.2824C426.454 12.1299 426.032 11.8747 425.632 11.5169C425.239 11.1554 424.89 10.6888 424.585 10.1173C424.181 9.36237 423.974 8.64325 423.962 7.95997C423.954 7.26586 424.115 6.64949 424.444 6.11086C424.776 5.5614 425.245 5.12454 425.852 4.80026C426.283 4.57026 426.714 4.45295 427.147 4.44835C427.58 4.44376 427.963 4.49779 428.295 4.61045L428.025 5.73444C427.761 5.64855 427.497 5.61277 427.233 5.62711C426.968 5.64145 426.699 5.72214 426.423 5.8692C426.042 6.07281 425.758 6.35611 425.571 6.71909C425.388 7.07124 425.315 7.47766 425.352 7.93833C425.39 8.39901 425.548 8.8904 425.827 9.41252C426.106 9.93464 426.429 10.3428 426.794 10.6371C427.16 10.9314 427.546 11.1017 427.952 11.1479C428.354 11.1871 428.752 11.1011 429.147 10.89C429.437 10.7354 429.662 10.5378 429.824 10.2972C429.982 10.0495 430.103 9.76705 430.187 9.44981L431.266 9.83925C431.165 10.3109 430.977 10.7329 430.705 11.1054C430.428 11.4708 430.061 11.776 429.602 12.0211ZM435.387 8.92953C435.006 9.13315 434.634 9.25958 434.27 9.30882C433.913 9.3543 433.569 9.32071 433.237 9.20804C432.911 9.09161 432.6 8.89069 432.302 8.6053C432.008 8.30907 431.734 7.9246 431.482 7.45187L429.197 3.17613L430.424 2.52005L432.76 6.89103C432.96 7.26498 433.17 7.54739 433.39 7.73827C433.613 7.91831 433.847 8.01577 434.09 8.03062C434.334 8.04547 434.576 7.9888 434.816 7.8606C435.07 7.72486 435.255 7.55341 435.371 7.34625C435.494 7.13533 435.543 6.88705 435.517 6.60142C435.495 6.30497 435.384 5.96977 435.184 5.59582L432.848 1.22484L434.023 0.597027L436.308 4.87276C436.56 5.34549 436.728 5.78653 436.811 6.19587C436.89 6.59815 436.884 6.96875 436.793 7.30765C436.709 7.64278 436.549 7.94597 436.313 8.21723C436.077 8.48848 435.768 8.72592 435.387 8.92953ZM439.168 6.74598L435.469 -0.175627L436.823 -0.899587L439.091 1.35804L439.931 2.24251L439.973 2.21989L439.694 1.03565L439.088 -2.10996L440.443 -2.83392L444.142 4.08769L443.062 4.66459L441.569 1.87055C441.471 1.6871 441.36 1.47002 441.235 1.2193C441.113 0.957758 440.989 0.683744 440.863 0.397261C440.738 0.110778 440.621 -0.158065 440.514 -0.40927C440.403 -0.66753 440.31 -0.885098 440.233 -1.06198L440.202 -1.04501L440.596 0.812545L441.004 3.41056L440.306 3.78385L438.384 1.99464L437.069 0.62915L437.037 0.646117C437.149 0.804141 437.281 1.00097 437.434 1.23661C437.584 1.46519 437.739 1.71329 437.9 1.98092C438.068 2.24478 438.224 2.50183 438.367 2.75206C438.513 2.99147 438.635 3.2029 438.733 3.38634L440.226 6.18039L439.168 6.74598ZM445.757 3.22454L442.058 -3.69707L444.333 -4.91309C444.841 -5.18458 445.329 -5.35887 445.796 -5.43597C446.262 -5.51306 446.692 -5.45672 447.083 -5.26693C447.482 -5.08091 447.825 -4.71978 448.111 -4.18355C448.383 -3.67555 448.491 -3.19352 448.435 -2.73747C448.387 -2.2852 448.205 -1.87046 447.889 -1.49325C447.581 -1.11981 447.176 -0.799239 446.675 -0.531525L445.627 0.028413L446.985 2.56845L445.757 3.22454ZM445.101 -0.955852L446.054 -1.46489C446.569 -1.74014 446.893 -2.04959 447.027 -2.39323C447.168 -2.74064 447.127 -3.12249 446.905 -3.53878C446.671 -3.97623 446.38 -4.20634 446.032 -4.2291C445.688 -4.2627 445.265 -4.14564 444.764 -3.87792L443.812 -3.36889L445.101 -0.955852ZM452.442 -0.347802L448.743 -7.26941L449.96 -7.91984L453.104 -2.03542L456.354 -3.77179L456.908 -2.73461L452.442 -0.347802ZM458.608 -3.643L454.909 -10.5646L459.343 -12.9344L459.897 -11.8973L456.691 -10.1835L457.635 -8.41607L460.355 -9.86965L460.909 -8.83247L458.189 -7.37889L459.281 -5.33627L462.594 -7.10658L463.148 -6.0694L458.608 -3.643ZM474.024 -11.7183C473.594 -11.4883 473.146 -11.3491 472.682 -11.3008C472.226 -11.2561 471.771 -11.3082 471.32 -11.457C470.876 -11.6096 470.453 -11.8648 470.054 -12.2225C469.661 -12.5841 469.312 -13.0506 469.006 -13.6221C468.603 -14.3771 468.395 -15.0962 468.384 -15.7795C468.376 -16.4736 468.536 -17.09 468.865 -17.6286C469.198 -18.1781 469.667 -18.6149 470.274 -18.9392C470.704 -19.1692 471.136 -19.2865 471.569 -19.2911C472.002 -19.2957 472.384 -19.2417 472.717 -19.129L472.447 -18.005C472.183 -18.0909 471.919 -18.1267 471.655 -18.1124C471.39 -18.098 471.12 -18.0173 470.845 -17.8703C470.464 -17.6667 470.18 -17.3834 469.993 -17.0204C469.809 -16.6682 469.736 -16.2618 469.774 -15.8011C469.811 -15.3405 469.97 -14.8491 470.249 -14.3269C470.528 -13.8048 470.85 -13.3966 471.216 -13.1023C471.582 -12.8081 471.968 -12.6378 472.374 -12.5916C472.775 -12.5524 473.174 -12.6383 473.569 -12.8495C473.858 -13.0041 474.084 -13.2017 474.246 -13.4423C474.403 -13.69 474.525 -13.9724 474.609 -14.2897L475.688 -13.9002C475.586 -13.4286 475.399 -13.0066 475.126 -12.6341C474.85 -12.2687 474.483 -11.9634 474.024 -11.7183ZM479.798 -14.8043C479.262 -14.5177 478.714 -14.4062 478.154 -14.4697C477.594 -14.5333 477.054 -14.7709 476.535 -15.1827C476.022 -15.5983 475.559 -16.1941 475.144 -16.9703C474.741 -17.7252 474.51 -18.4276 474.453 -19.0774C474.4 -19.7381 474.504 -20.3154 474.766 -20.8092C475.028 -21.3031 475.427 -21.6933 475.964 -21.9799C476.5 -22.2665 477.046 -22.3815 477.602 -22.325C478.159 -22.2686 478.693 -22.0325 479.205 -21.617C479.721 -21.2122 480.181 -20.6324 480.584 -19.8774C480.999 -19.1013 481.233 -18.3829 481.287 -17.7222C481.348 -17.0653 481.249 -16.4864 480.99 -15.9855C480.732 -15.4846 480.335 -15.0908 479.798 -14.8043ZM479.227 -15.8732C479.523 -16.0316 479.728 -16.268 479.841 -16.5824C479.955 -16.8969 479.969 -17.2767 479.886 -17.7218C479.802 -18.1669 479.615 -18.6611 479.325 -19.2044C479.042 -19.7335 478.742 -20.1495 478.426 -20.4523C478.107 -20.7622 477.786 -20.9539 477.466 -21.0275C477.142 -21.1082 476.831 -21.0693 476.535 -20.911C476.239 -20.7526 476.034 -20.5162 475.921 -20.2017C475.804 -19.8943 475.785 -19.5216 475.865 -19.0836C475.941 -18.6526 476.121 -18.1725 476.404 -17.6433C476.694 -17.1 477.001 -16.6699 477.324 -16.353C477.648 -16.0361 477.972 -15.8373 478.296 -15.7567C478.62 -15.676 478.931 -15.7148 479.227 -15.8732ZM483.685 -17.0444L479.986 -23.966L481.277 -24.656L485.183 -21.7504L486.6 -20.6024L486.632 -20.6193C486.422 -20.9608 486.181 -21.3265 485.909 -21.7164C485.644 -22.11 485.408 -22.5009 485.201 -22.889L483.595 -25.8947L484.769 -26.5225L488.468 -19.6009L487.177 -18.9109L483.265 -21.8271L481.854 -22.9645L481.822 -22.9475C482.04 -22.592 482.279 -22.2209 482.54 -21.8343C482.804 -21.4585 483.038 -21.0801 483.242 -20.6991L484.859 -17.6722L483.685 -17.0444ZM496.863 -24.0873L493.164 -31.0089L494.382 -31.6593L497.526 -25.7749L500.775 -27.5113L501.33 -26.4741L496.863 -24.0873ZM502.151 -26.913L500.696 -35.0337L502.135 -35.8029L508.078 -30.0804L506.776 -29.3847L503.76 -32.5078C503.465 -32.8219 503.158 -33.1428 502.837 -33.4705C502.524 -33.8021 502.22 -34.1338 501.924 -34.4658L501.882 -34.4432C501.987 -34.0094 502.09 -33.5702 502.192 -33.1255C502.3 -32.6847 502.4 -32.2525 502.49 -31.8291L503.4 -27.5804L502.151 -26.913ZM502.473 -29.4933L501.958 -30.4564L505.207 -32.1928L505.722 -31.2297L502.473 -29.4933ZM515.901 -34.2613L512.202 -41.1829L513.419 -41.8334L516.564 -35.9489L519.813 -37.6853L520.368 -36.6481L515.901 -34.2613ZM522.067 -37.5565L518.368 -44.4781L522.803 -46.848L523.357 -45.8108L520.15 -44.097L521.095 -42.3296L523.815 -43.7832L524.369 -42.746L521.649 -41.2924L522.741 -39.2498L526.053 -41.0201L526.608 -39.9829L522.067 -37.5565ZM529.884 -41.7341L528.6 -44.1365L523.91 -47.4396L525.212 -48.1353L527.086 -46.7421C527.345 -46.5451 527.601 -46.3463 527.853 -46.1455C528.106 -45.9448 528.371 -45.7373 528.649 -45.5229L528.691 -45.5455C528.66 -45.8919 528.635 -46.2276 528.615 -46.5528C528.603 -46.8817 528.585 -47.2123 528.562 -47.5445L528.419 -49.8491L529.689 -50.5278L529.828 -44.7926L531.112 -42.3901L529.884 -41.7341ZM540.904 -47.6231L537.205 -54.5447L539.512 -55.7777C539.992 -56.0341 540.456 -56.2006 540.905 -56.2772C541.361 -56.3576 541.783 -56.3065 542.171 -56.1237C542.555 -55.948 542.885 -55.6027 543.16 -55.0876C543.424 -54.5937 543.528 -54.1277 543.472 -53.6895C543.416 -53.2514 543.235 -52.851 542.93 -52.4884C542.632 -52.1295 542.243 -51.8219 541.763 -51.5655L540.684 -50.9886L542.132 -48.2792L540.904 -47.6231ZM540.164 -51.9623L541.116 -52.4713C541.596 -52.7277 541.906 -53.0207 542.048 -53.3502C542.196 -53.6835 542.165 -54.0477 541.954 -54.4428C541.743 -54.8379 541.468 -55.0452 541.132 -55.0647C540.798 -55.095 540.391 -54.982 539.911 -54.7256L538.959 -54.2166L540.164 -51.9623ZM541.366 -51.7748L541.865 -52.9802L546.037 -50.3663L544.651 -49.6253L541.366 -51.7748ZM547.451 -51.1219L543.752 -58.0435L548.187 -60.4134L548.741 -59.3762L545.534 -57.6625L546.479 -55.895L549.199 -57.3486L549.753 -56.3114L547.033 -54.8578L548.125 -52.8152L551.437 -54.5855L551.991 -53.5483L547.451 -51.1219ZM553.638 -54.4285L549.939 -61.3501L552.215 -62.5661C552.723 -62.8376 553.21 -63.0119 553.677 -63.089C554.144 -63.1661 554.573 -63.1097 554.965 -62.9199C555.363 -62.7339 555.706 -62.3728 555.993 -61.8365C556.264 -61.3285 556.372 -60.8465 556.316 -60.3905C556.268 -59.9382 556.086 -59.5234 555.77 -59.1462C555.462 -58.7728 555.057 -58.4522 554.556 -58.1845L553.509 -57.6246L554.866 -55.0845L553.638 -54.4285ZM552.983 -58.6088L553.935 -59.1179C554.45 -59.3931 554.775 -59.7026 554.908 -60.0462C555.049 -60.3936 555.009 -60.7755 554.786 -61.1918C554.552 -61.6292 554.262 -61.8593 553.914 -61.8821C553.569 -61.9157 553.147 -61.7986 552.646 -61.5309L551.693 -61.0219L552.983 -58.6088ZM566.087 -61.0811L565.708 -61.7902C566.089 -62.774 566.404 -63.6362 566.652 -64.3766C566.908 -65.1208 567.066 -65.7586 567.127 -66.2899C567.191 -66.8321 567.13 -67.2761 566.945 -67.6218C566.753 -67.9816 566.493 -68.2054 566.165 -68.2931C565.833 -68.3879 565.455 -68.3222 565.032 -68.096C564.743 -67.9414 564.514 -67.724 564.346 -67.4439C564.179 -67.1637 564.047 -66.8667 563.952 -66.5527L562.923 -66.8737C563.071 -67.3788 563.277 -67.8157 563.543 -68.1844C563.804 -68.5601 564.182 -68.8799 564.676 -69.1439C565.142 -69.3928 565.589 -69.523 566.018 -69.5347C566.455 -69.5501 566.851 -69.4535 567.207 -69.2448C567.564 -69.0362 567.853 -68.7237 568.076 -68.3074C568.287 -67.9123 568.38 -67.4406 568.356 -66.8924C568.327 -66.3512 568.217 -65.7523 568.023 -65.0956C567.837 -64.4428 567.609 -63.7405 567.34 -62.9887C567.526 -63.1155 567.725 -63.2443 567.936 -63.3753C568.147 -63.5063 568.344 -63.6208 568.528 -63.7189L570.433 -64.737L570.987 -63.6998L566.087 -61.0811ZM574.988 -65.6746C574.48 -65.4031 573.965 -65.305 573.444 -65.3803C572.923 -65.4557 572.421 -65.6997 571.937 -66.1125C571.454 -66.5253 571.01 -67.1091 570.607 -67.8641C570 -69 569.765 -69.9815 569.904 -70.8084C570.043 -71.6354 570.493 -72.2524 571.255 -72.6597C572.024 -73.0707 572.787 -73.1021 573.545 -72.7541C574.309 -72.4098 574.995 -71.6696 575.602 -70.5337C576.006 -69.7787 576.245 -69.0855 576.319 -68.454C576.4 -67.8263 576.328 -67.275 576.101 -66.8C575.874 -66.325 575.503 -65.9498 574.988 -65.6746ZM574.479 -66.6271C574.747 -66.7704 574.942 -66.9832 575.063 -67.2657C575.18 -67.5552 575.199 -67.919 575.119 -68.357C575.035 -68.8021 574.829 -69.3316 574.501 -69.9455C574.173 -70.5593 573.851 -71.0176 573.535 -71.3204C573.219 -71.6232 572.912 -71.7992 572.614 -71.8483C572.315 -71.8975 572.032 -71.8504 571.764 -71.7072C571.496 -71.5639 571.299 -71.3545 571.174 -71.0791C571.049 -70.8037 571.025 -70.4505 571.101 -70.0195C571.177 -69.5886 571.379 -69.0661 571.707 -68.4523C572.035 -67.8384 572.361 -67.3731 572.685 -67.0562C573.005 -66.7463 573.317 -66.5598 573.623 -66.4965C573.926 -66.4403 574.211 -66.4838 574.479 -66.6271ZM573.483 -68.4898C573.286 -68.3842 573.077 -68.3588 572.857 -68.4137C572.645 -68.4724 572.476 -68.6181 572.352 -68.8509C572.227 -69.0838 572.2 -69.3049 572.269 -69.5144C572.346 -69.7276 572.483 -69.8871 572.68 -69.9926C572.885 -70.102 573.094 -70.1273 573.306 -70.0687C573.519 -70.01 573.688 -69.8643 573.812 -69.6315C573.936 -69.3986 573.964 -69.1775 573.894 -68.968C573.825 -68.7585 573.688 -68.5991 573.483 -68.4898ZM581.334 -69.0659C581.037 -68.9076 580.732 -68.876 580.418 -68.9713C580.111 -69.0703 579.877 -69.2715 579.715 -69.5749C579.549 -69.8854 579.512 -70.1922 579.604 -70.4953C579.699 -70.8093 579.895 -71.0454 580.191 -71.2038C580.495 -71.3659 580.8 -71.3975 581.107 -71.2984C581.41 -71.2065 581.644 -71.0052 581.81 -70.6948C581.972 -70.3914 582.009 -70.0846 581.921 -69.7744C581.833 -69.4642 581.637 -69.2281 581.334 -69.0659ZM587.267 -72.2367C586.823 -71.9991 586.391 -71.864 585.973 -71.8311C585.559 -71.8091 585.181 -71.8382 584.838 -71.9184L585.099 -73.0099C585.336 -72.9555 585.591 -72.9374 585.862 -72.9555C586.141 -72.9774 586.4 -73.0524 586.64 -73.1806C586.972 -73.3579 587.226 -73.6028 587.404 -73.9154C587.589 -74.2318 587.66 -74.6328 587.618 -75.1184C587.583 -75.6078 587.385 -76.1911 587.023 -76.8685C586.729 -77.4188 586.423 -77.831 586.104 -78.1051C585.788 -78.39 585.476 -78.5498 585.167 -78.5843C584.855 -78.626 584.55 -78.5676 584.254 -78.4092C584.035 -78.2923 583.857 -78.1336 583.719 -77.933C583.589 -77.7362 583.518 -77.5124 583.507 -77.2615C583.492 -77.0178 583.558 -76.7583 583.705 -76.4831C583.92 -76.0809 584.188 -75.8341 584.509 -75.7426C584.833 -75.6619 585.186 -75.7234 585.567 -75.927C585.807 -76.0552 586.023 -76.2526 586.217 -76.5191C586.417 -76.7894 586.559 -77.1422 586.644 -77.5776L587.155 -76.7486C587.034 -76.348 586.852 -75.9834 586.611 -75.6547C586.369 -75.3261 586.096 -75.0807 585.793 -74.9185C585.384 -74.6998 584.981 -74.5797 584.584 -74.5582C584.191 -74.5475 583.821 -74.6449 583.476 -74.8502C583.133 -75.0664 582.836 -75.4109 582.583 -75.8836C582.346 -76.3281 582.244 -76.7727 582.279 -77.2175C582.32 -77.666 582.47 -78.0727 582.729 -78.4376C582.99 -78.8133 583.326 -79.1106 583.735 -79.3293C584.095 -79.5216 584.47 -79.6355 584.859 -79.6711C585.244 -79.7138 585.632 -79.6671 586.022 -79.5309C586.412 -79.3948 586.789 -79.1563 587.153 -78.8154C587.513 -78.4816 587.843 -78.0325 588.145 -77.468C588.496 -76.8118 588.716 -76.204 588.807 -75.6446C588.9 -75.0959 588.892 -74.6018 588.782 -74.1622C588.673 -73.7226 588.483 -73.3398 588.212 -73.014C587.949 -72.6919 587.634 -72.4328 587.267 -72.2367ZM591.471 -74.6465L591.092 -75.3556C591.473 -76.3394 591.788 -77.2016 592.036 -77.942C592.292 -78.6862 592.45 -79.324 592.51 -79.8554C592.574 -80.3975 592.514 -80.8415 592.329 -81.1872C592.137 -81.547 591.877 -81.7708 591.549 -81.8586C591.217 -81.9533 590.839 -81.8876 590.416 -81.6614C590.127 -81.5068 589.898 -81.2894 589.73 -81.0093C589.563 -80.7291 589.431 -80.4321 589.336 -80.1181L588.307 -80.4391C588.454 -80.9442 588.661 -81.3811 588.926 -81.7498C589.188 -82.1255 589.566 -82.4454 590.06 -82.7093C590.526 -82.9582 590.973 -83.0884 591.402 -83.1001C591.838 -83.1155 592.235 -83.0189 592.591 -82.8102C592.948 -82.6016 593.237 -82.2891 593.46 -81.8729C593.671 -81.4777 593.764 -81.0061 593.74 -80.4578C593.711 -79.9166 593.6 -79.3177 593.407 -78.661C593.221 -78.0082 592.993 -77.3059 592.723 -76.5541C592.91 -76.6809 593.108 -76.8097 593.32 -76.9407C593.531 -77.0717 593.728 -77.1863 593.912 -77.2843L595.817 -78.3024L596.371 -77.2652L591.471 -74.6465ZM600.372 -79.24C599.864 -78.9685 599.349 -78.8704 598.828 -78.9457C598.307 -79.0211 597.805 -79.2651 597.321 -79.6779C596.838 -80.0907 596.394 -80.6745 595.991 -81.4295C595.383 -82.5654 595.149 -83.5469 595.288 -84.3738C595.426 -85.2008 595.877 -85.8179 596.639 -86.2251C597.408 -86.6361 598.171 -86.6675 598.929 -86.3195C599.693 -85.9752 600.379 -85.235 600.986 -84.0991C601.389 -83.3441 601.628 -82.6509 601.703 -82.0194C601.784 -81.3918 601.712 -80.8404 601.485 -80.3654C601.258 -79.8904 600.887 -79.5152 600.372 -79.24ZM599.863 -80.1925C600.131 -80.3358 600.325 -80.5486 600.447 -80.8311C600.564 -81.1206 600.583 -81.4844 600.503 -81.9224C600.419 -82.3675 600.213 -82.897 599.885 -83.5109C599.557 -84.1247 599.235 -84.583 598.919 -84.8858C598.603 -85.1886 598.296 -85.3646 597.998 -85.4138C597.699 -85.4629 597.416 -85.4159 597.148 -85.2726C596.88 -85.1293 596.683 -84.9199 596.558 -84.6445C596.433 -84.3691 596.409 -84.016 596.485 -83.585C596.561 -83.154 596.763 -82.6315 597.091 -82.0177C597.419 -81.4039 597.745 -80.9385 598.069 -80.6216C598.388 -80.3117 598.701 -80.1252 599.007 -80.0619C599.309 -80.0057 599.595 -80.0492 599.863 -80.1925ZM598.867 -82.0552C598.67 -81.9496 598.461 -81.9243 598.241 -81.9791C598.028 -82.0378 597.86 -82.1835 597.735 -82.4164C597.611 -82.6492 597.583 -82.8703 597.653 -83.0798C597.729 -83.2931 597.867 -83.4525 598.064 -83.558C598.269 -83.6674 598.477 -83.6927 598.69 -83.6341C598.903 -83.5755 599.071 -83.4297 599.196 -83.1969C599.32 -82.964 599.348 -82.7429 599.278 -82.5334C599.209 -82.3239 599.072 -82.1645 598.867 -82.0552ZM609.017 -87.9421L608.542 -88.8311L613.241 -91.3424L613.716 -90.4534L609.017 -87.9421ZM626.327 -93.1108C625.897 -92.8808 625.449 -92.7416 624.986 -92.6932C624.529 -92.6486 624.074 -92.7007 623.623 -92.8495C623.179 -93.0021 622.757 -93.2572 622.357 -93.615C621.964 -93.9766 621.615 -94.4431 621.309 -95.0146C620.906 -95.7696 620.699 -96.4887 620.687 -97.172C620.679 -97.8661 620.839 -98.4824 621.168 -99.0211C621.501 -99.5705 621.97 -100.007 622.577 -100.332C623.007 -100.562 623.439 -100.679 623.872 -100.684C624.305 -100.688 624.688 -100.634 625.02 -100.521L624.75 -99.3975C624.486 -99.4834 624.222 -99.5192 623.958 -99.5048C623.693 -99.4905 623.423 -99.4098 623.148 -99.2627C622.767 -99.0591 622.483 -98.7758 622.296 -98.4128C622.113 -98.0607 622.039 -97.6543 622.077 -97.1936C622.115 -96.7329 622.273 -96.2415 622.552 -95.7194C622.831 -95.1973 623.153 -94.7891 623.519 -94.4948C623.885 -94.2005 624.271 -94.0303 624.677 -93.984C625.079 -93.9448 625.477 -94.0308 625.872 -94.242C626.162 -94.3966 626.387 -94.5942 626.549 -94.8348C626.707 -95.0824 626.828 -95.3649 626.912 -95.6821L627.991 -95.2927C627.889 -94.8211 627.702 -94.399 627.43 -94.0266C627.153 -93.6611 626.786 -93.3559 626.327 -93.1108ZM632.112 -96.2024C631.731 -95.9988 631.359 -95.8724 630.995 -95.8231C630.638 -95.7776 630.294 -95.8112 629.962 -95.9239C629.636 -96.0403 629.325 -96.2412 629.027 -96.5266C628.733 -96.8229 628.459 -97.2073 628.207 -97.6801L625.922 -101.956L627.149 -102.612L629.485 -98.2409C629.685 -97.867 629.895 -97.5845 630.115 -97.3937C630.338 -97.2136 630.572 -97.1162 630.815 -97.1013C631.059 -97.0865 631.301 -97.1431 631.541 -97.2713C631.795 -97.4071 631.98 -97.5785 632.096 -97.7857C632.219 -97.9966 632.268 -98.2449 632.242 -98.5305C632.22 -98.827 632.109 -99.1622 631.909 -99.5361L629.573 -103.907L630.748 -104.535L633.033 -100.259C633.285 -99.7864 633.453 -99.3454 633.536 -98.9361C633.615 -98.5338 633.609 -98.1632 633.518 -97.8243C633.434 -97.4892 633.274 -97.186 633.038 -96.9147C632.802 -96.6434 632.493 -96.406 632.112 -96.2024ZM635.892 -98.386L632.194 -105.308L633.548 -106.032L635.816 -103.774L636.656 -102.889L636.698 -102.912L636.419 -104.096L635.813 -107.242L637.168 -107.966L640.867 -101.044L639.787 -100.467L638.294 -103.261C638.196 -103.445 638.085 -103.662 637.96 -103.913C637.838 -104.174 637.714 -104.448 637.588 -104.735C637.462 -105.021 637.346 -105.29 637.239 -105.541C637.128 -105.799 637.035 -106.017 636.958 -106.194L636.926 -106.177L637.32 -104.319L637.729 -101.721L637.031 -101.348L635.108 -103.137L633.794 -104.503L633.762 -104.486C633.874 -104.328 634.006 -104.131 634.159 -103.895C634.309 -103.667 634.464 -103.419 634.625 -103.151C634.793 -102.887 634.949 -102.63 635.091 -102.38C635.238 -102.14 635.36 -101.929 635.458 -101.746L636.951 -98.9515L635.892 -98.386ZM642.482 -101.907L638.783 -108.829L641.058 -110.045C641.566 -110.317 642.054 -110.491 642.52 -110.568C642.987 -110.645 643.416 -110.589 643.808 -110.399C644.207 -110.213 644.55 -109.852 644.836 -109.315C645.108 -108.807 645.216 -108.325 645.16 -107.869C645.111 -107.417 644.929 -107.002 644.614 -106.625C644.306 -106.252 643.901 -105.931 643.4 -105.663L642.352 -105.104L643.71 -102.563L642.482 -101.907ZM641.826 -106.088L642.779 -106.597C643.294 -106.872 643.618 -107.182 643.752 -107.525C643.893 -107.873 643.852 -108.254 643.63 -108.671C643.396 -109.108 643.105 -109.338 642.757 -109.361C642.413 -109.395 641.99 -109.278 641.489 -109.01L640.537 -108.501L641.826 -106.088ZM649.167 -105.48L645.468 -112.401L646.685 -113.052L649.829 -107.167L653.078 -108.904L653.633 -107.867L649.167 -105.48ZM655.333 -108.775L651.634 -115.697L656.068 -118.066L656.622 -117.029L653.416 -115.315L654.36 -113.548L657.08 -115.002L657.634 -113.964L654.914 -112.511L656.006 -110.468L659.319 -112.239L659.873 -111.201L655.333 -108.775ZM670.749 -116.85C670.318 -116.62 669.871 -116.481 669.407 -116.433C668.95 -116.388 668.496 -116.44 668.045 -116.589C667.6 -116.742 667.178 -116.997 666.778 -117.354C666.386 -117.716 666.037 -118.183 665.731 -118.754C665.328 -119.509 665.12 -120.228 665.109 -120.911C665.101 -121.606 665.261 -122.222 665.59 -122.761C665.922 -123.31 666.392 -123.747 666.999 -124.071C667.429 -124.301 667.861 -124.418 668.294 -124.423C668.727 -124.428 669.109 -124.374 669.442 -124.261L669.172 -123.137C668.908 -123.223 668.644 -123.259 668.379 -123.244C668.115 -123.23 667.845 -123.149 667.57 -123.002C667.189 -122.799 666.905 -122.515 666.718 -122.152C666.534 -121.8 666.461 -121.394 666.499 -120.933C666.536 -120.472 666.695 -119.981 666.974 -119.459C667.253 -118.937 667.575 -118.529 667.941 -118.234C668.307 -117.94 668.693 -117.77 669.098 -117.723C669.5 -117.684 669.899 -117.77 670.294 -117.981C670.583 -118.136 670.809 -118.334 670.97 -118.574C671.128 -118.822 671.249 -119.104 671.334 -119.422L672.413 -119.032C672.311 -118.561 672.124 -118.138 671.851 -117.766C671.575 -117.401 671.207 -117.095 670.749 -116.85ZM676.523 -119.936C675.987 -119.65 675.439 -119.538 674.879 -119.602C674.319 -119.665 673.779 -119.903 673.26 -120.315C672.747 -120.73 672.284 -121.326 671.869 -122.102C671.466 -122.857 671.235 -123.56 671.178 -124.209C671.125 -124.87 671.229 -125.447 671.491 -125.941C671.753 -126.435 672.152 -126.825 672.689 -127.112C673.225 -127.398 673.771 -127.513 674.327 -127.457C674.884 -127.4 675.418 -127.164 675.93 -126.749C676.446 -126.344 676.905 -125.764 677.309 -125.009C677.724 -124.233 677.958 -123.515 678.012 -122.854C678.072 -122.197 677.974 -121.618 677.715 -121.117C677.457 -120.617 677.059 -120.223 676.523 -119.936ZM675.952 -121.005C676.248 -121.164 676.453 -121.4 676.566 -121.714C676.679 -122.029 676.694 -122.409 676.61 -122.854C676.527 -123.299 676.34 -123.793 676.049 -124.336C675.767 -124.865 675.467 -125.281 675.151 -125.584C674.831 -125.894 674.511 -126.086 674.191 -126.159C673.866 -126.24 673.556 -126.201 673.26 -126.043C672.963 -125.885 672.759 -125.648 672.646 -125.334C672.529 -125.026 672.51 -124.654 672.59 -124.216C672.666 -123.785 672.846 -123.304 673.128 -122.775C673.419 -122.232 673.726 -121.802 674.049 -121.485C674.373 -121.168 674.697 -120.969 675.021 -120.889C675.345 -120.808 675.656 -120.847 675.952 -121.005ZM680.409 -122.176L676.71 -129.098L678.002 -129.788L681.908 -126.882L683.325 -125.734L683.356 -125.751C683.147 -126.093 682.906 -126.458 682.634 -126.848C682.369 -127.242 682.133 -127.633 681.926 -128.021L680.319 -131.027L681.494 -131.654L685.193 -124.733L683.902 -124.043L679.99 -126.959L678.579 -128.096L678.547 -128.079C678.765 -127.724 679.004 -127.353 679.265 -126.966C679.529 -126.59 679.763 -126.212 679.967 -125.831L681.584 -122.804L680.409 -122.176ZM693.588 -129.219L689.889 -136.141L691.106 -136.791L694.251 -130.907L697.5 -132.643L698.054 -131.606L693.588 -129.219ZM698.876 -132.045L697.421 -140.166L698.86 -140.935L704.803 -135.212L703.501 -134.517L700.485 -137.64C700.19 -137.954 699.882 -138.275 699.562 -138.602C699.249 -138.934 698.945 -139.266 698.649 -139.598L698.607 -139.575C698.712 -139.141 698.815 -138.702 698.917 -138.257C699.025 -137.817 699.125 -137.384 699.215 -136.961L700.125 -132.712L698.876 -132.045ZM699.198 -134.625L698.683 -135.588L701.932 -137.325L702.447 -136.362L699.198 -134.625ZM712.626 -139.393L708.927 -146.315L710.144 -146.965L713.289 -141.081L716.538 -142.817L717.092 -141.78L712.626 -139.393ZM718.792 -142.688L715.093 -149.61L719.528 -151.98L720.082 -150.943L716.875 -149.229L717.82 -147.462L720.54 -148.915L721.094 -147.878L718.374 -146.424L719.466 -144.382L722.778 -146.152L723.332 -145.115L718.792 -142.688ZM726.609 -146.866L725.325 -149.268L720.635 -152.572L721.937 -153.267L723.81 -151.874C724.07 -151.677 724.326 -151.478 724.578 -151.277C724.831 -151.077 725.096 -150.869 725.374 -150.655L725.416 -150.677C725.385 -151.024 725.36 -151.36 725.34 -151.685C725.328 -152.014 725.31 -152.344 725.286 -152.676L725.143 -154.981L726.413 -155.66L726.553 -149.925L727.837 -147.522L726.609 -146.866ZM737.629 -152.755L733.93 -159.677L736.237 -160.91C736.717 -161.166 737.181 -161.333 737.63 -161.409C738.086 -161.49 738.508 -161.438 738.896 -161.256C739.28 -161.08 739.61 -160.735 739.885 -160.22C740.149 -159.726 740.253 -159.26 740.197 -158.821C740.141 -158.383 739.96 -157.983 739.655 -157.62C739.357 -157.261 738.968 -156.954 738.488 -156.697L737.409 -156.121L738.857 -153.411L737.629 -152.755ZM736.888 -157.094L737.841 -157.603C738.321 -157.86 738.631 -158.153 738.773 -158.482C738.921 -158.815 738.89 -159.18 738.679 -159.575C738.467 -159.97 738.193 -160.177 737.856 -160.197C737.523 -160.227 737.116 -160.114 736.636 -159.858L735.684 -159.348L736.888 -157.094ZM738.091 -156.907L738.589 -158.112L742.762 -155.498L741.376 -154.757L738.091 -156.907ZM744.176 -156.254L740.477 -163.175L744.912 -165.545L745.466 -164.508L742.259 -162.794L743.204 -161.027L745.924 -162.481L746.478 -161.443L743.758 -159.99L744.849 -157.947L748.162 -159.717L748.716 -158.68L744.176 -156.254ZM750.363 -159.56L746.664 -166.482L748.94 -167.698C749.448 -167.97 749.935 -168.144 750.402 -168.221C750.869 -168.298 751.298 -168.242 751.69 -168.052C752.088 -167.866 752.431 -167.505 752.717 -166.968C752.989 -166.46 753.097 -165.978 753.041 -165.522C752.993 -165.07 752.811 -164.655 752.495 -164.278C752.187 -163.905 751.782 -163.584 751.281 -163.316L750.233 -162.757L751.591 -160.216L750.363 -159.56ZM749.707 -163.741L750.66 -164.25C751.175 -164.525 751.5 -164.835 751.633 -165.178C751.774 -165.526 751.733 -165.907 751.511 -166.324C751.277 -166.761 750.986 -166.991 750.639 -167.014C750.294 -167.048 749.871 -166.931 749.37 -166.663L748.418 -166.154L749.707 -163.741Z" fill="#02090A"/>
</svg>
