<svg width="25" height="24" viewBox="0 0 25 24" fill="none" xmlns="http://www.w3.org/2000/svg">
<path d="M4.54372 6.16058C3.90866 7.34305 3.53137 8.64428 3.43623 9.98014H0.236816C0.452162 7.55703 1.15972 5.54719 2.34632 3.99414L4.54372 6.16058Z" fill="#F9F9F9"/>
<path d="M4.53493 16.967L2.33753 19.1421C1.06926 17.3839 0.339898 15.3011 0.236816 13.1431H3.43184C3.5212 14.4808 3.89723 15.7843 4.53493 16.967Z" fill="#F9F9F9"/>
<path d="M10.6437 20.3556V23.0571C8.54042 22.9554 6.49565 22.338 4.69312 21.2604L6.75428 19.2114C7.95125 19.8683 9.27858 20.2587 10.6437 20.3556Z" fill="#F9F9F9"/>
<path d="M19.8114 21.2912C17.9992 22.3735 15.9404 22.9855 13.8257 23.0705V20.3733C15.201 20.2921 16.5405 19.9071 17.7458 19.2466L19.8114 21.2912Z" fill="#F9F9F9"/>
<path d="M24.2368 13.143C24.0391 15.5704 23.3579 17.589 22.1449 19.1551L19.9475 16.9799C20.5758 15.7865 20.9469 14.477 21.0374 13.1343L24.2368 13.143Z" fill="#F9F9F9"/>
<path d="M24.2237 9.99745H21.0418C20.9472 8.65708 20.5731 7.35064 19.9431 6.1605L22.1405 3.98535C23.3974 5.75299 24.1199 7.8383 24.2237 9.99745Z" fill="#F9F9F9"/>
<path d="M19.807 1.84958L17.7371 3.90292C16.535 3.24061 15.1987 2.85268 13.8257 2.76749V0.0703125C15.9386 0.158042 17.9953 0.769861 19.807 1.84958Z" fill="#F9F9F9"/>
<path d="M10.6437 0.0703125V2.76749C9.28206 2.86694 7.95898 3.26044 6.76746 3.92032L4.69312 1.88003C6.49503 0.799189 8.53953 0.177403 10.6437 0.0703125Z" fill="#F9F9F9"/>
</svg>
