<svg width="667" height="22" viewBox="0 0 667 22" fill="none" xmlns="http://www.w3.org/2000/svg">
<path d="M1.41867 21.4009C0.698672 21.4009 0.338672 21.0309 0.338672 20.2909V1.51088C0.338672 0.770877 0.698672 0.400877 1.41867 0.400877H10.0287C11.6687 0.400877 12.9887 0.630877 13.9887 1.09088C15.0087 1.53088 15.7587 2.15088 16.2387 2.95088C16.7387 3.73088 16.9887 4.65088 16.9887 5.71088C16.9887 6.41088 16.8487 7.07088 16.5687 7.69088C16.2887 8.29088 15.8987 8.82088 15.3987 9.28088C14.9187 9.72088 14.3587 10.0609 13.7187 10.3009L13.7487 10.4209C14.5687 10.5809 15.2887 10.9009 15.9087 11.3809C16.5287 11.8609 17.0087 12.4409 17.3487 13.1209C17.6887 13.8009 17.8587 14.5409 17.8587 15.3409C17.8587 16.7209 17.5687 17.8609 16.9887 18.7609C16.4287 19.6609 15.5787 20.3309 14.4387 20.7709C13.3187 21.1909 11.9187 21.4009 10.2387 21.4009H1.41867ZM4.26867 18.0409H10.5687C11.6887 18.0409 12.5087 17.8109 13.0287 17.3509C13.5487 16.8709 13.8087 16.1509 13.8087 15.1909C13.8087 14.2509 13.5087 13.5509 12.9087 13.0909C12.3087 12.6309 11.3687 12.4009 10.0887 12.4009H4.26867V18.0409ZM4.26867 9.04088H9.69867C10.7987 9.04088 11.6087 8.82088 12.1287 8.38088C12.6687 7.94088 12.9387 7.25088 12.9387 6.31088C12.9387 5.43088 12.6787 4.78088 12.1587 4.36088C11.6587 3.94088 10.8387 3.73088 9.69867 3.73088H4.26867V9.04088ZM25.5145 21.4009C24.8145 21.4009 24.4645 21.0309 24.4645 20.2909V1.51088C24.4645 0.770877 24.8145 0.400877 25.5145 0.400877H39.7045C40.2245 0.400877 40.4845 0.830878 40.4845 1.69088V2.47088C40.4845 3.33088 40.2245 3.76088 39.7045 3.76088H28.4545V8.98088H38.8645C39.3845 8.98088 39.6445 9.41088 39.6445 10.2709V11.0509C39.6445 11.9109 39.3845 12.3409 38.8645 12.3409H28.4545V18.0409H39.7345C40.2545 18.0409 40.5145 18.4709 40.5145 19.3309V20.1109C40.5145 20.9709 40.2545 21.4009 39.7345 21.4009H25.5145ZM49.4166 21.4609C48.8566 21.4609 48.4466 21.3909 48.1866 21.2509C47.9266 21.0909 47.7966 20.8709 47.7966 20.5909V1.21088C47.7966 0.930878 47.9266 0.720878 48.1866 0.580879C48.4466 0.420878 48.8566 0.340878 49.4166 0.340878H50.3466C50.6466 0.340878 50.9066 0.370878 51.1266 0.430877C51.3666 0.470878 51.5766 0.550878 51.7566 0.670878C51.9366 0.790877 52.1166 0.960877 52.2966 1.18088L62.6166 13.8709C62.8766 14.1909 63.1266 14.5509 63.3666 14.9509C63.6066 15.3309 63.7866 15.6509 63.9066 15.9109L64.0266 15.8809C64.0066 15.6009 63.9766 15.2909 63.9366 14.9509C63.9166 14.5909 63.9066 14.2209 63.9066 13.8409V1.21088C63.9066 0.930878 64.0266 0.720878 64.2666 0.580879C64.5266 0.420878 64.9366 0.340878 65.4966 0.340878H66.0366C66.6166 0.340878 67.0266 0.420878 67.2666 0.580879C67.5266 0.720878 67.6566 0.930878 67.6566 1.21088V20.5909C67.6566 20.8709 67.5266 21.0909 67.2666 21.2509C67.0266 21.3909 66.6166 21.4609 66.0366 21.4609H65.1066C64.8266 21.4609 64.5766 21.4409 64.3566 21.4009C64.1366 21.3609 63.9466 21.2909 63.7866 21.1909C63.6266 21.0709 63.4766 20.9209 63.3366 20.7409L52.7766 7.78088C52.5366 7.48088 52.2966 7.14088 52.0566 6.76088C51.8366 6.38088 51.6566 6.06088 51.5166 5.80088L51.3966 5.83088C51.4366 6.11088 51.4666 6.43088 51.4866 6.79088C51.5266 7.13088 51.5466 7.49088 51.5466 7.87088V20.5909C51.5466 20.8709 51.4266 21.0909 51.1866 21.2509C50.9466 21.3909 50.5366 21.4609 49.9566 21.4609H49.4166ZM77.3348 21.4009C76.6348 21.4009 76.2848 21.0309 76.2848 20.2909V1.51088C76.2848 0.770877 76.6348 0.400877 77.3348 0.400877H91.5248C92.0448 0.400877 92.3048 0.830878 92.3048 1.69088V2.47088C92.3048 3.33088 92.0448 3.76088 91.5248 3.76088H80.2748V8.98088H90.6848C91.2048 8.98088 91.4648 9.41088 91.4648 10.2709V11.0509C91.4648 11.9109 91.2048 12.3409 90.6848 12.3409H80.2748V18.0409H91.5548C92.0748 18.0409 92.3348 18.4709 92.3348 19.3309V20.1109C92.3348 20.9709 92.0748 21.4009 91.5548 21.4009H77.3348ZM101.237 21.4609C100.677 21.4609 100.267 21.3909 100.007 21.2509C99.7469 21.0909 99.6169 20.8709 99.6169 20.5909V1.51088C99.6169 0.770877 99.9669 0.400877 100.667 0.400877H113.297C113.817 0.400877 114.077 0.830878 114.077 1.69088V2.47088C114.077 3.33088 113.817 3.76088 113.297 3.76088H103.607V10.0609H112.967C113.487 10.0609 113.747 10.4909 113.747 11.3509V12.1309C113.747 12.9909 113.487 13.4209 112.967 13.4209H103.607V20.5909C103.607 20.8709 103.477 21.0909 103.217 21.2509C102.977 21.3909 102.567 21.4609 101.987 21.4609H101.237ZM122.313 21.4609C121.753 21.4609 121.343 21.3909 121.083 21.2509C120.823 21.0909 120.693 20.8709 120.693 20.5909V1.21088C120.693 0.930878 120.823 0.720878 121.083 0.580879C121.343 0.420878 121.753 0.340878 122.313 0.340878H123.063C123.643 0.340878 124.053 0.420878 124.293 0.580879C124.553 0.720878 124.683 0.930878 124.683 1.21088V20.5909C124.683 20.8709 124.553 21.0909 124.293 21.2509C124.053 21.3909 123.643 21.4609 123.063 21.4609H122.313ZM143.352 21.6109C139.532 21.6109 136.672 20.7109 134.772 18.9109C132.892 17.1109 131.952 14.4309 131.952 10.8709C131.952 7.33088 132.932 4.67088 134.892 2.89088C136.852 1.09088 139.772 0.190878 143.652 0.190878C144.452 0.190878 145.242 0.240878 146.022 0.340878C146.802 0.440878 147.522 0.590878 148.182 0.790878C148.842 0.970878 149.392 1.17088 149.832 1.39088C150.212 1.57088 150.482 1.74088 150.642 1.90088C150.822 2.04088 150.912 2.22088 150.912 2.44088C150.912 2.58088 150.872 2.77088 150.792 3.01088C150.732 3.23088 150.652 3.46088 150.552 3.70088C150.452 3.94088 150.322 4.14088 150.162 4.30088C150.022 4.46088 149.872 4.54088 149.712 4.54088C149.492 4.54088 149.122 4.46088 148.602 4.30088C148.102 4.14088 147.442 3.98088 146.622 3.82088C145.822 3.64088 144.832 3.55088 143.652 3.55088C141.952 3.55088 140.532 3.78088 139.392 4.24088C138.252 4.70088 137.392 5.47088 136.812 6.55088C136.252 7.61088 135.972 9.05088 135.972 10.8709C135.972 12.7109 136.252 14.1709 136.812 15.2509C137.392 16.3109 138.252 17.0809 139.392 17.5609C140.532 18.0209 141.952 18.2509 143.652 18.2509C144.612 18.2509 145.462 18.1909 146.202 18.0709C146.942 17.9309 147.582 17.7809 148.122 17.6209C148.662 17.4609 149.102 17.3209 149.442 17.2009C149.802 17.0609 150.072 16.9909 150.252 16.9909C150.412 16.9909 150.552 17.0809 150.672 17.2609C150.812 17.4409 150.922 17.6609 151.002 17.9209C151.082 18.1609 151.142 18.4009 151.182 18.6409C151.242 18.8809 151.272 19.0709 151.272 19.2109C151.272 19.4709 151.202 19.6609 151.062 19.7809C150.942 19.8809 150.702 20.0209 150.342 20.2009C149.722 20.4809 149.032 20.7409 148.272 20.9809C147.512 21.2009 146.712 21.3609 145.872 21.4609C145.032 21.5609 144.192 21.6109 143.352 21.6109ZM160.129 21.4609C159.569 21.4609 159.159 21.3909 158.899 21.2509C158.639 21.0909 158.509 20.8709 158.509 20.5909V1.21088C158.509 0.930878 158.639 0.720878 158.899 0.580879C159.159 0.420878 159.569 0.340878 160.129 0.340878H160.879C161.459 0.340878 161.869 0.420878 162.109 0.580879C162.369 0.720878 162.499 0.930878 162.499 1.21088V20.5909C162.499 20.8709 162.369 21.0909 162.109 21.2509C161.869 21.3909 161.459 21.4609 160.879 21.4609H160.129ZM181.469 21.6109C177.609 21.6109 174.689 20.7009 172.709 18.8809C170.749 17.0609 169.769 14.4009 169.769 10.9009C169.769 7.38088 170.749 4.72088 172.709 2.92088C174.689 1.10088 177.609 0.190878 181.469 0.190878C185.309 0.190878 188.209 1.10088 190.169 2.92088C192.149 4.72088 193.139 7.38088 193.139 10.9009C193.139 14.4009 192.149 17.0609 190.169 18.8809C188.209 20.7009 185.309 21.6109 181.469 21.6109ZM181.469 18.2509C183.969 18.2509 185.869 17.6709 187.169 16.5109C188.469 15.3309 189.119 13.4509 189.119 10.8709C189.119 8.31088 188.469 6.45088 187.169 5.29088C185.869 4.13088 183.969 3.55088 181.469 3.55088C178.949 3.55088 177.039 4.13088 175.739 5.29088C174.439 6.45088 173.789 8.31088 173.789 10.8709C173.789 13.4509 174.439 15.3309 175.739 16.5109C177.039 17.6709 178.949 18.2509 181.469 18.2509ZM206.727 21.6109C205.527 21.6109 204.427 21.5309 203.427 21.3709C202.447 21.2109 201.597 21.0109 200.877 20.7709C200.177 20.5109 199.627 20.2809 199.227 20.0809C198.987 19.9409 198.787 19.8009 198.627 19.6609C198.467 19.5209 198.387 19.3509 198.387 19.1509C198.387 18.9509 198.417 18.7209 198.477 18.4609C198.537 18.1809 198.617 17.9109 198.717 17.6509C198.837 17.3909 198.957 17.1809 199.077 17.0209C199.217 16.8409 199.357 16.7509 199.497 16.7509C199.697 16.7509 200.127 16.8809 200.787 17.1409C201.467 17.3809 202.307 17.6309 203.307 17.8909C204.327 18.1309 205.427 18.2509 206.607 18.2509C207.607 18.2509 208.417 18.1609 209.037 17.9809C209.677 17.8009 210.147 17.5209 210.447 17.1409C210.747 16.7609 210.897 16.2809 210.897 15.7009C210.897 15.1809 210.767 14.7509 210.507 14.4109C210.247 14.0509 209.867 13.7609 209.367 13.5409C208.887 13.3009 208.327 13.0909 207.687 12.9109C207.047 12.7309 206.347 12.5509 205.587 12.3709C204.847 12.1909 204.077 11.9809 203.277 11.7409C202.497 11.5009 201.767 11.1709 201.087 10.7509C200.407 10.3109 199.847 9.74088 199.407 9.04088C198.987 8.32088 198.777 7.40088 198.777 6.28088C198.777 5.24088 198.997 4.34088 199.437 3.58088C199.897 2.82088 200.507 2.19088 201.267 1.69088C202.047 1.19088 202.927 0.820878 203.907 0.580879C204.907 0.320879 205.937 0.190878 206.997 0.190878C207.877 0.190878 208.737 0.250878 209.577 0.370878C210.417 0.490878 211.167 0.640877 211.827 0.820877C212.487 1.00088 212.977 1.18088 213.297 1.36088C213.497 1.48088 213.657 1.60088 213.777 1.72088C213.917 1.82088 213.987 1.95088 213.987 2.11088C213.987 2.27088 213.957 2.49088 213.897 2.77088C213.857 3.03088 213.787 3.30088 213.687 3.58088C213.607 3.84088 213.497 4.06088 213.357 4.24088C213.237 4.42088 213.097 4.51088 212.937 4.51088C212.717 4.51088 212.327 4.43088 211.767 4.27088C211.227 4.09088 210.557 3.93088 209.757 3.79088C208.977 3.63088 208.067 3.55088 207.027 3.55088C206.067 3.55088 205.267 3.64088 204.627 3.82088C203.987 4.00088 203.507 4.27088 203.187 4.63088C202.887 4.99088 202.737 5.44088 202.737 5.98088C202.737 6.56088 202.937 7.01088 203.337 7.33088C203.757 7.65088 204.307 7.92088 204.987 8.14088C205.687 8.34088 206.467 8.55088 207.327 8.77088C208.187 8.99088 209.057 9.24088 209.937 9.52088C210.817 9.78088 211.627 10.1309 212.367 10.5709C213.107 11.0109 213.707 11.6109 214.167 12.3709C214.627 13.1309 214.857 14.1109 214.857 15.3109C214.857 16.4109 214.637 17.3609 214.197 18.1609C213.777 18.9609 213.187 19.6209 212.427 20.1409C211.667 20.6409 210.797 21.0109 209.817 21.2509C208.837 21.4909 207.807 21.6109 206.727 21.6109ZM241.673 21.6109C237.853 21.6109 234.993 20.7109 233.093 18.9109C231.213 17.1109 230.273 14.4309 230.273 10.8709C230.273 7.33088 231.253 4.67088 233.213 2.89088C235.173 1.09088 238.093 0.190878 241.973 0.190878C242.773 0.190878 243.563 0.240878 244.343 0.340878C245.123 0.440878 245.843 0.590878 246.503 0.790878C247.163 0.970878 247.713 1.17088 248.153 1.39088C248.533 1.57088 248.803 1.74088 248.963 1.90088C249.143 2.04088 249.233 2.22088 249.233 2.44088C249.233 2.58088 249.193 2.77088 249.113 3.01088C249.053 3.23088 248.973 3.46088 248.873 3.70088C248.773 3.94088 248.643 4.14088 248.483 4.30088C248.343 4.46088 248.193 4.54088 248.033 4.54088C247.813 4.54088 247.443 4.46088 246.923 4.30088C246.423 4.14088 245.763 3.98088 244.943 3.82088C244.143 3.64088 243.153 3.55088 241.973 3.55088C240.273 3.55088 238.853 3.78088 237.713 4.24088C236.573 4.70088 235.713 5.47088 235.133 6.55088C234.573 7.61088 234.293 9.05088 234.293 10.8709C234.293 12.7109 234.573 14.1709 235.133 15.2509C235.713 16.3109 236.573 17.0809 237.713 17.5609C238.853 18.0209 240.273 18.2509 241.973 18.2509C242.933 18.2509 243.783 18.1909 244.523 18.0709C245.263 17.9309 245.903 17.7809 246.443 17.6209C246.983 17.4609 247.423 17.3209 247.763 17.2009C248.123 17.0609 248.393 16.9909 248.573 16.9909C248.733 16.9909 248.873 17.0809 248.993 17.2609C249.133 17.4409 249.243 17.6609 249.323 17.9209C249.403 18.1609 249.463 18.4009 249.503 18.6409C249.563 18.8809 249.593 19.0709 249.593 19.2109C249.593 19.4709 249.523 19.6609 249.383 19.7809C249.263 19.8809 249.023 20.0209 248.663 20.2009C248.043 20.4809 247.353 20.7409 246.593 20.9809C245.833 21.2009 245.033 21.3609 244.193 21.4609C243.353 21.5609 242.513 21.6109 241.673 21.6109ZM257.94 21.4009C257.2 21.4009 256.83 21.0309 256.83 20.2909V1.21088C256.83 0.930878 256.96 0.720878 257.22 0.580879C257.48 0.420878 257.89 0.340878 258.45 0.340878H259.2C259.78 0.340878 260.19 0.420878 260.43 0.580879C260.69 0.720878 260.82 0.930878 260.82 1.21088V18.0409H270.3C270.84 18.0409 271.11 18.4709 271.11 19.3309V20.1109C271.11 20.9709 270.84 21.4009 270.3 21.4009H257.94ZM276.512 21.4609C275.852 21.4609 275.412 21.4109 275.192 21.3109C274.972 21.1909 274.862 21.0409 274.862 20.8609C274.862 20.7809 274.872 20.7009 274.892 20.6209C274.912 20.5409 274.942 20.4509 274.982 20.3509L282.662 1.24088C282.802 0.880877 283.032 0.640877 283.352 0.520878C283.692 0.400878 284.142 0.340878 284.702 0.340878H286.202C286.762 0.340878 287.202 0.400878 287.522 0.520878C287.862 0.640877 288.102 0.880877 288.242 1.24088L295.922 20.3509C295.962 20.4509 295.982 20.5409 295.982 20.6209C296.002 20.7009 296.012 20.7809 296.012 20.8609C296.012 21.0409 295.892 21.1909 295.652 21.3109C295.432 21.4109 295.072 21.4609 294.572 21.4609H293.432C293.032 21.4609 292.692 21.4209 292.412 21.3409C292.152 21.2409 291.962 21.0409 291.842 20.7409L286.202 5.89088C286.062 5.53088 285.922 5.16088 285.782 4.78088C285.662 4.38088 285.562 4.01088 285.482 3.67088H285.392C285.312 3.99088 285.202 4.35088 285.062 4.75088C284.942 5.13088 284.802 5.51088 284.642 5.89088L278.912 20.7409C278.812 21.0409 278.642 21.2409 278.402 21.3409C278.182 21.4209 277.902 21.4609 277.562 21.4609H276.512ZM279.122 16.6609V13.5109H291.542V16.6609H279.122ZM308.824 21.4609C308.264 21.4609 307.814 21.4009 307.474 21.2809C307.154 21.1609 306.924 20.9209 306.784 20.5609L299.104 1.45088C299.084 1.35088 299.064 1.26088 299.044 1.18088C299.024 1.10088 299.014 1.02088 299.014 0.940878C299.014 0.740878 299.124 0.590878 299.344 0.490878C299.584 0.390878 299.954 0.340878 300.454 0.340878H301.594C301.994 0.340878 302.324 0.390878 302.584 0.490878C302.864 0.570878 303.064 0.760878 303.184 1.06088L309.574 18.1309H309.694L316.114 1.06088C316.214 0.760878 316.374 0.570878 316.594 0.490878C316.834 0.390878 317.124 0.340878 317.464 0.340878H318.514C319.194 0.340878 319.634 0.390878 319.834 0.490878C320.054 0.590878 320.164 0.740878 320.164 0.940878C320.164 1.02088 320.154 1.10088 320.134 1.18088C320.114 1.26088 320.084 1.35088 320.044 1.45088L312.364 20.5609C312.244 20.9209 312.014 21.1609 311.674 21.2809C311.334 21.4009 310.884 21.4609 310.324 21.4609H308.824ZM327.495 21.4009C326.795 21.4009 326.445 21.0309 326.445 20.2909V1.51088C326.445 0.770877 326.795 0.400877 327.495 0.400877H341.685C342.205 0.400877 342.465 0.830878 342.465 1.69088V2.47088C342.465 3.33088 342.205 3.76088 341.685 3.76088H330.435V8.98088H340.845C341.365 8.98088 341.625 9.41088 341.625 10.2709V11.0509C341.625 11.9109 341.365 12.3409 340.845 12.3409H330.435V18.0409H341.715C342.235 18.0409 342.495 18.4709 342.495 19.3309V20.1109C342.495 20.9709 342.235 21.4009 341.715 21.4009H327.495ZM356.077 21.6109C354.877 21.6109 353.777 21.5309 352.777 21.3709C351.797 21.2109 350.947 21.0109 350.227 20.7709C349.527 20.5109 348.977 20.2809 348.577 20.0809C348.337 19.9409 348.137 19.8009 347.977 19.6609C347.817 19.5209 347.737 19.3509 347.737 19.1509C347.737 18.9509 347.767 18.7209 347.827 18.4609C347.887 18.1809 347.967 17.9109 348.067 17.6509C348.187 17.3909 348.307 17.1809 348.427 17.0209C348.567 16.8409 348.707 16.7509 348.847 16.7509C349.047 16.7509 349.477 16.8809 350.137 17.1409C350.817 17.3809 351.657 17.6309 352.657 17.8909C353.677 18.1309 354.777 18.2509 355.957 18.2509C356.957 18.2509 357.767 18.1609 358.387 17.9809C359.027 17.8009 359.497 17.5209 359.797 17.1409C360.097 16.7609 360.247 16.2809 360.247 15.7009C360.247 15.1809 360.117 14.7509 359.857 14.4109C359.597 14.0509 359.217 13.7609 358.717 13.5409C358.237 13.3009 357.677 13.0909 357.037 12.9109C356.397 12.7309 355.697 12.5509 354.937 12.3709C354.197 12.1909 353.427 11.9809 352.627 11.7409C351.847 11.5009 351.117 11.1709 350.437 10.7509C349.757 10.3109 349.197 9.74088 348.757 9.04088C348.337 8.32088 348.127 7.40088 348.127 6.28088C348.127 5.24088 348.347 4.34088 348.787 3.58088C349.247 2.82088 349.857 2.19088 350.617 1.69088C351.397 1.19088 352.277 0.820878 353.257 0.580879C354.257 0.320879 355.287 0.190878 356.347 0.190878C357.227 0.190878 358.087 0.250878 358.927 0.370878C359.767 0.490878 360.517 0.640877 361.177 0.820877C361.837 1.00088 362.327 1.18088 362.647 1.36088C362.847 1.48088 363.007 1.60088 363.127 1.72088C363.267 1.82088 363.337 1.95088 363.337 2.11088C363.337 2.27088 363.307 2.49088 363.247 2.77088C363.207 3.03088 363.137 3.30088 363.037 3.58088C362.957 3.84088 362.847 4.06088 362.707 4.24088C362.587 4.42088 362.447 4.51088 362.287 4.51088C362.067 4.51088 361.677 4.43088 361.117 4.27088C360.577 4.09088 359.907 3.93088 359.107 3.79088C358.327 3.63088 357.417 3.55088 356.377 3.55088C355.417 3.55088 354.617 3.64088 353.977 3.82088C353.337 4.00088 352.857 4.27088 352.537 4.63088C352.237 4.99088 352.087 5.44088 352.087 5.98088C352.087 6.56088 352.287 7.01088 352.687 7.33088C353.107 7.65088 353.657 7.92088 354.337 8.14088C355.037 8.34088 355.817 8.55088 356.677 8.77088C357.537 8.99088 358.407 9.24088 359.287 9.52088C360.167 9.78088 360.977 10.1309 361.717 10.5709C362.457 11.0109 363.057 11.6109 363.517 12.3709C363.977 13.1309 364.207 14.1109 364.207 15.3109C364.207 16.4109 363.987 17.3609 363.547 18.1609C363.127 18.9609 362.537 19.6209 361.777 20.1409C361.017 20.6409 360.147 21.0109 359.167 21.2509C358.187 21.4909 357.157 21.6109 356.077 21.6109ZM381.992 21.4009C381.372 21.4009 381.062 21.1009 381.062 20.5009V1.30088C381.062 0.700878 381.372 0.400877 381.992 0.400877H390.002C393.842 0.400877 396.742 1.28088 398.702 3.04088C400.682 4.80088 401.672 7.40088 401.672 10.8409C401.672 14.3009 400.682 16.9309 398.702 18.7309C396.742 20.5109 393.842 21.4009 390.002 21.4009H381.992ZM383.762 19.1209H390.002C392.942 19.1209 395.162 18.4209 396.662 17.0209C398.182 15.6209 398.942 13.5609 398.942 10.8409C398.942 8.16088 398.182 6.13088 396.662 4.75088C395.162 3.37088 392.942 2.68088 390.002 2.68088H383.762V19.1209ZM410.552 21.4009C409.932 21.4009 409.622 21.1009 409.622 20.5009V1.30088C409.622 0.700878 409.932 0.400877 410.552 0.400877H424.262C424.662 0.400877 424.862 0.700878 424.862 1.30088V1.78088C424.862 2.38088 424.662 2.68088 424.262 2.68088H412.322V9.52088H423.362C423.762 9.52088 423.962 9.82088 423.962 10.4209V10.9009C423.962 11.5009 423.762 11.8009 423.362 11.8009H412.322V19.1209H424.292C424.692 19.1209 424.892 19.4209 424.892 20.0209V20.5009C424.892 21.1009 424.692 21.4009 424.292 21.4009H410.552ZM433.884 21.4009C433.264 21.4009 432.954 21.1009 432.954 20.5009V1.00088C432.954 0.780878 433.044 0.620878 433.224 0.520878C433.424 0.400878 433.744 0.340878 434.184 0.340878H434.424C434.884 0.340878 435.204 0.400878 435.384 0.520878C435.564 0.620878 435.654 0.780878 435.654 1.00088V19.1209H446.004C446.404 19.1209 446.604 19.4209 446.604 20.0209V20.5009C446.604 21.1009 446.404 21.4009 446.004 21.4009H433.884ZM468.903 21.5809C467.823 21.5809 466.803 21.4909 465.843 21.3109C464.903 21.1309 464.083 20.9209 463.383 20.6809C462.683 20.4409 462.173 20.2309 461.853 20.0509C461.673 19.9509 461.513 19.8409 461.373 19.7209C461.253 19.5809 461.193 19.4409 461.193 19.3009C461.193 19.2009 461.213 19.0709 461.253 18.9109C461.293 18.7309 461.343 18.5509 461.403 18.3709C461.483 18.1909 461.563 18.0409 461.643 17.9209C461.743 17.8009 461.853 17.7409 461.973 17.7409C462.173 17.7409 462.583 17.8709 463.203 18.1309C463.843 18.3909 464.643 18.6509 465.603 18.9109C466.583 19.1709 467.683 19.3009 468.903 19.3009C470.123 19.3009 471.133 19.1709 471.933 18.9109C472.753 18.6509 473.363 18.2609 473.763 17.7409C474.183 17.2009 474.393 16.5509 474.393 15.7909C474.393 15.1309 474.243 14.5909 473.943 14.1709C473.643 13.7309 473.223 13.3809 472.683 13.1209C472.163 12.8609 471.563 12.6409 470.883 12.4609C470.223 12.2809 469.533 12.1209 468.813 11.9809C467.953 11.8009 467.093 11.6009 466.233 11.3809C465.393 11.1409 464.623 10.8209 463.923 10.4209C463.223 10.0009 462.653 9.45088 462.213 8.77088C461.793 8.07088 461.583 7.17088 461.583 6.07088C461.583 5.23088 461.773 4.45088 462.153 3.73088C462.533 3.01088 463.073 2.39088 463.773 1.87088C464.473 1.35088 465.293 0.950878 466.233 0.670878C467.193 0.370878 468.233 0.220878 469.353 0.220878C470.253 0.220878 471.103 0.280878 471.903 0.400877C472.703 0.500877 473.413 0.640877 474.033 0.820877C474.653 1.00088 475.133 1.18088 475.473 1.36088C475.653 1.44088 475.793 1.52088 475.893 1.60088C475.993 1.68088 476.043 1.80088 476.043 1.96088C476.043 2.08088 476.023 2.23088 475.983 2.41088C475.963 2.59088 475.923 2.78088 475.863 2.98088C475.803 3.16088 475.723 3.32088 475.623 3.46088C475.543 3.58088 475.453 3.64088 475.353 3.64088C475.153 3.64088 474.803 3.55088 474.303 3.37088C473.803 3.17088 473.143 2.98088 472.323 2.80088C471.503 2.60088 470.493 2.50088 469.293 2.50088C468.153 2.50088 467.213 2.64088 466.473 2.92088C465.733 3.20088 465.173 3.60088 464.793 4.12088C464.433 4.64088 464.253 5.26088 464.253 5.98088C464.253 6.76088 464.483 7.37088 464.943 7.81088C465.423 8.25088 466.063 8.60088 466.863 8.86088C467.683 9.10088 468.613 9.34088 469.653 9.58088C470.533 9.76088 471.403 9.98088 472.263 10.2409C473.143 10.4809 473.943 10.8109 474.663 11.2309C475.383 11.6509 475.963 12.2309 476.403 12.9709C476.843 13.6909 477.063 14.6209 477.063 15.7609C477.063 16.6609 476.873 17.4709 476.493 18.1909C476.133 18.9109 475.593 19.5309 474.873 20.0509C474.173 20.5509 473.313 20.9309 472.293 21.1909C471.293 21.4509 470.163 21.5809 468.903 21.5809ZM494.242 21.5809C490.422 21.5809 487.522 20.6709 485.542 18.8509C483.582 17.0309 482.602 14.3609 482.602 10.8409C482.602 7.34088 483.582 4.70088 485.542 2.92088C487.522 1.12088 490.422 0.220878 494.242 0.220878C498.082 0.220878 500.982 1.12088 502.942 2.92088C504.922 4.70088 505.912 7.34088 505.912 10.8409C505.912 14.3609 504.922 17.0309 502.942 18.8509C500.982 20.6709 498.082 21.5809 494.242 21.5809ZM494.242 19.3009C497.182 19.3009 499.402 18.6209 500.902 17.2609C502.422 15.9009 503.182 13.7609 503.182 10.8409C503.182 7.94088 502.422 5.83088 500.902 4.51088C499.402 3.17088 497.182 2.50088 494.242 2.50088C491.322 2.50088 489.102 3.17088 487.582 4.51088C486.082 5.83088 485.332 7.94088 485.332 10.8409C485.332 13.7609 486.082 15.9009 487.582 17.2609C489.102 18.6209 491.322 19.3009 494.242 19.3009ZM515.09 21.4609C514.65 21.4609 514.33 21.4009 514.13 21.2809C513.95 21.1609 513.86 21.0009 513.86 20.8009V1.30088C513.86 0.700878 514.17 0.400877 514.79 0.400877H527.15C527.53 0.400877 527.72 0.700878 527.72 1.30088V1.78088C527.72 2.38088 527.53 2.68088 527.15 2.68088H516.56V10.4209H526.67C527.07 10.4209 527.27 10.7209 527.27 11.3209V11.8009C527.27 12.4009 527.07 12.7009 526.67 12.7009H516.56V20.8009C516.56 21.0009 516.47 21.1609 516.29 21.2809C516.11 21.4009 515.79 21.4609 515.33 21.4609H515.09ZM541.176 21.4609C540.776 21.4609 540.486 21.4009 540.306 21.2809C540.126 21.1609 540.036 21.0009 540.036 20.8009V2.68088H532.806C532.426 2.68088 532.236 2.38088 532.236 1.78088V1.30088C532.236 0.700878 532.426 0.400877 532.806 0.400877H549.906C550.306 0.400877 550.506 0.700878 550.506 1.30088V1.78088C550.506 2.38088 550.306 2.68088 549.906 2.68088H542.736V20.8009C542.736 21.0009 542.646 21.1609 542.466 21.2809C542.286 21.4009 541.996 21.4609 541.596 21.4609H541.176ZM562.662 21.4609C562.242 21.4609 561.902 21.4109 561.642 21.3109C561.402 21.2109 561.242 21.0509 561.162 20.8309L555.042 1.24088C555.022 1.16088 555.002 1.09088 554.982 1.03088C554.962 0.970878 554.952 0.910877 554.952 0.850877C554.952 0.690878 555.052 0.570878 555.252 0.490878C555.472 0.390878 555.802 0.340878 556.242 0.340878H556.512C556.832 0.340878 557.102 0.370878 557.322 0.430877C557.542 0.470878 557.692 0.630878 557.772 0.910878L563.052 19.6009H563.172L568.212 0.970877C568.272 0.750878 568.422 0.590878 568.662 0.490878C568.922 0.390878 569.242 0.340878 569.622 0.340878H570.492C570.892 0.340878 571.212 0.390878 571.452 0.490878C571.692 0.590878 571.842 0.750878 571.902 0.970877L576.792 19.6009H576.912L582.342 0.910878C582.422 0.630878 582.572 0.470878 582.792 0.430877C583.012 0.370878 583.272 0.340878 583.572 0.340878H583.782C584.242 0.340878 584.572 0.390878 584.772 0.490878C584.972 0.570878 585.072 0.690878 585.072 0.850877C585.072 0.910877 585.062 0.970878 585.042 1.03088C585.042 1.09088 585.022 1.17088 584.982 1.27088L578.862 20.8309C578.782 21.0509 578.612 21.2109 578.352 21.3109C578.112 21.4109 577.782 21.4609 577.362 21.4609H576.372C575.952 21.4609 575.612 21.4109 575.352 21.3109C575.092 21.2109 574.932 21.0509 574.872 20.8309L570.072 3.10088H569.952L565.152 20.8309C565.092 21.0509 564.932 21.2109 564.672 21.3109C564.412 21.4109 564.072 21.4609 563.652 21.4609H562.662ZM589.828 21.4609C589.388 21.4609 589.058 21.4209 588.838 21.3409C588.638 21.2409 588.538 21.1109 588.538 20.9509C588.538 20.8909 588.538 20.8309 588.538 20.7709C588.558 20.6909 588.588 20.6109 588.628 20.5309L596.878 0.970877C596.978 0.750878 597.148 0.590878 597.388 0.490878C597.628 0.390878 597.958 0.340878 598.378 0.340878H599.368C599.788 0.340878 600.118 0.390878 600.358 0.490878C600.618 0.590878 600.788 0.750878 600.868 0.970877L609.118 20.5609C609.158 20.6409 609.178 20.7109 609.178 20.7709C609.198 20.8309 609.208 20.8909 609.208 20.9509C609.208 21.0909 609.108 21.2109 608.908 21.3109C608.708 21.4109 608.378 21.4609 607.918 21.4609H607.648C607.328 21.4609 607.058 21.4309 606.838 21.3709C606.638 21.3109 606.488 21.1509 606.388 20.8909L599.878 4.96088C599.718 4.56088 599.538 4.10088 599.338 3.58088C599.158 3.06088 599.018 2.60088 598.918 2.20088H598.858C598.778 2.54088 598.628 2.97088 598.408 3.49088C598.208 4.01088 598.018 4.50088 597.838 4.96088L591.268 20.8909C591.168 21.1509 591.008 21.3109 590.788 21.3709C590.588 21.4309 590.338 21.4609 590.038 21.4609H589.828ZM592.528 16.0009V13.7809H605.098V16.0009H592.528ZM617.588 21.4609C617.148 21.4609 616.828 21.4009 616.628 21.2809C616.448 21.1609 616.358 21.0009 616.358 20.8009V1.30088C616.358 0.700878 616.668 0.400877 617.288 0.400877H625.778C628.138 0.400877 629.908 0.900878 631.088 1.90088C632.288 2.90088 632.888 4.41088 632.888 6.43088C632.888 7.21088 632.738 7.94088 632.438 8.62088C632.138 9.28088 631.728 9.84088 631.208 10.3009C630.708 10.7609 630.118 11.0609 629.438 11.2009V11.3209C630.078 11.5209 630.588 11.9409 630.968 12.5809C631.368 13.2209 631.758 14.0109 632.138 14.9509L634.478 20.5609C634.518 20.6409 634.538 20.7209 634.538 20.8009C634.558 20.8809 634.568 20.9409 634.568 20.9809C634.568 21.1209 634.468 21.2409 634.268 21.3409C634.068 21.4209 633.748 21.4609 633.308 21.4609H633.008C632.708 21.4609 632.448 21.4109 632.228 21.3109C632.008 21.2109 631.848 21.0609 631.748 20.8609L629.528 15.4009C629.228 14.6209 628.918 14.0209 628.598 13.6009C628.278 13.1809 627.898 12.8909 627.458 12.7309C627.018 12.5509 626.458 12.4609 625.778 12.4609H619.058V20.8009C619.058 21.0009 618.968 21.1609 618.788 21.2809C618.608 21.4009 618.288 21.4609 617.828 21.4609H617.588ZM619.058 10.1809H625.778C627.318 10.1809 628.428 9.89088 629.108 9.31088C629.808 8.71088 630.158 7.75088 630.158 6.43088C630.158 5.11088 629.808 4.16088 629.108 3.58088C628.428 2.98088 627.318 2.68088 625.778 2.68088H619.058V10.1809ZM642.261 21.4009C641.641 21.4009 641.331 21.1009 641.331 20.5009V1.30088C641.331 0.700878 641.641 0.400877 642.261 0.400877H655.971C656.371 0.400877 656.571 0.700878 656.571 1.30088V1.78088C656.571 2.38088 656.371 2.68088 655.971 2.68088H644.031V9.52088H655.071C655.471 9.52088 655.671 9.82088 655.671 10.4209V10.9009C655.671 11.5009 655.471 11.8009 655.071 11.8009H644.031V19.1209H656.001C656.401 19.1209 656.601 19.4209 656.601 20.0209V20.5009C656.601 21.1009 656.401 21.4009 656.001 21.4009H642.261ZM664.393 21.4609C663.833 21.4609 663.423 21.3909 663.163 21.2509C662.903 21.0909 662.773 20.8709 662.773 20.5909V18.1009C662.773 17.8209 662.903 17.6109 663.163 17.4709C663.423 17.3309 663.833 17.2609 664.393 17.2609H665.173C665.753 17.2609 666.163 17.3309 666.403 17.4709C666.663 17.6109 666.793 17.8209 666.793 18.1009V20.5909C666.793 20.8709 666.663 21.0909 666.403 21.2509C666.163 21.3909 665.753 21.4609 665.173 21.4609H664.393Z" fill="#02090A"/>
</svg>
