<svg width="44" height="53" viewBox="0 0 44 53" fill="none" xmlns="http://www.w3.org/2000/svg">
<path d="M38.0824 13.6915L23.9475 11.336V4.75496H26.1235V0.400879H6.53112V4.75496H8.70816V11.6736L4.23886 13.351C2.99565 13.8212 1.92463 14.6581 1.16767 15.7506C0.410698 16.8432 0.00349749 18.1399 0 19.4691L0 52.6509H43.5408V20.135C43.5451 18.5879 42.9982 17.0898 41.9981 15.9094C40.9981 14.729 39.6102 13.9435 38.0834 13.6936L38.0824 13.6915ZM32.6546 21.0823C32.6546 20.2162 32.9986 19.3856 33.6111 18.7732C34.2235 18.1607 35.0541 17.8167 35.9202 17.8167C36.7862 17.8167 37.6168 18.1607 38.2293 18.7732C38.8417 19.3856 39.1857 20.2162 39.1857 21.0823V33.0555C39.1857 33.9216 38.8417 34.7522 38.2293 35.3646C37.6168 35.977 36.7862 36.321 35.9202 36.321C35.0541 36.321 34.2235 35.977 33.6111 35.3646C32.9986 34.7522 32.6546 33.9216 32.6546 33.0555V21.0823ZM4.35408 48.2948V19.463C4.35515 19.02 4.49076 18.5878 4.74296 18.2236C4.99517 17.8594 5.35205 17.5804 5.76635 17.4236L13.0622 14.6878V4.75496H19.5934V15.0263L29.6883 16.7088C28.785 17.9888 28.3011 19.5176 28.3036 21.0843V33.0575C28.3032 34.3431 28.6282 35.6078 29.2483 36.7339C29.8684 37.86 30.7633 38.8109 31.8498 39.4981C32.9363 40.1852 34.1791 40.5862 35.4623 40.6637C36.7455 40.7412 38.0274 40.4928 39.1888 39.9414V48.2968H4.35408V48.2948Z" fill="#F9F9F9"/>
</svg>
