<svg width="53" height="49" viewBox="0 0 53 49" fill="none" xmlns="http://www.w3.org/2000/svg">
<path d="M3.2335 10.6114L1.26194 8.64194C1.05363 8.43375 0.888377 8.18656 0.775633 7.91448C0.662888 7.64241 0.604858 7.35079 0.604858 7.05628C0.604858 6.76177 0.662888 6.47014 0.775633 6.19807C0.888377 5.92599 1.05363 5.6788 1.26194 5.47061C1.47013 5.2623 1.71732 5.09705 1.98939 4.98431C2.26147 4.87156 2.55309 4.81353 2.8476 4.81353C3.14211 4.81353 3.43373 4.87156 3.70581 4.98431C3.97788 5.09705 4.22508 5.2623 4.43326 5.47061L6.40483 7.44007C6.83208 7.84817 7.40018 8.07589 7.99102 8.07589C8.58185 8.07589 9.14995 7.84817 9.5772 7.44007L16.0355 0.983862C16.2437 0.77555 16.4909 0.610301 16.763 0.497557C17.035 0.384812 17.3267 0.326782 17.6212 0.326782C17.9157 0.326782 18.2073 0.384812 18.4794 0.497557C18.7515 0.610301 18.9987 0.77555 19.2068 0.983862C19.4152 1.19205 19.5804 1.43924 19.6931 1.71132C19.8059 1.98339 19.8639 2.27501 19.8639 2.56952C19.8639 2.86403 19.8059 3.15566 19.6931 3.42773C19.5804 3.69981 19.4152 3.947 19.2068 4.15519L12.7496 10.6114C12.1247 11.2363 11.3828 11.732 10.5663 12.0702C9.74986 12.4084 8.87476 12.5825 7.99102 12.5825C7.10727 12.5825 6.23217 12.4084 5.4157 12.0702C4.59922 11.732 3.85735 11.2363 3.23245 10.6114H3.2335ZM28.1824 10.3401H50.612C50.9065 10.3401 51.1982 10.2821 51.4703 10.1694C51.7424 10.0567 51.9897 9.89147 52.1979 9.6832C52.4062 9.47493 52.5714 9.22768 52.6841 8.95556C52.7968 8.68345 52.8549 8.3918 52.8549 8.09726C52.8549 7.50232 52.6186 6.93174 52.198 6.51096C51.7774 6.09017 51.2069 5.85364 50.612 5.85336H28.1803C27.5853 5.85364 27.0147 6.09014 26.594 6.51089C26.1732 6.93164 25.9367 7.50223 25.9364 8.09726C25.9367 8.6922 26.1733 9.26267 26.594 9.68326C27.0148 10.1038 27.5854 10.3401 28.1803 10.3401H28.1824ZM7.99364 30.5289C8.87775 30.5316 9.75358 30.3586 10.5703 30.0202C11.3871 29.6818 12.1286 29.1845 12.7517 28.5574L19.2089 22.1011C19.6295 21.6804 19.8657 21.1098 19.8657 20.515C19.8657 19.9201 19.6295 19.3495 19.2089 18.9288C18.7884 18.5083 18.218 18.2721 17.6233 18.2721C17.0286 18.2721 16.4582 18.5083 16.0376 18.9288L9.57931 25.385C9.1523 25.7936 8.58411 26.0216 7.99312 26.0216C7.40213 26.0216 6.83394 25.7936 6.40693 25.385L4.43326 23.4145C4.01267 22.994 3.44231 22.7578 2.8476 22.7578C2.25289 22.7578 1.68253 22.994 1.26194 23.4145C0.841424 23.8352 0.605204 24.4058 0.605204 25.0007C0.605204 25.5955 0.841424 26.1661 1.26194 26.5868L3.2335 28.5574C3.8572 29.1844 4.59904 29.6815 5.41612 30.0199C6.23319 30.3583 7.10926 30.5313 7.99364 30.5289ZM28.1824 28.2861H50.612C50.9066 28.2861 51.1984 28.228 51.4706 28.1152C51.7427 28.0025 51.99 27.8372 52.1983 27.6288C52.4066 27.4204 52.5718 27.173 52.6844 26.9008C52.7971 26.6286 52.855 26.3368 52.8549 26.0422C52.8549 25.4473 52.6186 24.8769 52.1979 24.4562C51.7773 24.0356 51.2068 23.7993 50.612 23.7993H28.1803C27.5854 23.7993 27.0148 24.0356 26.594 24.4562C26.1733 24.8768 25.9367 25.4472 25.9364 26.0422C25.9364 26.6373 26.1729 27.208 26.5937 27.6288C27.0145 28.0497 27.5852 28.2861 28.1803 28.2861H28.1824ZM7.99364 48.4749C8.87771 48.4773 9.75347 48.3043 10.5702 47.9658C11.3869 47.6274 12.1284 47.1303 12.7517 46.5033L19.2089 40.0471C19.6295 39.6263 19.8657 39.0558 19.8657 38.4609C19.8657 37.866 19.6295 37.2955 19.2089 36.8747C19.0008 36.6664 18.7536 36.5012 18.4815 36.3884C18.2094 36.2757 17.9178 36.2176 17.6233 36.2176C17.3288 36.2176 17.0372 36.2757 16.7651 36.3884C16.493 36.5012 16.2458 36.6664 16.0376 36.8747L9.5772 43.333C9.1502 43.7416 8.582 43.9697 7.99102 43.9697C7.40003 43.9697 6.83183 43.7416 6.40483 43.333L4.43326 41.3604C4.01267 40.94 3.44231 40.7038 2.8476 40.7038C2.25289 40.7038 1.68253 40.94 1.26194 41.3604C1.05363 41.5686 0.888377 41.8158 0.775633 42.0879C0.662888 42.36 0.604858 42.6516 0.604858 42.9461C0.604858 43.2406 0.662888 43.5322 0.775633 43.8043C0.888377 44.0764 1.05363 44.3236 1.26194 44.5317L3.2335 46.5033C3.85709 47.1299 4.59862 47.6267 5.41528 47.9651C6.23194 48.3035 7.10755 48.4768 7.99154 48.4749H7.99364ZM28.1824 46.231H50.612C51.2068 46.231 51.7773 45.9947 52.1979 45.5741C52.6186 45.1534 52.8549 44.583 52.8549 43.9881C52.8549 43.3933 52.6186 42.8228 52.1979 42.4022C51.7773 41.9816 51.2068 41.7453 50.612 41.7453H28.1803C27.5854 41.7453 27.0148 41.9815 26.594 42.4021C26.1733 42.8227 25.9367 43.3932 25.9364 43.9881C25.9367 44.5831 26.1733 45.1535 26.594 45.5741C27.0148 45.9947 27.5854 46.231 28.1803 46.231H28.1824Z" fill="#F9F9F9"/>
</svg>
