<svg width="179" height="93" viewBox="0 0 179 93" fill="none" xmlns="http://www.w3.org/2000/svg">
<path d="M75.4986 83.8101H74.2292C61.1297 83.8101 48.0243 83.8101 34.913 83.8101H33.6789H3.16916H1.90857C1.90857 86.1961 1.90857 88.585 1.90857 90.9769V92.2992H75.5162V87.1246C75.5162 86.0227 75.5074 84.912 75.4986 83.8101ZM33.6701 91.021H3.17797C3.17797 90.3686 3.17797 89.7163 3.17797 89.064C3.17797 87.7593 3.17797 86.4194 3.17797 85.1412C13.342 85.1412 23.506 85.1412 33.6789 85.1412C33.6789 87.104 33.6759 89.064 33.6701 91.021ZM74.2204 91.021C61.1209 91.021 48.0184 91.021 34.913 91.021V85.15C48.0243 85.15 61.1268 85.15 74.2204 85.15C74.2204 86.2519 74.2204 87.3538 74.2204 88.4557C74.2292 89.3108 74.238 90.1571 74.238 91.0121L74.2204 91.021Z" fill="#F9F9F9"/>
<path d="M7.56812 40.9676C14.162 34.7352 24.5111 33.7655 32.6829 37.2476V45.3488C28.2752 43.5858 23.1712 42.3164 18.4815 43.9031C16.4775 44.56 14.708 45.7857 13.3885 47.4308C12.069 49.0758 11.2565 51.0692 11.0502 53.168C10.7872 55.2663 11.1745 57.3949 12.1598 59.2661C13.1451 61.1373 14.6808 62.6611 16.5597 63.6317C21.6109 66.3821 27.6229 65.2449 32.6829 63.1469C32.6829 65.8561 32.6829 68.5654 32.6829 71.2746C27.4378 73.7517 21.32 73.6812 15.8192 72.1561C12.9639 71.3673 10.3302 69.9277 8.12466 67.9501C5.91917 65.9724 4.2019 63.5107 3.10759 60.7579C1.81758 57.3869 1.55275 53.7097 2.34638 50.1885C3.14001 46.6674 4.95669 43.4594 7.56812 40.9676Z" fill="#F9F9F9"/>
<path d="M52.7111 35.5549C58.1942 34.6734 64.268 35.5549 68.5786 39.2573C74.67 44.2556 76.724 53.1326 74.3438 60.511C73.4904 63.2886 71.9775 65.8185 69.9344 67.8846C67.8913 69.9508 65.3785 71.4919 62.6107 72.3764C58.4349 73.5875 53.9896 73.5015 49.8638 72.1296C47.5943 71.3434 45.5083 70.1042 43.7323 68.4874C41.9563 66.8705 40.5274 64.9096 39.5323 62.7237C35.8739 54.9045 37.9543 44.6964 44.6099 39.1339C46.9658 37.2777 49.7524 36.0466 52.7111 35.5549ZM53.813 43.3917C51.7287 43.9443 49.8669 45.1294 48.4839 46.7839C47.101 48.4383 46.2649 50.4808 46.0908 52.6301C45.3768 57.1259 47.4396 62.0713 51.5475 64.284C53.5481 65.3068 55.8177 65.6808 58.0407 65.3537C60.2636 65.0267 62.3294 64.0149 63.9506 62.4592C67.5561 58.8361 67.9175 52.8241 65.652 48.4164C63.5804 44.1763 58.2736 42.2457 53.813 43.3917Z" fill="#F9F9F9"/>
<path d="M156.59 35.5199C162.197 34.6383 168.385 35.7403 172.696 39.6366C179.616 45.6927 180.912 56.8088 176.222 64.5663C175.024 66.5731 173.438 68.3208 171.557 69.7073C169.675 71.0938 167.536 72.0912 165.265 72.6411C160.149 73.9125 154.74 73.1709 150.155 70.5695C147.882 69.1738 145.942 67.2978 144.471 65.0729C143 62.848 142.034 60.3283 141.64 57.6903C140.45 50.259 143.5 41.8845 150.067 37.8647C152.071 36.6723 154.286 35.8762 156.59 35.5199ZM157.657 43.339C152.923 44.3264 149.679 48.9808 149.644 53.697C149.291 58.2545 151.892 63.0324 156.238 64.7161C160.09 66.1618 164.868 65.3773 167.698 62.3095C171.312 58.519 171.585 52.2513 168.967 47.8348C166.754 44.009 161.871 42.3341 157.657 43.339Z" fill="#F9F9F9"/>
<path d="M81.5192 72.3501C81.5192 60.2467 81.5192 48.1433 81.5192 36.0752C85.9268 36.0752 90.3345 36.0752 94.7421 36.0752C98.0478 36.1369 101.539 37.1242 103.866 39.6013C106.731 42.7396 107.26 47.5351 105.982 51.4491C104.897 54.6226 101.927 56.6501 98.85 57.6198C102.57 62.5123 106.228 67.44 109.931 72.3589C106.405 72.3589 102.94 72.4295 99.4495 72.306C96.3377 67.537 93.0231 62.8913 89.8496 58.2016C89.8496 62.9266 89.8496 67.6604 89.8496 72.3942L81.5192 72.3501ZM89.9025 42.6073C89.9025 45.9042 89.9025 49.21 89.9025 52.5157C91.9212 52.5157 94.125 52.7097 95.9322 51.6342C98.6296 50.0386 98.9205 45.5428 96.2936 43.7533C94.3983 42.4927 92.027 42.6955 89.8937 42.6073H89.9025Z" fill="#F9F9F9"/>
<path d="M115.476 36.0752H137.937V43.2244C133.265 43.2244 128.584 43.2244 123.912 43.2244V50.1797H136.174V57.3289C132.093 57.3289 128.02 57.3289 123.938 57.3289C123.938 62.3448 123.938 67.3607 123.938 72.3677H115.467L115.476 36.0752Z" fill="#F9F9F9"/>
<path d="M2.4137 15.0327V5.19271H8.4587V6.24271H3.6737V9.57271H7.7237V10.6227H3.6737V15.0327H2.4137ZM14.1528 15.0327V8.74771H10.7628V7.74271H15.3828V15.0327H14.1528ZM14.6328 6.21271C14.3528 6.21271 14.1178 6.12771 13.9278 5.95771C13.7378 5.77771 13.6428 5.54271 13.6428 5.25271C13.6428 4.96271 13.7378 4.73271 13.9278 4.56271C14.1178 4.38271 14.3528 4.29271 14.6328 4.29271C14.9128 4.29271 15.1478 4.38271 15.3378 4.56271C15.5278 4.73271 15.6228 4.96271 15.6228 5.25271C15.6228 5.54271 15.5278 5.77771 15.3378 5.95771C15.1478 6.12771 14.9128 6.21271 14.6328 6.21271ZM19.802 15.0327V7.74271H20.822L20.927 8.98771H20.987C21.367 8.57771 21.777 8.23771 22.217 7.96771C22.657 7.69771 23.162 7.56271 23.732 7.56271C24.592 7.56271 25.227 7.81271 25.637 8.31271C26.047 8.81271 26.252 9.54271 26.252 10.5027V15.0327H25.022V10.6677C25.022 9.97771 24.892 9.46771 24.632 9.13771C24.372 8.79771 23.942 8.62771 23.342 8.62771C22.912 8.62771 22.527 8.73771 22.187 8.95771C21.847 9.17771 21.462 9.50771 21.032 9.94771V15.0327H19.802ZM31.0911 15.2127C30.6411 15.2127 30.2261 15.1327 29.8461 14.9727C29.4661 14.8027 29.1661 14.5627 28.9461 14.2527C28.7261 13.9427 28.6161 13.5727 28.6161 13.1427C28.6161 12.3227 29.0261 11.7027 29.8461 11.2827C30.6661 10.8527 32.0161 10.5627 33.8961 10.4127C33.8861 10.0827 33.8161 9.77771 33.6861 9.49771C33.5661 9.21771 33.3661 8.99771 33.0861 8.83771C32.8061 8.66771 32.4311 8.58271 31.9611 8.58271C31.6511 8.58271 31.3411 8.62771 31.0311 8.71771C30.7311 8.79771 30.4411 8.90771 30.1611 9.04771C29.8911 9.17771 29.6411 9.31271 29.4111 9.45271L28.9311 8.61271C29.1711 8.45271 29.4611 8.29271 29.8011 8.13271C30.1511 7.96271 30.5261 7.82771 30.9261 7.72771C31.3261 7.61771 31.7411 7.56271 32.1711 7.56271C32.8411 7.56271 33.3911 7.68771 33.8211 7.93771C34.2611 8.18771 34.5861 8.53771 34.7961 8.98771C35.0161 9.42771 35.1261 9.95271 35.1261 10.5627V15.0327H34.1211L34.0161 14.0427H33.9711C33.5711 14.3627 33.1211 14.6377 32.6211 14.8677C32.1211 15.0977 31.6111 15.2127 31.0911 15.2127ZM31.4211 14.2227C31.8411 14.2227 32.2561 14.1277 32.6661 13.9377C33.0761 13.7477 33.4861 13.4827 33.8961 13.1427V11.2227C32.8561 11.3127 32.0361 11.4377 31.4361 11.5977C30.8461 11.7577 30.4261 11.9627 30.1761 12.2127C29.9361 12.4527 29.8161 12.7327 29.8161 13.0527C29.8161 13.3227 29.8911 13.5477 30.0411 13.7277C30.1911 13.8977 30.3861 14.0227 30.6261 14.1027C30.8761 14.1827 31.1411 14.2227 31.4211 14.2227ZM37.7903 15.0327V7.74271H38.8103L38.9153 8.98771H38.9753C39.3553 8.57771 39.7653 8.23771 40.2053 7.96771C40.6453 7.69771 41.1503 7.56271 41.7203 7.56271C42.5803 7.56271 43.2153 7.81271 43.6253 8.31271C44.0353 8.81271 44.2403 9.54271 44.2403 10.5027V15.0327H43.0103V10.6677C43.0103 9.97771 42.8803 9.46771 42.6203 9.13771C42.3603 8.79771 41.9303 8.62771 41.3303 8.62771C40.9003 8.62771 40.5153 8.73771 40.1753 8.95771C39.8353 9.17771 39.4503 9.50771 39.0203 9.94771V15.0327H37.7903ZM50.5794 15.2127C49.8194 15.2127 49.1344 15.0627 48.5244 14.7627C47.9244 14.4627 47.4494 14.0277 47.0994 13.4577C46.7594 12.8877 46.5894 12.2027 46.5894 11.4027C46.5894 10.5827 46.7744 9.88771 47.1444 9.31771C47.5144 8.74771 48.0044 8.31271 48.6144 8.01271C49.2344 7.71271 49.9144 7.56271 50.6544 7.56271C51.2544 7.56271 51.7694 7.66771 52.1994 7.87771C52.6394 8.08771 53.0094 8.33771 53.3094 8.62771L52.6944 9.42271C52.3944 9.16271 52.0844 8.95771 51.7644 8.80771C51.4444 8.65771 51.0894 8.58271 50.6994 8.58271C50.1394 8.58271 49.6444 8.70271 49.2144 8.94271C48.7844 9.17271 48.4494 9.50271 48.2094 9.93271C47.9794 10.3527 47.8644 10.8427 47.8644 11.4027C47.8644 11.9527 47.9794 12.4377 48.2094 12.8577C48.4394 13.2777 48.7644 13.6077 49.1844 13.8477C49.6144 14.0777 50.1094 14.1927 50.6694 14.1927C51.1194 14.1927 51.5294 14.1027 51.8994 13.9227C52.2794 13.7427 52.6194 13.5277 52.9194 13.2777L53.4744 14.0727C53.0744 14.4327 52.6244 14.7127 52.1244 14.9127C51.6344 15.1127 51.1194 15.2127 50.5794 15.2127ZM59.1235 15.0327V8.74771H55.7335V7.74271H60.3535V15.0327H59.1235ZM59.6035 6.21271C59.3235 6.21271 59.0885 6.12771 58.8985 5.95771C58.7085 5.77771 58.6135 5.54271 58.6135 5.25271C58.6135 4.96271 58.7085 4.73271 58.8985 4.56271C59.0885 4.38271 59.3235 4.29271 59.6035 4.29271C59.8835 4.29271 60.1185 4.38271 60.3085 4.56271C60.4985 4.73271 60.5935 4.96271 60.5935 5.25271C60.5935 5.54271 60.4985 5.77771 60.3085 5.95771C60.1185 6.12771 59.8835 6.21271 59.6035 6.21271ZM67.0677 15.2127C66.6177 15.2127 66.2027 15.1327 65.8227 14.9727C65.4427 14.8027 65.1427 14.5627 64.9227 14.2527C64.7027 13.9427 64.5927 13.5727 64.5927 13.1427C64.5927 12.3227 65.0027 11.7027 65.8227 11.2827C66.6427 10.8527 67.9927 10.5627 69.8727 10.4127C69.8627 10.0827 69.7927 9.77771 69.6627 9.49771C69.5427 9.21771 69.3427 8.99771 69.0627 8.83771C68.7827 8.66771 68.4077 8.58271 67.9377 8.58271C67.6277 8.58271 67.3177 8.62771 67.0077 8.71771C66.7077 8.79771 66.4177 8.90771 66.1377 9.04771C65.8677 9.17771 65.6177 9.31271 65.3877 9.45271L64.9077 8.61271C65.1477 8.45271 65.4377 8.29271 65.7777 8.13271C66.1277 7.96271 66.5027 7.82771 66.9027 7.72771C67.3027 7.61771 67.7177 7.56271 68.1477 7.56271C68.8177 7.56271 69.3677 7.68771 69.7977 7.93771C70.2377 8.18771 70.5627 8.53771 70.7727 8.98771C70.9927 9.42771 71.1027 9.95271 71.1027 10.5627V15.0327H70.0977L69.9927 14.0427H69.9477C69.5477 14.3627 69.0977 14.6377 68.5977 14.8677C68.0977 15.0977 67.5877 15.2127 67.0677 15.2127ZM67.3977 14.2227C67.8177 14.2227 68.2327 14.1277 68.6427 13.9377C69.0527 13.7477 69.4627 13.4827 69.8727 13.1427V11.2227C68.8327 11.3127 68.0127 11.4377 67.4127 11.5977C66.8227 11.7577 66.4027 11.9627 66.1527 12.2127C65.9127 12.4527 65.7927 12.7327 65.7927 13.0527C65.7927 13.3227 65.8677 13.5477 66.0177 13.7277C66.1677 13.8977 66.3627 14.0227 66.6027 14.1027C66.8527 14.1827 67.1177 14.2227 67.3977 14.2227ZM76.4368 15.2127C75.4868 15.2127 74.7218 14.8827 74.1418 14.2227C73.5618 13.5527 73.2718 12.6127 73.2718 11.4027C73.2718 10.6127 73.4268 9.93271 73.7368 9.36271C74.0568 8.78271 74.4668 8.33771 74.9668 8.02771C75.4768 7.71771 76.0168 7.56271 76.5868 7.56271C77.0168 7.56271 77.4068 7.64771 77.7568 7.81771C78.1168 7.97771 78.4518 8.20771 78.7618 8.50771H78.8068L78.7468 7.15771V4.35271H79.9768V15.0327H78.9568L78.8518 14.0727H78.8068C78.5168 14.3827 78.1618 14.6527 77.7418 14.8827C77.3318 15.1027 76.8968 15.2127 76.4368 15.2127ZM76.6918 14.1777C77.0518 14.1777 77.4018 14.0877 77.7418 13.9077C78.0818 13.7177 78.4168 13.4427 78.7468 13.0827V9.45271C78.4168 9.14271 78.0918 8.92271 77.7718 8.79271C77.4618 8.66271 77.1468 8.59771 76.8268 8.59771C76.4068 8.59771 76.0218 8.71771 75.6718 8.95771C75.3318 9.18771 75.0568 9.51271 74.8468 9.93271C74.6468 10.3427 74.5468 10.8277 74.5468 11.3877C74.5468 12.2577 74.7368 12.9427 75.1168 13.4427C75.4968 13.9327 76.0218 14.1777 76.6918 14.1777ZM85.866 15.2127C85.226 15.2127 84.631 15.0627 84.081 14.7627C83.541 14.4627 83.101 14.0277 82.761 13.4577C82.431 12.8877 82.266 12.2027 82.266 11.4027C82.266 10.5827 82.431 9.88771 82.761 9.31771C83.101 8.74771 83.541 8.31271 84.081 8.01271C84.631 7.71271 85.226 7.56271 85.866 7.56271C86.506 7.56271 87.096 7.71271 87.636 8.01271C88.186 8.31271 88.626 8.74771 88.956 9.31771C89.296 9.88771 89.466 10.5827 89.466 11.4027C89.466 12.2027 89.296 12.8877 88.956 13.4577C88.626 14.0277 88.186 14.4627 87.636 14.7627C87.096 15.0627 86.506 15.2127 85.866 15.2127ZM85.866 14.1927C86.336 14.1927 86.746 14.0777 87.096 13.8477C87.446 13.6077 87.716 13.2777 87.906 12.8577C88.096 12.4377 88.191 11.9527 88.191 11.4027C88.191 10.8427 88.096 10.3527 87.906 9.93271C87.716 9.50271 87.446 9.17271 87.096 8.94271C86.746 8.70271 86.336 8.58271 85.866 8.58271C85.396 8.58271 84.986 8.70271 84.636 8.94271C84.296 9.17271 84.026 9.50271 83.826 9.93271C83.636 10.3527 83.541 10.8427 83.541 11.4027C83.541 11.9527 83.636 12.4377 83.826 12.8577C84.026 13.2777 84.296 13.6077 84.636 13.8477C84.986 14.0777 85.396 14.1927 85.866 14.1927ZM100.749 18.1077V7.74271H101.769L101.874 8.67271H101.919C102.259 8.35271 102.649 8.08771 103.089 7.87771C103.539 7.66771 103.989 7.56271 104.439 7.56271C105.099 7.56271 105.649 7.71771 106.089 8.02771C106.539 8.32771 106.879 8.75771 107.109 9.31771C107.339 9.86771 107.454 10.5227 107.454 11.2827C107.454 12.1027 107.299 12.8077 106.989 13.3977C106.679 13.9877 106.274 14.4377 105.774 14.7477C105.274 15.0577 104.729 15.2127 104.139 15.2127C103.809 15.2127 103.444 15.1327 103.044 14.9727C102.654 14.8027 102.294 14.5677 101.964 14.2677H101.919L101.979 15.6477V18.1077H100.749ZM103.929 14.1777C104.359 14.1777 104.744 14.0627 105.084 13.8327C105.424 13.6027 105.689 13.2727 105.879 12.8427C106.079 12.4027 106.179 11.8827 106.179 11.2827C106.179 10.7527 106.109 10.2877 105.969 9.88771C105.829 9.47771 105.609 9.16271 105.309 8.94271C105.009 8.71271 104.614 8.59771 104.124 8.59771C103.794 8.59771 103.444 8.68771 103.074 8.86771C102.714 9.03771 102.349 9.31271 101.979 9.69271V13.3227C102.329 13.6327 102.679 13.8527 103.029 13.9827C103.389 14.1127 103.689 14.1777 103.929 14.1777ZM112.848 15.2127C112.208 15.2127 111.613 15.0627 111.063 14.7627C110.523 14.4627 110.083 14.0277 109.743 13.4577C109.413 12.8877 109.248 12.2027 109.248 11.4027C109.248 10.5827 109.413 9.88771 109.743 9.31771C110.083 8.74771 110.523 8.31271 111.063 8.01271C111.613 7.71271 112.208 7.56271 112.848 7.56271C113.488 7.56271 114.078 7.71271 114.618 8.01271C115.168 8.31271 115.608 8.74771 115.938 9.31771C116.278 9.88771 116.448 10.5827 116.448 11.4027C116.448 12.2027 116.278 12.8877 115.938 13.4577C115.608 14.0277 115.168 14.4627 114.618 14.7627C114.078 15.0627 113.488 15.2127 112.848 15.2127ZM112.848 14.1927C113.318 14.1927 113.728 14.0777 114.078 13.8477C114.428 13.6077 114.698 13.2777 114.888 12.8577C115.078 12.4377 115.173 11.9527 115.173 11.4027C115.173 10.8427 115.078 10.3527 114.888 9.93271C114.698 9.50271 114.428 9.17271 114.078 8.94271C113.728 8.70271 113.318 8.58271 112.848 8.58271C112.378 8.58271 111.968 8.70271 111.618 8.94271C111.278 9.17271 111.008 9.50271 110.808 9.93271C110.618 10.3527 110.523 10.8427 110.523 11.4027C110.523 11.9527 110.618 12.4377 110.808 12.8577C111.008 13.2777 111.278 13.6077 111.618 13.8477C111.968 14.0777 112.378 14.1927 112.848 14.1927ZM119.533 15.0327V7.74271H120.553L120.658 9.46771H120.703C121.083 8.87771 121.553 8.41271 122.113 8.07271C122.673 7.73271 123.288 7.56271 123.958 7.56271C124.228 7.56271 124.478 7.58771 124.708 7.63771C124.948 7.67771 125.178 7.75271 125.398 7.86271L125.113 8.92771C124.863 8.83771 124.648 8.77271 124.468 8.73271C124.288 8.69271 124.053 8.67271 123.763 8.67271C123.213 8.67271 122.683 8.83271 122.173 9.15271C121.673 9.46271 121.203 9.99771 120.763 10.7577V15.0327H119.533ZM130.837 9.84271C130.507 9.84271 130.222 9.72771 129.982 9.49771C129.742 9.25771 129.622 8.95271 129.622 8.58271C129.622 8.20271 129.742 7.89771 129.982 7.66771C130.222 7.42771 130.507 7.30771 130.837 7.30771C131.177 7.30771 131.462 7.42771 131.692 7.66771C131.932 7.89771 132.052 8.20271 132.052 8.58271C132.052 8.95271 131.932 9.25771 131.692 9.49771C131.462 9.72771 131.177 9.84271 130.837 9.84271ZM130.837 15.2127C130.507 15.2127 130.222 15.0977 129.982 14.8677C129.742 14.6277 129.622 14.3227 129.622 13.9527C129.622 13.5727 129.742 13.2677 129.982 13.0377C130.222 12.7977 130.507 12.6777 130.837 12.6777C131.177 12.6777 131.462 12.7977 131.692 13.0377C131.932 13.2677 132.052 13.5727 132.052 13.9527C132.052 14.3227 131.932 14.6277 131.692 14.8677C131.462 15.0977 131.177 15.2127 130.837 15.2127Z" fill="#F9F9F9"/>
</svg>
