<svg width="53" height="53" viewBox="0 0 53 53" fill="none" xmlns="http://www.w3.org/2000/svg">
<path d="M28.2173 28.7029V35.2335C28.205 35.8027 27.9702 36.3445 27.5633 36.7427C27.1563 37.1409 26.6096 37.3639 26.0403 37.3639C25.4709 37.3639 24.9242 37.1409 24.5173 36.7427C24.1103 36.3445 23.8756 35.8027 23.8632 35.2335V28.7029H17.3326C16.7634 28.6906 16.2216 28.4558 15.8234 28.0488C15.4252 27.6419 15.2022 27.0952 15.2022 26.5258C15.2022 25.9565 15.4252 25.4098 15.8234 25.0028C16.2216 24.5959 16.7634 24.3611 17.3326 24.3488H23.8632V17.8182C23.8756 17.249 24.1103 16.7072 24.5173 16.309C24.9242 15.9108 25.4709 15.6878 26.0403 15.6878C26.6096 15.6878 27.1563 15.9108 27.5633 16.309C27.9702 16.7072 28.205 17.249 28.2173 17.8182V24.3488H34.7479C35.3171 24.3611 35.8589 24.5959 36.2571 25.0028C36.6553 25.4098 36.8783 25.9565 36.8783 26.5258C36.8783 27.0952 36.6553 27.6419 36.2571 28.0488C35.8589 28.4558 35.3171 28.6906 34.7479 28.7029H28.2173ZM52.2499 11.2866V32.9029C52.2541 34.6189 51.9183 36.3188 51.2619 37.9044C50.6055 39.4899 49.6414 40.9297 48.4254 42.1406L41.7346 48.8243C40.5251 50.042 39.0858 51.0073 37.5002 51.6642C35.9145 52.3211 34.2142 52.6564 32.4979 52.6508H10.8857C7.9998 52.6476 5.23302 51.4998 3.19229 49.4592C1.15155 47.4187 0.00351098 44.652 0 41.7661L0 11.2866C0.00351045 8.40059 1.15152 5.63381 3.19222 3.5931C5.23293 1.5524 7.99971 0.404389 10.8857 0.400879H41.3653C44.2511 0.40439 47.0178 1.55243 49.0584 3.59317C51.0989 5.6339 52.2467 8.40068 52.2499 11.2866ZM32.653 48.2947V39.5845C32.6554 37.8532 33.3443 36.1936 34.5685 34.9693C35.7927 33.7452 37.4523 33.0563 39.1836 33.0539H47.8897V11.2866C47.8873 9.5553 47.1985 7.89563 45.9743 6.67143C44.7501 5.44723 43.0904 4.7584 41.3591 4.75598H10.8857C9.15442 4.7584 7.49475 5.44723 6.27055 6.67143C5.04635 7.89563 4.35753 9.5553 4.3551 11.2866V41.7661C4.35753 43.4974 5.04635 45.1571 6.27055 46.3813C7.49475 47.6055 9.15442 48.2943 10.8857 48.2967H32.653V48.2947ZM45.3469 39.0621C45.8433 38.5658 46.2781 38.0114 46.6418 37.411H39.1836C38.6077 37.4127 38.0558 37.6422 37.6485 38.0494C37.2413 38.4567 37.0118 39.0086 37.0102 39.5845V47.0335C37.6099 46.6697 38.1635 46.2349 38.6591 45.7386L45.3469 39.0549V39.0621Z" fill="#F9F9F9"/>
</svg>
