<svg width="593" height="173" viewBox="0 0 593 173" fill="none" xmlns="http://www.w3.org/2000/svg">
<path d="M22.8328 42.7608C15.1128 42.7608 9.39283 40.9608 5.67283 37.3608C1.99283 33.7608 0.152832 28.4008 0.152832 21.2808C0.152832 14.2408 2.09283 8.94082 5.97283 5.38082C9.89283 1.82082 15.7128 0.0408161 23.4328 0.0408161C24.6728 0.0408161 25.9928 0.120816 27.3928 0.280817C28.7928 0.440817 30.1528 0.660816 31.4728 0.940815C32.7928 1.18081 33.9128 1.50082 34.8328 1.90082C35.7928 2.30082 36.3928 2.60082 36.6328 2.80082C36.9128 3.00082 37.0528 3.32082 37.0528 3.76081C37.0528 4.00082 37.0128 4.28082 36.9328 4.60081C36.8528 4.92082 36.7328 5.24082 36.5728 5.56082C36.4528 5.88082 36.2928 6.16082 36.0928 6.40082C35.8928 6.60082 35.6728 6.70082 35.4328 6.70082C35.1528 6.70082 34.4928 6.52082 33.4528 6.16082C32.4528 5.80082 31.1128 5.46082 29.4328 5.14081C27.7528 4.78081 25.7528 4.60081 23.4328 4.60081C19.5128 4.60081 16.2128 5.14081 13.5328 6.22082C10.8928 7.30082 8.91283 9.06082 7.59283 11.5008C6.27283 13.9408 5.61283 17.2008 5.61283 21.2808C5.61283 25.4008 6.27283 28.7008 7.59283 31.1808C8.91283 33.6608 10.8928 35.4608 13.5328 36.5808C16.2128 37.6608 19.5128 38.2008 23.4328 38.2008C25.4328 38.2008 27.1928 38.0808 28.7128 37.8408C30.2328 37.5608 31.5328 37.2608 32.6128 36.9408C33.6928 36.5808 34.5328 36.2808 35.1328 36.0408C35.7728 35.7608 36.1928 35.6208 36.3928 35.6208C36.6328 35.6208 36.8528 35.7608 37.0528 36.0408C37.2528 36.2808 37.4128 36.5808 37.5328 36.9408C37.6528 37.3008 37.7328 37.6408 37.7728 37.9608C37.8528 38.2808 37.8928 38.5008 37.8928 38.6208C37.8928 39.0608 37.6928 39.4008 37.2928 39.6408C36.9328 39.8808 36.2328 40.2008 35.1928 40.6008C33.9928 41.0408 32.6928 41.4408 31.2928 41.8008C29.9328 42.1208 28.5328 42.3608 27.0928 42.5208C25.6528 42.6808 24.2328 42.7608 22.8328 42.7608ZM72.1069 42.7608C66.1069 42.7608 61.5669 41.6008 58.4869 39.2808C55.4069 36.9208 53.8669 33.4808 53.8669 28.9608V1.60082C53.8669 1.16082 54.0469 0.840815 54.4069 0.640815C54.8069 0.400816 55.4469 0.280817 56.3269 0.280817H56.8069C57.7269 0.280817 58.3669 0.400816 58.7269 0.640815C59.0869 0.840815 59.2669 1.16082 59.2669 1.60082V29.1408C59.2669 32.1008 60.3469 34.3608 62.5069 35.9208C64.7069 37.4408 67.9069 38.2008 72.1069 38.2008C76.3869 38.2008 79.6069 37.4408 81.7669 35.9208C83.9669 34.3608 85.0669 32.1008 85.0669 29.1408V1.60082C85.0669 1.16082 85.2469 0.840815 85.6069 0.640815C86.0069 0.400816 86.6469 0.280817 87.5269 0.280817H88.0069C88.9269 0.280817 89.5669 0.400816 89.9269 0.640815C90.2869 0.840815 90.4669 1.16082 90.4669 1.60082V28.9608C90.4669 33.4808 88.9069 36.9208 85.7869 39.2808C82.7069 41.6008 78.1469 42.7608 72.1069 42.7608ZM112.146 42.5208C111.266 42.5208 110.626 42.4008 110.226 42.1608C109.866 41.9208 109.686 41.6008 109.686 41.2008V1.60082C109.686 1.16082 109.866 0.840815 110.226 0.640815C110.626 0.400816 111.266 0.280817 112.146 0.280817H113.646C114.646 0.280817 115.386 0.380816 115.866 0.580816C116.346 0.780816 116.786 1.18082 117.186 1.78082L131.286 22.6608C131.606 23.1008 131.906 23.6008 132.186 24.1608C132.506 24.6808 132.746 25.1208 132.906 25.4808C133.066 25.1608 133.306 24.7208 133.626 24.1608C133.986 23.5608 134.346 23.0008 134.706 22.4808L148.746 1.78082C149.146 1.18082 149.566 0.780816 150.006 0.580816C150.486 0.380816 151.186 0.280817 152.106 0.280817H153.426C154.346 0.280817 154.986 0.400816 155.346 0.640815C155.706 0.840815 155.886 1.16082 155.886 1.60082V41.2008C155.886 41.6008 155.706 41.9208 155.346 42.1608C154.986 42.4008 154.346 42.5208 153.426 42.5208H152.946C152.066 42.5208 151.426 42.4008 151.026 42.1608C150.666 41.9208 150.486 41.6008 150.486 41.2008V11.1408C150.486 10.5808 150.486 10.0208 150.486 9.46082C150.526 8.90082 150.566 8.36082 150.606 7.84082L150.366 7.78082C150.206 8.18082 149.946 8.68082 149.586 9.28082C149.226 9.84082 148.866 10.3808 148.506 10.9008L136.206 29.0208C135.686 29.7408 135.246 30.2008 134.886 30.4008C134.526 30.6008 133.926 30.7008 133.086 30.7008H132.606C131.766 30.7008 131.166 30.6008 130.806 30.4008C130.446 30.2008 130.006 29.7408 129.486 29.0208L117.006 10.5408C116.646 9.98082 116.286 9.42082 115.926 8.86082C115.606 8.26082 115.366 7.78082 115.206 7.42082L114.966 7.48082C115.006 8.00082 115.026 8.56082 115.026 9.16082C115.066 9.76082 115.086 10.5008 115.086 11.3808V41.2008C115.086 41.6008 114.906 41.9208 114.546 42.1608C114.186 42.4008 113.546 42.5208 112.626 42.5208H112.146ZM178.146 42.5208C177.266 42.5208 176.626 42.4008 176.226 42.1608C175.866 41.9208 175.686 41.6008 175.686 41.2008V2.20082C175.686 1.00082 176.306 0.400815 177.546 0.400815H194.526C199.246 0.400815 202.786 1.42081 205.146 3.46081C207.546 5.46082 208.746 8.46082 208.746 12.4608C208.746 16.4608 207.546 19.4808 205.146 21.5208C202.786 23.5208 199.246 24.5208 194.526 24.5208H181.086V41.2008C181.086 41.6008 180.906 41.9208 180.546 42.1608C180.186 42.4008 179.546 42.5208 178.626 42.5208H178.146ZM181.086 19.9608H194.526C197.606 19.9608 199.826 19.3808 201.186 18.2208C202.586 17.0208 203.286 15.1008 203.286 12.4608C203.286 9.82082 202.586 7.92082 201.186 6.76082C199.826 5.56082 197.606 4.96082 194.526 4.96082H181.086V19.9608ZM224.561 42.4008C223.321 42.4008 222.701 41.8008 222.701 40.6008V1.60082C222.701 1.16082 222.881 0.840815 223.241 0.640815C223.641 0.400816 224.281 0.280817 225.161 0.280817H225.641C226.561 0.280817 227.201 0.400816 227.561 0.640815C227.921 0.840815 228.101 1.16082 228.101 1.60082V37.8408H248.801C249.601 37.8408 250.001 38.4408 250.001 39.6408V40.6008C250.001 41.8008 249.601 42.4008 248.801 42.4008H224.561ZM265.366 42.4008C264.126 42.4008 263.506 41.8008 263.506 40.6008V2.20082C263.506 1.00082 264.126 0.400815 265.366 0.400815H292.786C293.586 0.400815 293.986 1.00082 293.986 2.20082V3.16082C293.986 4.36082 293.586 4.96082 292.786 4.96082H268.906V18.6408H290.986C291.786 18.6408 292.186 19.2408 292.186 20.4408V21.4008C292.186 22.6008 291.786 23.2008 290.986 23.2008H268.906V37.8408H292.846C293.646 37.8408 294.046 38.4408 294.046 39.6408V40.6008C294.046 41.8008 293.646 42.4008 292.846 42.4008H265.366ZM349.364 42.7608C341.644 42.7608 335.924 40.9608 332.204 37.3608C328.524 33.7608 326.684 28.4008 326.684 21.2808C326.684 14.2408 328.624 8.94082 332.504 5.38082C336.424 1.82082 342.244 0.0408161 349.964 0.0408161C351.204 0.0408161 352.524 0.120816 353.924 0.280817C355.324 0.440817 356.684 0.660816 358.004 0.940815C359.324 1.18081 360.444 1.50082 361.364 1.90082C362.324 2.30082 362.924 2.60082 363.164 2.80082C363.444 3.00082 363.584 3.32082 363.584 3.76081C363.584 4.00082 363.544 4.28082 363.464 4.60081C363.384 4.92082 363.264 5.24082 363.104 5.56082C362.984 5.88082 362.824 6.16082 362.624 6.40082C362.424 6.60082 362.204 6.70082 361.964 6.70082C361.684 6.70082 361.024 6.52082 359.984 6.16082C358.984 5.80082 357.644 5.46082 355.964 5.14081C354.284 4.78081 352.284 4.60081 349.964 4.60081C346.044 4.60081 342.744 5.14081 340.064 6.22082C337.424 7.30082 335.444 9.06082 334.124 11.5008C332.804 13.9408 332.144 17.2008 332.144 21.2808C332.144 25.4008 332.804 28.7008 334.124 31.1808C335.444 33.6608 337.424 35.4608 340.064 36.5808C342.744 37.6608 346.044 38.2008 349.964 38.2008C351.964 38.2008 353.724 38.0808 355.244 37.8408C356.764 37.5608 358.064 37.2608 359.144 36.9408C360.224 36.5808 361.064 36.2808 361.664 36.0408C362.304 35.7608 362.724 35.6208 362.924 35.6208C363.164 35.6208 363.384 35.7608 363.584 36.0408C363.784 36.2808 363.944 36.5808 364.064 36.9408C364.184 37.3008 364.264 37.6408 364.304 37.9608C364.384 38.2808 364.424 38.5008 364.424 38.6208C364.424 39.0608 364.224 39.4008 363.824 39.6408C363.464 39.8808 362.764 40.2008 361.724 40.6008C360.524 41.0408 359.224 41.4408 357.824 41.8008C356.464 42.1208 355.064 42.3608 353.624 42.5208C352.184 42.6808 350.764 42.7608 349.364 42.7608ZM399.206 42.7608C391.566 42.7608 385.766 40.9408 381.806 37.3008C377.886 33.6608 375.926 28.3208 375.926 21.2808C375.926 14.2808 377.886 9.00082 381.806 5.44081C385.766 1.84082 391.566 0.0408161 399.206 0.0408161C406.886 0.0408161 412.686 1.84082 416.606 5.44081C420.566 9.00082 422.546 14.2808 422.546 21.2808C422.546 28.3208 420.566 33.6608 416.606 37.3008C412.686 40.9408 406.886 42.7608 399.206 42.7608ZM399.206 38.2008C405.086 38.2008 409.526 36.8408 412.526 34.1208C415.566 31.4008 417.086 27.1208 417.086 21.2808C417.086 15.4808 415.566 11.2608 412.526 8.62082C409.526 5.94082 405.086 4.60081 399.206 4.60081C393.366 4.60081 388.926 5.94082 385.886 8.62082C382.886 11.2608 381.386 15.4808 381.386 21.2808C381.386 27.1208 382.886 31.4008 385.886 34.1208C388.926 36.8408 393.366 38.2008 399.206 38.2008ZM440.903 42.5208C440.023 42.5208 439.383 42.4008 438.983 42.1608C438.623 41.9208 438.443 41.6008 438.443 41.2008V1.60082C438.443 1.16082 438.623 0.840815 438.983 0.640815C439.383 0.400816 440.023 0.280817 440.903 0.280817H442.403C442.923 0.280817 443.343 0.320816 443.663 0.400815C444.023 0.480816 444.343 0.600817 444.623 0.760818C444.903 0.920815 445.143 1.14082 445.343 1.42082L468.443 32.2608C468.723 32.6208 469.023 33.0408 469.343 33.5208C469.663 34.0008 469.923 34.4608 470.123 34.9008L470.363 34.8408C470.323 34.5208 470.283 34.1008 470.243 33.5808C470.243 33.0208 470.243 32.4808 470.243 31.9608V1.60082C470.243 1.16082 470.423 0.840815 470.783 0.640815C471.183 0.400816 471.823 0.280817 472.703 0.280817H473.183C474.103 0.280817 474.743 0.400816 475.103 0.640815C475.463 0.840815 475.643 1.16082 475.643 1.60082V41.2008C475.643 41.6008 475.463 41.9208 475.103 42.1608C474.743 42.4008 474.103 42.5208 473.183 42.5208H471.743C471.183 42.5208 470.703 42.4808 470.303 42.4008C469.943 42.3208 469.643 42.2008 469.403 42.0408C469.163 41.8808 468.943 41.6808 468.743 41.4408L445.283 10.1808C445.083 9.90082 444.843 9.56082 444.563 9.16082C444.283 8.72082 444.043 8.30082 443.843 7.90082L443.603 7.96082C443.683 8.36082 443.743 8.84082 443.783 9.40082C443.823 9.92082 443.843 10.4008 443.843 10.8408V41.2008C443.843 41.6008 443.663 41.9208 443.303 42.1608C442.943 42.4008 442.303 42.5208 441.383 42.5208H440.903ZM517.694 42.4008C516.454 42.4008 515.834 41.8008 515.834 40.6008V1.60082C515.834 1.16082 516.014 0.840815 516.374 0.640815C516.774 0.400816 517.414 0.280817 518.294 0.280817H518.774C519.694 0.280817 520.334 0.400816 520.694 0.640815C521.054 0.840815 521.234 1.16082 521.234 1.60082V37.8408H541.934C542.734 37.8408 543.134 38.4408 543.134 39.6408V40.6008C543.134 41.8008 542.734 42.4008 541.934 42.4008H517.694ZM553.699 42.5208C552.819 42.5208 552.159 42.4408 551.719 42.2808C551.319 42.0808 551.119 41.8208 551.119 41.5008C551.119 41.3808 551.119 41.2608 551.119 41.1408C551.159 40.9808 551.219 40.8208 551.299 40.6608L567.799 1.54081C567.999 1.10082 568.339 0.780816 568.819 0.580816C569.299 0.380816 569.959 0.280817 570.799 0.280817H572.779C573.619 0.280817 574.279 0.380816 574.759 0.580816C575.279 0.780816 575.619 1.10082 575.779 1.54081L592.279 40.7208C592.359 40.8808 592.399 41.0208 592.399 41.1408C592.439 41.2608 592.459 41.3808 592.459 41.5008C592.459 41.7808 592.259 42.0208 591.859 42.2208C591.459 42.4208 590.799 42.5208 589.879 42.5208H589.339C588.699 42.5208 588.159 42.4608 587.719 42.3408C587.319 42.2208 587.019 41.9008 586.819 41.3808L573.799 9.52082C573.479 8.72082 573.119 7.80082 572.719 6.76082C572.359 5.72082 572.079 4.80082 571.879 4.00082H571.759C571.599 4.68082 571.299 5.54082 570.859 6.58082C570.459 7.62082 570.079 8.60082 569.719 9.52082L556.579 41.3808C556.379 41.9008 556.059 42.2208 555.619 42.3408C555.219 42.4608 554.719 42.5208 554.119 42.5208H553.699ZM559.099 31.6008V27.1608H584.239V31.6008H559.099ZM5.01283 107.401C3.53283 107.401 2.79283 106.661 2.79283 105.181V67.0208C2.79283 66.4608 3.05283 66.0408 3.57283 65.7608C4.09283 65.4408 4.91283 65.2808 6.03283 65.2808H7.53283C8.69283 65.2808 9.51283 65.4408 9.99283 65.7608C10.5128 66.0408 10.7728 66.4608 10.7728 67.0208V100.681H29.7328C30.8128 100.681 31.3528 101.541 31.3528 103.261V104.821C31.3528 106.541 30.8128 107.401 29.7328 107.401H5.01283ZM45.6975 107.401C44.2975 107.401 43.5975 106.661 43.5975 105.181V67.6208C43.5975 66.1408 44.2975 65.4008 45.6975 65.4008H74.0775C75.1175 65.4008 75.6375 66.2608 75.6375 67.9808V69.5408C75.6375 71.2608 75.1175 72.1208 74.0775 72.1208H51.5775V82.5608H72.3975C73.4375 82.5608 73.9575 83.4208 73.9575 85.1408V86.7008C73.9575 88.4208 73.4375 89.2808 72.3975 89.2808H51.5775V100.681H74.1375C75.1775 100.681 75.6975 101.541 75.6975 103.261V104.821C75.6975 106.541 75.1775 107.401 74.1375 107.401H45.6975ZM104.002 107.521C102.882 107.521 102.062 107.381 101.542 107.101C101.062 106.781 100.822 106.341 100.822 105.781V87.3608L85.7016 67.8008C85.4616 67.5208 85.3016 67.2808 85.2216 67.0808C85.1816 66.8408 85.1616 66.6408 85.1616 66.4808C85.1616 66.0808 85.4216 65.7808 85.9416 65.5808C86.5016 65.3808 87.3816 65.2808 88.5816 65.2808H90.5016C91.5016 65.2808 92.2216 65.4008 92.6616 65.6408C93.1416 65.8408 93.5616 66.1808 93.9216 66.6608L106.402 82.9808H103.402L115.942 66.6008C116.302 66.1608 116.722 65.8408 117.202 65.6408C117.682 65.4008 118.422 65.2808 119.422 65.2808H121.042C122.202 65.2808 123.042 65.3808 123.562 65.5808C124.082 65.7808 124.342 66.0808 124.342 66.4808C124.342 66.6408 124.302 66.8408 124.222 67.0808C124.142 67.2808 124.002 67.5208 123.802 67.8008L108.742 87.5408V105.781C108.742 106.341 108.482 106.781 107.962 107.101C107.482 107.381 106.662 107.521 105.502 107.521H104.002ZM160.111 107.521C158.991 107.521 158.171 107.381 157.651 107.101C157.131 106.781 156.871 106.341 156.871 105.781V67.6208C156.871 66.1408 157.571 65.4008 158.971 65.4008H175.891C180.971 65.4008 184.791 66.4808 187.351 68.6408C189.951 70.7608 191.251 73.8408 191.251 77.8808C191.251 79.3608 190.971 80.7808 190.411 82.1408C189.851 83.4608 189.031 84.6208 187.951 85.6208C186.911 86.5808 185.631 87.2808 184.111 87.7208V87.9608C185.071 88.2808 185.931 88.9208 186.691 89.8808C187.491 90.8008 188.171 91.9608 188.731 93.3608L193.591 104.701C193.751 105.021 193.871 105.341 193.951 105.661C194.031 105.941 194.071 106.161 194.071 106.321C194.071 106.761 193.831 107.081 193.351 107.281C192.871 107.441 192.051 107.521 190.891 107.521H189.091C188.291 107.521 187.611 107.421 187.051 107.221C186.491 106.981 186.071 106.541 185.791 105.901L181.471 95.8208C180.991 94.6208 180.511 93.6808 180.031 93.0008C179.551 92.3208 178.931 91.8408 178.171 91.5608C177.451 91.2408 176.451 91.0808 175.171 91.0808H164.851V105.781C164.851 106.341 164.591 106.781 164.071 107.101C163.591 107.381 162.771 107.521 161.611 107.521H160.111ZM164.851 84.7808H175.891C178.451 84.7808 180.291 84.2808 181.411 83.2808C182.571 82.2808 183.151 80.6608 183.151 78.4208C183.151 76.2208 182.571 74.6208 181.411 73.6208C180.291 72.6208 178.451 72.1208 175.891 72.1208H164.851V84.7808ZM208.916 107.401C207.516 107.401 206.816 106.661 206.816 105.181V67.6208C206.816 66.1408 207.516 65.4008 208.916 65.4008H237.296C238.336 65.4008 238.856 66.2608 238.856 67.9808V69.5408C238.856 71.2608 238.336 72.1208 237.296 72.1208H214.796V82.5608H235.616C236.656 82.5608 237.176 83.4208 237.176 85.1408V86.7008C237.176 88.4208 236.656 89.2808 235.616 89.2808H214.796V100.681H237.356C238.396 100.681 238.916 101.541 238.916 103.261V104.821C238.916 106.541 238.396 107.401 237.356 107.401H208.916ZM256.72 107.521C255.6 107.521 254.78 107.381 254.26 107.101C253.74 106.781 253.48 106.341 253.48 105.781V67.6208C253.48 66.1408 254.18 65.4008 255.58 65.4008H272.5C277.58 65.4008 281.4 66.5008 283.96 68.7008C286.56 70.8608 287.86 74.1008 287.86 78.4208C287.86 82.7408 286.56 86.0008 283.96 88.2008C281.4 90.4008 277.58 91.5008 272.5 91.5008H261.46V105.781C261.46 106.341 261.2 106.781 260.68 107.101C260.2 107.381 259.38 107.521 258.22 107.521H256.72ZM261.46 84.7808H272.5C275.06 84.7808 276.9 84.2808 278.02 83.2808C279.18 82.2808 279.76 80.6608 279.76 78.4208C279.76 76.2208 279.18 74.6208 278.02 73.6208C276.9 72.6208 275.06 72.1208 272.5 72.1208H261.46V84.7808ZM324.03 107.401C322.79 107.401 322.17 106.801 322.17 105.601V67.2008C322.17 66.0008 322.79 65.4008 324.03 65.4008H351.45C352.25 65.4008 352.65 66.0008 352.65 67.2008V68.1608C352.65 69.3608 352.25 69.9608 351.45 69.9608H327.57V83.6408H349.65C350.45 83.6408 350.85 84.2408 350.85 85.4408V86.4008C350.85 87.6008 350.45 88.2008 349.65 88.2008H327.57V102.841H351.51C352.31 102.841 352.71 103.441 352.71 104.641V105.601C352.71 106.801 352.31 107.401 351.51 107.401H324.03ZM371.294 107.521C370.414 107.521 369.774 107.401 369.374 107.161C369.014 106.921 368.834 106.601 368.834 106.201V66.6008C368.834 66.1608 369.014 65.8408 369.374 65.6408C369.774 65.4008 370.414 65.2808 371.294 65.2808H372.794C373.314 65.2808 373.734 65.3208 374.054 65.4008C374.414 65.4808 374.734 65.6008 375.014 65.7608C375.294 65.9208 375.534 66.1408 375.734 66.4208L398.834 97.2608C399.114 97.6208 399.414 98.0408 399.734 98.5208C400.054 99.0008 400.314 99.4608 400.514 99.9008L400.754 99.8408C400.714 99.5208 400.674 99.1008 400.634 98.5808C400.634 98.0208 400.634 97.4808 400.634 96.9608V66.6008C400.634 66.1608 400.814 65.8408 401.174 65.6408C401.574 65.4008 402.214 65.2808 403.094 65.2808H403.574C404.494 65.2808 405.134 65.4008 405.494 65.6408C405.854 65.8408 406.034 66.1608 406.034 66.6008V106.201C406.034 106.601 405.854 106.921 405.494 107.161C405.134 107.401 404.494 107.521 403.574 107.521H402.134C401.574 107.521 401.094 107.481 400.694 107.401C400.334 107.321 400.034 107.201 399.794 107.041C399.554 106.881 399.334 106.681 399.134 106.441L375.674 75.1808C375.474 74.9008 375.234 74.5608 374.954 74.1608C374.674 73.7208 374.434 73.3008 374.234 72.9008L373.994 72.9608C374.074 73.3608 374.134 73.8408 374.174 74.4008C374.214 74.9208 374.234 75.4008 374.234 75.8408V106.201C374.234 106.601 374.054 106.921 373.694 107.161C373.334 107.401 372.694 107.521 371.774 107.521H371.294ZM463.865 107.761C457.865 107.761 453.325 106.601 450.245 104.281C447.165 101.921 445.625 98.4808 445.625 93.9608V66.6008C445.625 66.1608 445.805 65.8408 446.165 65.6408C446.565 65.4008 447.205 65.2808 448.085 65.2808H448.565C449.485 65.2808 450.125 65.4008 450.485 65.6408C450.845 65.8408 451.025 66.1608 451.025 66.6008V94.1408C451.025 97.1008 452.105 99.3608 454.265 100.921C456.465 102.441 459.665 103.201 463.865 103.201C468.145 103.201 471.365 102.441 473.525 100.921C475.725 99.3608 476.825 97.1008 476.825 94.1408V66.6008C476.825 66.1608 477.005 65.8408 477.365 65.6408C477.765 65.4008 478.405 65.2808 479.285 65.2808H479.765C480.685 65.2808 481.325 65.4008 481.685 65.6408C482.045 65.8408 482.225 66.1608 482.225 66.6008V93.9608C482.225 98.4808 480.665 101.921 477.545 104.281C474.465 106.601 469.905 107.761 463.865 107.761ZM503.903 107.521C503.023 107.521 502.383 107.401 501.983 107.161C501.623 106.921 501.443 106.601 501.443 106.201V66.6008C501.443 66.1608 501.623 65.8408 501.983 65.6408C502.383 65.4008 503.023 65.2808 503.903 65.2808H505.403C505.923 65.2808 506.343 65.3208 506.663 65.4008C507.023 65.4808 507.343 65.6008 507.623 65.7608C507.903 65.9208 508.143 66.1408 508.343 66.4208L531.443 97.2608C531.723 97.6208 532.023 98.0408 532.343 98.5208C532.663 99.0008 532.923 99.4608 533.123 99.9008L533.363 99.8408C533.323 99.5208 533.283 99.1008 533.243 98.5808C533.243 98.0208 533.243 97.4808 533.243 96.9608V66.6008C533.243 66.1608 533.423 65.8408 533.783 65.6408C534.183 65.4008 534.823 65.2808 535.703 65.2808H536.183C537.103 65.2808 537.743 65.4008 538.103 65.6408C538.463 65.8408 538.643 66.1608 538.643 66.6008V106.201C538.643 106.601 538.463 106.921 538.103 107.161C537.743 107.401 537.103 107.521 536.183 107.521H534.743C534.183 107.521 533.703 107.481 533.303 107.401C532.943 107.321 532.643 107.201 532.403 107.041C532.163 106.881 531.943 106.681 531.743 106.441L508.283 75.1808C508.083 74.9008 507.843 74.5608 507.563 74.1608C507.283 73.7208 507.043 73.3008 506.843 72.9008L506.603 72.9608C506.683 73.3608 506.743 73.8408 506.783 74.4008C506.823 74.9208 506.843 75.4008 506.843 75.8408V106.201C506.843 106.601 506.663 106.921 506.303 107.161C505.943 107.401 505.303 107.521 504.383 107.521H503.903ZM6.51283 172.521C5.63283 172.521 4.99283 172.401 4.59283 172.161C4.23283 171.921 4.05283 171.601 4.05283 171.201V132.201C4.05283 131.001 4.67283 130.401 5.91283 130.401H22.8928C27.6128 130.401 31.1528 131.421 33.5128 133.461C35.9128 135.461 37.1128 138.461 37.1128 142.461C37.1128 146.461 35.9128 149.481 33.5128 151.521C31.1528 153.521 27.6128 154.521 22.8928 154.521H9.45283V171.201C9.45283 171.601 9.27283 171.921 8.91283 172.161C8.55283 172.401 7.91283 172.521 6.99283 172.521H6.51283ZM9.45283 149.961H22.8928C25.9728 149.961 28.1928 149.381 29.5528 148.221C30.9528 147.021 31.6528 145.101 31.6528 142.461C31.6528 139.821 30.9528 137.921 29.5528 136.761C28.1928 135.561 25.9728 134.961 22.8928 134.961H9.45283V149.961ZM45.7261 172.521C44.8461 172.521 44.1861 172.441 43.7461 172.281C43.3461 172.081 43.1461 171.821 43.1461 171.501C43.1461 171.381 43.1461 171.261 43.1461 171.141C43.1861 170.981 43.2461 170.821 43.3261 170.661L59.8261 131.541C60.0261 131.101 60.3661 130.781 60.8461 130.581C61.3261 130.381 61.9861 130.281 62.8261 130.281H64.8061C65.6461 130.281 66.3061 130.381 66.7861 130.581C67.3061 130.781 67.6461 131.101 67.8061 131.541L84.3061 170.721C84.3861 170.881 84.4261 171.021 84.4261 171.141C84.4661 171.261 84.4861 171.381 84.4861 171.501C84.4861 171.781 84.2861 172.021 83.8861 172.221C83.4861 172.421 82.8261 172.521 81.9061 172.521H81.3661C80.7261 172.521 80.1861 172.461 79.7461 172.341C79.3461 172.221 79.0461 171.901 78.8461 171.381L65.8261 139.521C65.5061 138.721 65.1461 137.801 64.7461 136.761C64.3861 135.721 64.1061 134.801 63.9061 134.001H63.7861C63.6261 134.681 63.3261 135.541 62.8861 136.581C62.4861 137.621 62.1061 138.601 61.7461 139.521L48.6061 171.381C48.4061 171.901 48.0861 172.221 47.6461 172.341C47.2461 172.461 46.7461 172.521 46.1461 172.521H45.7261ZM51.1261 161.601V157.161H76.2661V161.601H51.1261ZM101.247 172.521C100.367 172.521 99.7272 172.401 99.3272 172.161C98.9672 171.921 98.7872 171.601 98.7872 171.201V132.201C98.7872 131.001 99.4072 130.401 100.647 130.401H117.627C122.347 130.401 125.887 131.401 128.247 133.401C130.647 135.401 131.847 138.421 131.847 142.461C131.847 144.021 131.547 145.481 130.947 146.841C130.347 148.161 129.527 149.281 128.487 150.201C127.487 151.121 126.307 151.721 124.947 152.001V152.241C126.227 152.641 127.247 153.481 128.007 154.761C128.807 156.041 129.587 157.621 130.347 159.501L135.027 170.721C135.107 170.881 135.147 171.041 135.147 171.201C135.187 171.361 135.207 171.481 135.207 171.561C135.207 171.841 135.007 172.081 134.607 172.281C134.207 172.441 133.567 172.521 132.687 172.521H132.087C131.487 172.521 130.967 172.421 130.527 172.221C130.087 172.021 129.767 171.721 129.567 171.321L125.127 160.401C124.527 158.841 123.907 157.641 123.267 156.801C122.627 155.961 121.867 155.381 120.987 155.061C120.107 154.701 118.987 154.521 117.627 154.521H104.187V171.201C104.187 171.601 104.007 171.921 103.647 172.161C103.287 172.401 102.647 172.521 101.727 172.521H101.247ZM104.187 149.961H117.627C120.707 149.961 122.927 149.381 124.287 148.221C125.687 147.021 126.387 145.101 126.387 142.461C126.387 139.821 125.687 137.921 124.287 136.761C122.927 135.561 120.707 134.961 117.627 134.961H104.187V149.961ZM169.927 172.401C168.687 172.401 168.067 171.801 168.067 170.601V132.201C168.067 131.001 168.687 130.401 169.927 130.401H185.947C193.627 130.401 199.427 132.161 203.347 135.681C207.307 139.201 209.287 144.401 209.287 151.281C209.287 158.201 207.307 163.461 203.347 167.061C199.427 170.621 193.627 172.401 185.947 172.401H169.927ZM173.467 167.841H185.947C191.827 167.841 196.267 166.441 199.267 163.641C202.307 160.841 203.827 156.721 203.827 151.281C203.827 145.921 202.307 141.861 199.267 139.101C196.267 136.341 191.827 134.961 185.947 134.961H173.467V167.841ZM227.046 172.401C225.806 172.401 225.186 171.801 225.186 170.601V132.201C225.186 131.001 225.806 130.401 227.046 130.401H254.466C255.266 130.401 255.666 131.001 255.666 132.201V133.161C255.666 134.361 255.266 134.961 254.466 134.961H230.586V148.641H252.666C253.466 148.641 253.866 149.241 253.866 150.441V151.401C253.866 152.601 253.466 153.201 252.666 153.201H230.586V167.841H254.526C255.326 167.841 255.726 168.441 255.726 169.641V170.601C255.726 171.801 255.326 172.401 254.526 172.401H227.046ZM311.044 172.761C303.324 172.761 297.604 170.961 293.884 167.361C290.204 163.761 288.364 158.401 288.364 151.281C288.364 144.241 290.304 138.941 294.184 135.381C298.104 131.821 303.924 130.041 311.644 130.041C312.884 130.041 314.204 130.121 315.604 130.281C317.004 130.441 318.364 130.661 319.684 130.941C321.004 131.181 322.124 131.501 323.044 131.901C324.004 132.301 324.604 132.601 324.844 132.801C325.124 133.001 325.264 133.321 325.264 133.761C325.264 134.001 325.224 134.281 325.144 134.601C325.064 134.921 324.944 135.241 324.784 135.561C324.664 135.881 324.504 136.161 324.304 136.401C324.104 136.601 323.884 136.701 323.644 136.701C323.364 136.701 322.704 136.521 321.664 136.161C320.664 135.801 319.324 135.461 317.644 135.141C315.964 134.781 313.964 134.601 311.644 134.601C307.724 134.601 304.424 135.141 301.744 136.221C299.104 137.301 297.124 139.061 295.804 141.501C294.484 143.941 293.824 147.201 293.824 151.281C293.824 155.401 294.484 158.701 295.804 161.181C297.124 163.661 299.104 165.461 301.744 166.581C304.424 167.661 307.724 168.201 311.644 168.201C313.644 168.201 315.404 168.081 316.924 167.841C318.444 167.561 319.744 167.261 320.824 166.941C321.904 166.581 322.744 166.281 323.344 166.041C323.984 165.761 324.404 165.621 324.604 165.621C324.844 165.621 325.064 165.761 325.264 166.041C325.464 166.281 325.624 166.581 325.744 166.941C325.864 167.301 325.944 167.641 325.984 167.961C326.064 168.281 326.104 168.501 326.104 168.621C326.104 169.061 325.904 169.401 325.504 169.641C325.144 169.881 324.444 170.201 323.404 170.601C322.204 171.041 320.904 171.441 319.504 171.801C318.144 172.121 316.744 172.361 315.304 172.521C313.864 172.681 312.444 172.761 311.044 172.761ZM344.538 172.401C343.298 172.401 342.678 171.801 342.678 170.601V131.601C342.678 131.161 342.858 130.841 343.218 130.641C343.618 130.401 344.258 130.281 345.138 130.281H345.618C346.538 130.281 347.178 130.401 347.538 130.641C347.898 130.841 348.078 131.161 348.078 131.601V167.841H368.778C369.578 167.841 369.978 168.441 369.978 169.641V170.601C369.978 171.801 369.578 172.401 368.778 172.401H344.538ZM385.943 172.521C385.063 172.521 384.423 172.401 384.023 172.161C383.663 171.921 383.483 171.601 383.483 171.201V131.601C383.483 131.161 383.663 130.841 384.023 130.641C384.423 130.401 385.063 130.281 385.943 130.281H386.423C387.343 130.281 387.983 130.401 388.343 130.641C388.703 130.841 388.883 131.161 388.883 131.601V171.201C388.883 171.601 388.703 171.921 388.343 172.161C387.983 172.401 387.343 172.521 386.423 172.521H385.943ZM427.481 172.761C419.761 172.761 414.041 170.961 410.321 167.361C406.641 163.761 404.801 158.401 404.801 151.281C404.801 144.241 406.741 138.941 410.621 135.381C414.541 131.821 420.361 130.041 428.081 130.041C429.321 130.041 430.641 130.121 432.041 130.281C433.441 130.441 434.801 130.661 436.121 130.941C437.441 131.181 438.561 131.501 439.481 131.901C440.441 132.301 441.041 132.601 441.281 132.801C441.561 133.001 441.701 133.321 441.701 133.761C441.701 134.001 441.661 134.281 441.581 134.601C441.501 134.921 441.381 135.241 441.221 135.561C441.101 135.881 440.941 136.161 440.741 136.401C440.541 136.601 440.321 136.701 440.081 136.701C439.801 136.701 439.141 136.521 438.101 136.161C437.101 135.801 435.761 135.461 434.081 135.141C432.401 134.781 430.401 134.601 428.081 134.601C424.161 134.601 420.861 135.141 418.181 136.221C415.541 137.301 413.561 139.061 412.241 141.501C410.921 143.941 410.261 147.201 410.261 151.281C410.261 155.401 410.921 158.701 412.241 161.181C413.561 163.661 415.541 165.461 418.181 166.581C420.861 167.661 424.161 168.201 428.081 168.201C430.081 168.201 431.841 168.081 433.361 167.841C434.881 167.561 436.181 167.261 437.261 166.941C438.341 166.581 439.181 166.281 439.781 166.041C440.421 165.761 440.841 165.621 441.041 165.621C441.281 165.621 441.501 165.761 441.701 166.041C441.901 166.281 442.061 166.581 442.181 166.941C442.301 167.301 442.381 167.641 442.421 167.961C442.501 168.281 442.541 168.501 442.541 168.621C442.541 169.061 442.341 169.401 441.941 169.641C441.581 169.881 440.881 170.201 439.841 170.601C438.641 171.041 437.341 171.441 435.941 171.801C434.581 172.121 433.181 172.361 431.741 172.521C430.301 172.681 428.881 172.761 427.481 172.761ZM461.575 172.521C460.695 172.521 460.055 172.401 459.655 172.161C459.295 171.921 459.115 171.601 459.115 171.201V131.601C459.115 131.161 459.295 130.841 459.655 130.641C460.055 130.401 460.695 130.281 461.575 130.281H462.055C462.975 130.281 463.615 130.401 463.975 130.641C464.335 130.841 464.515 131.161 464.515 131.601V149.361H464.755L483.655 131.481C484.215 130.921 484.715 130.581 485.155 130.461C485.635 130.341 486.315 130.281 487.195 130.281H487.975C488.655 130.281 489.175 130.361 489.535 130.521C489.935 130.641 490.135 130.861 490.135 131.181C490.135 131.341 490.095 131.541 490.015 131.781C489.935 131.981 489.675 132.281 489.235 132.681L468.955 151.701V150.321L492.115 170.241C492.675 170.681 492.995 171.001 493.075 171.201C493.195 171.401 493.255 171.561 493.255 171.681C493.255 172.001 493.035 172.221 492.595 172.341C492.195 172.461 491.535 172.521 490.615 172.521H489.535C488.695 172.521 488.035 172.461 487.555 172.341C487.115 172.181 486.595 171.841 485.995 171.321L464.755 153.021H464.515V171.201C464.515 171.601 464.335 171.921 463.975 172.161C463.615 172.401 462.975 172.521 462.055 172.521H461.575ZM515.991 172.761C513.831 172.761 511.791 172.581 509.871 172.221C507.991 171.861 506.351 171.441 504.951 170.961C503.551 170.481 502.531 170.061 501.891 169.701C501.531 169.501 501.211 169.281 500.931 169.041C500.691 168.761 500.571 168.481 500.571 168.201C500.571 168.001 500.611 167.741 500.691 167.421C500.771 167.061 500.871 166.701 500.991 166.341C501.151 165.981 501.311 165.681 501.471 165.441C501.671 165.201 501.891 165.081 502.131 165.081C502.531 165.081 503.351 165.341 504.591 165.861C505.871 166.381 507.471 166.901 509.391 167.421C511.351 167.941 513.551 168.201 515.991 168.201C518.431 168.201 520.451 167.941 522.051 167.421C523.691 166.901 524.911 166.121 525.711 165.081C526.551 164.001 526.971 162.701 526.971 161.181C526.971 159.861 526.671 158.781 526.071 157.941C525.471 157.061 524.631 156.361 523.551 155.841C522.511 155.321 521.311 154.881 519.951 154.521C518.631 154.161 517.251 153.841 515.811 153.561C514.091 153.201 512.371 152.801 510.651 152.361C508.971 151.881 507.431 151.241 506.031 150.441C504.631 149.601 503.491 148.501 502.611 147.141C501.771 145.741 501.351 143.941 501.351 141.741C501.351 140.061 501.731 138.501 502.491 137.061C503.251 135.621 504.331 134.381 505.731 133.341C507.131 132.301 508.771 131.501 510.651 130.941C512.571 130.341 514.651 130.041 516.891 130.041C518.691 130.041 520.391 130.161 521.991 130.401C523.591 130.601 525.011 130.881 526.251 131.241C527.491 131.601 528.451 131.961 529.131 132.321C529.491 132.481 529.771 132.641 529.971 132.801C530.171 132.961 530.271 133.201 530.271 133.521C530.271 133.761 530.231 134.061 530.151 134.421C530.111 134.781 530.031 135.161 529.911 135.561C529.791 135.921 529.631 136.241 529.431 136.521C529.271 136.761 529.091 136.881 528.891 136.881C528.491 136.881 527.791 136.701 526.791 136.341C525.791 135.941 524.471 135.561 522.831 135.201C521.191 134.801 519.171 134.601 516.771 134.601C514.491 134.601 512.611 134.881 511.131 135.441C509.651 136.001 508.531 136.801 507.771 137.841C507.051 138.881 506.691 140.121 506.691 141.561C506.691 143.121 507.151 144.341 508.071 145.221C509.031 146.101 510.311 146.801 511.911 147.321C513.551 147.801 515.411 148.281 517.491 148.761C519.251 149.121 520.991 149.561 522.711 150.081C524.471 150.561 526.071 151.221 527.511 152.061C528.951 152.901 530.111 154.061 530.991 155.541C531.871 156.981 532.311 158.841 532.311 161.121C532.311 162.921 531.931 164.541 531.171 165.981C530.451 167.421 529.371 168.661 527.931 169.701C526.531 170.701 524.811 171.461 522.771 171.981C520.771 172.501 518.511 172.761 515.991 172.761ZM547.107 172.521C546.227 172.521 545.587 172.401 545.187 172.161C544.787 171.921 544.587 171.601 544.587 171.201V167.241C544.587 166.801 544.787 166.481 545.187 166.281C545.587 166.041 546.227 165.921 547.107 165.921H547.947C548.867 165.921 549.507 166.041 549.867 166.281C550.267 166.481 550.467 166.801 550.467 167.241V171.201C550.467 171.601 550.267 171.921 549.867 172.161C549.507 172.401 548.867 172.521 547.947 172.521H547.107Z" fill="#DBE2E9"/>
</svg>
