<svg width="592" height="22" viewBox="0 0 592 22" fill="none" xmlns="http://www.w3.org/2000/svg">
<path d="M1.21984 21.7258C0.599844 21.7258 0.289844 21.4258 0.289844 20.8258V1.62583C0.289844 1.02583 0.599844 0.725829 1.21984 0.725829H14.9298C15.3298 0.725829 15.5298 1.02583 15.5298 1.62583V2.10583C15.5298 2.70583 15.3298 3.00583 14.9298 3.00583H2.98984V9.84583H14.0298C14.4298 9.84583 14.6298 10.1458 14.6298 10.7458V11.2258C14.6298 11.8258 14.4298 12.1258 14.0298 12.1258H2.98984V19.4458H14.9598C15.3598 19.4458 15.5598 19.7458 15.5598 20.3458V20.8258C15.5598 21.4258 15.3598 21.7258 14.9598 21.7258H1.21984ZM24.5519 21.7258C23.9319 21.7258 23.6219 21.4258 23.6219 20.8258V1.32583C23.6219 1.10583 23.7119 0.945829 23.8919 0.845829C24.0919 0.725829 24.4119 0.665829 24.8519 0.665829H25.0919C25.5519 0.665829 25.8719 0.725829 26.0519 0.845829C26.2319 0.945829 26.3219 1.10583 26.3219 1.32583V19.4458H36.6719C37.0719 19.4458 37.2719 19.7458 37.2719 20.3458V20.8258C37.2719 21.4258 37.0719 21.7258 36.6719 21.7258H24.5519ZM45.2542 21.7858C44.8142 21.7858 44.4942 21.7258 44.2942 21.6058C44.1142 21.4858 44.0242 21.3258 44.0242 21.1258V1.32583C44.0242 1.10583 44.1142 0.945829 44.2942 0.845829C44.4942 0.725829 44.8142 0.665829 45.2542 0.665829H45.4942C45.9542 0.665829 46.2742 0.725829 46.4542 0.845829C46.6342 0.945829 46.7242 1.10583 46.7242 1.32583V21.1258C46.7242 21.3258 46.6342 21.4858 46.4542 21.6058C46.2742 21.7258 45.9542 21.7858 45.4942 21.7858H45.2542ZM66.6236 21.9058C62.6636 21.9058 59.6836 21.0058 57.6836 19.2058C55.6836 17.4058 54.6836 14.7258 54.6836 11.1658C54.6836 7.64583 55.6836 4.99583 57.6836 3.21583C59.6836 1.43583 62.6636 0.545829 66.6236 0.545829C67.1036 0.545829 67.6536 0.575829 68.2736 0.63583C68.8936 0.695829 69.5136 0.775829 70.1336 0.875829C70.7736 0.975828 71.3436 1.09583 71.8436 1.23583C72.3636 1.35583 72.7536 1.48583 73.0136 1.62583C73.2336 1.76583 73.4036 1.90583 73.5236 2.04583C73.6636 2.16583 73.7336 2.28583 73.7336 2.40583C73.7336 2.52583 73.7036 2.67583 73.6436 2.85583C73.5836 3.01583 73.5036 3.18583 73.4036 3.36583C73.3036 3.52583 73.1936 3.66583 73.0736 3.78583C72.9536 3.88583 72.8336 3.93583 72.7136 3.93583C72.5936 3.93583 72.3736 3.88583 72.0536 3.78583C71.7536 3.66583 71.3536 3.53583 70.8536 3.39583C70.3536 3.23583 69.7536 3.10583 69.0536 3.00583C68.3536 2.88583 67.5436 2.82583 66.6236 2.82583C63.5636 2.82583 61.2636 3.52583 59.7236 4.92583C58.1836 6.32583 57.4136 8.40583 57.4136 11.1658C57.4136 13.0258 57.7536 14.5858 58.4336 15.8458C59.1336 17.1058 60.1636 18.0558 61.5236 18.6958C62.8836 19.3158 64.5836 19.6258 66.6236 19.6258C67.3636 19.6258 68.0936 19.5858 68.8136 19.5058C69.5336 19.4258 70.1736 19.3158 70.7336 19.1758C71.2936 19.0158 71.7036 18.8458 71.9636 18.6658L71.6036 20.2558V12.5758H66.2936C65.8936 12.5758 65.6936 12.2758 65.6936 11.6758V11.2258C65.6936 10.6258 65.8936 10.3258 66.2936 10.3258H73.3136C73.9336 10.3258 74.2436 10.6258 74.2436 11.2258V19.3858C74.2436 19.7058 74.1936 19.9358 74.0936 20.0758C74.0136 20.2158 73.8636 20.3458 73.6436 20.4658C73.1036 20.7458 72.4336 20.9958 71.6336 21.2158C70.8336 21.4358 69.9936 21.6058 69.1136 21.7258C68.2536 21.8458 67.4236 21.9058 66.6236 21.9058ZM84.7042 21.7258C84.0842 21.7258 83.7742 21.4258 83.7742 20.8258V1.62583C83.7742 1.02583 84.0842 0.725829 84.7042 0.725829H98.4142C98.8142 0.725829 99.0142 1.02583 99.0142 1.62583V2.10583C99.0142 2.70583 98.8142 3.00583 98.4142 3.00583H86.4742V9.84583H97.5142C97.9142 9.84583 98.1142 10.1458 98.1142 10.7458V11.2258C98.1142 11.8258 97.9142 12.1258 97.5142 12.1258H86.4742V19.4458H98.4442C98.8442 19.4458 99.0442 19.7458 99.0442 20.3458V20.8258C99.0442 21.4258 98.8442 21.7258 98.4442 21.7258H84.7042ZM123.553 21.7858C123.153 21.7858 122.863 21.7258 122.683 21.6058C122.503 21.4858 122.413 21.3258 122.413 21.1258V3.00583H115.183C114.803 3.00583 114.613 2.70583 114.613 2.10583V1.62583C114.613 1.02583 114.803 0.725829 115.183 0.725829H132.283C132.683 0.725829 132.883 1.02583 132.883 1.62583V2.10583C132.883 2.70583 132.683 3.00583 132.283 3.00583H125.113V21.1258C125.113 21.3258 125.023 21.4858 124.843 21.6058C124.663 21.7258 124.373 21.7858 123.973 21.7858H123.553ZM148.909 21.9058C145.909 21.9058 143.639 21.3258 142.099 20.1658C140.559 18.9858 139.789 17.2658 139.789 15.0058V1.32583C139.789 1.10583 139.879 0.945829 140.059 0.845829C140.259 0.725829 140.579 0.665829 141.019 0.665829H141.259C141.719 0.665829 142.039 0.725829 142.219 0.845829C142.399 0.945829 142.489 1.10583 142.489 1.32583V15.0958C142.489 16.5758 143.029 17.7058 144.109 18.4858C145.209 19.2458 146.809 19.6258 148.909 19.6258C151.049 19.6258 152.659 19.2458 153.739 18.4858C154.839 17.7058 155.389 16.5758 155.389 15.0958V1.32583C155.389 1.10583 155.479 0.945829 155.659 0.845829C155.859 0.725829 156.179 0.665829 156.619 0.665829H156.859C157.319 0.665829 157.639 0.725829 157.819 0.845829C157.999 0.945829 158.089 1.10583 158.089 1.32583V15.0058C158.089 17.2658 157.309 18.9858 155.749 20.1658C154.209 21.3258 151.929 21.9058 148.909 21.9058ZM179.135 21.7858C178.695 21.7858 178.375 21.7258 178.175 21.6058C177.995 21.4858 177.905 21.3258 177.905 21.1258V1.62583C177.905 1.02583 178.215 0.725829 178.835 0.725829H187.325C189.685 0.725829 191.455 1.23583 192.635 2.25583C193.835 3.25583 194.435 4.75583 194.435 6.75583C194.435 8.75583 193.835 10.2658 192.635 11.2858C191.455 12.2858 189.685 12.7858 187.325 12.7858H180.605V21.1258C180.605 21.3258 180.515 21.4858 180.335 21.6058C180.155 21.7258 179.835 21.7858 179.375 21.7858H179.135ZM180.605 10.5058H187.325C188.865 10.5058 189.975 10.2158 190.655 9.63583C191.355 9.03583 191.705 8.07583 191.705 6.75583C191.705 5.43583 191.355 4.48583 190.655 3.90583C189.975 3.30583 188.865 3.00583 187.325 3.00583H180.605V10.5058ZM202.343 21.7258C201.723 21.7258 201.413 21.4258 201.413 20.8258V1.32583C201.413 1.10583 201.503 0.945829 201.683 0.845829C201.883 0.725829 202.203 0.665829 202.643 0.665829H202.883C203.343 0.665829 203.663 0.725829 203.843 0.845829C204.023 0.945829 204.113 1.10583 204.113 1.32583V19.4458H214.463C214.863 19.4458 215.063 19.7458 215.063 20.3458V20.8258C215.063 21.4258 214.863 21.7258 214.463 21.7258H202.343ZM220.345 21.7858C219.905 21.7858 219.575 21.7458 219.355 21.6658C219.155 21.5658 219.055 21.4358 219.055 21.2758C219.055 21.2158 219.055 21.1558 219.055 21.0958C219.075 21.0158 219.105 20.9358 219.145 20.8558L227.395 1.29583C227.495 1.07583 227.665 0.915829 227.905 0.815829C228.145 0.715829 228.475 0.665829 228.895 0.665829H229.885C230.305 0.665829 230.635 0.715829 230.875 0.815829C231.135 0.915829 231.305 1.07583 231.385 1.29583L239.635 20.8858C239.675 20.9658 239.695 21.0358 239.695 21.0958C239.715 21.1558 239.725 21.2158 239.725 21.2758C239.725 21.4158 239.625 21.5358 239.425 21.6358C239.225 21.7358 238.895 21.7858 238.435 21.7858H238.165C237.845 21.7858 237.575 21.7558 237.355 21.6958C237.155 21.6358 237.005 21.4758 236.905 21.2158L230.395 5.28583C230.235 4.88583 230.055 4.42583 229.855 3.90583C229.675 3.38583 229.535 2.92583 229.435 2.52583H229.375C229.295 2.86583 229.145 3.29583 228.925 3.81583C228.725 4.33583 228.535 4.82583 228.355 5.28583L221.785 21.2158C221.685 21.4758 221.525 21.6358 221.305 21.6958C221.105 21.7558 220.855 21.7858 220.555 21.7858H220.345ZM223.045 16.3258V14.1058H235.615V16.3258H223.045ZM248.106 21.7858C247.666 21.7858 247.346 21.7258 247.146 21.6058C246.966 21.4858 246.876 21.3258 246.876 21.1258V1.32583C246.876 1.10583 246.966 0.945829 247.146 0.845829C247.346 0.725829 247.666 0.665829 248.106 0.665829H248.856C249.116 0.665829 249.326 0.685829 249.486 0.725829C249.666 0.765829 249.826 0.82583 249.966 0.90583C250.106 0.985829 250.226 1.09583 250.326 1.23583L261.876 16.6558C262.016 16.8358 262.166 17.0458 262.326 17.2858C262.486 17.5258 262.616 17.7558 262.716 17.9758L262.836 17.9458C262.816 17.7858 262.796 17.5758 262.776 17.3158C262.776 17.0358 262.776 16.7658 262.776 16.5058V1.32583C262.776 1.10583 262.866 0.945829 263.046 0.845829C263.246 0.725829 263.566 0.665829 264.006 0.665829H264.246C264.706 0.665829 265.026 0.725829 265.206 0.845829C265.386 0.945829 265.476 1.10583 265.476 1.32583V21.1258C265.476 21.3258 265.386 21.4858 265.206 21.6058C265.026 21.7258 264.706 21.7858 264.246 21.7858H263.526C263.246 21.7858 263.006 21.7658 262.806 21.7258C262.626 21.6858 262.476 21.6258 262.356 21.5458C262.236 21.4658 262.126 21.3658 262.026 21.2458L250.296 5.61583C250.196 5.47583 250.076 5.30583 249.936 5.10583C249.796 4.88583 249.676 4.67583 249.576 4.47583L249.456 4.50583C249.496 4.70583 249.526 4.94583 249.546 5.22583C249.566 5.48583 249.576 5.72583 249.576 5.94583V21.1258C249.576 21.3258 249.486 21.4858 249.306 21.6058C249.126 21.7258 248.806 21.7858 248.346 21.7858H248.106ZM292.051 21.7858C291.611 21.7858 291.291 21.7258 291.091 21.6058C290.911 21.4858 290.821 21.3258 290.821 21.1258V11.2558L283.081 1.71583C283.001 1.61583 282.931 1.52583 282.871 1.44583C282.831 1.34583 282.811 1.25583 282.811 1.17583C282.811 1.01583 282.911 0.895829 283.111 0.815829C283.331 0.715829 283.691 0.665829 284.191 0.665829H284.551C284.871 0.665829 285.131 0.695829 285.331 0.755828C285.531 0.815829 285.701 0.935829 285.841 1.11583L292.771 9.66583H291.721L298.711 1.08583C298.851 0.925829 299.031 0.815829 299.251 0.755828C299.491 0.695829 299.761 0.665829 300.061 0.665829H300.331C300.771 0.665829 301.081 0.715829 301.261 0.815829C301.461 0.895829 301.561 1.01583 301.561 1.17583C301.561 1.25583 301.541 1.34583 301.501 1.44583C301.461 1.52583 301.391 1.61583 301.291 1.71583L293.521 11.3458V21.1258C293.521 21.3258 293.431 21.4858 293.251 21.6058C293.071 21.7258 292.751 21.7858 292.291 21.7858H292.051ZM328.296 21.9358C324.476 21.9358 321.616 21.0358 319.716 19.2358C317.836 17.4358 316.896 14.7558 316.896 11.1958C316.896 7.65583 317.876 4.99583 319.836 3.21583C321.796 1.41583 324.716 0.51583 328.596 0.51583C329.396 0.51583 330.186 0.56583 330.966 0.665829C331.746 0.765829 332.466 0.915829 333.126 1.11583C333.786 1.29583 334.336 1.49583 334.776 1.71583C335.156 1.89583 335.426 2.06583 335.586 2.22583C335.766 2.36583 335.856 2.54583 335.856 2.76583C335.856 2.90583 335.816 3.09583 335.736 3.33583C335.676 3.55583 335.596 3.78583 335.496 4.02583C335.396 4.26583 335.266 4.46583 335.106 4.62583C334.966 4.78583 334.816 4.86583 334.656 4.86583C334.436 4.86583 334.066 4.78583 333.546 4.62583C333.046 4.46583 332.386 4.30583 331.566 4.14583C330.766 3.96583 329.776 3.87583 328.596 3.87583C326.896 3.87583 325.476 4.10583 324.336 4.56583C323.196 5.02583 322.336 5.79583 321.756 6.87583C321.196 7.93583 320.916 9.37583 320.916 11.1958C320.916 13.0358 321.196 14.4958 321.756 15.5758C322.336 16.6358 323.196 17.4058 324.336 17.8858C325.476 18.3458 326.896 18.5758 328.596 18.5758C329.556 18.5758 330.406 18.5158 331.146 18.3958C331.886 18.2558 332.526 18.1058 333.066 17.9458C333.606 17.7858 334.046 17.6458 334.386 17.5258C334.746 17.3858 335.016 17.3158 335.196 17.3158C335.356 17.3158 335.496 17.4058 335.616 17.5858C335.756 17.7658 335.866 17.9858 335.946 18.2458C336.026 18.4858 336.086 18.7258 336.126 18.9658C336.186 19.2058 336.216 19.3958 336.216 19.5358C336.216 19.7958 336.146 19.9858 336.006 20.1058C335.886 20.2058 335.646 20.3458 335.286 20.5258C334.666 20.8058 333.976 21.0658 333.216 21.3058C332.456 21.5258 331.656 21.6858 330.816 21.7858C329.976 21.8858 329.136 21.9358 328.296 21.9358ZM353.217 21.9358C349.357 21.9358 346.437 21.0258 344.457 19.2058C342.497 17.3858 341.517 14.7258 341.517 11.2258C341.517 7.70583 342.497 5.04583 344.457 3.24583C346.437 1.42583 349.357 0.51583 353.217 0.51583C357.057 0.51583 359.957 1.42583 361.917 3.24583C363.897 5.04583 364.887 7.70583 364.887 11.2258C364.887 14.7258 363.897 17.3858 361.917 19.2058C359.957 21.0258 357.057 21.9358 353.217 21.9358ZM353.217 18.5758C355.717 18.5758 357.617 17.9958 358.917 16.8358C360.217 15.6558 360.867 13.7758 360.867 11.1958C360.867 8.63583 360.217 6.77583 358.917 5.61583C357.617 4.45583 355.717 3.87583 353.217 3.87583C350.697 3.87583 348.787 4.45583 347.487 5.61583C346.187 6.77583 345.537 8.63583 345.537 11.1958C345.537 13.7758 346.187 15.6558 347.487 16.8358C348.787 17.9958 350.697 18.5758 353.217 18.5758ZM373.795 21.7858C373.235 21.7858 372.825 21.7158 372.565 21.5758C372.305 21.4158 372.175 21.1958 372.175 20.9158V1.53583C372.175 1.25583 372.305 1.04583 372.565 0.90583C372.825 0.74583 373.235 0.665829 373.795 0.665829H375.085C375.545 0.665829 375.935 0.735829 376.255 0.875829C376.595 0.995829 376.875 1.21583 377.095 1.53583L383.395 10.7758C383.595 11.0758 383.785 11.3858 383.965 11.7058C384.165 12.0058 384.305 12.2358 384.385 12.3958C384.525 12.1558 384.685 11.8858 384.865 11.5858C385.045 11.2658 385.215 10.9958 385.375 10.7758L391.735 1.56583C391.975 1.22583 392.245 0.995829 392.545 0.875829C392.865 0.735829 393.245 0.665829 393.685 0.665829H394.915C395.495 0.665829 395.905 0.74583 396.145 0.90583C396.405 1.04583 396.535 1.25583 396.535 1.53583V20.9158C396.535 21.1958 396.405 21.4158 396.145 21.5758C395.905 21.7158 395.495 21.7858 394.915 21.7858H394.375C393.815 21.7858 393.405 21.7158 393.145 21.5758C392.905 21.4158 392.785 21.1958 392.785 20.9158V7.98583C392.785 7.70583 392.785 7.44583 392.785 7.20583C392.805 6.94583 392.825 6.69583 392.845 6.45583L392.725 6.42583C392.645 6.60583 392.525 6.82583 392.365 7.08583C392.205 7.34583 392.035 7.60583 391.855 7.86583L386.455 15.4858C386.195 15.8658 385.925 16.1158 385.645 16.2358C385.365 16.3558 384.995 16.4158 384.535 16.4158H384.175C383.715 16.4158 383.335 16.3558 383.035 16.2358C382.755 16.1158 382.485 15.8758 382.225 15.5158L376.855 7.80583C376.675 7.52583 376.505 7.26583 376.345 7.02583C376.205 6.76583 376.085 6.54583 375.985 6.36583L375.865 6.39583C375.885 6.57583 375.895 6.80583 375.895 7.08583C375.915 7.36583 375.925 7.67583 375.925 8.01583V20.9158C375.925 21.1958 375.805 21.4158 375.565 21.5758C375.325 21.7158 374.915 21.7858 374.335 21.7858H373.795ZM406.225 21.7258C405.525 21.7258 405.175 21.3558 405.175 20.6158V1.83583C405.175 1.09583 405.525 0.725829 406.225 0.725829H420.415C420.935 0.725829 421.195 1.15583 421.195 2.01583V2.79583C421.195 3.65583 420.935 4.08583 420.415 4.08583H409.165V9.30583H419.575C420.095 9.30583 420.355 9.73583 420.355 10.5958V11.3758C420.355 12.2358 420.095 12.6658 419.575 12.6658H409.165V18.3658H420.445C420.965 18.3658 421.225 18.7958 421.225 19.6558V20.4358C421.225 21.2958 420.965 21.7258 420.445 21.7258H406.225ZM430.128 21.7858C429.568 21.7858 429.158 21.7158 428.898 21.5758C428.638 21.4158 428.508 21.1958 428.508 20.9158V1.53583C428.508 1.25583 428.638 1.04583 428.898 0.90583C429.158 0.74583 429.568 0.665829 430.128 0.665829H431.058C431.358 0.665829 431.618 0.695829 431.838 0.755828C432.078 0.795829 432.288 0.875829 432.468 0.995829C432.648 1.11583 432.828 1.28583 433.008 1.50583L443.327 14.1958C443.588 14.5158 443.838 14.8758 444.078 15.2758C444.318 15.6558 444.498 15.9758 444.618 16.2358L444.738 16.2058C444.718 15.9258 444.688 15.6158 444.648 15.2758C444.628 14.9158 444.618 14.5458 444.618 14.1658V1.53583C444.618 1.25583 444.738 1.04583 444.978 0.90583C445.238 0.74583 445.648 0.665829 446.208 0.665829H446.748C447.328 0.665829 447.738 0.74583 447.978 0.90583C448.238 1.04583 448.368 1.25583 448.368 1.53583V20.9158C448.368 21.1958 448.238 21.4158 447.978 21.5758C447.738 21.7158 447.328 21.7858 446.748 21.7858H445.818C445.538 21.7858 445.288 21.7658 445.068 21.7258C444.848 21.6858 444.658 21.6158 444.498 21.5158C444.338 21.3958 444.188 21.2458 444.048 21.0658L433.488 8.10583C433.248 7.80583 433.008 7.46583 432.768 7.08583C432.548 6.70583 432.368 6.38583 432.228 6.12583L432.108 6.15583C432.148 6.43583 432.178 6.75583 432.198 7.11583C432.238 7.45583 432.258 7.81583 432.258 8.19583V20.9158C432.258 21.1958 432.138 21.4158 431.898 21.5758C431.658 21.7158 431.248 21.7858 430.668 21.7858H430.128ZM467.046 21.9358C463.226 21.9358 460.366 21.0358 458.466 19.2358C456.586 17.4358 455.646 14.7558 455.646 11.1958C455.646 7.65583 456.626 4.99583 458.586 3.21583C460.546 1.41583 463.466 0.51583 467.346 0.51583C468.146 0.51583 468.936 0.56583 469.716 0.665829C470.496 0.765829 471.216 0.915829 471.876 1.11583C472.536 1.29583 473.086 1.49583 473.526 1.71583C473.906 1.89583 474.176 2.06583 474.336 2.22583C474.516 2.36583 474.606 2.54583 474.606 2.76583C474.606 2.90583 474.566 3.09583 474.486 3.33583C474.426 3.55583 474.346 3.78583 474.246 4.02583C474.146 4.26583 474.016 4.46583 473.856 4.62583C473.716 4.78583 473.566 4.86583 473.406 4.86583C473.186 4.86583 472.816 4.78583 472.296 4.62583C471.796 4.46583 471.136 4.30583 470.316 4.14583C469.516 3.96583 468.526 3.87583 467.346 3.87583C465.646 3.87583 464.226 4.10583 463.086 4.56583C461.946 5.02583 461.086 5.79583 460.506 6.87583C459.946 7.93583 459.666 9.37583 459.666 11.1958C459.666 13.0358 459.946 14.4958 460.506 15.5758C461.086 16.6358 461.946 17.4058 463.086 17.8858C464.226 18.3458 465.646 18.5758 467.346 18.5758C468.306 18.5758 469.156 18.5158 469.896 18.3958C470.636 18.2558 471.276 18.1058 471.816 17.9458C472.356 17.7858 472.796 17.6458 473.136 17.5258C473.496 17.3858 473.766 17.3158 473.946 17.3158C474.106 17.3158 474.246 17.4058 474.366 17.5858C474.506 17.7658 474.616 17.9858 474.696 18.2458C474.776 18.4858 474.836 18.7258 474.876 18.9658C474.936 19.2058 474.966 19.3958 474.966 19.5358C474.966 19.7958 474.896 19.9858 474.756 20.1058C474.636 20.2058 474.396 20.3458 474.036 20.5258C473.416 20.8058 472.726 21.0658 471.966 21.3058C471.206 21.5258 470.406 21.6858 469.566 21.7858C468.726 21.8858 467.886 21.9358 467.046 21.9358ZM483.253 21.7258C482.553 21.7258 482.203 21.3558 482.203 20.6158V1.83583C482.203 1.09583 482.553 0.725829 483.253 0.725829H497.443C497.963 0.725829 498.223 1.15583 498.223 2.01583V2.79583C498.223 3.65583 497.963 4.08583 497.443 4.08583H486.193V9.30583H496.603C497.123 9.30583 497.383 9.73583 497.383 10.5958V11.3758C497.383 12.2358 497.123 12.6658 496.603 12.6658H486.193V18.3658H497.473C497.993 18.3658 498.253 18.7958 498.253 19.6558V20.4358C498.253 21.2958 497.993 21.7258 497.473 21.7258H483.253ZM507.155 21.7858C506.595 21.7858 506.185 21.7158 505.925 21.5758C505.665 21.4158 505.535 21.1958 505.535 20.9158V1.53583C505.535 1.25583 505.665 1.04583 505.925 0.90583C506.185 0.74583 506.595 0.665829 507.155 0.665829H508.445C508.905 0.665829 509.295 0.735829 509.615 0.875829C509.955 0.995829 510.235 1.21583 510.455 1.53583L516.755 10.7758C516.955 11.0758 517.145 11.3858 517.325 11.7058C517.525 12.0058 517.665 12.2358 517.745 12.3958C517.885 12.1558 518.045 11.8858 518.225 11.5858C518.405 11.2658 518.575 10.9958 518.735 10.7758L525.095 1.56583C525.335 1.22583 525.605 0.995829 525.905 0.875829C526.225 0.735829 526.605 0.665829 527.045 0.665829H528.275C528.855 0.665829 529.265 0.74583 529.505 0.90583C529.765 1.04583 529.895 1.25583 529.895 1.53583V20.9158C529.895 21.1958 529.765 21.4158 529.505 21.5758C529.265 21.7158 528.855 21.7858 528.275 21.7858H527.735C527.175 21.7858 526.765 21.7158 526.505 21.5758C526.265 21.4158 526.145 21.1958 526.145 20.9158V7.98583C526.145 7.70583 526.145 7.44583 526.145 7.20583C526.165 6.94583 526.185 6.69583 526.205 6.45583L526.085 6.42583C526.005 6.60583 525.885 6.82583 525.725 7.08583C525.565 7.34583 525.395 7.60583 525.215 7.86583L519.815 15.4858C519.555 15.8658 519.285 16.1158 519.005 16.2358C518.725 16.3558 518.355 16.4158 517.895 16.4158H517.535C517.075 16.4158 516.695 16.3558 516.395 16.2358C516.115 16.1158 515.845 15.8758 515.585 15.5158L510.215 7.80583C510.035 7.52583 509.865 7.26583 509.705 7.02583C509.565 6.76583 509.445 6.54583 509.345 6.36583L509.225 6.39583C509.245 6.57583 509.255 6.80583 509.255 7.08583C509.275 7.36583 509.285 7.67583 509.285 8.01583V20.9158C509.285 21.1958 509.165 21.4158 508.925 21.5758C508.685 21.7158 508.275 21.7858 507.695 21.7858H507.155ZM548.885 21.9358C545.025 21.9358 542.105 21.0258 540.125 19.2058C538.165 17.3858 537.185 14.7258 537.185 11.2258C537.185 7.70583 538.165 5.04583 540.125 3.24583C542.105 1.42583 545.025 0.51583 548.885 0.51583C552.725 0.51583 555.625 1.42583 557.585 3.24583C559.565 5.04583 560.555 7.70583 560.555 11.2258C560.555 14.7258 559.565 17.3858 557.585 19.2058C555.625 21.0258 552.725 21.9358 548.885 21.9358ZM548.885 18.5758C551.385 18.5758 553.285 17.9958 554.585 16.8358C555.885 15.6558 556.535 13.7758 556.535 11.1958C556.535 8.63583 555.885 6.77583 554.585 5.61583C553.285 4.45583 551.385 3.87583 548.885 3.87583C546.365 3.87583 544.455 4.45583 543.155 5.61583C541.855 6.77583 541.205 8.63583 541.205 11.1958C541.205 13.7758 541.855 15.6558 543.155 16.8358C544.455 17.9958 546.365 18.5758 548.885 18.5758ZM574.143 21.9358C572.943 21.9358 571.843 21.8558 570.843 21.6958C569.863 21.5358 569.013 21.3358 568.293 21.0958C567.593 20.8358 567.043 20.6058 566.643 20.4058C566.403 20.2658 566.203 20.1258 566.043 19.9858C565.883 19.8458 565.803 19.6758 565.803 19.4758C565.803 19.2758 565.833 19.0458 565.893 18.7858C565.953 18.5058 566.033 18.2358 566.133 17.9758C566.253 17.7158 566.373 17.5058 566.493 17.3458C566.633 17.1658 566.773 17.0758 566.913 17.0758C567.113 17.0758 567.543 17.2058 568.203 17.4658C568.883 17.7058 569.723 17.9558 570.723 18.2158C571.743 18.4558 572.843 18.5758 574.023 18.5758C575.023 18.5758 575.833 18.4858 576.453 18.3058C577.093 18.1258 577.563 17.8458 577.863 17.4658C578.163 17.0858 578.313 16.6058 578.313 16.0258C578.313 15.5058 578.183 15.0758 577.923 14.7358C577.663 14.3758 577.283 14.0858 576.783 13.8658C576.303 13.6258 575.743 13.4158 575.103 13.2358C574.463 13.0558 573.763 12.8758 573.003 12.6958C572.263 12.5158 571.493 12.3058 570.693 12.0658C569.913 11.8258 569.183 11.4958 568.503 11.0758C567.823 10.6358 567.263 10.0658 566.823 9.36583C566.403 8.64583 566.193 7.72583 566.193 6.60583C566.193 5.56583 566.413 4.66583 566.853 3.90583C567.313 3.14583 567.923 2.51583 568.683 2.01583C569.463 1.51583 570.343 1.14583 571.323 0.90583C572.323 0.64583 573.353 0.51583 574.413 0.51583C575.293 0.51583 576.153 0.575829 576.993 0.695829C577.833 0.815829 578.583 0.965829 579.243 1.14583C579.903 1.32583 580.393 1.50583 580.713 1.68583C580.913 1.80583 581.073 1.92583 581.193 2.04583C581.333 2.14583 581.403 2.27583 581.403 2.43583C581.403 2.59583 581.373 2.81583 581.313 3.09583C581.273 3.35583 581.203 3.62583 581.103 3.90583C581.023 4.16583 580.913 4.38583 580.773 4.56583C580.653 4.74583 580.513 4.83583 580.353 4.83583C580.133 4.83583 579.743 4.75583 579.183 4.59583C578.643 4.41583 577.973 4.25583 577.173 4.11583C576.393 3.95583 575.483 3.87583 574.443 3.87583C573.483 3.87583 572.683 3.96583 572.043 4.14583C571.403 4.32583 570.923 4.59583 570.603 4.95583C570.303 5.31583 570.153 5.76583 570.153 6.30583C570.153 6.88583 570.353 7.33583 570.753 7.65583C571.173 7.97583 571.723 8.24583 572.403 8.46583C573.103 8.66583 573.883 8.87583 574.743 9.09583C575.603 9.31583 576.473 9.56583 577.353 9.84583C578.233 10.1058 579.043 10.4558 579.783 10.8958C580.523 11.3358 581.123 11.9358 581.583 12.6958C582.043 13.4558 582.273 14.4358 582.273 15.6358C582.273 16.7358 582.053 17.6858 581.613 18.4858C581.193 19.2858 580.603 19.9458 579.843 20.4658C579.083 20.9658 578.213 21.3358 577.233 21.5758C576.253 21.8158 575.223 21.9358 574.143 21.9358ZM589.192 21.7858C588.632 21.7858 588.222 21.7158 587.962 21.5758C587.702 21.4158 587.572 21.1958 587.572 20.9158V18.4258C587.572 18.1458 587.702 17.9358 587.962 17.7958C588.222 17.6558 588.632 17.5858 589.192 17.5858H589.972C590.552 17.5858 590.962 17.6558 591.202 17.7958C591.462 17.9358 591.592 18.1458 591.592 18.4258V20.9158C591.592 21.1958 591.462 21.4158 591.202 21.5758C590.962 21.7158 590.552 21.7858 589.972 21.7858H589.192Z" fill="#02090A"/>
</svg>
