<svg width="420" height="109" viewBox="0 0 420 109" fill="none" xmlns="http://www.w3.org/2000/svg">
<path d="M8.76 43C7.52 43 6.9 42.4 6.9 41.2V2.8C6.9 1.6 7.52 0.999997 8.76 0.999997H36.18C36.98 0.999997 37.38 1.6 37.38 2.8V3.76C37.38 4.96 36.98 5.56 36.18 5.56H12.3V19.24H34.38C35.18 19.24 35.58 19.84 35.58 21.04V22C35.58 23.2 35.18 23.8 34.38 23.8H12.3V38.44H36.24C37.04 38.44 37.44 39.04 37.44 40.24V41.2C37.44 42.4 37.04 43 36.24 43H8.76ZM56.0241 43.12C55.1441 43.12 54.5041 43 54.1041 42.76C53.7441 42.52 53.5641 42.2 53.5641 41.8V2.2C53.5641 1.76 53.7441 1.44 54.1041 1.24C54.5041 0.999998 55.1441 0.879999 56.0241 0.879999H57.5241C58.5241 0.879999 59.2641 0.979999 59.7441 1.18C60.2241 1.38 60.6641 1.78 61.0641 2.38L75.1641 23.26C75.4841 23.7 75.7841 24.2 76.0641 24.76C76.3841 25.28 76.6241 25.72 76.7841 26.08C76.9441 25.76 77.1841 25.32 77.5041 24.76C77.8641 24.16 78.2241 23.6 78.5841 23.08L92.6241 2.38C93.0241 1.78 93.4441 1.38 93.8841 1.18C94.3641 0.979999 95.0641 0.879999 95.9841 0.879999H97.3041C98.2241 0.879999 98.8641 0.999998 99.2241 1.24C99.5841 1.44 99.7641 1.76 99.7641 2.2V41.8C99.7641 42.2 99.5841 42.52 99.2241 42.76C98.8641 43 98.2241 43.12 97.3041 43.12H96.8241C95.9441 43.12 95.3041 43 94.9041 42.76C94.5441 42.52 94.3641 42.2 94.3641 41.8V11.74C94.3641 11.18 94.3641 10.62 94.3641 10.06C94.4041 9.5 94.4441 8.96 94.4841 8.44L94.2441 8.38C94.0841 8.78 93.8241 9.28 93.4641 9.88C93.1041 10.44 92.7441 10.98 92.3841 11.5L80.0841 29.62C79.5641 30.34 79.1241 30.8 78.7641 31C78.4041 31.2 77.8041 31.3 76.9641 31.3H76.4841C75.6441 31.3 75.0441 31.2 74.6841 31C74.3241 30.8 73.8841 30.34 73.3641 29.62L60.8841 11.14C60.5241 10.58 60.1641 10.02 59.8041 9.46C59.4841 8.86 59.2441 8.38 59.0841 8.02L58.8441 8.08C58.8841 8.6 58.9041 9.16 58.9041 9.76C58.9441 10.36 58.9641 11.1 58.9641 11.98V41.8C58.9641 42.2 58.7841 42.52 58.4241 42.76C58.0641 43 57.4241 43.12 56.5041 43.12H56.0241ZM122.024 43.12C121.144 43.12 120.504 43 120.104 42.76C119.744 42.52 119.564 42.2 119.564 41.8V2.8C119.564 1.6 120.184 0.999997 121.424 0.999997H138.404C143.124 0.999997 146.664 2.02 149.024 4.06C151.424 6.06 152.624 9.06 152.624 13.06C152.624 17.06 151.424 20.08 149.024 22.12C146.664 24.12 143.124 25.12 138.404 25.12H124.964V41.8C124.964 42.2 124.784 42.52 124.424 42.76C124.064 43 123.424 43.12 122.504 43.12H122.024ZM124.964 20.56H138.404C141.484 20.56 143.704 19.98 145.064 18.82C146.464 17.62 147.164 15.7 147.164 13.06C147.164 10.42 146.464 8.52 145.064 7.36C143.704 6.16 141.484 5.56 138.404 5.56H124.964V20.56ZM169.04 43.12C168.16 43.12 167.52 43 167.12 42.76C166.76 42.52 166.58 42.2 166.58 41.8V2.8C166.58 1.6 167.2 0.999997 168.44 0.999997H185.42C190.14 0.999997 193.68 2 196.04 4C198.44 6 199.64 9.02 199.64 13.06C199.64 14.62 199.34 16.08 198.74 17.44C198.14 18.76 197.32 19.88 196.28 20.8C195.28 21.72 194.1 22.32 192.74 22.6V22.84C194.02 23.24 195.04 24.08 195.8 25.36C196.6 26.64 197.38 28.22 198.14 30.1L202.82 41.32C202.9 41.48 202.94 41.64 202.94 41.8C202.98 41.96 203 42.08 203 42.16C203 42.44 202.8 42.68 202.4 42.88C202 43.04 201.36 43.12 200.48 43.12H199.88C199.28 43.12 198.76 43.02 198.32 42.82C197.88 42.62 197.56 42.32 197.36 41.92L192.92 31C192.32 29.44 191.7 28.24 191.06 27.4C190.42 26.56 189.66 25.98 188.78 25.66C187.9 25.3 186.78 25.12 185.42 25.12H171.98V41.8C171.98 42.2 171.8 42.52 171.44 42.76C171.08 43 170.44 43.12 169.52 43.12H169.04ZM171.98 20.56H185.42C188.5 20.56 190.72 19.98 192.08 18.82C193.48 17.62 194.18 15.7 194.18 13.06C194.18 10.42 193.48 8.52 192.08 7.36C190.72 6.16 188.5 5.56 185.42 5.56H171.98V20.56ZM218.385 43C217.145 43 216.525 42.4 216.525 41.2V2.8C216.525 1.6 217.145 0.999997 218.385 0.999997H245.805C246.605 0.999997 247.005 1.6 247.005 2.8V3.76C247.005 4.96 246.605 5.56 245.805 5.56H221.925V19.24H244.005C244.805 19.24 245.205 19.84 245.205 21.04V22C245.205 23.2 244.805 23.8 244.005 23.8H221.925V38.44H245.865C246.665 38.44 247.065 39.04 247.065 40.24V41.2C247.065 42.4 246.665 43 245.865 43H218.385ZM273.869 43.36C271.709 43.36 269.669 43.18 267.749 42.82C265.869 42.46 264.229 42.04 262.829 41.56C261.429 41.08 260.409 40.66 259.769 40.3C259.409 40.1 259.089 39.88 258.809 39.64C258.569 39.36 258.449 39.08 258.449 38.8C258.449 38.6 258.489 38.34 258.569 38.02C258.649 37.66 258.749 37.3 258.869 36.94C259.029 36.58 259.189 36.28 259.349 36.04C259.549 35.8 259.769 35.68 260.009 35.68C260.409 35.68 261.229 35.94 262.469 36.46C263.749 36.98 265.349 37.5 267.269 38.02C269.229 38.54 271.429 38.8 273.869 38.8C276.309 38.8 278.329 38.54 279.929 38.02C281.569 37.5 282.789 36.72 283.589 35.68C284.429 34.6 284.849 33.3 284.849 31.78C284.849 30.46 284.549 29.38 283.949 28.54C283.349 27.66 282.509 26.96 281.429 26.44C280.389 25.92 279.189 25.48 277.829 25.12C276.509 24.76 275.129 24.44 273.689 24.16C271.969 23.8 270.249 23.4 268.529 22.96C266.849 22.48 265.309 21.84 263.909 21.04C262.509 20.2 261.369 19.1 260.489 17.74C259.649 16.34 259.229 14.54 259.229 12.34C259.229 10.66 259.609 9.1 260.369 7.66C261.129 6.22 262.209 4.98 263.609 3.94C265.009 2.9 266.649 2.1 268.529 1.54C270.449 0.939998 272.529 0.639998 274.769 0.639998C276.569 0.639998 278.269 0.759998 279.869 0.999997C281.469 1.2 282.889 1.48 284.129 1.84C285.369 2.2 286.329 2.56 287.009 2.92C287.369 3.08 287.649 3.24 287.849 3.4C288.049 3.56 288.149 3.8 288.149 4.12C288.149 4.36 288.109 4.66 288.029 5.02C287.989 5.38 287.909 5.76 287.789 6.16C287.669 6.52 287.509 6.84 287.309 7.12C287.149 7.36 286.969 7.48 286.769 7.48C286.369 7.48 285.669 7.3 284.669 6.94C283.669 6.54 282.349 6.16 280.709 5.8C279.069 5.4 277.049 5.2 274.649 5.2C272.369 5.2 270.489 5.48 269.009 6.04C267.529 6.6 266.409 7.4 265.649 8.44C264.929 9.48 264.569 10.72 264.569 12.16C264.569 13.72 265.029 14.94 265.949 15.82C266.909 16.7 268.189 17.4 269.789 17.92C271.429 18.4 273.289 18.88 275.369 19.36C277.129 19.72 278.869 20.16 280.589 20.68C282.349 21.16 283.949 21.82 285.389 22.66C286.829 23.5 287.989 24.66 288.869 26.14C289.749 27.58 290.189 29.44 290.189 31.72C290.189 33.52 289.809 35.14 289.049 36.58C288.329 38.02 287.249 39.26 285.809 40.3C284.409 41.3 282.689 42.06 280.649 42.58C278.649 43.1 276.389 43.36 273.869 43.36ZM302.226 43.12C301.346 43.12 300.686 43.04 300.246 42.88C299.846 42.68 299.646 42.42 299.646 42.1C299.646 41.98 299.646 41.86 299.646 41.74C299.686 41.58 299.746 41.42 299.826 41.26L316.326 2.14C316.526 1.7 316.866 1.38 317.346 1.18C317.826 0.979999 318.486 0.879999 319.326 0.879999H321.306C322.146 0.879999 322.806 0.979999 323.286 1.18C323.806 1.38 324.146 1.7 324.306 2.14L340.806 41.32C340.886 41.48 340.926 41.62 340.926 41.74C340.966 41.86 340.986 41.98 340.986 42.1C340.986 42.38 340.786 42.62 340.386 42.82C339.986 43.02 339.326 43.12 338.406 43.12H337.866C337.226 43.12 336.686 43.06 336.246 42.94C335.846 42.82 335.546 42.5 335.346 41.98L322.326 10.12C322.006 9.32 321.646 8.4 321.246 7.36C320.886 6.32 320.606 5.4 320.406 4.6H320.286C320.126 5.28 319.826 6.14 319.386 7.18C318.986 8.22 318.606 9.2 318.246 10.12L305.106 41.98C304.906 42.5 304.586 42.82 304.146 42.94C303.746 43.06 303.246 43.12 302.646 43.12H302.226ZM307.626 32.2V27.76H332.766V32.2H307.626ZM4.2 108.12C2.88 108.12 2 108.02 1.56 107.82C1.12 107.58 0.9 107.28 0.9 106.92C0.9 106.76 0.92 106.6 0.96 106.44C1 106.28 1.06 106.1 1.14 105.9L16.5 67.68C16.78 66.96 17.24 66.48 17.88 66.24C18.56 66 19.46 65.88 20.58 65.88H23.58C24.7 65.88 25.58 66 26.22 66.24C26.9 66.48 27.38 66.96 27.66 67.68L43.02 105.9C43.1 106.1 43.14 106.28 43.14 106.44C43.18 106.6 43.2 106.76 43.2 106.92C43.2 107.28 42.96 107.58 42.48 107.82C42.04 108.02 41.32 108.12 40.32 108.12H38.04C37.24 108.12 36.56 108.04 36 107.88C35.48 107.68 35.1 107.28 34.86 106.68L23.58 76.98C23.3 76.26 23.02 75.52 22.74 74.76C22.5 73.96 22.3 73.22 22.14 72.54H21.96C21.8 73.18 21.58 73.9 21.3 74.7C21.06 75.46 20.78 76.22 20.46 76.98L9 106.68C8.8 107.28 8.46 107.68 7.98 107.88C7.54 108.04 6.98 108.12 6.3 108.12H4.2ZM9.42 98.52V92.22H34.26V98.52H9.42ZM68.8247 108.12C67.7047 108.12 66.8047 108 66.1247 107.76C65.4847 107.52 65.0247 107.04 64.7447 106.32L49.3847 68.1C49.3447 67.9 49.3047 67.72 49.2647 67.56C49.2247 67.4 49.2047 67.24 49.2047 67.08C49.2047 66.68 49.4247 66.38 49.8647 66.18C50.3447 65.98 51.0847 65.88 52.0847 65.88H54.3647C55.1647 65.88 55.8247 65.98 56.3447 66.18C56.9047 66.34 57.3047 66.72 57.5447 67.32L70.3247 101.46H70.5647L83.4047 67.32C83.6047 66.72 83.9247 66.34 84.3647 66.18C84.8447 65.98 85.4247 65.88 86.1047 65.88H88.2047C89.5647 65.88 90.4447 65.98 90.8447 66.18C91.2847 66.38 91.5047 66.68 91.5047 67.08C91.5047 67.24 91.4847 67.4 91.4447 67.56C91.4047 67.72 91.3447 67.9 91.2647 68.1L75.9047 106.32C75.6647 107.04 75.2047 107.52 74.5247 107.76C73.8447 108 72.9447 108.12 71.8247 108.12H68.8247ZM100.809 108.12C99.4894 108.12 98.6094 108.02 98.1694 107.82C97.7294 107.58 97.5094 107.28 97.5094 106.92C97.5094 106.76 97.5294 106.6 97.5694 106.44C97.6094 106.28 97.6694 106.1 97.7494 105.9L113.109 67.68C113.389 66.96 113.849 66.48 114.489 66.24C115.169 66 116.069 65.88 117.189 65.88H120.189C121.309 65.88 122.189 66 122.829 66.24C123.509 66.48 123.989 66.96 124.269 67.68L139.629 105.9C139.709 106.1 139.749 106.28 139.749 106.44C139.789 106.6 139.809 106.76 139.809 106.92C139.809 107.28 139.569 107.58 139.089 107.82C138.649 108.02 137.929 108.12 136.929 108.12H134.649C133.849 108.12 133.169 108.04 132.609 107.88C132.089 107.68 131.709 107.28 131.469 106.68L120.189 76.98C119.909 76.26 119.629 75.52 119.349 74.76C119.109 73.96 118.909 73.22 118.749 72.54H118.569C118.409 73.18 118.189 73.9 117.909 74.7C117.669 75.46 117.389 76.22 117.069 76.98L105.609 106.68C105.409 107.28 105.069 107.68 104.589 107.88C104.149 108.04 103.589 108.12 102.909 108.12H100.809ZM106.029 98.52V92.22H130.869V98.52H106.029ZM155.61 108.12C154.49 108.12 153.67 107.98 153.15 107.7C152.63 107.38 152.37 106.94 152.37 106.38V67.62C152.37 67.06 152.63 66.64 153.15 66.36C153.67 66.04 154.49 65.88 155.61 65.88H157.47C158.07 65.88 158.59 65.94 159.03 66.06C159.51 66.14 159.93 66.3 160.29 66.54C160.65 66.78 161.01 67.12 161.37 67.56L182.01 92.94C182.53 93.58 183.03 94.3 183.51 95.1C183.99 95.86 184.35 96.5 184.59 97.02L184.83 96.96C184.79 96.4 184.73 95.78 184.65 95.1C184.61 94.38 184.59 93.64 184.59 92.88V67.62C184.59 67.06 184.83 66.64 185.31 66.36C185.83 66.04 186.65 65.88 187.77 65.88H188.85C190.01 65.88 190.83 66.04 191.31 66.36C191.83 66.64 192.09 67.06 192.09 67.62V106.38C192.09 106.94 191.83 107.38 191.31 107.7C190.83 107.98 190.01 108.12 188.85 108.12H186.99C186.43 108.12 185.93 108.08 185.49 108C185.05 107.92 184.67 107.78 184.35 107.58C184.03 107.34 183.73 107.04 183.45 106.68L162.33 80.76C161.85 80.16 161.37 79.48 160.89 78.72C160.45 77.96 160.09 77.32 159.81 76.8L159.57 76.86C159.65 77.42 159.71 78.06 159.75 78.78C159.83 79.46 159.87 80.18 159.87 80.94V106.38C159.87 106.94 159.63 107.38 159.15 107.7C158.67 107.98 157.85 108.12 156.69 108.12H155.61ZM208.927 108C208.607 108 208.287 107.84 207.967 107.52C207.687 107.2 207.427 106.8 207.187 106.32C206.987 105.8 206.827 105.28 206.707 104.76C206.627 104.24 206.587 103.8 206.587 103.44C206.587 103.28 206.587 103.08 206.587 102.84C206.587 102.6 206.707 102.3 206.947 101.94L233.947 69.72L236.107 72.72H208.927C207.887 72.72 207.367 71.86 207.367 70.14V68.58C207.367 66.86 207.887 66 208.927 66H240.307C240.667 66 240.987 66.16 241.267 66.48C241.587 66.8 241.847 67.22 242.047 67.74C242.247 68.22 242.407 68.72 242.527 69.24C242.647 69.72 242.707 70.16 242.707 70.56C242.707 70.88 242.687 71.14 242.647 71.34C242.607 71.54 242.487 71.78 242.287 72.06L215.287 104.28L213.187 101.28H241.267C242.307 101.28 242.827 102.14 242.827 103.86V105.42C242.827 107.14 242.307 108 241.267 108H208.927ZM255.919 108.12C254.599 108.12 253.719 108.02 253.279 107.82C252.839 107.58 252.619 107.28 252.619 106.92C252.619 106.76 252.639 106.6 252.679 106.44C252.719 106.28 252.779 106.1 252.859 105.9L268.219 67.68C268.499 66.96 268.959 66.48 269.599 66.24C270.279 66 271.179 65.88 272.299 65.88H275.299C276.419 65.88 277.299 66 277.939 66.24C278.619 66.48 279.099 66.96 279.379 67.68L294.739 105.9C294.819 106.1 294.859 106.28 294.859 106.44C294.899 106.6 294.919 106.76 294.919 106.92C294.919 107.28 294.679 107.58 294.199 107.82C293.759 108.02 293.039 108.12 292.039 108.12H289.759C288.959 108.12 288.279 108.04 287.719 107.88C287.199 107.68 286.819 107.28 286.579 106.68L275.299 76.98C275.019 76.26 274.739 75.52 274.459 74.76C274.219 73.96 274.019 73.22 273.859 72.54H273.679C273.519 73.18 273.299 73.9 273.019 74.7C272.779 75.46 272.499 76.22 272.179 76.98L260.719 106.68C260.519 107.28 260.179 107.68 259.699 107.88C259.259 108.04 258.699 108.12 258.019 108.12H255.919ZM261.139 98.52V92.22H285.979V98.52H261.139ZM309.22 108C307.82 108 307.12 107.26 307.12 105.78V68.22C307.12 66.74 307.82 66 309.22 66H325.6C333.28 66 339.08 67.78 343 71.34C346.96 74.86 348.94 80.06 348.94 86.94C348.94 93.86 346.96 99.1 343 102.66C339.08 106.22 333.28 108 325.6 108H309.22ZM315.04 101.28H325.6C330.6 101.28 334.4 100.08 337 97.68C339.6 95.24 340.9 91.66 340.9 86.94C340.9 82.26 339.6 78.72 337 76.32C334.4 73.92 330.6 72.72 325.6 72.72H315.04V101.28ZM362.079 108.12C360.759 108.12 359.879 108.02 359.439 107.82C358.999 107.58 358.779 107.28 358.779 106.92C358.779 106.76 358.799 106.6 358.839 106.44C358.879 106.28 358.939 106.1 359.019 105.9L374.379 67.68C374.659 66.96 375.119 66.48 375.759 66.24C376.439 66 377.339 65.88 378.459 65.88H381.459C382.579 65.88 383.459 66 384.099 66.24C384.779 66.48 385.259 66.96 385.539 67.68L400.899 105.9C400.979 106.1 401.019 106.28 401.019 106.44C401.059 106.6 401.079 106.76 401.079 106.92C401.079 107.28 400.839 107.58 400.359 107.82C399.919 108.02 399.199 108.12 398.199 108.12H395.919C395.119 108.12 394.439 108.04 393.879 107.88C393.359 107.68 392.979 107.28 392.739 106.68L381.459 76.98C381.179 76.26 380.899 75.52 380.619 74.76C380.379 73.96 380.179 73.22 380.019 72.54H379.839C379.679 73.18 379.459 73.9 379.179 74.7C378.939 75.46 378.659 76.22 378.339 76.98L366.879 106.68C366.679 107.28 366.339 107.68 365.859 107.88C365.419 108.04 364.859 108.12 364.179 108.12H362.079ZM367.299 98.52V92.22H392.139V98.52H367.299ZM414.36 108.12C413.24 108.12 412.42 107.98 411.9 107.7C411.38 107.38 411.12 106.94 411.12 106.38V101.4C411.12 100.84 411.38 100.42 411.9 100.14C412.42 99.86 413.24 99.72 414.36 99.72H415.92C417.08 99.72 417.9 99.86 418.38 100.14C418.9 100.42 419.16 100.84 419.16 101.4V106.38C419.16 106.94 418.9 107.38 418.38 107.7C417.9 107.98 417.08 108.12 415.92 108.12H414.36Z" fill="#F9F9F9"/>
</svg>
