<svg width="472" height="109" viewBox="0 0 472 109" fill="none" xmlns="http://www.w3.org/2000/svg">
<path d="M7.76 43C6.52 43 5.9 42.4 5.9 41.2V2.8C5.9 1.6 6.52 0.999997 7.76 0.999997H35.18C35.98 0.999997 36.38 1.6 36.38 2.8V3.76C36.38 4.96 35.98 5.56 35.18 5.56H11.3V19.24H33.38C34.18 19.24 34.58 19.84 34.58 21.04V22C34.58 23.2 34.18 23.8 33.38 23.8H11.3V38.44H35.24C36.04 38.44 36.44 39.04 36.44 40.24V41.2C36.44 42.4 36.04 43 35.24 43H7.76ZM55.0241 43.12C54.1441 43.12 53.5041 43 53.1041 42.76C52.7441 42.52 52.5641 42.2 52.5641 41.8V2.2C52.5641 1.76 52.7441 1.44 53.1041 1.24C53.5041 0.999998 54.1441 0.879999 55.0241 0.879999H56.5241C57.5241 0.879999 58.2641 0.979999 58.7441 1.18C59.2241 1.38 59.6641 1.78 60.0641 2.38L74.1641 23.26C74.4841 23.7 74.7841 24.2 75.0641 24.76C75.3841 25.28 75.6241 25.72 75.7841 26.08C75.9441 25.76 76.1841 25.32 76.5041 24.76C76.8641 24.16 77.2241 23.6 77.5841 23.08L91.6241 2.38C92.0241 1.78 92.4441 1.38 92.8841 1.18C93.3641 0.979999 94.0641 0.879999 94.9841 0.879999H96.3041C97.2241 0.879999 97.8641 0.999998 98.2241 1.24C98.5841 1.44 98.7641 1.76 98.7641 2.2V41.8C98.7641 42.2 98.5841 42.52 98.2241 42.76C97.8641 43 97.2241 43.12 96.3041 43.12H95.8241C94.9441 43.12 94.3041 43 93.9041 42.76C93.5441 42.52 93.3641 42.2 93.3641 41.8V11.74C93.3641 11.18 93.3641 10.62 93.3641 10.06C93.4041 9.5 93.4441 8.96 93.4841 8.44L93.2441 8.38C93.0841 8.78 92.8241 9.28 92.4641 9.88C92.1041 10.44 91.7441 10.98 91.3841 11.5L79.0841 29.62C78.5641 30.34 78.1241 30.8 77.7641 31C77.4041 31.2 76.8041 31.3 75.9641 31.3H75.4841C74.6441 31.3 74.0441 31.2 73.6841 31C73.3241 30.8 72.8841 30.34 72.3641 29.62L59.8841 11.14C59.5241 10.58 59.1641 10.02 58.8041 9.46C58.4841 8.86 58.2441 8.38 58.0841 8.02L57.8441 8.08C57.8841 8.6 57.9041 9.16 57.9041 9.76C57.9441 10.36 57.9641 11.1 57.9641 11.98V41.8C57.9641 42.2 57.7841 42.52 57.4241 42.76C57.0641 43 56.4241 43.12 55.5041 43.12H55.0241ZM121.024 43.12C120.144 43.12 119.504 43 119.104 42.76C118.744 42.52 118.564 42.2 118.564 41.8V2.8C118.564 1.6 119.184 0.999997 120.424 0.999997H137.404C142.124 0.999997 145.664 2.02 148.024 4.06C150.424 6.06 151.624 9.06 151.624 13.06C151.624 17.06 150.424 20.08 148.024 22.12C145.664 24.12 142.124 25.12 137.404 25.12H123.964V41.8C123.964 42.2 123.784 42.52 123.424 42.76C123.064 43 122.424 43.12 121.504 43.12H121.024ZM123.964 20.56H137.404C140.484 20.56 142.704 19.98 144.064 18.82C145.464 17.62 146.164 15.7 146.164 13.06C146.164 10.42 145.464 8.52 144.064 7.36C142.704 6.16 140.484 5.56 137.404 5.56H123.964V20.56ZM168.04 43.12C167.16 43.12 166.52 43 166.12 42.76C165.76 42.52 165.58 42.2 165.58 41.8V2.8C165.58 1.6 166.2 0.999997 167.44 0.999997H184.42C189.14 0.999997 192.68 2 195.04 4C197.44 6 198.64 9.02 198.64 13.06C198.64 14.62 198.34 16.08 197.74 17.44C197.14 18.76 196.32 19.88 195.28 20.8C194.28 21.72 193.1 22.32 191.74 22.6V22.84C193.02 23.24 194.04 24.08 194.8 25.36C195.6 26.64 196.38 28.22 197.14 30.1L201.82 41.32C201.9 41.48 201.94 41.64 201.94 41.8C201.98 41.96 202 42.08 202 42.16C202 42.44 201.8 42.68 201.4 42.88C201 43.04 200.36 43.12 199.48 43.12H198.88C198.28 43.12 197.76 43.02 197.32 42.82C196.88 42.62 196.56 42.32 196.36 41.92L191.92 31C191.32 29.44 190.7 28.24 190.06 27.4C189.42 26.56 188.66 25.98 187.78 25.66C186.9 25.3 185.78 25.12 184.42 25.12H170.98V41.8C170.98 42.2 170.8 42.52 170.44 42.76C170.08 43 169.44 43.12 168.52 43.12H168.04ZM170.98 20.56H184.42C187.5 20.56 189.72 19.98 191.08 18.82C192.48 17.62 193.18 15.7 193.18 13.06C193.18 10.42 192.48 8.52 191.08 7.36C189.72 6.16 187.5 5.56 184.42 5.56H170.98V20.56ZM217.385 43C216.145 43 215.525 42.4 215.525 41.2V2.8C215.525 1.6 216.145 0.999997 217.385 0.999997H244.805C245.605 0.999997 246.005 1.6 246.005 2.8V3.76C246.005 4.96 245.605 5.56 244.805 5.56H220.925V19.24H243.005C243.805 19.24 244.205 19.84 244.205 21.04V22C244.205 23.2 243.805 23.8 243.005 23.8H220.925V38.44H244.865C245.665 38.44 246.065 39.04 246.065 40.24V41.2C246.065 42.4 245.665 43 244.865 43H217.385ZM272.869 43.36C270.709 43.36 268.669 43.18 266.749 42.82C264.869 42.46 263.229 42.04 261.829 41.56C260.429 41.08 259.409 40.66 258.769 40.3C258.409 40.1 258.089 39.88 257.809 39.64C257.569 39.36 257.449 39.08 257.449 38.8C257.449 38.6 257.489 38.34 257.569 38.02C257.649 37.66 257.749 37.3 257.869 36.94C258.029 36.58 258.189 36.28 258.349 36.04C258.549 35.8 258.769 35.68 259.009 35.68C259.409 35.68 260.229 35.94 261.469 36.46C262.749 36.98 264.349 37.5 266.269 38.02C268.229 38.54 270.429 38.8 272.869 38.8C275.309 38.8 277.329 38.54 278.929 38.02C280.569 37.5 281.789 36.72 282.589 35.68C283.429 34.6 283.849 33.3 283.849 31.78C283.849 30.46 283.549 29.38 282.949 28.54C282.349 27.66 281.509 26.96 280.429 26.44C279.389 25.92 278.189 25.48 276.829 25.12C275.509 24.76 274.129 24.44 272.689 24.16C270.969 23.8 269.249 23.4 267.529 22.96C265.849 22.48 264.309 21.84 262.909 21.04C261.509 20.2 260.369 19.1 259.489 17.74C258.649 16.34 258.229 14.54 258.229 12.34C258.229 10.66 258.609 9.1 259.369 7.66C260.129 6.22 261.209 4.98 262.609 3.94C264.009 2.9 265.649 2.1 267.529 1.54C269.449 0.939998 271.529 0.639998 273.769 0.639998C275.569 0.639998 277.269 0.759998 278.869 0.999997C280.469 1.2 281.889 1.48 283.129 1.84C284.369 2.2 285.329 2.56 286.009 2.92C286.369 3.08 286.649 3.24 286.849 3.4C287.049 3.56 287.149 3.8 287.149 4.12C287.149 4.36 287.109 4.66 287.029 5.02C286.989 5.38 286.909 5.76 286.789 6.16C286.669 6.52 286.509 6.84 286.309 7.12C286.149 7.36 285.969 7.48 285.769 7.48C285.369 7.48 284.669 7.3 283.669 6.94C282.669 6.54 281.349 6.16 279.709 5.8C278.069 5.4 276.049 5.2 273.649 5.2C271.369 5.2 269.489 5.48 268.009 6.04C266.529 6.6 265.409 7.4 264.649 8.44C263.929 9.48 263.569 10.72 263.569 12.16C263.569 13.72 264.029 14.94 264.949 15.82C265.909 16.7 267.189 17.4 268.789 17.92C270.429 18.4 272.289 18.88 274.369 19.36C276.129 19.72 277.869 20.16 279.589 20.68C281.349 21.16 282.949 21.82 284.389 22.66C285.829 23.5 286.989 24.66 287.869 26.14C288.749 27.58 289.189 29.44 289.189 31.72C289.189 33.52 288.809 35.14 288.049 36.58C287.329 38.02 286.249 39.26 284.809 40.3C283.409 41.3 281.689 42.06 279.649 42.58C277.649 43.1 275.389 43.36 272.869 43.36ZM301.226 43.12C300.346 43.12 299.686 43.04 299.246 42.88C298.846 42.68 298.646 42.42 298.646 42.1C298.646 41.98 298.646 41.86 298.646 41.74C298.686 41.58 298.746 41.42 298.826 41.26L315.326 2.14C315.526 1.7 315.866 1.38 316.346 1.18C316.826 0.979999 317.486 0.879999 318.326 0.879999H320.306C321.146 0.879999 321.806 0.979999 322.286 1.18C322.806 1.38 323.146 1.7 323.306 2.14L339.806 41.32C339.886 41.48 339.926 41.62 339.926 41.74C339.966 41.86 339.986 41.98 339.986 42.1C339.986 42.38 339.786 42.62 339.386 42.82C338.986 43.02 338.326 43.12 337.406 43.12H336.866C336.226 43.12 335.686 43.06 335.246 42.94C334.846 42.82 334.546 42.5 334.346 41.98L321.326 10.12C321.006 9.32 320.646 8.4 320.246 7.36C319.886 6.32 319.606 5.4 319.406 4.6H319.286C319.126 5.28 318.826 6.14 318.386 7.18C317.986 8.22 317.606 9.2 317.246 10.12L304.106 41.98C303.906 42.5 303.586 42.82 303.146 42.94C302.746 43.06 302.246 43.12 301.646 43.12H301.226ZM306.626 32.2V27.76H331.766V32.2H306.626ZM376.561 43C375.321 43 374.701 42.4 374.701 41.2V2.8C374.701 1.6 375.321 0.999997 376.561 0.999997H403.981C404.781 0.999997 405.181 1.6 405.181 2.8V3.76C405.181 4.96 404.781 5.56 403.981 5.56H380.101V19.24H402.181C402.981 19.24 403.381 19.84 403.381 21.04V22C403.381 23.2 402.981 23.8 402.181 23.8H380.101V38.44H404.041C404.841 38.44 405.241 39.04 405.241 40.24V41.2C405.241 42.4 404.841 43 404.041 43H376.561ZM423.825 43.12C422.945 43.12 422.305 43 421.905 42.76C421.545 42.52 421.365 42.2 421.365 41.8V2.2C421.365 1.76 421.545 1.44 421.905 1.24C422.305 0.999998 422.945 0.879999 423.825 0.879999H425.325C425.845 0.879999 426.265 0.919998 426.585 0.999997C426.945 1.08 427.265 1.2 427.545 1.36C427.825 1.52 428.065 1.74 428.265 2.02L451.365 32.86C451.645 33.22 451.945 33.64 452.265 34.12C452.585 34.6 452.845 35.06 453.045 35.5L453.285 35.44C453.245 35.12 453.205 34.7 453.165 34.18C453.165 33.62 453.165 33.08 453.165 32.56V2.2C453.165 1.76 453.345 1.44 453.705 1.24C454.105 0.999998 454.745 0.879999 455.625 0.879999H456.105C457.025 0.879999 457.665 0.999998 458.025 1.24C458.385 1.44 458.565 1.76 458.565 2.2V41.8C458.565 42.2 458.385 42.52 458.025 42.76C457.665 43 457.025 43.12 456.105 43.12H454.665C454.105 43.12 453.625 43.08 453.225 43C452.865 42.92 452.565 42.8 452.325 42.64C452.085 42.48 451.865 42.28 451.665 42.04L428.205 10.78C428.005 10.5 427.765 10.16 427.485 9.76C427.205 9.32 426.965 8.9 426.765 8.5L426.525 8.56C426.605 8.96 426.665 9.44 426.705 10C426.745 10.52 426.765 11 426.765 11.44V41.8C426.765 42.2 426.585 42.52 426.225 42.76C425.865 43 425.225 43.12 424.305 43.12H423.825ZM17.96 108.12C16.84 108.12 16.02 107.98 15.5 107.7C15.02 107.38 14.78 106.94 14.78 106.38V72.72H1.58C0.54 72.72 0.0200001 71.86 0.0200001 70.14V68.58C0.0200001 66.86 0.54 66 1.58 66H35.9C36.98 66 37.52 66.86 37.52 68.58V70.14C37.52 71.86 36.98 72.72 35.9 72.72H22.76V106.38C22.76 106.94 22.5 107.38 21.98 107.7C21.5 107.98 20.7 108.12 19.58 108.12H17.96ZM53.4308 108.12C52.3108 108.12 51.4908 107.98 50.9708 107.7C50.4508 107.38 50.1908 106.94 50.1908 106.38V68.22C50.1908 66.74 50.8908 66 52.2908 66H69.2108C74.2908 66 78.1108 67.08 80.6708 69.24C83.2708 71.36 84.5708 74.44 84.5708 78.48C84.5708 79.96 84.2908 81.38 83.7308 82.74C83.1708 84.06 82.3508 85.22 81.2708 86.22C80.2308 87.18 78.9508 87.88 77.4308 88.32V88.56C78.3908 88.88 79.2508 89.52 80.0108 90.48C80.8108 91.4 81.4908 92.56 82.0508 93.96L86.9108 105.3C87.0708 105.62 87.1908 105.94 87.2708 106.26C87.3508 106.54 87.3908 106.76 87.3908 106.92C87.3908 107.36 87.1508 107.68 86.6708 107.88C86.1908 108.04 85.3708 108.12 84.2108 108.12H82.4108C81.6108 108.12 80.9308 108.02 80.3708 107.82C79.8108 107.58 79.3908 107.14 79.1108 106.5L74.7908 96.42C74.3108 95.22 73.8308 94.28 73.3508 93.6C72.8708 92.92 72.2508 92.44 71.4908 92.16C70.7708 91.84 69.7708 91.68 68.4908 91.68H58.1708V106.38C58.1708 106.94 57.9108 107.38 57.3908 107.7C56.9108 107.98 56.0908 108.12 54.9308 108.12H53.4308ZM58.1708 85.38H69.2108C71.7708 85.38 73.6108 84.88 74.7308 83.88C75.8908 82.88 76.4708 81.26 76.4708 79.02C76.4708 76.82 75.8908 75.22 74.7308 74.22C73.6108 73.22 71.7708 72.72 69.2108 72.72H58.1708V85.38ZM98.6961 108.12C97.3761 108.12 96.4961 108.02 96.0561 107.82C95.6161 107.58 95.3961 107.28 95.3961 106.92C95.3961 106.76 95.4161 106.6 95.4561 106.44C95.4961 106.28 95.5561 106.1 95.6361 105.9L110.996 67.68C111.276 66.96 111.736 66.48 112.376 66.24C113.056 66 113.956 65.88 115.076 65.88H118.076C119.196 65.88 120.076 66 120.716 66.24C121.396 66.48 121.876 66.96 122.156 67.68L137.516 105.9C137.596 106.1 137.636 106.28 137.636 106.44C137.676 106.6 137.696 106.76 137.696 106.92C137.696 107.28 137.456 107.58 136.976 107.82C136.536 108.02 135.816 108.12 134.816 108.12H132.536C131.736 108.12 131.056 108.04 130.496 107.88C129.976 107.68 129.596 107.28 129.356 106.68L118.076 76.98C117.796 76.26 117.516 75.52 117.236 74.76C116.996 73.96 116.796 73.22 116.636 72.54H116.456C116.296 73.18 116.076 73.9 115.796 74.7C115.556 75.46 115.276 76.22 114.956 76.98L103.496 106.68C103.296 107.28 102.956 107.68 102.476 107.88C102.036 108.04 101.476 108.12 100.796 108.12H98.6961ZM103.916 98.52V92.22H128.756V98.52H103.916ZM153.497 108.12C152.377 108.12 151.557 107.98 151.037 107.7C150.517 107.38 150.257 106.94 150.257 106.38V67.62C150.257 67.06 150.517 66.64 151.037 66.36C151.557 66.04 152.377 65.88 153.497 65.88H155.357C155.957 65.88 156.477 65.94 156.917 66.06C157.397 66.14 157.817 66.3 158.177 66.54C158.537 66.78 158.897 67.12 159.257 67.56L179.897 92.94C180.417 93.58 180.917 94.3 181.397 95.1C181.877 95.86 182.237 96.5 182.477 97.02L182.717 96.96C182.677 96.4 182.617 95.78 182.537 95.1C182.497 94.38 182.477 93.64 182.477 92.88V67.62C182.477 67.06 182.717 66.64 183.197 66.36C183.717 66.04 184.537 65.88 185.657 65.88H186.737C187.897 65.88 188.717 66.04 189.197 66.36C189.717 66.64 189.977 67.06 189.977 67.62V106.38C189.977 106.94 189.717 107.38 189.197 107.7C188.717 107.98 187.897 108.12 186.737 108.12H184.877C184.317 108.12 183.817 108.08 183.377 108C182.937 107.92 182.557 107.78 182.237 107.58C181.917 107.34 181.617 107.04 181.337 106.68L160.217 80.76C159.737 80.16 159.257 79.48 158.777 78.72C158.337 77.96 157.977 77.32 157.697 76.8L157.457 76.86C157.537 77.42 157.597 78.06 157.637 78.78C157.717 79.46 157.757 80.18 157.757 80.94V106.38C157.757 106.94 157.517 107.38 157.037 107.7C156.557 107.98 155.737 108.12 154.577 108.12H153.497ZM219.834 108.42C217.434 108.42 215.234 108.26 213.234 107.94C211.274 107.62 209.574 107.22 208.134 106.74C206.734 106.22 205.634 105.76 204.834 105.36C204.354 105.08 203.954 104.8 203.634 104.52C203.314 104.24 203.154 103.9 203.154 103.5C203.154 103.1 203.214 102.64 203.334 102.12C203.454 101.56 203.614 101.02 203.814 100.5C204.054 99.98 204.294 99.56 204.534 99.24C204.814 98.88 205.094 98.7 205.374 98.7C205.774 98.7 206.634 98.96 207.954 99.48C209.314 99.96 210.994 100.46 212.994 100.98C215.034 101.46 217.234 101.7 219.594 101.7C221.594 101.7 223.214 101.52 224.454 101.16C225.734 100.8 226.674 100.24 227.274 99.48C227.874 98.72 228.174 97.76 228.174 96.6C228.174 95.56 227.914 94.7 227.394 94.02C226.874 93.3 226.114 92.72 225.114 92.28C224.154 91.8 223.034 91.38 221.754 91.02C220.474 90.66 219.074 90.3 217.554 89.94C216.074 89.58 214.534 89.16 212.934 88.68C211.374 88.2 209.914 87.54 208.554 86.7C207.194 85.82 206.074 84.68 205.194 83.28C204.354 81.84 203.934 80 203.934 77.76C203.934 75.68 204.374 73.88 205.254 72.36C206.174 70.84 207.394 69.58 208.914 68.58C210.474 67.58 212.234 66.84 214.194 66.36C216.194 65.84 218.254 65.58 220.374 65.58C222.134 65.58 223.854 65.7 225.534 65.94C227.214 66.18 228.714 66.48 230.034 66.84C231.354 67.2 232.334 67.56 232.974 67.92C233.374 68.16 233.694 68.4 233.934 68.64C234.214 68.84 234.354 69.1 234.354 69.42C234.354 69.74 234.294 70.18 234.174 70.74C234.094 71.26 233.954 71.8 233.754 72.36C233.594 72.88 233.374 73.32 233.094 73.68C232.854 74.04 232.574 74.22 232.254 74.22C231.814 74.22 231.034 74.06 229.914 73.74C228.834 73.38 227.494 73.06 225.894 72.78C224.334 72.46 222.514 72.3 220.434 72.3C218.514 72.3 216.914 72.48 215.634 72.84C214.354 73.2 213.394 73.74 212.754 74.46C212.154 75.18 211.854 76.08 211.854 77.16C211.854 78.32 212.254 79.22 213.054 79.86C213.894 80.5 214.994 81.04 216.354 81.48C217.754 81.88 219.314 82.3 221.034 82.74C222.754 83.18 224.494 83.68 226.254 84.24C228.014 84.76 229.634 85.46 231.114 86.34C232.594 87.22 233.794 88.42 234.714 89.94C235.634 91.46 236.094 93.42 236.094 95.82C236.094 98.02 235.654 99.92 234.774 101.52C233.934 103.12 232.754 104.44 231.234 105.48C229.714 106.48 227.974 107.22 226.014 107.7C224.054 108.18 221.994 108.42 219.834 108.42ZM252.45 108.12C251.33 108.12 250.51 107.98 249.99 107.7C249.47 107.38 249.21 106.94 249.21 106.38V67.62C249.21 67.06 249.47 66.64 249.99 66.36C250.51 66.04 251.33 65.88 252.45 65.88H253.95C255.11 65.88 255.93 66.04 256.41 66.36C256.93 66.64 257.19 67.06 257.19 67.62V106.38C257.19 106.94 256.93 107.38 256.41 107.7C255.93 107.98 255.11 108.12 253.95 108.12H252.45ZM294.529 108.42C286.889 108.42 281.169 106.62 277.369 103.02C273.609 99.42 271.729 94.06 271.729 86.94C271.729 79.86 273.689 74.54 277.609 70.98C281.529 67.38 287.369 65.58 295.129 65.58C296.729 65.58 298.309 65.68 299.869 65.88C301.429 66.08 302.869 66.38 304.189 66.78C305.509 67.14 306.609 67.54 307.489 67.98C308.249 68.34 308.789 68.68 309.109 69C309.469 69.28 309.649 69.64 309.649 70.08C309.649 70.36 309.569 70.74 309.409 71.22C309.289 71.66 309.129 72.12 308.929 72.6C308.729 73.08 308.469 73.48 308.149 73.8C307.869 74.12 307.569 74.28 307.249 74.28C306.809 74.28 306.069 74.12 305.029 73.8C304.029 73.48 302.709 73.16 301.069 72.84C299.469 72.48 297.489 72.3 295.129 72.3C291.729 72.3 288.889 72.76 286.609 73.68C284.329 74.6 282.609 76.14 281.449 78.3C280.329 80.42 279.769 83.3 279.769 86.94C279.769 90.62 280.329 93.54 281.449 95.7C282.609 97.82 284.329 99.36 286.609 100.32C288.889 101.24 291.729 101.7 295.129 101.7C297.049 101.7 298.749 101.58 300.229 101.34C301.709 101.06 302.989 100.76 304.069 100.44C305.149 100.12 306.029 99.84 306.709 99.6C307.429 99.32 307.969 99.18 308.329 99.18C308.649 99.18 308.929 99.36 309.169 99.72C309.449 100.08 309.669 100.52 309.829 101.04C309.989 101.52 310.109 102 310.189 102.48C310.309 102.96 310.369 103.34 310.369 103.62C310.369 104.14 310.229 104.52 309.949 104.76C309.709 104.96 309.229 105.24 308.509 105.6C307.269 106.16 305.889 106.68 304.369 107.16C302.849 107.6 301.249 107.92 299.569 108.12C297.889 108.32 296.209 108.42 294.529 108.42ZM328.083 108.12C326.963 108.12 326.143 107.98 325.623 107.7C325.103 107.38 324.843 106.94 324.843 106.38V67.62C324.843 67.06 325.103 66.64 325.623 66.36C326.143 66.04 326.963 65.88 328.083 65.88H329.583C330.743 65.88 331.563 66.04 332.043 66.36C332.563 66.64 332.823 67.06 332.823 67.62V106.38C332.823 106.94 332.563 107.38 332.043 107.7C331.563 107.98 330.743 108.12 329.583 108.12H328.083ZM370.762 108.42C363.042 108.42 357.202 106.6 353.242 102.96C349.322 99.32 347.362 94 347.362 87C347.362 79.96 349.322 74.64 353.242 71.04C357.202 67.4 363.042 65.58 370.762 65.58C378.442 65.58 384.242 67.4 388.162 71.04C392.122 74.64 394.102 79.96 394.102 87C394.102 94 392.122 99.32 388.162 102.96C384.242 106.6 378.442 108.42 370.762 108.42ZM370.762 101.7C375.762 101.7 379.562 100.54 382.162 98.22C384.762 95.86 386.062 92.1 386.062 86.94C386.062 81.82 384.762 78.1 382.162 75.78C379.562 73.46 375.762 72.3 370.762 72.3C365.722 72.3 361.902 73.46 359.302 75.78C356.702 78.1 355.402 81.82 355.402 86.94C355.402 92.1 356.702 95.86 359.302 98.22C361.902 100.54 365.722 101.7 370.762 101.7ZM367.342 63C366.662 63 366.142 62.94 365.782 62.82C365.462 62.7 365.302 62.5 365.302 62.22C365.302 62.06 365.342 61.88 365.422 61.68C365.542 61.44 365.742 61.18 366.022 60.9L369.682 57.36C370.322 56.76 370.982 56.34 371.662 56.1C372.342 55.86 373.342 55.74 374.662 55.74C375.902 55.74 376.862 55.82 377.542 55.98C378.222 56.14 378.562 56.42 378.562 56.82C378.562 57.1 378.422 57.4 378.142 57.72C377.902 58.04 377.362 58.44 376.522 58.92L371.722 61.8C371.002 62.24 370.342 62.56 369.742 62.76C369.142 62.92 368.342 63 367.342 63ZM411.919 108.12C410.799 108.12 409.979 107.98 409.459 107.7C408.939 107.38 408.679 106.94 408.679 106.38V67.62C408.679 67.06 408.939 66.64 409.459 66.36C409.979 66.04 410.799 65.88 411.919 65.88H413.779C414.379 65.88 414.899 65.94 415.339 66.06C415.819 66.14 416.239 66.3 416.599 66.54C416.959 66.78 417.319 67.12 417.679 67.56L438.319 92.94C438.839 93.58 439.339 94.3 439.819 95.1C440.299 95.86 440.659 96.5 440.899 97.02L441.139 96.96C441.099 96.4 441.039 95.78 440.959 95.1C440.919 94.38 440.899 93.64 440.899 92.88V67.62C440.899 67.06 441.139 66.64 441.619 66.36C442.139 66.04 442.959 65.88 444.079 65.88H445.159C446.319 65.88 447.139 66.04 447.619 66.36C448.139 66.64 448.399 67.06 448.399 67.62V106.38C448.399 106.94 448.139 107.38 447.619 107.7C447.139 107.98 446.319 108.12 445.159 108.12H443.299C442.739 108.12 442.239 108.08 441.799 108C441.359 107.92 440.979 107.78 440.659 107.58C440.339 107.34 440.039 107.04 439.759 106.68L418.639 80.76C418.159 80.16 417.679 79.48 417.199 78.72C416.759 77.96 416.399 77.32 416.119 76.8L415.879 76.86C415.959 77.42 416.019 78.06 416.059 78.78C416.139 79.46 416.179 80.18 416.179 80.94V106.38C416.179 106.94 415.939 107.38 415.459 107.7C414.979 107.98 414.159 108.12 412.999 108.12H411.919ZM466.376 108.12C465.256 108.12 464.436 107.98 463.916 107.7C463.396 107.38 463.136 106.94 463.136 106.38V101.4C463.136 100.84 463.396 100.42 463.916 100.14C464.436 99.86 465.256 99.72 466.376 99.72H467.936C469.096 99.72 469.916 99.86 470.396 100.14C470.916 100.42 471.176 100.84 471.176 101.4V106.38C471.176 106.94 470.916 107.38 470.396 107.7C469.916 107.98 469.096 108.12 467.936 108.12H466.376Z" fill="#F9F9F9"/>
</svg>
