<svg width="336" height="109" viewBox="0 0 336 109" fill="none" xmlns="http://www.w3.org/2000/svg">
<path d="M3.76 43C2.52 43 1.9 42.4 1.9 41.2V2.8C1.9 1.6 2.52 0.999997 3.76 0.999997H31.18C31.98 0.999997 32.38 1.6 32.38 2.8V3.76C32.38 4.96 31.98 5.56 31.18 5.56H7.3V19.24H29.38C30.18 19.24 30.58 19.84 30.58 21.04V22C30.58 23.2 30.18 23.8 29.38 23.8H7.3V38.44H31.24C32.04 38.44 32.44 39.04 32.44 40.24V41.2C32.44 42.4 32.04 43 31.24 43H3.76ZM51.0241 43.12C50.1441 43.12 49.5041 43 49.1041 42.76C48.7441 42.52 48.5641 42.2 48.5641 41.8V2.2C48.5641 1.76 48.7441 1.44 49.1041 1.24C49.5041 0.999998 50.1441 0.879999 51.0241 0.879999H52.5241C53.5241 0.879999 54.2641 0.979999 54.7441 1.18C55.2241 1.38 55.6641 1.78 56.0641 2.38L70.1641 23.26C70.4841 23.7 70.7841 24.2 71.0641 24.76C71.3841 25.28 71.6241 25.72 71.7841 26.08C71.9441 25.76 72.1841 25.32 72.5041 24.76C72.8641 24.16 73.2241 23.6 73.5841 23.08L87.6241 2.38C88.0241 1.78 88.4441 1.38 88.8841 1.18C89.3641 0.979999 90.0641 0.879999 90.9841 0.879999H92.3041C93.2241 0.879999 93.8641 0.999998 94.2241 1.24C94.5841 1.44 94.7641 1.76 94.7641 2.2V41.8C94.7641 42.2 94.5841 42.52 94.2241 42.76C93.8641 43 93.2241 43.12 92.3041 43.12H91.8241C90.9441 43.12 90.3041 43 89.9041 42.76C89.5441 42.52 89.3641 42.2 89.3641 41.8V11.74C89.3641 11.18 89.3641 10.62 89.3641 10.06C89.4041 9.5 89.4441 8.96 89.4841 8.44L89.2441 8.38C89.0841 8.78 88.8241 9.28 88.4641 9.88C88.1041 10.44 87.7441 10.98 87.3841 11.5L75.0841 29.62C74.5641 30.34 74.1241 30.8 73.7641 31C73.4041 31.2 72.8041 31.3 71.9641 31.3H71.4841C70.6441 31.3 70.0441 31.2 69.6841 31C69.3241 30.8 68.8841 30.34 68.3641 29.62L55.8841 11.14C55.5241 10.58 55.1641 10.02 54.8041 9.46C54.4841 8.86 54.2441 8.38 54.0841 8.02L53.8441 8.08C53.8841 8.6 53.9041 9.16 53.9041 9.76C53.9441 10.36 53.9641 11.1 53.9641 11.98V41.8C53.9641 42.2 53.7841 42.52 53.4241 42.76C53.0641 43 52.4241 43.12 51.5041 43.12H51.0241ZM117.024 43.12C116.144 43.12 115.504 43 115.104 42.76C114.744 42.52 114.564 42.2 114.564 41.8V2.8C114.564 1.6 115.184 0.999997 116.424 0.999997H133.404C138.124 0.999997 141.664 2.02 144.024 4.06C146.424 6.06 147.624 9.06 147.624 13.06C147.624 17.06 146.424 20.08 144.024 22.12C141.664 24.12 138.124 25.12 133.404 25.12H119.964V41.8C119.964 42.2 119.784 42.52 119.424 42.76C119.064 43 118.424 43.12 117.504 43.12H117.024ZM119.964 20.56H133.404C136.484 20.56 138.704 19.98 140.064 18.82C141.464 17.62 142.164 15.7 142.164 13.06C142.164 10.42 141.464 8.52 140.064 7.36C138.704 6.16 136.484 5.56 133.404 5.56H119.964V20.56ZM164.04 43.12C163.16 43.12 162.52 43 162.12 42.76C161.76 42.52 161.58 42.2 161.58 41.8V2.8C161.58 1.6 162.2 0.999997 163.44 0.999997H180.42C185.14 0.999997 188.68 2 191.04 4C193.44 6 194.64 9.02 194.64 13.06C194.64 14.62 194.34 16.08 193.74 17.44C193.14 18.76 192.32 19.88 191.28 20.8C190.28 21.72 189.1 22.32 187.74 22.6V22.84C189.02 23.24 190.04 24.08 190.8 25.36C191.6 26.64 192.38 28.22 193.14 30.1L197.82 41.32C197.9 41.48 197.94 41.64 197.94 41.8C197.98 41.96 198 42.08 198 42.16C198 42.44 197.8 42.68 197.4 42.88C197 43.04 196.36 43.12 195.48 43.12H194.88C194.28 43.12 193.76 43.02 193.32 42.82C192.88 42.62 192.56 42.32 192.36 41.92L187.92 31C187.32 29.44 186.7 28.24 186.06 27.4C185.42 26.56 184.66 25.98 183.78 25.66C182.9 25.3 181.78 25.12 180.42 25.12H166.98V41.8C166.98 42.2 166.8 42.52 166.44 42.76C166.08 43 165.44 43.12 164.52 43.12H164.04ZM166.98 20.56H180.42C183.5 20.56 185.72 19.98 187.08 18.82C188.48 17.62 189.18 15.7 189.18 13.06C189.18 10.42 188.48 8.52 187.08 7.36C185.72 6.16 183.5 5.56 180.42 5.56H166.98V20.56ZM213.385 43C212.145 43 211.525 42.4 211.525 41.2V2.8C211.525 1.6 212.145 0.999997 213.385 0.999997H240.805C241.605 0.999997 242.005 1.6 242.005 2.8V3.76C242.005 4.96 241.605 5.56 240.805 5.56H216.925V19.24H239.005C239.805 19.24 240.205 19.84 240.205 21.04V22C240.205 23.2 239.805 23.8 239.005 23.8H216.925V38.44H240.865C241.665 38.44 242.065 39.04 242.065 40.24V41.2C242.065 42.4 241.665 43 240.865 43H213.385ZM268.869 43.36C266.709 43.36 264.669 43.18 262.749 42.82C260.869 42.46 259.229 42.04 257.829 41.56C256.429 41.08 255.409 40.66 254.769 40.3C254.409 40.1 254.089 39.88 253.809 39.64C253.569 39.36 253.449 39.08 253.449 38.8C253.449 38.6 253.489 38.34 253.569 38.02C253.649 37.66 253.749 37.3 253.869 36.94C254.029 36.58 254.189 36.28 254.349 36.04C254.549 35.8 254.769 35.68 255.009 35.68C255.409 35.68 256.229 35.94 257.469 36.46C258.749 36.98 260.349 37.5 262.269 38.02C264.229 38.54 266.429 38.8 268.869 38.8C271.309 38.8 273.329 38.54 274.929 38.02C276.569 37.5 277.789 36.72 278.589 35.68C279.429 34.6 279.849 33.3 279.849 31.78C279.849 30.46 279.549 29.38 278.949 28.54C278.349 27.66 277.509 26.96 276.429 26.44C275.389 25.92 274.189 25.48 272.829 25.12C271.509 24.76 270.129 24.44 268.689 24.16C266.969 23.8 265.249 23.4 263.529 22.96C261.849 22.48 260.309 21.84 258.909 21.04C257.509 20.2 256.369 19.1 255.489 17.74C254.649 16.34 254.229 14.54 254.229 12.34C254.229 10.66 254.609 9.1 255.369 7.66C256.129 6.22 257.209 4.98 258.609 3.94C260.009 2.9 261.649 2.1 263.529 1.54C265.449 0.939998 267.529 0.639998 269.769 0.639998C271.569 0.639998 273.269 0.759998 274.869 0.999997C276.469 1.2 277.889 1.48 279.129 1.84C280.369 2.2 281.329 2.56 282.009 2.92C282.369 3.08 282.649 3.24 282.849 3.4C283.049 3.56 283.149 3.8 283.149 4.12C283.149 4.36 283.109 4.66 283.029 5.02C282.989 5.38 282.909 5.76 282.789 6.16C282.669 6.52 282.509 6.84 282.309 7.12C282.149 7.36 281.969 7.48 281.769 7.48C281.369 7.48 280.669 7.3 279.669 6.94C278.669 6.54 277.349 6.16 275.709 5.8C274.069 5.4 272.049 5.2 269.649 5.2C267.369 5.2 265.489 5.48 264.009 6.04C262.529 6.6 261.409 7.4 260.649 8.44C259.929 9.48 259.569 10.72 259.569 12.16C259.569 13.72 260.029 14.94 260.949 15.82C261.909 16.7 263.189 17.4 264.789 17.92C266.429 18.4 268.289 18.88 270.369 19.36C272.129 19.72 273.869 20.16 275.589 20.68C277.349 21.16 278.949 21.82 280.389 22.66C281.829 23.5 282.989 24.66 283.869 26.14C284.749 27.58 285.189 29.44 285.189 31.72C285.189 33.52 284.809 35.14 284.049 36.58C283.329 38.02 282.249 39.26 280.809 40.3C279.409 41.3 277.689 42.06 275.649 42.58C273.649 43.1 271.389 43.36 268.869 43.36ZM297.226 43.12C296.346 43.12 295.686 43.04 295.246 42.88C294.846 42.68 294.646 42.42 294.646 42.1C294.646 41.98 294.646 41.86 294.646 41.74C294.686 41.58 294.746 41.42 294.826 41.26L311.326 2.14C311.526 1.7 311.866 1.38 312.346 1.18C312.826 0.979999 313.486 0.879999 314.326 0.879999H316.306C317.146 0.879999 317.806 0.979999 318.286 1.18C318.806 1.38 319.146 1.7 319.306 2.14L335.806 41.32C335.886 41.48 335.926 41.62 335.926 41.74C335.966 41.86 335.986 41.98 335.986 42.1C335.986 42.38 335.786 42.62 335.386 42.82C334.986 43.02 334.326 43.12 333.406 43.12H332.866C332.226 43.12 331.686 43.06 331.246 42.94C330.846 42.82 330.546 42.5 330.346 41.98L317.326 10.12C317.006 9.32 316.646 8.4 316.246 7.36C315.886 6.32 315.606 5.4 315.406 4.6H315.286C315.126 5.28 314.826 6.14 314.386 7.18C313.986 8.22 313.606 9.2 313.246 10.12L300.106 41.98C299.906 42.5 299.586 42.82 299.146 42.94C298.746 43.06 298.246 43.12 297.646 43.12H297.226ZM302.626 32.2V27.76H327.766V32.2H302.626ZM3.88 108.12C2.76 108.12 1.94 107.98 1.42 107.7C0.9 107.38 0.64 106.94 0.64 106.38V67.62C0.64 67.06 0.9 66.64 1.42 66.36C1.94 66.04 2.76 65.88 3.88 65.88H5.38C6.54 65.88 7.36 66.04 7.84 66.36C8.36 66.64 8.62 67.06 8.62 67.62V106.38C8.62 106.94 8.36 107.38 7.84 107.7C7.36 107.98 6.54 108.12 5.38 108.12H3.88ZM29.0988 108.12C27.9788 108.12 27.1588 107.98 26.6388 107.7C26.1188 107.38 25.8588 106.94 25.8588 106.38V67.62C25.8588 67.06 26.1188 66.64 26.6388 66.36C27.1588 66.04 27.9788 65.88 29.0988 65.88H30.9588C31.5588 65.88 32.0788 65.94 32.5188 66.06C32.9988 66.14 33.4188 66.3 33.7788 66.54C34.1388 66.78 34.4988 67.12 34.8588 67.56L55.4987 92.94C56.0188 93.58 56.5188 94.3 56.9988 95.1C57.4788 95.86 57.8388 96.5 58.0788 97.02L58.3188 96.96C58.2788 96.4 58.2188 95.78 58.1388 95.1C58.0988 94.38 58.0788 93.64 58.0788 92.88V67.62C58.0788 67.06 58.3188 66.64 58.7988 66.36C59.3188 66.04 60.1388 65.88 61.2588 65.88H62.3388C63.4988 65.88 64.3188 66.04 64.7988 66.36C65.3188 66.64 65.5788 67.06 65.5788 67.62V106.38C65.5788 106.94 65.3188 107.38 64.7988 107.7C64.3188 107.98 63.4988 108.12 62.3388 108.12H60.4788C59.9188 108.12 59.4188 108.08 58.9788 108C58.5388 107.92 58.1588 107.78 57.8388 107.58C57.5188 107.34 57.2188 107.04 56.9388 106.68L35.8188 80.76C35.3388 80.16 34.8588 79.48 34.3788 78.72C33.9388 77.96 33.5788 77.32 33.2988 76.8L33.0588 76.86C33.1388 77.42 33.1988 78.06 33.2388 78.78C33.3188 79.46 33.3588 80.18 33.3588 80.94V106.38C33.3588 106.94 33.1188 107.38 32.6388 107.7C32.1588 107.98 31.3388 108.12 30.1788 108.12H29.0988ZM86.0753 108.12C84.9553 108.12 84.1353 107.98 83.6153 107.7C83.0953 107.38 82.8353 106.94 82.8353 106.38V67.62C82.8353 67.06 83.0953 66.64 83.6153 66.36C84.1353 66.04 84.9553 65.88 86.0753 65.88H87.5753C88.7353 65.88 89.5553 66.04 90.0353 66.36C90.5553 66.64 90.8153 67.06 90.8153 67.62V106.38C90.8153 106.94 90.5553 107.38 90.0353 107.7C89.5553 107.98 88.7353 108.12 87.5753 108.12H86.0753ZM128.154 108.42C120.514 108.42 114.794 106.62 110.994 103.02C107.234 99.42 105.354 94.06 105.354 86.94C105.354 79.86 107.314 74.54 111.234 70.98C115.154 67.38 120.994 65.58 128.754 65.58C130.354 65.58 131.934 65.68 133.494 65.88C135.054 66.08 136.494 66.38 137.814 66.78C139.134 67.14 140.234 67.54 141.114 67.98C141.874 68.34 142.414 68.68 142.734 69C143.094 69.28 143.274 69.64 143.274 70.08C143.274 70.36 143.194 70.74 143.034 71.22C142.914 71.66 142.754 72.12 142.554 72.6C142.354 73.08 142.094 73.48 141.774 73.8C141.494 74.12 141.194 74.28 140.874 74.28C140.434 74.28 139.694 74.12 138.654 73.8C137.654 73.48 136.334 73.16 134.694 72.84C133.094 72.48 131.114 72.3 128.754 72.3C125.354 72.3 122.514 72.76 120.234 73.68C117.954 74.6 116.234 76.14 115.074 78.3C113.954 80.42 113.394 83.3 113.394 86.94C113.394 90.62 113.954 93.54 115.074 95.7C116.234 97.82 117.954 99.36 120.234 100.32C122.514 101.24 125.354 101.7 128.754 101.7C130.674 101.7 132.374 101.58 133.854 101.34C135.334 101.06 136.614 100.76 137.694 100.44C138.774 100.12 139.654 99.84 140.334 99.6C141.054 99.32 141.594 99.18 141.954 99.18C142.274 99.18 142.554 99.36 142.794 99.72C143.074 100.08 143.294 100.52 143.454 101.04C143.614 101.52 143.734 102 143.814 102.48C143.934 102.96 143.994 103.34 143.994 103.62C143.994 104.14 143.854 104.52 143.574 104.76C143.334 104.96 142.854 105.24 142.134 105.6C140.894 106.16 139.514 106.68 137.994 107.16C136.474 107.6 134.874 107.92 133.194 108.12C131.514 108.32 129.834 108.42 128.154 108.42ZM161.708 108.12C160.588 108.12 159.768 107.98 159.248 107.7C158.728 107.38 158.468 106.94 158.468 106.38V67.62C158.468 67.06 158.728 66.64 159.248 66.36C159.768 66.04 160.588 65.88 161.708 65.88H163.208C164.368 65.88 165.188 66.04 165.668 66.36C166.188 66.64 166.448 67.06 166.448 67.62V106.38C166.448 106.94 166.188 107.38 165.668 107.7C165.188 107.98 164.368 108.12 163.208 108.12H161.708ZM182.247 108.12C180.927 108.12 180.047 108.02 179.607 107.82C179.167 107.58 178.947 107.28 178.947 106.92C178.947 106.76 178.967 106.6 179.007 106.44C179.047 106.28 179.107 106.1 179.187 105.9L194.547 67.68C194.827 66.96 195.287 66.48 195.927 66.24C196.607 66 197.507 65.88 198.627 65.88H201.627C202.747 65.88 203.627 66 204.267 66.24C204.947 66.48 205.427 66.96 205.707 67.68L221.067 105.9C221.147 106.1 221.187 106.28 221.187 106.44C221.227 106.6 221.247 106.76 221.247 106.92C221.247 107.28 221.007 107.58 220.527 107.82C220.087 108.02 219.367 108.12 218.367 108.12H216.087C215.287 108.12 214.607 108.04 214.047 107.88C213.527 107.68 213.147 107.28 212.907 106.68L201.627 76.98C201.347 76.26 201.067 75.52 200.787 74.76C200.547 73.96 200.347 73.22 200.187 72.54H200.007C199.847 73.18 199.627 73.9 199.347 74.7C199.107 75.46 198.827 76.22 198.507 76.98L187.047 106.68C186.847 107.28 186.507 107.68 186.027 107.88C185.587 108.04 185.027 108.12 184.347 108.12H182.247ZM187.467 98.52V92.22H212.307V98.52H187.467ZM236.028 108C234.548 108 233.808 107.26 233.808 105.78V67.62C233.808 67.06 234.068 66.64 234.588 66.36C235.108 66.04 235.928 65.88 237.048 65.88H238.548C239.708 65.88 240.528 66.04 241.008 66.36C241.528 66.64 241.788 67.06 241.788 67.62V101.28H260.748C261.828 101.28 262.368 102.14 262.368 103.86V105.42C262.368 107.14 261.828 108 260.748 108H236.028ZM275.333 108.12C274.213 108.12 273.393 107.98 272.873 107.7C272.353 107.38 272.093 106.94 272.093 106.38V101.4C272.093 100.84 272.353 100.42 272.873 100.14C273.393 99.86 274.213 99.72 275.333 99.72H276.893C278.053 99.72 278.873 99.86 279.353 100.14C279.873 100.42 280.133 100.84 280.133 101.4V106.38C280.133 106.94 279.873 107.38 279.353 107.7C278.873 107.98 278.053 108.12 276.893 108.12H275.333Z" fill="#F9F9F9"/>
</svg>
