<svg width="336" height="108" viewBox="0 0 336 108" fill="none" xmlns="http://www.w3.org/2000/svg">
<path d="M3.76 42.4009C2.52 42.4009 1.9 41.8009 1.9 40.6009V2.20088C1.9 1.00088 2.52 0.400876 3.76 0.400876H31.18C31.98 0.400876 32.38 1.00088 32.38 2.20088V3.16088C32.38 4.36088 31.98 4.96088 31.18 4.96088H7.3V18.6409H29.38C30.18 18.6409 30.58 19.2409 30.58 20.4409V21.4009C30.58 22.6009 30.18 23.2009 29.38 23.2009H7.3V37.8409H31.24C32.04 37.8409 32.44 38.4409 32.44 39.6409V40.6009C32.44 41.8009 32.04 42.4009 31.24 42.4009H3.76ZM51.0241 42.5209C50.1441 42.5209 49.5041 42.4009 49.1041 42.1609C48.7441 41.9209 48.5641 41.6009 48.5641 41.2009V1.60088C48.5641 1.16088 48.7441 0.840876 49.1041 0.640877C49.5041 0.400877 50.1441 0.280878 51.0241 0.280878H52.5241C53.5241 0.280878 54.2641 0.380877 54.7441 0.580877C55.2241 0.780877 55.6641 1.18088 56.0641 1.78088L70.1641 22.6609C70.4841 23.1009 70.7841 23.6009 71.0641 24.1609C71.3841 24.6809 71.6241 25.1209 71.7841 25.4809C71.9441 25.1609 72.1841 24.7209 72.5041 24.1609C72.8641 23.5609 73.2241 23.0009 73.5841 22.4809L87.6241 1.78088C88.0241 1.18088 88.4441 0.780877 88.8841 0.580877C89.3641 0.380877 90.0641 0.280878 90.9841 0.280878H92.3041C93.2241 0.280878 93.8641 0.400877 94.2241 0.640877C94.5841 0.840876 94.7641 1.16088 94.7641 1.60088V41.2009C94.7641 41.6009 94.5841 41.9209 94.2241 42.1609C93.8641 42.4009 93.2241 42.5209 92.3041 42.5209H91.8241C90.9441 42.5209 90.3041 42.4009 89.9041 42.1609C89.5441 41.9209 89.3641 41.6009 89.3641 41.2009V11.1409C89.3641 10.5809 89.3641 10.0209 89.3641 9.46088C89.4041 8.90088 89.4441 8.36088 89.4841 7.84088L89.2441 7.78088C89.0841 8.18088 88.8241 8.68088 88.4641 9.28088C88.1041 9.84088 87.7441 10.3809 87.3841 10.9009L75.0841 29.0209C74.5641 29.7409 74.1241 30.2009 73.7641 30.4009C73.4041 30.6009 72.8041 30.7009 71.9641 30.7009H71.4841C70.6441 30.7009 70.0441 30.6009 69.6841 30.4009C69.3241 30.2009 68.8841 29.7409 68.3641 29.0209L55.8841 10.5409C55.5241 9.98088 55.1641 9.42088 54.8041 8.86088C54.4841 8.26088 54.2441 7.78088 54.0841 7.42088L53.8441 7.48088C53.8841 8.00088 53.9041 8.56088 53.9041 9.16088C53.9441 9.76088 53.9641 10.5009 53.9641 11.3809V41.2009C53.9641 41.6009 53.7841 41.9209 53.4241 42.1609C53.0641 42.4009 52.4241 42.5209 51.5041 42.5209H51.0241ZM117.024 42.5209C116.144 42.5209 115.504 42.4009 115.104 42.1609C114.744 41.9209 114.564 41.6009 114.564 41.2009V2.20088C114.564 1.00088 115.184 0.400876 116.424 0.400876H133.404C138.124 0.400876 141.664 1.42088 144.024 3.46088C146.424 5.46088 147.624 8.46088 147.624 12.4609C147.624 16.4609 146.424 19.4809 144.024 21.5209C141.664 23.5209 138.124 24.5209 133.404 24.5209H119.964V41.2009C119.964 41.6009 119.784 41.9209 119.424 42.1609C119.064 42.4009 118.424 42.5209 117.504 42.5209H117.024ZM119.964 19.9609H133.404C136.484 19.9609 138.704 19.3809 140.064 18.2209C141.464 17.0209 142.164 15.1009 142.164 12.4609C142.164 9.82088 141.464 7.92088 140.064 6.76088C138.704 5.56088 136.484 4.96088 133.404 4.96088H119.964V19.9609ZM164.04 42.5209C163.16 42.5209 162.52 42.4009 162.12 42.1609C161.76 41.9209 161.58 41.6009 161.58 41.2009V2.20088C161.58 1.00088 162.2 0.400876 163.44 0.400876H180.42C185.14 0.400876 188.68 1.40088 191.04 3.40088C193.44 5.40088 194.64 8.42088 194.64 12.4609C194.64 14.0209 194.34 15.4809 193.74 16.8409C193.14 18.1609 192.32 19.2809 191.28 20.2009C190.28 21.1209 189.1 21.7209 187.74 22.0009V22.2409C189.02 22.6409 190.04 23.4809 190.8 24.7609C191.6 26.0409 192.38 27.6209 193.14 29.5009L197.82 40.7209C197.9 40.8809 197.94 41.0409 197.94 41.2009C197.98 41.3609 198 41.4809 198 41.5609C198 41.8409 197.8 42.0809 197.4 42.2809C197 42.4409 196.36 42.5209 195.48 42.5209H194.88C194.28 42.5209 193.76 42.4209 193.32 42.2209C192.88 42.0209 192.56 41.7209 192.36 41.3209L187.92 30.4009C187.32 28.8409 186.7 27.6409 186.06 26.8009C185.42 25.9609 184.66 25.3809 183.78 25.0609C182.9 24.7009 181.78 24.5209 180.42 24.5209H166.98V41.2009C166.98 41.6009 166.8 41.9209 166.44 42.1609C166.08 42.4009 165.44 42.5209 164.52 42.5209H164.04ZM166.98 19.9609H180.42C183.5 19.9609 185.72 19.3809 187.08 18.2209C188.48 17.0209 189.18 15.1009 189.18 12.4609C189.18 9.82088 188.48 7.92088 187.08 6.76088C185.72 5.56088 183.5 4.96088 180.42 4.96088H166.98V19.9609ZM213.385 42.4009C212.145 42.4009 211.525 41.8009 211.525 40.6009V2.20088C211.525 1.00088 212.145 0.400876 213.385 0.400876H240.805C241.605 0.400876 242.005 1.00088 242.005 2.20088V3.16088C242.005 4.36088 241.605 4.96088 240.805 4.96088H216.925V18.6409H239.005C239.805 18.6409 240.205 19.2409 240.205 20.4409V21.4009C240.205 22.6009 239.805 23.2009 239.005 23.2009H216.925V37.8409H240.865C241.665 37.8409 242.065 38.4409 242.065 39.6409V40.6009C242.065 41.8009 241.665 42.4009 240.865 42.4009H213.385ZM268.869 42.7609C266.709 42.7609 264.669 42.5809 262.749 42.2209C260.869 41.8609 259.229 41.4409 257.829 40.9609C256.429 40.4809 255.409 40.0609 254.769 39.7009C254.409 39.5009 254.089 39.2809 253.809 39.0409C253.569 38.7609 253.449 38.4809 253.449 38.2009C253.449 38.0009 253.489 37.7409 253.569 37.4209C253.649 37.0609 253.749 36.7009 253.869 36.3409C254.029 35.9809 254.189 35.6809 254.349 35.4409C254.549 35.2009 254.769 35.0809 255.009 35.0809C255.409 35.0809 256.229 35.3409 257.469 35.8609C258.749 36.3809 260.349 36.9009 262.269 37.4209C264.229 37.9409 266.429 38.2009 268.869 38.2009C271.309 38.2009 273.329 37.9409 274.929 37.4209C276.569 36.9009 277.789 36.1209 278.589 35.0809C279.429 34.0009 279.849 32.7009 279.849 31.1809C279.849 29.8609 279.549 28.7809 278.949 27.9409C278.349 27.0609 277.509 26.3609 276.429 25.8409C275.389 25.3209 274.189 24.8809 272.829 24.5209C271.509 24.1609 270.129 23.8409 268.689 23.5609C266.969 23.2009 265.249 22.8009 263.529 22.3609C261.849 21.8809 260.309 21.2409 258.909 20.4409C257.509 19.6009 256.369 18.5009 255.489 17.1409C254.649 15.7409 254.229 13.9409 254.229 11.7409C254.229 10.0609 254.609 8.50088 255.369 7.06088C256.129 5.62088 257.209 4.38088 258.609 3.34088C260.009 2.30088 261.649 1.50088 263.529 0.940876C265.449 0.340877 267.529 0.0408771 269.769 0.0408771C271.569 0.0408771 273.269 0.160877 274.869 0.400876C276.469 0.600876 277.889 0.880876 279.129 1.24088C280.369 1.60088 281.329 1.96088 282.009 2.32088C282.369 2.48088 282.649 2.64088 282.849 2.80088C283.049 2.96088 283.149 3.20088 283.149 3.52088C283.149 3.76088 283.109 4.06088 283.029 4.42088C282.989 4.78088 282.909 5.16088 282.789 5.56088C282.669 5.92088 282.509 6.24088 282.309 6.52088C282.149 6.76088 281.969 6.88088 281.769 6.88088C281.369 6.88088 280.669 6.70088 279.669 6.34088C278.669 5.94088 277.349 5.56088 275.709 5.20088C274.069 4.80088 272.049 4.60088 269.649 4.60088C267.369 4.60088 265.489 4.88088 264.009 5.44088C262.529 6.00088 261.409 6.80088 260.649 7.84088C259.929 8.88088 259.569 10.1209 259.569 11.5609C259.569 13.1209 260.029 14.3409 260.949 15.2209C261.909 16.1009 263.189 16.8009 264.789 17.3209C266.429 17.8009 268.289 18.2809 270.369 18.7609C272.129 19.1209 273.869 19.5609 275.589 20.0809C277.349 20.5609 278.949 21.2209 280.389 22.0609C281.829 22.9009 282.989 24.0609 283.869 25.5409C284.749 26.9809 285.189 28.8409 285.189 31.1209C285.189 32.9209 284.809 34.5409 284.049 35.9809C283.329 37.4209 282.249 38.6609 280.809 39.7009C279.409 40.7009 277.689 41.4609 275.649 41.9809C273.649 42.5009 271.389 42.7609 268.869 42.7609ZM297.226 42.5209C296.346 42.5209 295.686 42.4409 295.246 42.2809C294.846 42.0809 294.646 41.8209 294.646 41.5009C294.646 41.3809 294.646 41.2609 294.646 41.1409C294.686 40.9809 294.746 40.8209 294.826 40.6609L311.326 1.54088C311.526 1.10088 311.866 0.780877 312.346 0.580877C312.826 0.380877 313.486 0.280878 314.326 0.280878H316.306C317.146 0.280878 317.806 0.380877 318.286 0.580877C318.806 0.780877 319.146 1.10088 319.306 1.54088L335.806 40.7209C335.886 40.8809 335.926 41.0209 335.926 41.1409C335.966 41.2609 335.986 41.3809 335.986 41.5009C335.986 41.7809 335.786 42.0209 335.386 42.2209C334.986 42.4209 334.326 42.5209 333.406 42.5209H332.866C332.226 42.5209 331.686 42.4609 331.246 42.3409C330.846 42.2209 330.546 41.9009 330.346 41.3809L317.326 9.52088C317.006 8.72088 316.646 7.80088 316.246 6.76088C315.886 5.72088 315.606 4.80088 315.406 4.00088H315.286C315.126 4.68088 314.826 5.54088 314.386 6.58088C313.986 7.62088 313.606 8.60088 313.246 9.52088L300.106 41.3809C299.906 41.9009 299.586 42.2209 299.146 42.3409C298.746 42.4609 298.246 42.5209 297.646 42.5209H297.226ZM302.626 31.6009V27.1609H327.766V31.6009H302.626ZM3.88 107.521C2.76 107.521 1.94 107.381 1.42 107.101C0.9 106.781 0.64 106.341 0.64 105.781V67.0209C0.64 66.4609 0.9 66.0409 1.42 65.7609C1.94 65.4409 2.76 65.2809 3.88 65.2809H5.38C6.54 65.2809 7.36 65.4409 7.84 65.7609C8.36 66.0409 8.62 66.4609 8.62 67.0209V105.781C8.62 106.341 8.36 106.781 7.84 107.101C7.36 107.381 6.54 107.521 5.38 107.521H3.88ZM29.0988 107.521C27.9788 107.521 27.1588 107.381 26.6388 107.101C26.1188 106.781 25.8588 106.341 25.8588 105.781V67.0209C25.8588 66.4609 26.1188 66.0409 26.6388 65.7609C27.1588 65.4409 27.9788 65.2809 29.0988 65.2809H30.9588C31.5588 65.2809 32.0788 65.3409 32.5188 65.4609C32.9988 65.5409 33.4188 65.7009 33.7788 65.9409C34.1388 66.1809 34.4988 66.5209 34.8588 66.9609L55.4987 92.3409C56.0188 92.9809 56.5188 93.7009 56.9988 94.5009C57.4788 95.2609 57.8388 95.9009 58.0788 96.4209L58.3188 96.3609C58.2788 95.8009 58.2188 95.1809 58.1388 94.5009C58.0988 93.7809 58.0788 93.0409 58.0788 92.2809V67.0209C58.0788 66.4609 58.3188 66.0409 58.7988 65.7609C59.3188 65.4409 60.1388 65.2809 61.2588 65.2809H62.3388C63.4988 65.2809 64.3188 65.4409 64.7988 65.7609C65.3188 66.0409 65.5788 66.4609 65.5788 67.0209V105.781C65.5788 106.341 65.3188 106.781 64.7988 107.101C64.3188 107.381 63.4988 107.521 62.3388 107.521H60.4788C59.9188 107.521 59.4188 107.481 58.9788 107.401C58.5388 107.321 58.1588 107.181 57.8388 106.981C57.5188 106.741 57.2188 106.441 56.9388 106.081L35.8188 80.1609C35.3388 79.5609 34.8588 78.8809 34.3788 78.1209C33.9388 77.3609 33.5788 76.7209 33.2988 76.2009L33.0588 76.2609C33.1388 76.8209 33.1988 77.4609 33.2388 78.1809C33.3188 78.8609 33.3588 79.5809 33.3588 80.3409V105.781C33.3588 106.341 33.1188 106.781 32.6388 107.101C32.1588 107.381 31.3388 107.521 30.1788 107.521H29.0988ZM86.0753 107.521C84.9553 107.521 84.1353 107.381 83.6153 107.101C83.0953 106.781 82.8353 106.341 82.8353 105.781V67.0209C82.8353 66.4609 83.0953 66.0409 83.6153 65.7609C84.1353 65.4409 84.9553 65.2809 86.0753 65.2809H87.5753C88.7353 65.2809 89.5553 65.4409 90.0353 65.7609C90.5553 66.0409 90.8153 66.4609 90.8153 67.0209V105.781C90.8153 106.341 90.5553 106.781 90.0353 107.101C89.5553 107.381 88.7353 107.521 87.5753 107.521H86.0753ZM128.154 107.821C120.514 107.821 114.794 106.021 110.994 102.421C107.234 98.8209 105.354 93.4609 105.354 86.3409C105.354 79.2609 107.314 73.9409 111.234 70.3809C115.154 66.7809 120.994 64.9809 128.754 64.9809C130.354 64.9809 131.934 65.0809 133.494 65.2809C135.054 65.4809 136.494 65.7809 137.814 66.1809C139.134 66.5409 140.234 66.9409 141.114 67.3809C141.874 67.7409 142.414 68.0809 142.734 68.4009C143.094 68.6809 143.274 69.0409 143.274 69.4809C143.274 69.7609 143.194 70.1409 143.034 70.6209C142.914 71.0609 142.754 71.5209 142.554 72.0009C142.354 72.4809 142.094 72.8809 141.774 73.2009C141.494 73.5209 141.194 73.6809 140.874 73.6809C140.434 73.6809 139.694 73.5209 138.654 73.2009C137.654 72.8809 136.334 72.5609 134.694 72.2409C133.094 71.8809 131.114 71.7009 128.754 71.7009C125.354 71.7009 122.514 72.1609 120.234 73.0809C117.954 74.0009 116.234 75.5409 115.074 77.7009C113.954 79.8209 113.394 82.7009 113.394 86.3409C113.394 90.0209 113.954 92.9409 115.074 95.1009C116.234 97.2209 117.954 98.7609 120.234 99.7209C122.514 100.641 125.354 101.101 128.754 101.101C130.674 101.101 132.374 100.981 133.854 100.741C135.334 100.461 136.614 100.161 137.694 99.8409C138.774 99.5209 139.654 99.2409 140.334 99.0009C141.054 98.7209 141.594 98.5809 141.954 98.5809C142.274 98.5809 142.554 98.7609 142.794 99.1209C143.074 99.4809 143.294 99.9209 143.454 100.441C143.614 100.921 143.734 101.401 143.814 101.881C143.934 102.361 143.994 102.741 143.994 103.021C143.994 103.541 143.854 103.921 143.574 104.161C143.334 104.361 142.854 104.641 142.134 105.001C140.894 105.561 139.514 106.081 137.994 106.561C136.474 107.001 134.874 107.321 133.194 107.521C131.514 107.721 129.834 107.821 128.154 107.821ZM161.708 107.521C160.588 107.521 159.768 107.381 159.248 107.101C158.728 106.781 158.468 106.341 158.468 105.781V67.0209C158.468 66.4609 158.728 66.0409 159.248 65.7609C159.768 65.4409 160.588 65.2809 161.708 65.2809H163.208C164.368 65.2809 165.188 65.4409 165.668 65.7609C166.188 66.0409 166.448 66.4609 166.448 67.0209V105.781C166.448 106.341 166.188 106.781 165.668 107.101C165.188 107.381 164.368 107.521 163.208 107.521H161.708ZM182.247 107.521C180.927 107.521 180.047 107.421 179.607 107.221C179.167 106.981 178.947 106.681 178.947 106.321C178.947 106.161 178.967 106.001 179.007 105.841C179.047 105.681 179.107 105.501 179.187 105.301L194.547 67.0809C194.827 66.3609 195.287 65.8809 195.927 65.6409C196.607 65.4009 197.507 65.2809 198.627 65.2809H201.627C202.747 65.2809 203.627 65.4009 204.267 65.6409C204.947 65.8809 205.427 66.3609 205.707 67.0809L221.067 105.301C221.147 105.501 221.187 105.681 221.187 105.841C221.227 106.001 221.247 106.161 221.247 106.321C221.247 106.681 221.007 106.981 220.527 107.221C220.087 107.421 219.367 107.521 218.367 107.521H216.087C215.287 107.521 214.607 107.441 214.047 107.281C213.527 107.081 213.147 106.681 212.907 106.081L201.627 76.3809C201.347 75.6609 201.067 74.9209 200.787 74.1609C200.547 73.3609 200.347 72.6209 200.187 71.9409H200.007C199.847 72.5809 199.627 73.3009 199.347 74.1009C199.107 74.8609 198.827 75.6209 198.507 76.3809L187.047 106.081C186.847 106.681 186.507 107.081 186.027 107.281C185.587 107.441 185.027 107.521 184.347 107.521H182.247ZM187.467 97.9209V91.6209H212.307V97.9209H187.467ZM236.028 107.401C234.548 107.401 233.808 106.661 233.808 105.181V67.0209C233.808 66.4609 234.068 66.0409 234.588 65.7609C235.108 65.4409 235.928 65.2809 237.048 65.2809H238.548C239.708 65.2809 240.528 65.4409 241.008 65.7609C241.528 66.0409 241.788 66.4609 241.788 67.0209V100.681H260.748C261.828 100.681 262.368 101.541 262.368 103.261V104.821C262.368 106.541 261.828 107.401 260.748 107.401H236.028ZM275.333 107.521C274.213 107.521 273.393 107.381 272.873 107.101C272.353 106.781 272.093 106.341 272.093 105.781V100.801C272.093 100.241 272.353 99.8209 272.873 99.5409C273.393 99.2609 274.213 99.1209 275.333 99.1209H276.893C278.053 99.1209 278.873 99.2609 279.353 99.5409C279.873 99.8209 280.133 100.241 280.133 100.801V105.781C280.133 106.341 279.873 106.781 279.353 107.101C278.873 107.381 278.053 107.521 276.893 107.521H275.333Z" fill="#02090A"/>
</svg>
