<svg width="44" height="53" viewBox="0 0 44 53" fill="none" xmlns="http://www.w3.org/2000/svg">
<path d="M28.8541 31.2052L24.9508 35.1085L28.8541 39.0117C29.2694 39.4128 29.5084 39.9625 29.5184 40.5398C29.5285 41.117 29.3088 41.6747 28.9077 42.09C28.5066 42.5053 27.957 42.7442 27.3797 42.7543C26.8024 42.7643 26.2448 42.5446 25.8295 42.1435L25.7754 42.0905L21.8721 38.1872L17.9688 42.0905C17.5601 42.4963 17.0071 42.7236 16.4311 42.7225C15.8551 42.7214 15.3031 42.4921 14.8958 42.0847C14.4886 41.6774 14.2594 41.1252 14.2586 40.5492C14.2577 39.9732 14.4851 39.4203 14.8911 39.0117L18.7944 35.1085L14.8911 31.2052C14.4954 30.7945 14.2766 30.245 14.2819 29.6747C14.2872 29.1044 14.5161 28.559 14.9194 28.1557C15.3226 27.7524 15.868 27.5236 16.4383 27.5183C17.0086 27.513 17.5582 27.7317 17.9688 28.1275L21.8721 32.0307L25.7754 28.1275C26.184 27.7215 26.7369 27.494 27.3129 27.4949C27.8888 27.4958 28.441 27.725 28.8484 28.1322C29.2557 28.5394 29.4851 29.0915 29.4862 29.6675C29.4872 30.2435 29.26 30.7964 28.8541 31.2052ZM43.6427 23.1027V41.6394C43.6392 44.5253 42.4912 47.292 40.4506 49.3326C38.41 51.3732 35.6433 52.5212 32.7574 52.5247H10.9878C8.10195 52.5212 5.33527 51.3732 3.29464 49.3326C1.25402 47.292 0.10605 44.5253 0.102539 41.6394L0.102539 11.1623C0.10605 8.27637 1.25402 5.50969 3.29464 3.46907C5.33527 1.42844 8.10195 0.280473 10.9878 0.276962H20.818C22.8199 0.272061 24.803 0.663902 26.6526 1.42985C28.5022 2.19579 30.1817 3.32066 31.5941 4.73945L39.1782 12.3286C40.5978 13.7401 41.7234 15.4191 42.4897 17.2684C43.2561 19.1178 43.6479 21.1008 43.6427 23.1027ZM28.5143 7.81819C27.8293 7.15448 27.0601 6.58358 26.2264 6.12014V15.5156C26.2263 15.8015 26.2825 16.0846 26.3918 16.3488C26.5011 16.613 26.6615 16.8531 26.8636 17.0553C27.0657 17.2576 27.3057 17.418 27.5699 17.5274C27.834 17.6369 28.1171 17.6932 28.4031 17.6932H37.7995C37.3356 16.86 36.764 16.0914 36.0994 15.4074L28.5143 7.81819ZM39.2884 23.1027C39.2884 22.7435 39.219 22.3996 39.1863 22.0465H28.4031C26.6709 22.0465 25.0098 21.3584 23.785 20.1336C22.5602 18.9089 21.8721 17.2477 21.8721 15.5156V4.73333C21.52 4.70067 21.1741 4.63128 20.8169 4.63128H10.9878C9.25571 4.63128 7.59453 5.31936 6.36974 6.54416C5.14494 7.76895 4.45686 9.43013 4.45686 11.1623V41.6394C4.45686 43.3716 5.14494 45.0327 6.36974 46.2575C7.59453 47.4823 9.25571 48.1704 10.9878 48.1704H32.7574C34.4895 48.1704 36.1507 47.4823 37.3755 46.2575C38.6003 45.0327 39.2884 43.3716 39.2884 41.6394V23.1027Z" fill="#F9F9F9"/>
</svg>
