<svg width="54" height="53" viewBox="0 0 54 53" fill="none" xmlns="http://www.w3.org/2000/svg">
<path d="M34.5985 32.9318H43.3062V37.2861H34.5985V32.9318ZM53.1026 30.7551V52.5247H0.854858V30.7551C0.856749 29.0236 1.54544 27.3635 2.76982 26.1391C3.99421 24.9147 5.65429 24.226 7.38583 24.2241H11.7401V6.80789C11.742 5.07635 12.4307 3.41627 13.6551 2.19188C14.8795 0.967497 16.5396 0.278807 18.2711 0.276917L35.6864 0.276917C37.4179 0.278807 39.078 0.967497 40.3024 2.19188C41.5267 3.41627 42.2154 5.07635 42.2173 6.80789V24.2241H46.5716C48.3032 24.226 49.9633 24.9147 51.1877 26.1391C52.412 27.3635 53.1007 29.0236 53.1026 30.7551ZM16.0934 24.2241H37.864V6.80789C37.8638 6.23051 37.6342 5.67687 37.2258 5.2687C36.8175 4.86053 36.2637 4.63124 35.6864 4.63124H18.2711C17.6937 4.63124 17.14 4.86053 16.7316 5.2687C16.3233 5.67687 16.0937 6.23051 16.0934 6.80789V24.2241ZM5.20918 48.1704H24.8021V28.5774H7.38583C6.80845 28.5777 6.25481 28.8073 5.84664 29.2156C5.43847 29.624 5.20918 30.1777 5.20918 30.7551V48.1704ZM48.7483 30.7551C48.7483 30.1777 48.519 29.624 48.1108 29.2156C47.7027 28.8073 47.149 28.5777 46.5716 28.5774H29.1554V48.1704H48.7483V30.7551ZM10.6513 32.9318V37.2861H19.3589V32.9318H10.6513ZM22.6244 13.3389H31.3331V8.98454H22.6244V13.3389Z" fill="#F9F9F9"/>
</svg>
