<svg width="53" height="53" viewBox="0 0 53 53" fill="none" xmlns="http://www.w3.org/2000/svg">
<path d="M32.9896 0.276917H6.9106C6.05004 0.276783 5.19788 0.446167 4.40279 0.775395C3.6077 1.10462 2.88525 1.58725 2.27669 2.19571C1.66814 2.80417 1.1854 3.52655 0.856047 4.32159C0.526694 5.11663 0.357178 5.96876 0.357178 6.82932L0.357178 45.9713C0.357178 47.7093 1.04763 49.3762 2.27663 50.6052C3.50563 51.8342 5.17252 52.5247 6.9106 52.5247H20.0348C21.8094 52.5247 22.7982 50.497 21.7277 49.0826L21.692 49.0357C21.4926 48.768 21.2336 48.5504 20.9355 48.4002C20.6374 48.25 20.3084 48.1713 19.9746 48.1704H6.91264C6.3294 48.1704 5.77005 47.9387 5.35764 47.5263C4.94523 47.1138 4.71354 46.5545 4.71354 45.9713V6.82932C4.71354 6.24643 4.94495 5.68739 5.35692 5.27504C5.76889 4.86269 6.32771 4.63076 6.9106 4.63022H32.9896C33.2784 4.63022 33.5643 4.6871 33.8311 4.79761C34.0979 4.90813 34.3404 5.07011 34.5446 5.27432C34.7488 5.47852 34.9108 5.72095 35.0213 5.98776C35.1318 6.25456 35.1887 6.54053 35.1887 6.82932V15.5175C35.1903 16.0941 35.4202 16.6466 35.8281 17.0542C36.236 17.4617 36.7887 17.6911 37.3653 17.6922C37.9423 17.6913 38.4954 17.4619 38.9036 17.0542C39.3117 16.6464 39.5416 16.0935 39.543 15.5165V6.82932C39.543 5.96876 39.3735 5.11663 39.0441 4.32159C38.7148 3.52655 38.232 2.80417 37.6235 2.19571C37.0149 1.58725 36.2925 1.10462 35.4974 0.775395C34.7023 0.446167 33.8501 0.276783 32.9896 0.276917Z" fill="#F9F9F9"/>
<path d="M20.0347 22.0464H11.2015C10.6353 22.0481 10.0927 22.2737 9.69235 22.6741C9.29196 23.0745 9.06631 23.6171 9.0647 24.1833V24.2639C9.06631 24.8301 9.29196 25.3727 9.69235 25.7731C10.0927 26.1735 10.6353 26.3992 11.2015 26.4008H19.9775C20.3113 26.3996 20.6402 26.3208 20.9383 26.1706C21.2364 26.0204 21.4954 25.803 21.695 25.5354L21.7307 25.4885C22.7981 24.0731 21.8093 22.0464 20.0347 22.0464Z" fill="#F9F9F9"/>
<path d="M11.2424 37.285H15.7324C16.2642 37.2864 16.7776 37.0907 17.1734 36.7356C17.5692 36.3805 17.8194 35.8912 17.8754 35.3624C17.8754 35.3482 17.8754 35.3339 17.8805 35.3186C17.9127 35.0178 17.8813 34.7136 17.7883 34.4258C17.6953 34.1379 17.5428 33.8728 17.3407 33.6478C17.1386 33.4227 16.8915 33.2426 16.6153 33.1192C16.3391 32.9959 16.04 32.932 15.7375 32.9317H11.2475C10.9616 32.9316 10.6784 32.9878 10.4142 33.0971C10.15 33.2064 9.90994 33.3667 9.70771 33.5689C9.50548 33.771 9.34506 34.011 9.23561 34.2751C9.12616 34.5393 9.06982 34.8224 9.06982 35.1084C9.06982 35.6849 9.29859 36.238 9.70591 36.646C10.1132 37.0541 10.6658 37.2839 11.2424 37.285Z" fill="#F9F9F9"/>
<path d="M37.3663 22.0464C28.9648 22.0464 22.1267 28.8836 22.1267 37.285C22.1267 45.6865 28.9648 52.5246 37.3663 52.5246C45.7678 52.5246 52.6049 45.6875 52.6049 37.285C52.6049 28.8825 45.7678 22.0464 37.3663 22.0464ZM37.3663 48.1703C35.2134 48.1705 33.1087 47.5323 31.3185 46.3363C29.5283 45.1404 28.1329 43.4404 27.3089 41.4514C26.4849 39.4624 26.2691 37.2737 26.689 35.162C27.1089 33.0504 28.1456 31.1108 29.6679 29.5883C31.1902 28.0659 33.1297 27.0291 35.2413 26.609C37.3529 26.1889 39.5416 26.4044 41.5307 27.2282C43.5198 28.0521 45.2199 29.4473 46.416 31.2374C47.6122 33.0275 48.2506 35.1321 48.2506 37.285C48.2473 40.1708 47.0996 42.9375 45.0591 44.9782C43.0187 47.0188 40.2521 48.1668 37.3663 48.1703Z" fill="#F9F9F9"/>
<path d="M28.6576 11.1612H11.2413C10.0392 11.1612 9.0647 12.1357 9.0647 13.3378V13.3389C9.0647 14.541 10.0392 15.5155 11.2413 15.5155H28.6576C29.8597 15.5155 30.8343 14.541 30.8343 13.3389V13.3378C30.8343 12.1357 29.8597 11.1612 28.6576 11.1612Z" fill="#F9F9F9"/>
<path d="M44.7055 35.8084L44.6963 35.8186L39.9593 40.5536C39.3528 41.16 38.6328 41.6411 37.8405 41.9693C37.0481 42.2975 36.1988 42.4665 35.3412 42.4665C34.4835 42.4665 33.6342 42.2975 32.8419 41.9693C32.0495 41.6411 31.3295 41.16 30.7231 40.5536L30.0353 39.8709L30.0189 39.8535C29.6218 39.448 29.3989 38.9032 29.398 38.3356C29.397 37.768 29.618 37.2225 30.0138 36.8156L30.0353 36.7931C30.2373 36.591 30.4772 36.4306 30.7412 36.3212C31.0053 36.2118 31.2883 36.1555 31.5741 36.1555C31.8599 36.1555 32.143 36.2118 32.407 36.3212C32.671 36.4306 32.9109 36.591 33.113 36.7931L33.8018 37.4809C34.2164 37.877 34.7678 38.098 35.3412 38.098C35.9146 38.098 36.4659 37.877 36.8805 37.4809L41.6175 32.746C42.0243 32.3366 42.577 32.1056 43.1541 32.1038C43.7312 32.102 44.2854 32.3295 44.6947 32.7363C45.1041 33.1431 45.3351 33.6958 45.3369 34.2729C45.3387 34.85 45.1112 35.4042 44.7044 35.8135L44.7055 35.8084Z" fill="#F9F9F9"/>
</svg>
