<svg width="177" height="50" viewBox="0 0 177 50" fill="none" xmlns="http://www.w3.org/2000/svg">
<path d="M59.9786 15.7959C58.6589 15.1802 57.2382 14.8098 55.7859 14.7027C54.9299 14.6323 54.0696 14.6323 53.2136 14.7027C52.088 14.7678 50.9763 14.9841 49.9083 15.3457C48.6459 15.7635 47.4891 16.4502 46.5176 17.3583C45.5462 18.2665 44.7833 19.3745 44.2816 20.606C43.7485 21.8813 43.4375 23.2384 43.362 24.6186C43.3234 25.2617 43.3105 25.9048 43.3105 26.5478V36.8753C43.3105 37.4412 43.3105 38.0007 43.3105 38.5666C43.3457 39.5887 43.5011 40.6032 43.7735 41.589C44.1613 43.0751 44.8851 44.4523 45.8892 45.6145C47.1365 47.0225 48.7682 48.035 50.5835 48.5276C51.359 48.7314 52.1475 48.8818 52.9436 48.9777C52.998 48.9219 53.0702 48.8869 53.1477 48.8787C53.2251 48.8705 53.3031 48.8896 53.368 48.9327C53.3767 48.9369 53.3842 48.9432 53.3898 48.9511C53.3954 48.959 53.399 48.9681 53.4001 48.9777C53.42 48.9523 53.4454 48.9318 53.4743 48.9176C53.5033 48.9035 53.5351 48.8962 53.5673 48.8962C53.5996 48.8962 53.6314 48.9035 53.6603 48.9176C53.6893 48.9318 53.7147 48.9523 53.7345 48.9777C53.7458 48.9522 53.7635 48.93 53.786 48.9134C54.2278 48.7912 54.6945 48.7912 55.1364 48.9134C55.1364 48.9134 55.1814 48.952 55.1814 48.9777C55.2025 48.9532 55.2287 48.9336 55.2581 48.9201C55.2875 48.9066 55.3195 48.8997 55.3518 48.8997C55.3842 48.8997 55.4161 48.9066 55.4455 48.9201C55.4749 48.9336 55.5011 48.9532 55.5222 48.9777C55.53 48.9606 55.5437 48.9468 55.5608 48.9391C55.6243 48.8952 55.7014 48.8756 55.7782 48.8838C55.8549 48.8921 55.9261 48.9277 55.9788 48.9841C56.9981 48.8796 58.003 48.664 58.9755 48.3411C60.2824 47.9225 61.4799 47.2184 62.4809 46.2796C63.4819 45.3409 64.2615 44.1911 64.763 42.9137C65.2575 41.6837 65.5422 40.3795 65.6054 39.0553C65.6054 38.4637 65.6054 37.8721 65.6054 37.2805C65.6054 36.9011 65.6054 36.8946 65.2003 36.8946H60.6988C60.6089 36.8883 60.5187 36.8883 60.4288 36.8946C60.4105 36.8946 60.3924 36.8983 60.3756 36.9055C60.3587 36.9127 60.3436 36.9232 60.3309 36.9364C60.3183 36.9497 60.3085 36.9653 60.3021 36.9824C60.2957 36.9996 60.2928 37.0178 60.2937 37.0361C60.2841 37.1388 60.2841 37.2421 60.2937 37.3448C60.2937 37.8335 60.2937 38.3222 60.2358 38.8109C60.1808 39.5968 59.9961 40.3682 59.6892 41.0938C59.4248 41.7693 59.0119 42.3767 58.4809 42.8709C57.9499 43.3652 57.3146 43.7336 56.6219 43.949C55.2959 44.3621 53.8801 44.391 52.5384 44.0326C51.8139 43.8549 51.1408 43.5107 50.5726 43.0274C50.0044 42.544 49.5568 41.9348 49.2653 41.2481C49.1516 40.9904 49.0528 40.7263 48.9695 40.4572C48.7022 39.5603 48.5743 38.6277 48.5901 37.692C48.5901 36.2902 48.5901 34.9011 48.5901 33.5057C48.5901 33.4157 48.5901 33.3257 48.5901 33.2356C48.5891 33.2134 48.5929 33.1913 48.6009 33.1706C48.609 33.1499 48.6213 33.1311 48.637 33.1154C48.6527 33.0997 48.6715 33.0874 48.6922 33.0793C48.7129 33.0712 48.735 33.0675 48.7572 33.0684H65.2324C65.6697 33.0684 65.6568 33.0684 65.6568 32.6633V25.6797C65.6725 24.269 65.4552 22.8654 65.0138 21.5255C64.6175 20.2736 63.9652 19.1178 63.0984 18.1315C62.2316 17.1451 61.1692 16.3498 59.9786 15.7959ZM60.3387 28.8307V28.9143C60.3387 29.0686 60.2937 29.1008 60.1522 29.1072H48.9823C48.5965 29.1072 48.5836 29.1072 48.5836 28.7214C48.5836 27.7246 48.5836 26.7343 48.5836 25.7376C48.5779 24.8653 48.708 23.9975 48.9695 23.1653C49.0424 22.947 49.1261 22.7323 49.2203 22.5223C49.5209 21.8163 49.9859 21.1923 50.5765 20.7024C51.1671 20.2125 51.8662 19.8707 52.6156 19.7057C53.8604 19.3946 55.1639 19.4057 56.4032 19.7378C57.2242 19.9317 57.9803 20.337 58.5962 20.9135C59.2121 21.4899 59.6665 22.2175 59.9143 23.0239C60.1248 23.6475 60.2524 24.2961 60.2937 24.953C60.3837 26.2199 60.3259 27.5253 60.3387 28.8307Z" fill="#02090A"/>
<path d="M40.7062 14.8189C40.7095 14.8788 40.7095 14.9389 40.7062 14.9989V19.5325C40.7062 19.9247 40.7062 19.9376 40.3204 19.9376C39.2964 19.9371 38.2765 20.0668 37.2851 20.3234C36.2653 20.5787 35.3176 21.0645 34.515 21.7434C33.7123 22.4223 33.076 23.2763 32.6551 24.2397C32.235 25.1728 31.9367 26.1562 31.7677 27.1656C31.5236 28.5993 31.4074 30.0519 31.4204 31.5062V47.9428C31.4204 48.6244 31.5169 48.5344 30.8417 48.5344H26.1281C26.1095 48.5354 26.0909 48.5324 26.0737 48.5256C26.0564 48.5188 26.0408 48.5082 26.0279 48.4948C26.0151 48.4814 26.0053 48.4653 25.9993 48.4477C25.9933 48.4301 25.9911 48.4114 25.993 48.3929C25.993 48.2901 25.993 48.1807 25.993 48.0778V45.5378C25.993 40.9549 25.993 36.3699 25.993 31.7827C25.993 26.4153 25.993 21.0458 25.993 15.6741C25.993 15.0632 25.9159 15.134 26.5396 15.134H31.0796C31.369 15.134 31.3754 15.134 31.3819 15.4362C31.3883 15.7384 31.3819 16.15 31.3819 16.5037C31.3808 16.6979 31.3505 16.8908 31.2918 17.076C30.7431 19.0009 30.1986 20.9408 29.6585 22.8957C29.6585 23.0243 29.5877 23.1529 29.5556 23.2815C29.5428 23.3174 29.5444 23.3568 29.56 23.3915C29.5756 23.4262 29.6039 23.4536 29.6392 23.468L29.7613 23.5259L30.578 23.8667C30.7305 23.6169 30.8393 23.3428 30.8996 23.0564C31.3086 21.8795 31.8029 20.7339 32.3786 19.6289C32.7696 18.8784 33.2326 18.1677 33.7612 17.5068C34.5343 16.5093 35.5385 15.7148 36.6871 15.1918C37.4633 14.8531 38.2921 14.6507 39.1371 14.5938C39.582 14.5521 40.0298 14.5521 40.4747 14.5938C40.6741 14.5874 40.6998 14.6131 40.7062 14.8189Z" fill="#02090A"/>
<path d="M91.9901 36.9012H87.2636C87.1221 36.9012 87.0771 36.9462 87.0771 37.0876C87.0771 37.2291 87.0771 37.5571 87.0771 37.795C87.0764 38.664 86.9596 39.5291 86.7299 40.3672C86.5064 41.2591 86.0411 42.072 85.3853 42.7165C84.7295 43.3609 83.9086 43.8119 83.013 44.0198C82.1323 44.2368 81.2203 44.2977 80.3186 44.1999C79.9619 44.1679 79.6088 44.1034 79.2639 44.0069C78.5042 43.8149 77.8024 43.4412 77.2188 42.9182C76.6352 42.3951 76.1874 41.7382 75.9136 41.0039C75.524 40.0221 75.3317 38.9733 75.3477 37.9172C75.3477 36.4381 75.3477 34.9548 75.3477 33.4672C75.3477 33.3836 75.3477 33.2936 75.3477 33.2036C75.3509 33.1734 75.3652 33.1456 75.3877 33.1254C75.4103 33.1052 75.4396 33.0941 75.4699 33.0942H75.9136H92.2537C92.2914 33.0928 92.3272 33.0776 92.3545 33.0516C92.3817 33.0255 92.3985 32.9904 92.4016 32.9528C92.4016 32.8692 92.4016 32.7791 92.4016 32.6891C92.4016 30.3612 92.4016 28.0334 92.4016 25.6991C92.4194 24.2735 92.2021 22.8548 91.7586 21.4999C91.0124 19.1757 89.4006 17.2277 87.2572 16.0596C86.0366 15.4069 84.7074 14.9819 83.3345 14.8057C82.246 14.6545 81.1449 14.6157 80.0485 14.6899C79.1168 14.7512 78.1943 14.9107 77.2962 15.1658C75.7778 15.5584 74.3832 16.3284 73.2421 17.4043C72.101 18.4802 71.2503 19.8271 70.7691 21.3198C70.3184 22.704 70.1011 24.1535 70.1261 25.609V37.9686C70.1174 39.3056 70.3081 40.6363 70.692 41.917C71.1311 43.4335 71.9271 44.8226 73.0134 45.9683C74.225 47.2012 75.7433 48.0891 77.4119 48.5405C78.187 48.7476 78.9756 48.9002 79.772 48.9971C79.8246 48.9407 79.8958 48.9051 79.9726 48.8968C80.0493 48.8885 80.1265 48.9081 80.1899 48.9521C80.2071 48.9598 80.2208 48.9735 80.2285 48.9907C80.2491 48.9663 80.2746 48.9467 80.3035 48.9333C80.3324 48.9199 80.3639 48.9129 80.3957 48.9129C80.4276 48.9129 80.459 48.9199 80.4879 48.9333C80.5168 48.9467 80.5424 48.9663 80.5629 48.9907C80.5738 48.9685 80.5891 48.9488 80.6079 48.9328C81.0274 48.8069 81.4746 48.8069 81.8941 48.9328C81.9149 48.9467 81.9307 48.967 81.9391 48.9907C81.977 48.9438 82.0313 48.9131 82.091 48.9048C82.1506 48.8964 82.2113 48.911 82.2606 48.9456C82.277 48.9572 82.2902 48.9727 82.2992 48.9907C82.3143 48.973 82.333 48.9588 82.3541 48.9491C82.3752 48.9394 82.3981 48.9344 82.4214 48.9344C82.4446 48.9344 82.4675 48.9394 82.4886 48.9491C82.5097 48.9588 82.5284 48.973 82.5435 48.9907C82.5405 48.978 82.5405 48.9648 82.5435 48.9521C82.5953 48.918 82.6577 48.9038 82.7191 48.9121C82.7806 48.9204 82.837 48.9505 82.8779 48.9971C83.0387 48.9971 83.1995 48.9392 83.3602 48.9199C84.1867 48.8244 84.9998 48.6367 85.7846 48.3605C87.046 47.9617 88.2068 47.2957 89.1877 46.408C90.1687 45.5202 90.9468 44.4315 91.4692 43.216C92.0086 41.9443 92.3241 40.5889 92.4016 39.2097C92.4466 38.5667 92.4338 37.9622 92.4402 37.3384C92.3952 36.9076 92.3952 36.9012 91.9901 36.9012ZM75.3284 25.6412C75.3155 24.7191 75.468 23.8022 75.7786 22.9339C76.0664 22.0522 76.5977 21.2697 77.3111 20.6769C78.0245 20.0841 78.891 19.7051 79.8105 19.5836C80.937 19.3781 82.0952 19.4286 83.1995 19.7315C84.0549 19.9458 84.836 20.3887 85.459 21.0128C86.0821 21.637 86.5236 22.4189 86.7363 23.2747C86.9567 24.0465 87.0692 24.845 87.0707 25.6476C87.0707 26.683 87.0707 27.7183 87.0707 28.76V28.9658C87.0707 29.0687 87.0192 29.1394 86.9099 29.1394H75.4763C75.4581 29.1403 75.4398 29.1375 75.4227 29.1311C75.4055 29.1247 75.3899 29.1149 75.3767 29.1022C75.3634 29.0896 75.3529 29.0744 75.3457 29.0576C75.3385 29.0408 75.3348 29.0227 75.3349 29.0044C75.3349 28.9208 75.3349 28.8308 75.3349 28.7407C75.322 27.699 75.3198 26.6658 75.3284 25.6412Z" fill="#02090A"/>
<path d="M21.6009 5.68057V10.3556C21.6041 10.4006 21.6041 10.4457 21.6009 10.4906C21.5993 10.5202 21.5863 10.548 21.5648 10.5684C21.5433 10.5887 21.5148 10.6 21.4852 10.6C21.3373 10.6 21.1893 10.6 21.0414 10.6H6.77841C6.1032 10.6 6.19322 10.5099 6.19322 11.1916V23.6283C6.19322 23.9113 6.19322 23.9113 6.50189 23.9177H19.2023C19.8454 23.9177 19.7425 23.8598 19.7425 24.4707V28.432C19.7425 28.5542 19.7425 28.6699 19.7425 28.7857C19.7444 28.8042 19.7422 28.8228 19.7362 28.8404C19.7302 28.858 19.7204 28.8741 19.7076 28.8875C19.6947 28.901 19.6791 28.9115 19.6618 28.9183C19.6445 28.9252 19.626 28.9282 19.6074 28.9271H6.77198C6.09676 28.9271 6.19322 28.8307 6.19322 29.5187V47.9617C6.19322 48.6047 6.27682 48.534 5.62733 48.534H1.12592H0.682212C0.682212 48.534 0.682212 48.534 0.682212 48.489H0.714365C0.844328 48.2169 0.882682 47.9101 0.823685 47.6144V6.29791C0.823685 6.16286 0.823685 6.02782 0.823685 5.89278C0.830778 5.72777 0.778281 5.56572 0.675781 5.43621H1.11949H21.3501C21.5816 5.42978 21.6009 5.44264 21.6009 5.68057Z" fill="#02090A"/>
<path d="M129.603 47.9939C129.603 48.637 129.68 48.5405 129.069 48.5405H124.342C124.001 48.5405 124.001 48.5405 124.001 48.1933C124.001 47.846 124.001 47.5116 124.001 47.1708C124.001 41.7262 124.001 36.2817 124.001 30.8371C124.009 30.0655 124.078 29.2957 124.207 28.535C124.413 27.3067 124.606 26.0785 124.799 24.8438C124.992 23.6091 125.178 22.4774 125.371 21.2877C125.538 20.2524 125.699 19.2106 125.866 18.1689L126.445 14.5742C126.516 14.1305 126.593 13.6932 126.657 13.2559C126.657 13.1144 126.657 13.0566 126.503 13.0373L125.217 12.8379C125.082 12.8379 125.043 12.8379 124.992 12.9922L124.786 13.5324C121.939 22.711 119.093 31.8832 116.246 41.0489C116.085 41.5633 116.169 41.5055 115.648 41.5055H112.221C112.015 41.5055 112.008 41.5055 111.944 41.2868C111.738 40.6438 111.539 40.0007 111.34 39.3577C108.677 30.8864 106.017 22.4173 103.359 13.9504C103.25 13.6096 103.147 13.2688 103.038 12.9279C102.993 12.7993 102.954 12.7736 102.8 12.8058L101.514 13.0373C101.491 13.0382 101.469 13.0443 101.449 13.0552C101.429 13.0662 101.411 13.0816 101.398 13.1002C101.385 13.1189 101.377 13.1404 101.373 13.1629C101.37 13.1854 101.372 13.2085 101.379 13.2302L101.629 14.8571C101.831 16.0746 102.026 17.2879 102.215 18.4968C102.403 19.7058 102.598 20.9212 102.8 22.143L103.379 25.7441C103.565 26.9466 103.752 28.1491 103.951 29.3452C103.995 29.6239 104.016 29.9056 104.015 30.1876V48.0775C104.015 48.5791 104.06 48.5405 103.572 48.5405H98.5364C98.5066 48.5377 98.4788 48.5246 98.4577 48.5034C98.4366 48.4823 98.4235 48.4545 98.4206 48.4248C98.4172 48.382 98.4172 48.339 98.4206 48.2962V5.90574C98.4206 5.74498 98.4206 5.58422 98.4206 5.41702C98.4222 5.38682 98.4349 5.35827 98.4563 5.33689C98.4776 5.31551 98.5062 5.30282 98.5364 5.30127H98.8065H105.391C105.771 5.30127 105.751 5.30127 105.874 5.67424L108.362 13.7446L113.031 28.8694C113.125 29.1645 113.173 29.4726 113.172 29.7825C113.172 30.7471 113.185 31.7117 113.211 32.6763C113.211 33.0814 113.211 33.075 113.61 33.075H114.407C114.549 33.075 114.587 33.03 114.594 32.882C114.6 32.7341 114.594 32.6441 114.594 32.5284C114.594 31.5895 114.594 30.6571 114.594 29.7246C114.598 29.4582 114.641 29.1939 114.722 28.9401C116.381 23.6156 118.036 18.2932 119.687 12.973L121.944 5.71926C122.085 5.26912 122.034 5.3077 122.484 5.3077H129.39C129.428 5.3077 129.464 5.32261 129.49 5.34914C129.517 5.37567 129.532 5.41165 129.532 5.44917C129.532 5.59708 129.532 5.74498 129.532 5.89288V26.9338C129.579 33.956 129.603 40.976 129.603 47.9939Z" fill="#02090A"/>
<path d="M170.842 20.0853H175.986C176.222 20.1259 176.465 20.0778 176.668 19.9503V15.1402C176.575 15.0775 176.47 15.0339 176.359 15.0118C176.249 14.9897 176.135 14.9897 176.025 15.0116H166.521C166.34 15.0116 166.141 15.0116 166.096 14.7865C166.058 14.68 166.061 14.5635 166.102 14.4584C166.143 14.3532 166.221 14.2666 166.321 14.2142C166.437 14.1499 166.566 14.1113 166.688 14.047C167.569 13.6485 168.358 13.0703 169.003 12.3493C169.558 11.7079 169.979 10.9626 170.243 10.1566C170.507 9.35069 170.608 8.5003 170.54 7.655C170.517 6.79211 170.322 5.94241 169.968 5.1553C169.613 4.36819 169.106 3.65936 168.475 3.06999C166.846 1.56002 164.716 0.70572 162.495 0.671387V0.70354H161.788H161.601H159.511C159.338 0.735693 159.158 0.767845 158.984 0.787137C157.635 0.958804 156.325 1.35436 155.106 1.9575C153.929 2.53697 152.894 3.36657 152.071 4.38826C151.124 5.57905 150.537 7.01604 150.38 8.52956C150.282 9.28278 150.304 10.0467 150.444 10.7931C150.625 11.6486 150.913 12.4782 151.299 13.2625C151.922 14.4963 152.667 15.6641 153.524 16.7478L153.878 17.2044C153.899 17.226 153.91 17.2548 153.91 17.2848C153.91 17.3148 153.899 17.3436 153.878 17.3652C153.606 17.6447 153.312 17.9007 152.997 18.1304L152.733 17.841C152.335 17.4054 151.905 16.9992 151.447 16.6257C150.146 15.5709 148.576 14.9025 146.914 14.6965C145.539 14.5328 144.147 14.6222 142.805 14.9601C141.563 15.2442 140.397 15.7883 139.381 16.5564C138.366 17.3246 137.525 18.2994 136.914 19.4165C136.389 20.3658 135.998 21.3828 135.75 22.4389C135.429 23.7956 135.274 25.1861 135.287 26.5802C135.287 29.9884 135.287 33.4031 135.287 36.8177C135.279 37.5433 135.309 38.2688 135.377 38.9912C135.475 40.0683 135.691 41.1314 136.02 42.1615C136.389 43.3263 136.964 44.4154 137.718 45.3768C138.943 46.9049 140.62 48.0057 142.509 48.5214C143.27 48.7226 144.043 48.873 144.824 48.9715H147.936C147.936 48.9715 147.936 48.9715 147.936 49.0101H147.981C148.918 48.9914 149.846 48.8287 150.733 48.5278C152.075 48.1307 153.311 47.4383 154.35 46.5013C155.39 45.5644 156.206 44.4068 156.74 43.1132C157.44 41.3406 157.768 39.4429 157.704 37.5379C157.704 36.8949 157.588 36.7663 156.92 36.7598H152.913C152.219 36.7598 152.103 36.8756 152.103 37.5572C152.13 38.3281 152.076 39.0997 151.942 39.8594C151.783 40.9361 151.269 41.9288 150.482 42.6802C149.694 43.4315 148.678 43.8985 147.595 44.0071C146.933 44.1 146.261 44.1129 145.595 44.0457C144.74 44.0142 143.908 43.7528 143.189 43.2888C142.469 42.8249 141.887 42.1755 141.506 41.4091C140.971 40.3411 140.694 39.163 140.695 37.9688C140.695 36.6827 140.695 35.3965 140.695 34.1426C140.695 33.178 140.625 33.2487 141.583 33.2487H156.907C157.582 33.2487 157.717 33.1458 157.711 32.5414C157.672 29.7569 157.826 26.966 157.621 24.1816C157.524 22.4596 157.001 20.7888 156.097 19.3201C155.192 17.8875 154.516 16.3234 154.09 14.6836C153.659 13.1793 153.621 11.5895 153.981 10.0665C154.162 9.19772 154.559 8.38865 155.135 7.7142C155.712 7.03974 156.45 6.52173 157.28 6.20812C158.864 5.57379 160.613 5.47887 162.257 5.93804C163.132 6.14149 163.933 6.5852 164.569 7.21918C165.205 7.85315 165.652 8.6522 165.858 9.5263C165.995 10.1814 166.043 10.852 166 11.5198C165.993 12.5676 165.638 13.5834 164.99 14.4071C164.857 14.6043 164.675 14.7637 164.462 14.8696C164.249 14.9756 164.012 15.0245 163.775 15.0116C162.489 15.0116 161.202 15.0116 159.948 15.0116C159.305 15.0116 159.235 15.0952 159.235 15.7382C159.235 16.9086 159.235 18.079 159.235 19.2558C159.235 19.9696 159.338 20.0725 160.064 20.0725C161.35 20.0725 162.675 20.0725 163.98 20.0725C164.334 20.0725 164.514 20.1818 164.488 20.5548C164.488 20.7027 164.488 20.8506 164.488 21.0049C164.488 27.4355 164.488 33.8661 164.488 40.2966C164.462 41.8739 164.755 43.4402 165.35 44.9009C165.809 46.103 166.619 47.1396 167.673 47.8767C168.728 48.6138 169.98 49.0176 171.266 49.0358C171.267 49.0251 171.267 49.0144 171.266 49.0037H174.128C174.128 49.0037 174.128 49.0037 174.128 49.0422H174.199C174.882 49.0329 175.559 48.9157 176.205 48.695C176.319 48.6664 176.419 48.5984 176.487 48.503C176.555 48.4076 176.588 48.2911 176.578 48.1741C176.578 46.8237 176.578 45.4733 176.578 44.1228C176.578 43.8013 176.443 43.737 176.173 43.7885C176.038 43.7885 175.909 43.8528 175.781 43.8721C174.851 44.0796 173.888 44.0971 172.951 43.9235C172.368 43.8289 171.826 43.566 171.391 43.1673C170.956 42.7686 170.646 42.2514 170.501 41.6792C170.272 40.894 170.159 40.0793 170.167 39.2613C170.167 33.0965 170.167 26.9275 170.167 20.7541C170.192 20.1046 170.212 20.0853 170.842 20.0853ZM152.232 28.8309V28.966C152.232 29.0035 152.217 29.0395 152.19 29.066C152.164 29.0925 152.128 29.1074 152.09 29.1074H140.702C140.683 29.1083 140.665 29.1055 140.648 29.0991C140.631 29.0927 140.615 29.0829 140.602 29.0702C140.589 29.0576 140.578 29.0424 140.571 29.0256C140.564 29.0088 140.56 28.9907 140.56 28.9724C140.56 28.8824 140.56 28.7923 140.56 28.7023V26.0336C140.552 25.1631 140.673 24.2962 140.92 23.4614C140.984 23.2319 141.061 23.0064 141.152 22.7862C141.448 21.997 141.941 21.2965 142.584 20.7508C143.226 20.2051 143.997 19.8322 144.824 19.6673C146 19.3907 147.226 19.4106 148.393 19.7252C149.217 19.935 149.972 20.357 150.582 20.9494C151.193 21.5417 151.637 22.2836 151.872 23.1013C152.1 23.7771 152.221 24.4844 152.232 25.1976C152.245 26.3937 152.232 27.6155 152.232 28.8309Z" fill="#02090A"/>
</svg>
