<svg width="41" height="41" viewBox="0 0 41 41" fill="none" xmlns="http://www.w3.org/2000/svg">
<path d="M32.2275 30.956L26.0105 24.738C29.658 20.2773 28.9988 13.7045 24.5376 10.057C20.0764 6.40947 13.5041 7.06919 9.85658 11.5299C6.20905 15.9906 6.86878 22.5639 11.3295 26.2109C13.1931 27.7347 15.5263 28.5672 17.9335 28.5672C20.3408 28.5672 22.674 27.7347 24.5376 26.2109L30.7556 32.4279C30.9536 32.6087 31.2137 32.7062 31.4818 32.7001C31.7498 32.6941 32.0052 32.5849 32.1948 32.3953C32.3844 32.2057 32.4936 31.9503 32.4997 31.6822C32.5058 31.4141 32.4083 31.154 32.2275 30.956ZM17.9501 26.4841C16.3019 26.4841 14.6907 25.9953 13.3203 25.0796C11.9499 24.1639 10.8817 22.8624 10.251 21.3397C9.62025 19.8169 9.45521 18.1413 9.77676 16.5248C10.0983 14.9082 10.892 13.4233 12.0575 12.2579C13.2229 11.0924 14.7078 10.2987 16.3244 9.97718C17.9409 9.65563 19.6165 9.82066 21.1392 10.4514C22.662 11.0821 23.9635 12.1503 24.8792 13.5207C25.7949 14.8912 26.2837 16.5024 26.2837 18.1506C26.2837 19.2449 26.0681 20.3286 25.6493 21.3397C25.2305 22.3507 24.6167 23.2694 23.8428 24.0432C23.069 24.8171 22.1503 25.4309 21.1392 25.8497C20.1282 26.2685 19.0445 26.4841 17.9501 26.4841Z" fill="#F9F9F9"/>
<path d="M32.7414 2.49927L38.2011 7.95904V37.9016H2.79885V2.49927H32.7414ZM33.6937 0.200417H0.5V40.2004H40.5V7.00674L39.8264 6.33375L34.3667 0.87398L33.6937 0.200417Z" fill="#F9F9F9"/>
</svg>
