<svg width="23" height="25" viewBox="0 0 23 25" fill="none" xmlns="http://www.w3.org/2000/svg">
<path d="M17.4345 5.105C17.1689 5.1037 16.9089 5.18286 16.6875 5.33244C16.4661 5.48202 16.2934 5.69527 16.1911 5.94511C16.0889 6.19496 16.0618 6.47012 16.1133 6.73568C16.1648 7.00124 16.2926 7.24521 16.4804 7.43662C16.6682 7.62803 16.9076 7.75825 17.1682 7.81074C17.4287 7.86324 17.6987 7.83563 17.9439 7.73144C18.189 7.62725 18.3982 7.45117 18.545 7.22556C18.6918 6.99994 18.7694 6.73497 18.7682 6.46427C18.7665 6.1043 18.6254 5.75957 18.3757 5.50503C18.1259 5.25049 17.7877 5.10672 17.4345 5.105Z" fill="#F9F9F9"/>
<path d="M11.4946 6.86377C10.3847 6.86377 9.29973 7.1992 8.37687 7.82763C7.45401 8.45607 6.73473 9.3493 6.30999 10.3943C5.88524 11.4394 5.77411 12.5894 5.99064 13.6988C6.20718 14.8082 6.74165 15.8273 7.52648 16.6271C8.3113 17.427 9.31123 17.9717 10.3998 18.1924C11.4884 18.413 12.6168 18.2998 13.6422 17.8669C14.6676 17.434 15.544 16.701 16.1607 15.7604C16.7773 14.8199 17.1064 13.7142 17.1064 12.583C17.103 11.0672 16.5107 9.61454 15.459 8.54273C14.4073 7.47091 12.9819 6.86724 11.4946 6.86377ZM11.4946 16.247C10.7836 16.247 10.0885 16.0321 9.49726 15.6295C8.90604 15.2269 8.44524 14.6547 8.17313 13.9852C7.90102 13.3156 7.82982 12.5789 7.96854 11.8682C8.10726 11.1575 8.44967 10.5046 8.95246 9.99218C9.45525 9.47976 10.0959 9.1308 10.7932 8.98942C11.4906 8.84804 12.2135 8.9206 12.8704 9.19792C13.5274 9.47524 14.0889 9.94486 14.4839 10.5474C14.8789 11.1499 15.0898 11.8583 15.0898 12.583C15.0847 13.5519 14.7039 14.4795 14.0304 15.1634C13.3569 15.8474 12.4454 16.2321 11.4946 16.2339V16.247Z" fill="#F9F9F9"/>
<path d="M15.9463 24.186H6.84886C5.03295 24.1843 3.29191 23.4484 2.00787 22.1397C0.723828 20.8311 0.00170588 19.0568 0 17.2061L0 7.93453C0.00170588 6.08387 0.723828 4.3095 2.00787 3.00089C3.29191 1.69227 5.03295 0.956328 6.84886 0.95459H15.9463C17.7622 0.956328 19.5033 1.69227 20.7873 3.00089C22.0713 4.3095 22.7935 6.08387 22.7952 7.93453V17.2061C22.7935 19.0568 22.0713 20.8311 20.7873 22.1397C19.5033 23.4484 17.7622 24.1843 15.9463 24.186ZM6.84886 3.14116C5.60145 3.14116 4.40513 3.64617 3.52308 4.5451C2.64103 5.44403 2.1455 6.66325 2.1455 7.93453V17.2061C2.1455 18.4774 2.64103 19.6966 3.52308 20.5955C4.40513 21.4945 5.60145 21.9995 6.84886 21.9995H15.9463C17.1937 21.9995 18.39 21.4945 19.2721 20.5955C20.1541 19.6966 20.6497 18.4774 20.6497 17.2061V7.93453C20.6497 7.30505 20.528 6.68174 20.2916 6.10018C20.0553 5.51863 19.7088 4.99021 19.2721 4.5451C18.8353 4.1 18.3168 3.74692 17.7462 3.50603C17.1756 3.26514 16.564 3.14116 15.9463 3.14116H6.84886Z" fill="#F9F9F9"/>
</svg>
