<svg width="163" height="117" viewBox="0 0 163 117" fill="none" xmlns="http://www.w3.org/2000/svg">
<path fill-rule="evenodd" clip-rule="evenodd" d="M0.554688 116.599V99.6157H1.8601V114.605H6.68947V116.599H0.554688Z" fill="#02090A"/>
<path fill-rule="evenodd" clip-rule="evenodd" d="M7.17822 116.573L10.9465 99.5898H12.3741L16.3804 116.573H14.9014L13.7631 111.429H9.62185L8.55437 116.573H7.17822ZM10.0077 109.602H13.358L12.3291 104.889C12.0205 103.461 11.7847 102.28 11.6218 101.345C11.4867 102.451 11.3067 103.538 11.0816 104.612L10.0077 109.602Z" fill="#02090A"/>
<path fill-rule="evenodd" clip-rule="evenodd" d="M17.3386 116.573V99.6158H21.0298C21.6725 99.582 22.3082 99.763 22.8368 100.13C23.3403 100.544 23.7114 101.096 23.9043 101.719C24.1621 102.436 24.2927 103.194 24.2901 103.956C24.2937 104.655 24.1784 105.348 23.9493 106.008C23.7468 106.607 23.3923 107.143 22.9204 107.564C23.5452 107.897 24.0308 108.442 24.2901 109.101C24.626 109.916 24.788 110.792 24.7659 111.673C24.7719 112.425 24.6745 113.173 24.4766 113.898C24.3351 114.465 24.091 115.001 23.7563 115.48C23.472 115.845 23.1005 116.132 22.676 116.316C22.1744 116.52 21.6354 116.617 21.0941 116.599L17.3386 116.573ZM18.6247 106.728H20.7533C21.1768 106.757 21.6013 106.689 21.9944 106.529C22.3379 106.346 22.6031 106.044 22.7403 105.68C22.922 105.206 23.0073 104.701 22.9911 104.194C23.0004 103.687 22.9221 103.183 22.7596 102.702C22.6508 102.334 22.4105 102.018 22.0844 101.815C21.6112 101.625 21.1013 101.544 20.5925 101.577H18.644L18.6247 106.728ZM18.6247 114.58H21.0748C21.3727 114.592 21.6709 114.566 21.9622 114.503C22.2473 114.413 22.5058 114.254 22.7146 114.04C22.947 113.762 23.116 113.437 23.2097 113.088C23.3456 112.622 23.4106 112.139 23.4027 111.654C23.4135 111.088 23.3175 110.525 23.1197 109.995C22.9768 109.586 22.7004 109.237 22.3352 109.004C21.8884 108.792 21.3953 108.694 20.9012 108.722H18.644L18.6247 114.58Z" fill="#02090A"/>
<path fill-rule="evenodd" clip-rule="evenodd" d="M26.1421 108.336C26.1421 105.519 26.5708 103.314 27.4282 101.719C28.2856 100.124 29.4174 99.3267 30.8236 99.3267C31.2887 99.3338 31.7472 99.4375 32.17 99.6313C32.5929 99.825 32.9709 100.104 33.2801 100.452C34.0861 101.342 34.6584 102.418 34.9456 103.584C35.3447 105.068 35.5373 106.6 35.5179 108.137C35.5407 109.697 35.3371 111.252 34.9134 112.754C34.6247 113.915 34.0346 114.98 33.2029 115.84C32.5767 116.49 31.7194 116.867 30.8171 116.889C30.345 116.883 29.8795 116.776 29.4516 116.577C29.0236 116.377 28.643 116.089 28.3349 115.731C27.5361 114.825 26.9671 113.74 26.6758 112.567C26.3056 111.188 26.126 109.764 26.1421 108.336ZM27.4861 108.374C27.4051 110.038 27.7318 111.696 28.4378 113.204C29.0809 114.374 29.8783 114.966 30.8364 114.966C31.7946 114.966 32.6177 114.374 33.2543 113.185C33.9652 111.598 34.2892 109.866 34.1996 108.13C34.2184 106.913 34.0822 105.699 33.7945 104.516C33.5979 103.634 33.1896 102.813 32.6048 102.124C32.392 101.864 32.1254 101.654 31.8234 101.508C31.5215 101.361 31.1913 101.282 30.8557 101.275C29.934 101.275 29.1431 101.82 28.4828 102.909C27.8226 103.997 27.4904 105.819 27.4861 108.374Z" fill="#02090A"/>
<path fill-rule="evenodd" clip-rule="evenodd" d="M37.209 116.573V99.6155H41.5689C42.2638 99.5685 42.9572 99.7273 43.5624 100.072C44.0923 100.477 44.476 101.044 44.6556 101.686C44.9376 102.514 45.0767 103.384 45.0672 104.258C45.1018 105.316 44.8673 106.365 44.3855 107.306C44.1768 107.695 43.8875 108.034 43.537 108.301C43.1866 108.568 42.783 108.758 42.3535 108.856C42.655 109.095 42.9175 109.379 43.1316 109.699C43.5657 110.416 43.9275 111.174 44.2119 111.962L45.8838 116.573H44.2826L42.9965 113.036C42.6171 112.02 42.3084 111.236 42.0641 110.695C41.9019 110.291 41.6856 109.91 41.421 109.564C41.2602 109.371 41.058 109.217 40.8294 109.113C40.5936 109.045 40.3479 109.017 40.1027 109.03H38.5401V116.573H37.209ZM38.4951 107.081H41.286C41.7716 107.11 42.2554 107.001 42.6814 106.766C43.0428 106.521 43.3103 106.161 43.4402 105.744C43.6166 105.255 43.7037 104.739 43.6974 104.22C43.7265 103.525 43.5521 102.837 43.1959 102.239C43.0231 101.98 42.7843 101.771 42.504 101.634C42.2237 101.497 41.9121 101.437 41.6011 101.461H38.5401L38.4951 107.081Z" fill="#02090A"/>
<path fill-rule="evenodd" clip-rule="evenodd" d="M46.051 116.573L49.8258 99.5898H51.2534L55.2596 116.573H53.7742L52.6424 111.429H48.5011L47.4336 116.573H46.051ZM48.8805 109.602H52.2308L51.2084 104.889C50.8997 103.461 50.6639 102.28 50.501 101.345C50.3659 102.451 50.1859 103.538 49.9608 104.612L48.8805 109.602Z" fill="#02090A"/>
<path fill-rule="evenodd" clip-rule="evenodd" d="M57.864 116.599V101.603H54.6294V99.6157H62.4104V101.603H59.1694V116.599H57.864Z" fill="#02090A"/>
<path fill-rule="evenodd" clip-rule="evenodd" d="M63.1436 108.336C63.1436 105.519 63.5723 103.314 64.4297 101.719C65.2871 100.124 66.4189 99.3267 67.8251 99.3267C68.2903 99.333 68.7491 99.4364 69.172 99.6302C69.595 99.824 69.9729 100.104 70.2816 100.452C71.0876 101.342 71.6599 102.418 71.9471 103.584C72.7272 106.591 72.7272 109.747 71.9471 112.754C71.653 113.913 71.0637 114.976 70.2365 115.84C69.6071 116.489 68.7482 116.866 67.8444 116.889C67.3724 116.882 66.9071 116.775 66.4793 116.576C66.0515 116.376 65.6708 116.088 65.3622 115.731C64.5631 114.826 63.996 113.74 63.7095 112.567C63.3252 111.19 63.1347 109.766 63.1436 108.336ZM64.4876 108.374C64.4083 110.038 64.7373 111.696 65.4458 113.204C66.0888 114.374 66.8798 114.966 67.8379 114.966C68.7961 114.966 69.6256 114.374 70.2558 113.185C70.9667 111.598 71.2907 109.866 71.2011 108.13C71.2199 106.913 71.0837 105.699 70.796 104.516C70.6016 103.635 70.1955 102.814 69.6128 102.124C69.3984 101.865 69.1306 101.655 68.8276 101.508C68.5246 101.362 68.1937 101.282 67.8572 101.275C66.9398 101.275 66.1488 101.82 65.4843 102.909C64.8198 103.997 64.4876 105.819 64.4876 108.374Z" fill="#02090A"/>
<path fill-rule="evenodd" clip-rule="evenodd" d="M74.2427 116.573V99.6152H78.5962C79.2931 99.5692 79.9882 99.7279 80.5961 100.072C81.1219 100.48 81.5028 101.045 81.6829 101.686C81.9681 102.513 82.1073 103.383 82.0944 104.258C82.1377 105.312 81.9166 106.36 81.4514 107.306C81.2324 107.704 80.9289 108.049 80.5623 108.317C80.1956 108.584 79.7748 108.768 79.3293 108.856C79.631 109.096 79.8954 109.38 80.1138 109.698C80.5482 110.414 80.908 111.173 81.1877 111.962L82.8661 116.573H81.2456L79.9595 113.036C79.5801 112.02 79.265 111.235 79.0206 110.695C78.8635 110.288 78.6468 109.907 78.3775 109.563C78.2168 109.371 78.0145 109.217 77.7859 109.113C77.5523 109.045 77.3088 109.017 77.0657 109.03H75.5609V116.573H74.2427ZM75.5288 107.081H78.3647C78.8481 107.109 79.3296 107 79.7537 106.766C80.1151 106.521 80.3826 106.16 80.5125 105.744C80.691 105.255 80.7804 104.739 80.7762 104.22C80.8063 103.524 80.6295 102.834 80.2681 102.239C80.0964 101.98 79.8587 101.771 79.5796 101.634C79.3004 101.498 78.9898 101.438 78.6798 101.461H75.5738L75.5288 107.081Z" fill="#02090A"/>
<path d="M85.6636 99.6157H84.3582V116.605H85.6636V99.6157Z" fill="#02090A"/>
<path fill-rule="evenodd" clip-rule="evenodd" d="M87.5413 108.336C87.5413 105.519 87.97 103.314 88.8274 101.719C89.6848 100.124 90.8166 99.3267 92.2227 99.3267C92.687 99.3331 93.1448 99.4366 93.5667 99.6304C93.9886 99.8242 94.3654 100.104 94.6728 100.452C95.4809 101.341 96.0554 102.417 96.3448 103.584C96.7439 105.068 96.9365 106.6 96.9171 108.137C96.9399 109.697 96.7363 111.252 96.3126 112.754C96.021 113.914 95.4314 114.978 94.6021 115.84C93.9746 116.489 93.1181 116.865 92.2163 116.889C91.7442 116.883 91.2787 116.776 90.8507 116.577C90.4228 116.377 90.0422 116.089 89.7341 115.731C88.9306 114.828 88.3609 113.742 88.075 112.567C87.7047 111.188 87.5251 109.764 87.5413 108.336ZM88.8917 108.374C88.8107 110.038 89.1374 111.696 89.8434 113.204C90.4865 114.374 91.2775 114.966 92.242 114.966C93.2066 114.966 94.0233 114.374 94.6535 113.185C95.3699 111.6 95.6962 109.867 95.6052 108.13C95.624 106.913 95.4878 105.699 95.2001 104.516C95.0035 103.634 94.5952 102.813 94.0104 102.124C93.7967 101.865 93.53 101.656 93.2282 101.509C92.9264 101.363 92.5967 101.283 92.2613 101.275C91.3396 101.275 90.5465 101.82 89.882 102.909C89.2175 103.997 88.8874 105.819 88.8917 108.374Z" fill="#02090A"/>
<path fill-rule="evenodd" clip-rule="evenodd" d="M108.589 110.336L111.392 111.358C111.117 112.933 110.367 114.387 109.245 115.525C108.195 116.451 106.83 116.939 105.431 116.888C104.521 116.902 103.621 116.699 102.805 116.297C101.989 115.894 101.28 115.304 100.737 114.573C99.515 113.03 98.902 110.921 98.8977 108.246C98.8977 105.416 99.515 103.217 100.75 101.648C101.314 100.897 102.05 100.292 102.895 99.8839C103.741 99.4755 104.672 99.2756 105.611 99.3007C106.413 99.2746 107.212 99.4259 107.949 99.7439C108.685 100.062 109.343 100.538 109.875 101.14C110.616 102.048 111.12 103.127 111.341 104.278L108.479 105.088C108.359 104.298 107.987 103.567 107.418 103.005C107.159 102.753 106.851 102.556 106.515 102.425C106.178 102.293 105.818 102.23 105.457 102.24C104.949 102.235 104.448 102.356 103.999 102.593C103.55 102.83 103.167 103.175 102.885 103.596C102.242 104.497 101.888 105.963 101.888 107.982C101.888 110.126 102.214 111.656 102.865 112.573C103.144 112.999 103.526 113.348 103.976 113.586C104.426 113.824 104.929 113.945 105.438 113.937C105.811 113.94 106.182 113.865 106.524 113.715C106.866 113.566 107.173 113.345 107.425 113.069C108.059 112.283 108.462 111.337 108.589 110.336Z" fill="#02090A"/>
<path fill-rule="evenodd" clip-rule="evenodd" d="M136.15 116.599V99.751H139.057V113.731H144.535V116.599H136.15Z" fill="#02090A"/>
<path fill-rule="evenodd" clip-rule="evenodd" d="M146.13 116.599V99.6094H155.66V102.484H149.037V106.252H155.12V109.127H149.037V113.731H155.937V116.599H146.13Z" fill="#02090A"/>
<path fill-rule="evenodd" clip-rule="evenodd" d="M113.598 116.554V99.6094H116.832V106.284H123.128V99.6094H126.369V116.554H123.128V109.146H116.832V116.554H113.598Z" fill="#02090A"/>
<path d="M133.231 99.6094H129.951V116.554H133.231V99.6094Z" fill="#02090A"/>
<path fill-rule="evenodd" clip-rule="evenodd" d="M159.634 110.657C160.148 110.66 160.652 110.793 161.101 111.043C161.574 111.293 161.963 111.678 162.22 112.149C162.479 112.604 162.615 113.119 162.615 113.644C162.615 114.168 162.479 114.683 162.22 115.139C161.965 115.606 161.581 115.99 161.113 116.245C160.661 116.506 160.147 116.644 159.625 116.644C159.102 116.644 158.589 116.506 158.136 116.245C157.669 115.99 157.285 115.606 157.03 115.139C156.767 114.684 156.628 114.169 156.628 113.644C156.628 113.119 156.767 112.603 157.03 112.149C157.286 111.678 157.675 111.293 158.149 111.043C158.603 110.79 159.115 110.657 159.634 110.657ZM159.634 111.152C159.204 111.154 158.781 111.267 158.406 111.48C158.011 111.689 157.685 112.008 157.467 112.399C157.245 112.791 157.13 113.235 157.133 113.686C157.133 114.119 157.248 114.546 157.467 114.92C157.68 115.312 158.001 115.634 158.393 115.846C158.77 116.065 159.198 116.181 159.634 116.181C160.07 116.181 160.499 116.065 160.876 115.846C161.265 115.632 161.584 115.311 161.795 114.92C162.012 114.541 162.127 114.112 162.127 113.676C162.127 113.239 162.012 112.81 161.795 112.432C161.582 112.04 161.258 111.72 160.863 111.512C160.491 111.288 160.068 111.164 159.634 111.152ZM158.348 115.3V112.084H159.461C159.736 112.073 160.011 112.103 160.277 112.174C160.445 112.23 160.588 112.341 160.683 112.489C160.782 112.626 160.836 112.79 160.837 112.959C160.843 113.078 160.822 113.197 160.778 113.308C160.734 113.419 160.666 113.519 160.58 113.602C160.409 113.777 160.18 113.882 159.937 113.898C160.038 113.936 160.132 113.993 160.213 114.065C160.394 114.262 160.553 114.478 160.689 114.708L161.081 115.351H160.438L160.149 114.849C160.014 114.568 159.829 114.313 159.602 114.097C159.481 114.015 159.336 113.976 159.191 113.988H158.882V115.287L158.348 115.3ZM158.869 113.493H159.512C159.736 113.52 159.962 113.473 160.155 113.358C160.209 113.316 160.252 113.262 160.281 113.2C160.31 113.139 160.324 113.072 160.322 113.004C160.324 112.911 160.295 112.821 160.239 112.747C160.184 112.671 160.108 112.613 160.02 112.579C159.851 112.534 159.675 112.516 159.499 112.528H158.908L158.869 113.493Z" fill="#02090A"/>
<path d="M100.608 44.216C100.139 43.5215 99.7077 43.1678 99.3219 43.1485C98.3059 43.0328 97.6114 43.2643 97.2384 43.8494C98.3745 43.9566 99.4977 44.0788 100.608 44.216ZM105.309 47.1226L105.405 47.4763C106.884 47.7078 108.08 48.6402 109.006 50.2672C109.675 54.267 109.733 57.1522 109.18 58.9227C104.794 55.4824 100.467 55.7589 102.267 47.8235C102.126 47.4377 101.984 47.0712 101.849 46.7303C100.312 46.5889 98.7046 46.4667 97.0197 46.3767C97.1254 46.9256 97.2672 47.4669 97.4442 47.9972L104.183 64.0736C105.418 68.903 98.9168 71.2437 95.0005 67.3918C92.2483 67.2375 91.2022 68.4571 91.8624 71.0508L93.6051 76.1953H74.1912C72.9051 76.2532 72.0691 76.1953 71.6189 75.1535C70.7272 74.7248 69.7969 75.1321 68.8281 76.3753C68.9864 75.2374 69.5116 74.1822 70.324 73.3699C71.1364 72.5575 72.1916 72.0323 73.3295 71.8739C77.8095 72.2726 80.2295 72.1569 80.5896 71.5267C81.5285 69.4882 71.6511 70.9736 75.0722 62.1702C74.5963 59.913 70.9759 59.3407 69.3811 60.9484C66.736 63.2977 64.0823 63.2977 61.42 60.9484V76.3818L52.4172 76.4204C50.7581 76.2017 51.6263 74.922 50.2823 74.9542C49.8493 74.9301 49.4195 75.0408 49.0521 75.2712C48.6848 75.5015 48.3978 75.8401 48.2309 76.2403C47.2727 74.1118 50.8031 70.5942 53.7805 69.9833C53.9906 63.5099 53.8212 58.6977 53.2725 55.5467C40.3599 61.5336 34.4759 69.5718 37.5304 76.0602C45.0413 86.7993 69.3489 88.8185 96.486 81.2819C114.663 75.6487 124.258 68.813 125.269 60.7747C126.195 53.5339 119.542 48.9832 105.309 47.1226ZM87.1231 46.1387C86.922 46.1577 86.7196 46.1577 86.5186 46.1387C86.2528 46.9961 86.6601 47.7292 87.7404 48.338C97.0133 54.7171 95.8687 62.9033 96.3703 63.8936C97.6564 67.2954 101.958 66.2407 100.492 62.7361L94.454 48.846C94.1474 47.9972 93.9465 47.1138 93.8559 46.2159C91.7338 46.1387 89.4895 46.1044 87.1231 46.113V46.1387ZM50.308 15.9536C49.7678 12.4553 51.0539 10.2668 54.1663 9.38794H58.6677C58.6677 8.01179 59.7609 7.31729 61.9859 7.29157L69.3618 6.94432C67.8828 8.71916 67.707 10.1146 68.8345 11.1306C70.2921 15.2548 70.9352 18.7016 70.7637 21.471C70.4722 25.9038 71.7883 28.0474 74.7121 27.9016C79.7601 27.7666 80.3645 22.6928 76.4547 20.7444C72.1977 18.828 72.4313 15.557 77.1557 10.9313C87.1402 3.60041 101.165 0.256508 119.231 0.899567C117.516 10.9184 113.139 17.0982 106.1 19.4389C106.7 27.8887 103.465 33.2476 96.396 35.5154C95.5386 40.5184 93.5044 42.9963 90.2934 42.9492C90.2872 43.0762 90.2743 43.2029 90.2548 43.3286C91.5859 43.3929 92.8913 43.4765 94.1517 43.5665C94.6814 42.1546 95.7368 41.0024 97.0969 40.3512C100.312 39.0994 102.782 40.5677 104.505 44.7562C120.088 47.2598 127.816 52.55 127.687 60.6268C127.04 70.9158 116.766 78.8468 96.8654 84.42C67.8763 91.4936 42.2247 87.7125 35.7427 76.7033C32.1737 69.0445 37.5947 59.9838 52.3658 52.4086L52.2307 52.1642C47.3949 44.8762 48.7689 35.1124 56.3527 22.8729C59.105 17.8892 56.745 20.3649 55.6518 19.2717C57.0858 18.7702 57.6646 18.0178 57.4009 17.0018C55.5703 14.7425 53.206 14.3931 50.308 15.9536Z" fill="#02090A"/>
<path fill-rule="evenodd" clip-rule="evenodd" d="M49.7035 45.8883C49.4948 44.6869 49.4086 43.4674 49.4463 42.2486C33.5885 56.0036 29.3765 67.6429 36.6752 77.3467C47.022 87.9957 78.8534 86.5038 101.09 73.1089C118.522 63.2873 127.722 52.4818 128.69 40.6924C128.787 30.7893 121.083 25.1046 106.074 23.542C106.029 24.0564 105.939 24.6931 105.798 25.4712C119.617 26.1142 126.517 31.1429 126.202 40.448C124.646 50.5997 115.653 60.2135 99.2255 69.2892C81.0333 81.6295 49.2598 86.9797 38.1349 76.4528C31.4214 68.0931 34.9196 58.2221 49.7035 45.8883Z" fill="#02090A"/>
</svg>
