<svg width="23" height="24" viewBox="0 0 23 24" fill="none" xmlns="http://www.w3.org/2000/svg">
<path d="M19.5975 19.6687H16.1894V14.3314C16.1894 13.0585 16.1668 11.4207 14.4168 11.4207C12.6419 11.4207 12.3699 12.8069 12.3699 14.2396V19.6687H8.96289V8.69253H12.235V10.1921H12.2803C12.9479 9.05183 14.1878 8.37063 15.5083 8.41937C18.9628 8.41937 19.5987 10.6919 19.5987 13.6468L19.5975 19.6687ZM5.11728 7.19186C4.02469 7.19186 3.13951 6.30664 3.13951 5.21401C3.13951 4.12137 4.02469 3.23616 5.11728 3.23616C6.20988 3.23616 7.09506 4.12137 7.09506 5.21401C7.09506 6.30664 6.20988 7.19186 5.11728 7.19186ZM6.82078 19.6687H3.40925V8.69253H6.82078V19.6687ZM21.2965 0.0716008H1.69669C0.770709 0.0613998 0.011334 0.803802 0 1.72982V21.4108C0.011334 22.338 0.770709 23.0804 1.69669 23.0702H21.2965C22.2248 23.0815 22.9875 22.3391 23 21.4108V1.72869C22.9864 0.800401 22.2236 0.0579995 21.2965 0.0704673" fill="#F9F9F9"/>
</svg>
