<svg width="281" height="55" viewBox="0 0 281 55" fill="none" xmlns="http://www.w3.org/2000/svg">
<path d="M9.89726 13.4246C8.51162 16.0311 7.6884 18.8993 7.48082 21.8438H0.5C0.969863 16.5027 2.5137 12.0726 5.10274 8.6493L9.89726 13.4246Z" fill="#05DD71"/>
<path d="M9.87808 37.2438L5.08356 42.0383C2.31631 38.1629 0.724915 33.5718 0.5 28.8151H7.47123C7.66621 31.7636 8.48668 34.6369 9.87808 37.2438Z" fill="#05DD71"/>
<path d="M23.2068 44.7137V50.6685C18.6177 50.4443 14.1562 49.0835 10.2233 46.7082L14.7205 42.1918C17.3322 43.6396 20.2283 44.5002 23.2068 44.7137Z" fill="#05DD71"/>
<path d="M43.2096 46.7754C39.2556 49.161 34.7634 50.51 30.1493 50.6973V44.7521C33.1501 44.573 36.0727 43.7244 38.7027 42.2685L43.2096 46.7754Z" fill="#05DD71"/>
<path d="M52.8658 28.8151C52.4342 34.1657 50.9479 38.6151 48.3014 42.0671L43.5069 37.2726C44.8776 34.642 45.6874 31.7556 45.8849 28.7959L52.8658 28.8151Z" fill="#05DD71"/>
<path d="M52.837 21.8822H45.8945C45.6881 18.9277 44.8719 16.048 43.4973 13.4247L48.2918 8.63013C51.0342 12.5264 52.6107 17.1229 52.837 21.8822Z" fill="#05DD71"/>
<path d="M43.2 3.92192L38.6836 8.44794C36.0609 6.98807 33.145 6.13297 30.1493 5.9452V0C34.7594 0.193376 39.247 1.54197 43.2 3.92192Z" fill="#05DD71"/>
<path d="M23.2068 0V5.9452C20.2359 6.16442 17.3491 7.03178 14.7493 8.4863L10.2233 3.98904C14.1549 1.60661 18.6158 0.236052 23.2068 0Z" fill="#05DD71"/>
<path d="M68.3425 43.5918C68.1272 43.6264 67.9069 43.6104 67.699 43.5449C67.4911 43.4793 67.3013 43.3662 67.1449 43.2144C66.9884 43.0626 66.8696 42.8764 66.7978 42.6705C66.7261 42.4647 66.7033 42.2449 66.7315 42.0288V8.63013C66.7082 8.41619 66.7346 8.19977 66.8085 7.99767C66.8824 7.79557 67.0019 7.61324 67.1578 7.46482C67.3136 7.31641 67.5015 7.20592 67.707 7.14194C67.9125 7.07795 68.1299 7.06219 68.3425 7.09588H82.2178C84.4431 7.02377 86.6586 7.42242 88.7192 8.26574C90.2877 8.94694 91.6214 10.074 92.5548 11.5068C93.4424 12.946 93.8953 14.6109 93.8589 16.3014C93.8706 17.5412 93.6326 18.7706 93.1589 19.9164C92.7167 20.9791 92.0378 21.9269 91.174 22.6877C90.2905 23.4519 89.2493 24.0118 88.1246 24.3274V24.5383C89.5335 24.8337 90.8656 25.4182 92.037 26.2548C93.0867 27.0303 93.9432 28.0378 94.5397 29.1986C95.1427 30.4137 95.4483 31.7546 95.4315 33.1109C95.4978 35.1354 94.9712 37.1351 93.9164 38.8644C92.8244 40.4966 91.2331 41.7312 89.3808 42.3835C86.9552 43.2337 84.3938 43.6302 81.8246 43.5534L68.3425 43.5918ZM71.4589 22.9466H82.0068C83.9261 23.0845 85.8313 22.53 87.3767 21.3836C88.009 20.7961 88.5011 20.074 88.8165 19.2706C89.1319 18.4672 89.2625 17.6032 89.1986 16.7425C89.2527 15.9393 89.1188 15.1345 88.8076 14.3921C88.4963 13.6497 88.0162 12.9902 87.4055 12.4657C86.2356 11.5068 84.3562 11.0849 81.7479 11.0849H71.4589V22.9466ZM71.4589 39.6315H83.5219C85.4533 39.7699 87.3672 39.1855 88.8918 37.9918C89.5228 37.3709 90.0123 36.6211 90.3267 35.7936C90.6412 34.9661 90.7732 34.0805 90.7137 33.1972C90.7643 32.3247 90.6103 31.4525 90.264 30.65C89.9177 29.8475 89.3887 29.1371 88.7192 28.5753C87.3703 27.463 85.3534 26.9068 82.6685 26.9068H71.4589V39.6315Z" fill="#F9F9F9"/>
<path d="M115.568 43.9082C110.87 43.9082 107.332 42.7863 104.953 40.5425C102.575 38.2986 101.386 34.8146 101.386 30.0904C101.308 27.4387 101.871 24.8073 103.026 22.4192C104.088 20.3357 105.797 18.6532 107.897 17.6247C110.466 16.4723 113.263 15.9213 116.077 16.0137C118.616 15.9294 121.138 16.4556 123.432 17.5479C125.383 18.5243 126.967 20.1051 127.948 22.0548C129.019 24.3343 129.535 26.8349 129.453 29.3521C129.439 29.7167 129.344 30.0736 129.175 30.3973C128.995 30.7625 128.744 31.0884 128.437 31.3562C128.181 31.6076 127.837 31.7488 127.478 31.7493H105.979C106.047 34.626 106.881 36.7164 108.482 38.0877C110.084 39.4589 112.462 40.1493 115.616 40.1493C117.456 40.1784 119.291 39.959 121.073 39.4973C122.348 39.1566 123.592 38.7108 124.793 38.1644C125.347 37.8503 125.945 37.6208 126.567 37.4836C126.704 37.4952 126.837 37.5418 126.951 37.619C127.065 37.6963 127.157 37.8015 127.219 37.9247C127.421 38.248 127.589 38.5919 127.718 38.9507C127.839 39.2568 127.911 39.5807 127.929 39.9096C127.929 40.2164 127.564 40.6 126.836 41.0507C125.925 41.5928 124.961 42.0394 123.959 42.3836C122.659 42.8452 121.326 43.2043 119.97 43.4575C118.52 43.7449 117.046 43.8958 115.568 43.9082ZM106.075 28.0096H124.947C124.947 25.3247 124.189 23.2822 122.655 21.8822C121.121 20.4822 118.905 19.763 115.942 19.763C114.09 19.7155 112.248 20.0416 110.525 20.7219C109.154 21.2731 107.993 22.2429 107.207 23.4932C106.419 24.8661 106.018 26.4269 106.047 28.0096H106.075Z" fill="#F9F9F9"/>
<path d="M139.541 43.5918C139.281 43.6265 139.016 43.6008 138.768 43.5167C138.519 43.4326 138.294 43.2924 138.108 43.1069C137.923 42.9213 137.782 42.6956 137.698 42.4471C137.614 42.1985 137.589 41.934 137.623 41.674V8.50546C137.618 8.27421 137.678 8.04619 137.797 7.8477C137.916 7.6492 138.088 7.4883 138.295 7.38354C138.964 7.07882 139.699 6.94379 140.433 6.99039H141.737C142.481 6.93898 143.226 7.07412 143.904 7.38354C144.106 7.49181 144.274 7.65404 144.389 7.85214C144.504 8.05023 144.562 8.27641 144.556 8.50546V37.752H161.03C161.97 37.752 162.44 38.5 162.44 39.9959V41.3575C162.44 42.8534 161.97 43.5918 161.03 43.5918H139.541Z" fill="#F9F9F9"/>
<path d="M181.493 43.9657C176.449 43.9657 172.614 42.7735 169.986 40.389C167.359 38.0046 166.039 34.5205 166.026 29.937C166.026 25.3854 167.346 21.9173 169.986 19.5329C172.626 17.1484 176.484 15.9594 181.56 15.9657C186.604 15.9657 190.44 17.1644 193.067 19.5616C195.695 21.9589 196.999 25.4173 196.979 29.937C196.979 34.5205 195.675 38.0046 193.067 40.389C190.459 42.7735 186.601 43.9657 181.493 43.9657ZM181.541 38.6918C184.504 38.6918 186.681 37.9918 188.09 36.5822C189.5 35.1726 190.2 32.9575 190.2 29.937C190.2 26.9164 189.5 24.7493 188.09 23.3397C186.681 21.9301 184.504 21.2301 181.541 21.2301C178.578 21.2301 176.296 21.9301 174.829 23.3397C173.362 24.7493 172.69 26.9644 172.69 29.9849C172.69 33.0055 173.4 35.1726 174.829 36.5822C176.258 37.9918 178.521 38.6918 181.541 38.6918Z" fill="#F9F9F9"/>
<path d="M218.047 43.9657C213.003 43.9657 209.167 42.7735 206.54 40.389C203.912 38.0046 202.592 34.5205 202.579 29.937C202.579 25.3854 203.9 21.9173 206.54 19.5329C209.18 17.1484 213.038 15.9594 218.114 15.9657C223.158 15.9657 226.993 17.1644 229.621 19.5616C232.248 21.9589 233.546 25.4173 233.514 29.937C233.514 34.5205 232.213 38.0046 229.611 40.389C227.009 42.7735 223.154 43.9657 218.047 43.9657ZM218.047 38.6918C221 38.6918 223.183 37.9886 224.596 36.5822C226.009 35.1758 226.712 32.9607 226.705 29.937C226.705 26.9452 226.002 24.7461 224.596 23.3397C223.19 21.9333 221.006 21.2301 218.047 21.2301C215.029 21.2301 212.792 21.9333 211.334 23.3397C209.915 24.7493 209.196 26.9644 209.196 29.9849C209.196 33.0055 209.915 35.1726 211.334 36.5822C212.753 37.9918 215.074 38.6918 218.095 38.6918H218.047Z" fill="#F9F9F9"/>
<path d="M243.544 54.389C242.816 54.4448 242.087 54.3023 241.434 53.9767C241.237 53.8683 241.072 53.7087 240.957 53.5147C240.842 53.3207 240.782 53.0994 240.782 52.874V24.9795C240.782 23.4836 240.734 22.2753 240.648 21.3548C240.562 20.4342 240.475 19.7151 240.389 19.1973C240.312 18.7826 240.267 18.3626 240.255 17.9411C240.255 17.6215 240.456 17.3626 240.859 17.1644C241.318 16.9339 241.809 16.7755 242.316 16.6945C242.892 16.589 243.448 16.5123 243.985 16.4548C244.522 16.3973 244.944 16.3781 245.212 16.3781C245.389 16.3634 245.567 16.3885 245.733 16.4516C245.899 16.5146 246.049 16.614 246.171 16.7425C246.436 17.1096 246.622 17.5275 246.718 17.9699C246.871 18.5452 247.034 19.3507 247.216 20.3959C248.109 19.4273 249.144 18.5997 250.285 17.9411C251.431 17.2846 252.66 16.7847 253.938 16.4548C255.192 16.1336 256.48 15.9693 257.774 15.9658C260.314 15.8936 262.833 16.4572 265.1 17.6055C267.116 18.6802 268.749 20.3559 269.77 22.4C270.905 24.7635 271.461 27.3637 271.39 29.9849C271.474 32.6404 270.901 35.2754 269.722 37.6562C268.628 39.7168 266.9 41.3709 264.793 42.374C262.295 43.4998 259.573 44.044 256.834 43.9658C255.606 43.9619 254.383 43.8106 253.19 43.5151C252.031 43.2539 250.9 42.8781 249.815 42.3932C248.959 42.032 248.153 41.5614 247.418 40.9932V52.874C247.416 53.099 247.355 53.3195 247.24 53.5132C247.126 53.7068 246.962 53.8668 246.766 53.9767C246.112 54.3 245.384 54.4424 244.656 54.389H243.544ZM256.268 38.6918C259.078 38.6918 261.188 37.9918 262.578 36.5822C263.968 35.1726 264.659 32.9767 264.659 29.9849C264.659 26.9932 263.978 24.7014 262.626 23.2726C261.274 21.8438 259.164 21.1918 256.316 21.1918C254.557 21.1819 252.815 21.5446 251.205 22.2562C249.727 22.8736 248.435 23.865 247.456 25.1329V35.6808C248.526 36.6645 249.809 37.3866 251.205 37.7904C252.834 38.3599 254.543 38.6642 256.268 38.6918Z" fill="#F9F9F9"/>
<path d="M275.14 50.448V52.2795H273.893V47.437H275.811C276.297 47.3968 276.784 47.5109 277.201 47.763C277.349 47.8739 277.467 48.0193 277.546 48.1865C277.624 48.3536 277.661 48.5374 277.652 48.7219C277.664 49.0052 277.583 49.2846 277.422 49.5178C277.243 49.7389 276.997 49.8969 276.722 49.9685C276.898 50.0127 277.057 50.1058 277.182 50.237C277.351 50.4219 277.49 50.6322 277.594 50.8603L278.275 52.2315H276.942L276.348 51.0233C276.266 50.8369 276.145 50.6701 275.993 50.5343C275.848 50.4404 275.677 50.3936 275.504 50.4H275.149M275.677 49.537C275.873 49.554 276.069 49.5032 276.233 49.3932C276.345 49.2586 276.407 49.089 276.407 48.9137C276.407 48.7385 276.345 48.5688 276.233 48.4343C276.069 48.3242 275.873 48.2734 275.677 48.2904H275.149V49.537H275.705" fill="#F9F9F9"/>
<path d="M275.916 54.389C275.021 54.3796 274.149 54.1053 273.409 53.6008C272.669 53.0962 272.095 52.384 271.759 51.5539C271.424 50.7238 271.341 49.8129 271.523 48.936C271.704 48.0591 272.14 47.2555 272.778 46.6263C273.415 45.9972 274.224 45.5707 275.103 45.4006C275.982 45.2305 276.892 45.3245 277.718 45.6706C278.543 46.0167 279.248 46.5995 279.743 47.3456C280.239 48.0917 280.502 48.9676 280.5 49.863C280.499 50.4619 280.379 51.0546 280.147 51.6069C279.916 52.1592 279.577 52.6602 279.151 53.081C278.725 53.5018 278.22 53.834 277.665 54.0585C277.109 54.283 276.515 54.3954 275.916 54.389ZM275.916 46.0753C275.167 46.0753 274.435 46.2975 273.812 46.7137C273.189 47.1299 272.704 47.7214 272.417 48.4135C272.13 49.1056 272.055 49.8672 272.202 50.6019C272.348 51.3367 272.708 52.0116 273.238 52.5413C273.768 53.071 274.443 53.4317 275.177 53.5779C275.912 53.724 276.674 53.649 277.366 53.3624C278.058 53.0757 278.65 52.5902 279.066 51.9673C279.482 51.3444 279.704 50.6121 279.704 49.863C279.704 48.8584 279.305 47.895 278.595 47.1847C277.884 46.4744 276.921 46.0753 275.916 46.0753Z" fill="#F9F9F9"/>
</svg>
