<svg width="23" height="19" viewBox="0 0 23 19" fill="none" xmlns="http://www.w3.org/2000/svg">
<path d="M19.4524 0.367188H3.57545C2.62719 0.367188 1.71775 0.747898 1.04723 1.42557C0.376699 2.10323 0 3.02235 0 3.98072L0 15.1594C0 16.1178 0.376699 17.0369 1.04723 17.7146C1.71775 18.3922 2.62719 18.7729 3.57545 18.7729H19.4524C20.3959 18.7655 21.2981 18.3815 21.9626 17.7047C22.6272 17.0278 23 16.1129 23 15.1594V3.98072C23 3.02721 22.6272 2.11234 21.9626 1.43548C21.2981 0.758612 20.3959 0.374622 19.4524 0.367188V0.367188ZM12.873 9.77082C12.7036 9.96695 12.4947 10.1243 12.2604 10.2324C12.026 10.3405 11.7716 10.3969 11.5139 10.3977C11.2507 10.4005 10.9899 10.346 10.7494 10.2378C10.5088 10.1296 10.2942 9.97036 10.12 9.77082L3.92394 2.62829H19.1039L12.873 9.77082ZM2.23727 4.13568L8.51 11.2853C8.89002 11.7213 9.35756 12.0706 9.88151 12.3098C10.4055 12.5491 10.9738 12.6728 11.5488 12.6728C12.1237 12.6728 12.6921 12.5491 13.2161 12.3098C13.74 12.0706 14.2076 11.7213 14.5876 11.2853L20.7836 4.1216V15.1594C20.7921 15.3414 20.764 15.5231 20.7009 15.6938C20.6378 15.8644 20.5411 16.0203 20.4166 16.152C20.2922 16.2837 20.1425 16.3885 19.9768 16.4601C19.811 16.5316 19.6326 16.5684 19.4524 16.5682H3.57545C3.39493 16.5684 3.21624 16.5316 3.05014 16.4601C2.88404 16.3887 2.73396 16.284 2.60894 16.1524C2.48393 16.0208 2.38655 15.8649 2.32267 15.6943C2.2588 15.5236 2.22975 15.3417 2.23727 15.1594V4.13568Z" fill="#F9F9F9"/>
</svg>
