<svg width="388" height="23" viewBox="0 0 388 23" fill="none" xmlns="http://www.w3.org/2000/svg">
<path d="M1.34992 22.06C0.909922 22.06 0.589922 22 0.389922 21.88C0.209922 21.76 0.119922 21.6 0.119922 21.4V1.6C0.119922 1.38 0.209922 1.22 0.389922 1.12C0.589922 0.999999 0.909922 0.939999 1.34992 0.939999H2.09992C2.35992 0.939999 2.56992 0.959999 2.72992 0.999999C2.90992 1.04 3.06992 1.1 3.20992 1.18C3.34992 1.26 3.46992 1.37 3.56992 1.51L15.1199 16.93C15.2599 17.11 15.4099 17.32 15.5699 17.56C15.7299 17.8 15.8599 18.03 15.9599 18.25L16.0799 18.22C16.0599 18.06 16.0399 17.85 16.0199 17.59C16.0199 17.31 16.0199 17.04 16.0199 16.78V1.6C16.0199 1.38 16.1099 1.22 16.2899 1.12C16.4899 0.999999 16.8099 0.939999 17.2499 0.939999H17.4899C17.9499 0.939999 18.2699 0.999999 18.4499 1.12C18.6299 1.22 18.7199 1.38 18.7199 1.6V21.4C18.7199 21.6 18.6299 21.76 18.4499 21.88C18.2699 22 17.9499 22.06 17.4899 22.06H16.7699C16.4899 22.06 16.2499 22.04 16.0499 22C15.8699 21.96 15.7199 21.9 15.5999 21.82C15.4799 21.74 15.3699 21.64 15.2699 21.52L3.53992 5.89C3.43992 5.75 3.31992 5.58 3.17992 5.38C3.03992 5.16 2.91992 4.95 2.81992 4.75L2.69992 4.78C2.73992 4.98 2.76992 5.22 2.78992 5.5C2.80992 5.76 2.81992 6 2.81992 6.22V21.4C2.81992 21.6 2.72992 21.76 2.54992 21.88C2.36992 22 2.04992 22.06 1.58992 22.06H1.34992ZM37.4282 22.18C34.4282 22.18 32.1582 21.6 30.6182 20.44C29.0782 19.26 28.3082 17.54 28.3082 15.28V1.6C28.3082 1.38 28.3982 1.22 28.5782 1.12C28.7782 0.999999 29.0982 0.939999 29.5382 0.939999H29.7782C30.2382 0.939999 30.5582 0.999999 30.7382 1.12C30.9182 1.22 31.0082 1.38 31.0082 1.6V15.37C31.0082 16.85 31.5482 17.98 32.6282 18.76C33.7282 19.52 35.3282 19.9 37.4282 19.9C39.5682 19.9 41.1782 19.52 42.2582 18.76C43.3582 17.98 43.9082 16.85 43.9082 15.37V1.6C43.9082 1.38 43.9982 1.22 44.1782 1.12C44.3782 0.999999 44.6982 0.939999 45.1382 0.939999H45.3782C45.8382 0.939999 46.1582 0.999999 46.3382 1.12C46.5182 1.22 46.6082 1.38 46.6082 1.6V15.28C46.6082 17.54 45.8282 19.26 44.2682 20.44C42.7282 21.6 40.4482 22.18 37.4282 22.18ZM57.1476 22C56.5276 22 56.2176 21.7 56.2176 21.1V1.9C56.2176 1.3 56.5276 0.999999 57.1476 0.999999H70.8576C71.2576 0.999999 71.4576 1.3 71.4576 1.9V2.38C71.4576 2.98 71.2576 3.28 70.8576 3.28H58.9176V10.12H69.9576C70.3576 10.12 70.5576 10.42 70.5576 11.02V11.5C70.5576 12.1 70.3576 12.4 69.9576 12.4H58.9176V19.72H70.8876C71.2876 19.72 71.4876 20.02 71.4876 20.62V21.1C71.4876 21.7 71.2876 22 70.8876 22H57.1476ZM84.8896 22.18C83.8096 22.18 82.7896 22.09 81.8296 21.91C80.8896 21.73 80.0696 21.52 79.3696 21.28C78.6696 21.04 78.1596 20.83 77.8396 20.65C77.6596 20.55 77.4996 20.44 77.3596 20.32C77.2396 20.18 77.1796 20.04 77.1796 19.9C77.1796 19.8 77.1996 19.67 77.2396 19.51C77.2796 19.33 77.3296 19.15 77.3896 18.97C77.4696 18.79 77.5496 18.64 77.6296 18.52C77.7296 18.4 77.8396 18.34 77.9596 18.34C78.1596 18.34 78.5696 18.47 79.1896 18.73C79.8296 18.99 80.6296 19.25 81.5896 19.51C82.5696 19.77 83.6696 19.9 84.8896 19.9C86.1096 19.9 87.1196 19.77 87.9196 19.51C88.7396 19.25 89.3496 18.86 89.7496 18.34C90.1696 17.8 90.3796 17.15 90.3796 16.39C90.3796 15.73 90.2296 15.19 89.9296 14.77C89.6296 14.33 89.2096 13.98 88.6696 13.72C88.1496 13.46 87.5496 13.24 86.8696 13.06C86.2096 12.88 85.5196 12.72 84.7996 12.58C83.9396 12.4 83.0796 12.2 82.2196 11.98C81.3796 11.74 80.6096 11.42 79.9096 11.02C79.2096 10.6 78.6396 10.05 78.1996 9.37C77.7796 8.67 77.5696 7.77 77.5696 6.67C77.5696 5.83 77.7596 5.05 78.1396 4.33C78.5196 3.61 79.0596 2.99 79.7596 2.47C80.4596 1.95 81.2796 1.55 82.2196 1.27C83.1796 0.969999 84.2196 0.819999 85.3396 0.819999C86.2396 0.819999 87.0896 0.879999 87.8896 0.999999C88.6896 1.1 89.3996 1.24 90.0196 1.42C90.6396 1.6 91.1196 1.78 91.4596 1.96C91.6396 2.04 91.7796 2.12 91.8796 2.2C91.9796 2.28 92.0296 2.4 92.0296 2.56C92.0296 2.68 92.0096 2.83 91.9696 3.01C91.9496 3.19 91.9096 3.38 91.8496 3.58C91.7896 3.76 91.7096 3.92 91.6096 4.06C91.5296 4.18 91.4396 4.24 91.3396 4.24C91.1396 4.24 90.7896 4.15 90.2896 3.97C89.7896 3.77 89.1296 3.58 88.3096 3.4C87.4896 3.2 86.4796 3.1 85.2796 3.1C84.1396 3.1 83.1996 3.24 82.4596 3.52C81.7196 3.8 81.1596 4.2 80.7796 4.72C80.4196 5.24 80.2396 5.86 80.2396 6.58C80.2396 7.36 80.4696 7.97 80.9296 8.41C81.4096 8.85 82.0496 9.2 82.8496 9.46C83.6696 9.7 84.5996 9.94 85.6396 10.18C86.5196 10.36 87.3896 10.58 88.2496 10.84C89.1296 11.08 89.9296 11.41 90.6496 11.83C91.3696 12.25 91.9496 12.83 92.3896 13.57C92.8296 14.29 93.0496 15.22 93.0496 16.36C93.0496 17.26 92.8596 18.07 92.4796 18.79C92.1196 19.51 91.5796 20.13 90.8596 20.65C90.1596 21.15 89.2996 21.53 88.2796 21.79C87.2796 22.05 86.1496 22.18 84.8896 22.18ZM106.778 22.06C106.378 22.06 106.088 22 105.908 21.88C105.728 21.76 105.638 21.6 105.638 21.4V3.28H98.4079C98.0279 3.28 97.8379 2.98 97.8379 2.38V1.9C97.8379 1.3 98.0279 0.999999 98.4079 0.999999H115.508C115.908 0.999999 116.108 1.3 116.108 1.9V2.38C116.108 2.98 115.908 3.28 115.508 3.28H108.338V21.4C108.338 21.6 108.248 21.76 108.068 21.88C107.888 22 107.598 22.06 107.198 22.06H106.778ZM124.543 22.06C124.103 22.06 123.783 22 123.583 21.88C123.403 21.76 123.313 21.6 123.313 21.4V1.9C123.313 1.3 123.623 0.999999 124.243 0.999999H132.733C135.093 0.999999 136.863 1.5 138.043 2.5C139.243 3.5 139.843 5.01 139.843 7.03C139.843 7.81 139.693 8.54 139.393 9.22C139.093 9.88 138.683 10.44 138.163 10.9C137.663 11.36 137.073 11.66 136.393 11.8V11.92C137.033 12.12 137.543 12.54 137.923 13.18C138.323 13.82 138.713 14.61 139.093 15.55L141.433 21.16C141.473 21.24 141.493 21.32 141.493 21.4C141.513 21.48 141.523 21.54 141.523 21.58C141.523 21.72 141.423 21.84 141.223 21.94C141.023 22.02 140.703 22.06 140.263 22.06H139.963C139.663 22.06 139.403 22.01 139.183 21.91C138.963 21.81 138.803 21.66 138.703 21.46L136.483 16C136.183 15.22 135.873 14.62 135.553 14.2C135.233 13.78 134.853 13.49 134.413 13.33C133.973 13.15 133.413 13.06 132.733 13.06H126.013V21.4C126.013 21.6 125.923 21.76 125.743 21.88C125.563 22 125.243 22.06 124.783 22.06H124.543ZM126.013 10.78H132.733C134.273 10.78 135.383 10.49 136.063 9.91C136.763 9.31 137.113 8.35 137.113 7.03C137.113 5.71 136.763 4.76 136.063 4.18C135.383 3.58 134.273 3.28 132.733 3.28H126.013V10.78ZM157.683 22.18C153.863 22.18 150.963 21.27 148.983 19.45C147.023 17.63 146.043 14.96 146.043 11.44C146.043 7.94 147.023 5.3 148.983 3.52C150.963 1.72 153.863 0.819999 157.683 0.819999C161.523 0.819999 164.423 1.72 166.383 3.52C168.363 5.3 169.353 7.94 169.353 11.44C169.353 14.96 168.363 17.63 166.383 19.45C164.423 21.27 161.523 22.18 157.683 22.18ZM157.683 19.9C160.623 19.9 162.843 19.22 164.343 17.86C165.863 16.5 166.623 14.36 166.623 11.44C166.623 8.54 165.863 6.43 164.343 5.11C162.843 3.77 160.623 3.1 157.683 3.1C154.763 3.1 152.543 3.77 151.023 5.11C149.523 6.43 148.773 8.54 148.773 11.44C148.773 14.36 149.523 16.5 151.023 17.86C152.543 19.22 154.763 19.9 157.683 19.9ZM182.642 22.18C181.562 22.18 180.542 22.09 179.582 21.91C178.642 21.73 177.822 21.52 177.122 21.28C176.422 21.04 175.912 20.83 175.592 20.65C175.412 20.55 175.252 20.44 175.112 20.32C174.992 20.18 174.932 20.04 174.932 19.9C174.932 19.8 174.952 19.67 174.992 19.51C175.032 19.33 175.082 19.15 175.142 18.97C175.222 18.79 175.302 18.64 175.382 18.52C175.482 18.4 175.592 18.34 175.712 18.34C175.912 18.34 176.322 18.47 176.942 18.73C177.582 18.99 178.382 19.25 179.342 19.51C180.322 19.77 181.422 19.9 182.642 19.9C183.862 19.9 184.872 19.77 185.672 19.51C186.492 19.25 187.102 18.86 187.502 18.34C187.922 17.8 188.132 17.15 188.132 16.39C188.132 15.73 187.982 15.19 187.682 14.77C187.382 14.33 186.962 13.98 186.422 13.72C185.902 13.46 185.302 13.24 184.622 13.06C183.962 12.88 183.272 12.72 182.552 12.58C181.692 12.4 180.832 12.2 179.972 11.98C179.132 11.74 178.362 11.42 177.662 11.02C176.962 10.6 176.392 10.05 175.952 9.37C175.532 8.67 175.322 7.77 175.322 6.67C175.322 5.83 175.512 5.05 175.892 4.33C176.272 3.61 176.812 2.99 177.512 2.47C178.212 1.95 179.032 1.55 179.972 1.27C180.932 0.969999 181.972 0.819999 183.092 0.819999C183.992 0.819999 184.842 0.879999 185.642 0.999999C186.442 1.1 187.152 1.24 187.772 1.42C188.392 1.6 188.872 1.78 189.212 1.96C189.392 2.04 189.532 2.12 189.632 2.2C189.732 2.28 189.782 2.4 189.782 2.56C189.782 2.68 189.762 2.83 189.722 3.01C189.702 3.19 189.662 3.38 189.602 3.58C189.542 3.76 189.462 3.92 189.362 4.06C189.282 4.18 189.192 4.24 189.092 4.24C188.892 4.24 188.542 4.15 188.042 3.97C187.542 3.77 186.882 3.58 186.062 3.4C185.242 3.2 184.232 3.1 183.032 3.1C181.892 3.1 180.952 3.24 180.212 3.52C179.472 3.8 178.912 4.2 178.532 4.72C178.172 5.24 177.992 5.86 177.992 6.58C177.992 7.36 178.222 7.97 178.682 8.41C179.162 8.85 179.802 9.2 180.602 9.46C181.422 9.7 182.352 9.94 183.392 10.18C184.272 10.36 185.142 10.58 186.002 10.84C186.882 11.08 187.682 11.41 188.402 11.83C189.122 12.25 189.702 12.83 190.142 13.57C190.582 14.29 190.802 15.22 190.802 16.36C190.802 17.26 190.612 18.07 190.232 18.79C189.872 19.51 189.332 20.13 188.612 20.65C187.912 21.15 187.052 21.53 186.032 21.79C185.032 22.05 183.902 22.18 182.642 22.18ZM217.917 22.21C214.097 22.21 211.237 21.31 209.337 19.51C207.457 17.71 206.517 15.03 206.517 11.47C206.517 7.93 207.497 5.27 209.457 3.49C211.417 1.69 214.337 0.789999 218.217 0.789999C219.017 0.789999 219.807 0.839999 220.587 0.939999C221.367 1.04 222.087 1.19 222.747 1.39C223.407 1.57 223.957 1.77 224.397 1.99C224.777 2.17 225.047 2.34 225.207 2.5C225.387 2.64 225.477 2.82 225.477 3.04C225.477 3.18 225.437 3.37 225.357 3.61C225.297 3.83 225.217 4.06 225.117 4.3C225.017 4.54 224.887 4.74 224.727 4.9C224.587 5.06 224.437 5.14 224.277 5.14C224.057 5.14 223.687 5.06 223.167 4.9C222.667 4.74 222.007 4.58 221.187 4.42C220.387 4.24 219.397 4.15 218.217 4.15C216.517 4.15 215.097 4.38 213.957 4.84C212.817 5.3 211.957 6.07 211.377 7.15C210.817 8.21 210.537 9.65 210.537 11.47C210.537 13.31 210.817 14.77 211.377 15.85C211.957 16.91 212.817 17.68 213.957 18.16C215.097 18.62 216.517 18.85 218.217 18.85C219.177 18.85 220.027 18.79 220.767 18.67C221.507 18.53 222.147 18.38 222.687 18.22C223.227 18.06 223.667 17.92 224.007 17.8C224.367 17.66 224.637 17.59 224.817 17.59C224.977 17.59 225.117 17.68 225.237 17.86C225.377 18.04 225.487 18.26 225.567 18.52C225.647 18.76 225.707 19 225.747 19.24C225.807 19.48 225.837 19.67 225.837 19.81C225.837 20.07 225.767 20.26 225.627 20.38C225.507 20.48 225.267 20.62 224.907 20.8C224.287 21.08 223.597 21.34 222.837 21.58C222.077 21.8 221.277 21.96 220.437 22.06C219.597 22.16 218.757 22.21 217.917 22.21ZM234.184 22C233.444 22 233.074 21.63 233.074 20.89V1.81C233.074 1.53 233.204 1.32 233.464 1.18C233.724 1.02 234.134 0.939999 234.694 0.939999H235.444C236.024 0.939999 236.434 1.02 236.674 1.18C236.934 1.32 237.064 1.53 237.064 1.81V18.64H246.544C247.084 18.64 247.354 19.07 247.354 19.93V20.71C247.354 21.57 247.084 22 246.544 22H234.184ZM255.096 22.06C254.536 22.06 254.126 21.99 253.866 21.85C253.606 21.69 253.476 21.47 253.476 21.19V1.81C253.476 1.53 253.606 1.32 253.866 1.18C254.126 1.02 254.536 0.939999 255.096 0.939999H255.846C256.426 0.939999 256.836 1.02 257.076 1.18C257.336 1.32 257.466 1.53 257.466 1.81V21.19C257.466 21.47 257.336 21.69 257.076 21.85C256.836 21.99 256.426 22.06 255.846 22.06H255.096ZM267.136 22C266.436 22 266.086 21.63 266.086 20.89V2.11C266.086 1.37 266.436 0.999999 267.136 0.999999H281.326C281.846 0.999999 282.106 1.43 282.106 2.29V3.07C282.106 3.93 281.846 4.36 281.326 4.36H270.076V9.58H280.486C281.006 9.58 281.266 10.01 281.266 10.87V11.65C281.266 12.51 281.006 12.94 280.486 12.94H270.076V18.64H281.356C281.876 18.64 282.136 19.07 282.136 19.93V20.71C282.136 21.57 281.876 22 281.356 22H267.136ZM291.038 22.06C290.478 22.06 290.068 21.99 289.808 21.85C289.548 21.69 289.418 21.47 289.418 21.19V1.81C289.418 1.53 289.548 1.32 289.808 1.18C290.068 1.02 290.478 0.939999 291.038 0.939999H291.968C292.268 0.939999 292.528 0.969999 292.748 1.03C292.988 1.07 293.198 1.15 293.378 1.27C293.558 1.39 293.738 1.56 293.918 1.78L304.238 14.47C304.498 14.79 304.748 15.15 304.988 15.55C305.228 15.93 305.408 16.25 305.528 16.51L305.648 16.48C305.628 16.2 305.598 15.89 305.558 15.55C305.538 15.19 305.528 14.82 305.528 14.44V1.81C305.528 1.53 305.648 1.32 305.888 1.18C306.148 1.02 306.558 0.939999 307.118 0.939999H307.658C308.238 0.939999 308.648 1.02 308.888 1.18C309.148 1.32 309.278 1.53 309.278 1.81V21.19C309.278 21.47 309.148 21.69 308.888 21.85C308.648 21.99 308.238 22.06 307.658 22.06H306.728C306.448 22.06 306.198 22.04 305.978 22C305.758 21.96 305.568 21.89 305.408 21.79C305.248 21.67 305.098 21.52 304.958 21.34L294.398 8.38C294.158 8.08 293.918 7.74 293.678 7.36C293.458 6.98 293.278 6.66 293.138 6.4L293.018 6.43C293.058 6.71 293.088 7.03 293.108 7.39C293.148 7.73 293.168 8.09 293.168 8.47V21.19C293.168 21.47 293.048 21.69 292.808 21.85C292.568 21.99 292.158 22.06 291.578 22.06H291.038ZM324.566 22.06C324.006 22.06 323.596 21.99 323.336 21.85C323.096 21.69 322.976 21.47 322.976 21.19V4.36H316.376C315.856 4.36 315.596 3.93 315.596 3.07V2.29C315.596 1.43 315.856 0.999999 316.376 0.999999H333.536C334.076 0.999999 334.346 1.43 334.346 2.29V3.07C334.346 3.93 334.076 4.36 333.536 4.36H326.966V21.19C326.966 21.47 326.836 21.69 326.576 21.85C326.336 21.99 325.936 22.06 325.376 22.06H324.566ZM341.731 22C341.031 22 340.681 21.63 340.681 20.89V2.11C340.681 1.37 341.031 0.999999 341.731 0.999999H355.921C356.441 0.999999 356.701 1.43 356.701 2.29V3.07C356.701 3.93 356.441 4.36 355.921 4.36H344.671V9.58H355.081C355.601 9.58 355.861 10.01 355.861 10.87V11.65C355.861 12.51 355.601 12.94 355.081 12.94H344.671V18.64H355.951C356.471 18.64 356.731 19.07 356.731 19.93V20.71C356.731 21.57 356.471 22 355.951 22H341.731ZM370.313 22.21C369.113 22.21 368.013 22.13 367.013 21.97C366.033 21.81 365.183 21.61 364.463 21.37C363.763 21.11 363.213 20.88 362.813 20.68C362.573 20.54 362.373 20.4 362.213 20.26C362.053 20.12 361.973 19.95 361.973 19.75C361.973 19.55 362.003 19.32 362.063 19.06C362.123 18.78 362.203 18.51 362.303 18.25C362.423 17.99 362.543 17.78 362.663 17.62C362.803 17.44 362.943 17.35 363.083 17.35C363.283 17.35 363.713 17.48 364.373 17.74C365.053 17.98 365.893 18.23 366.893 18.49C367.913 18.73 369.013 18.85 370.193 18.85C371.193 18.85 372.003 18.76 372.623 18.58C373.263 18.4 373.733 18.12 374.033 17.74C374.333 17.36 374.483 16.88 374.483 16.3C374.483 15.78 374.353 15.35 374.093 15.01C373.833 14.65 373.453 14.36 372.953 14.14C372.473 13.9 371.913 13.69 371.273 13.51C370.633 13.33 369.933 13.15 369.173 12.97C368.433 12.79 367.663 12.58 366.863 12.34C366.083 12.1 365.353 11.77 364.673 11.35C363.993 10.91 363.433 10.34 362.993 9.64C362.573 8.92 362.363 8 362.363 6.88C362.363 5.84 362.583 4.94 363.023 4.18C363.483 3.42 364.093 2.79 364.853 2.29C365.633 1.79 366.513 1.42 367.493 1.18C368.493 0.92 369.523 0.789999 370.583 0.789999C371.463 0.789999 372.323 0.849999 373.163 0.969999C374.003 1.09 374.753 1.24 375.413 1.42C376.073 1.6 376.563 1.78 376.883 1.96C377.083 2.08 377.243 2.2 377.363 2.32C377.503 2.42 377.573 2.55 377.573 2.71C377.573 2.87 377.543 3.09 377.483 3.37C377.443 3.63 377.373 3.9 377.273 4.18C377.193 4.44 377.083 4.66 376.943 4.84C376.823 5.02 376.683 5.11 376.523 5.11C376.303 5.11 375.913 5.03 375.353 4.87C374.813 4.69 374.143 4.53 373.343 4.39C372.563 4.23 371.653 4.15 370.613 4.15C369.653 4.15 368.853 4.24 368.213 4.42C367.573 4.6 367.093 4.87 366.773 5.23C366.473 5.59 366.323 6.04 366.323 6.58C366.323 7.16 366.523 7.61 366.923 7.93C367.343 8.25 367.893 8.52 368.573 8.74C369.273 8.94 370.053 9.15 370.913 9.37C371.773 9.59 372.643 9.84 373.523 10.12C374.403 10.38 375.213 10.73 375.953 11.17C376.693 11.61 377.293 12.21 377.753 12.97C378.213 13.73 378.443 14.71 378.443 15.91C378.443 17.01 378.223 17.96 377.783 18.76C377.363 19.56 376.773 20.22 376.013 20.74C375.253 21.24 374.383 21.61 373.403 21.85C372.423 22.09 371.393 22.21 370.313 22.21ZM385.362 22.06C384.802 22.06 384.392 21.99 384.132 21.85C383.872 21.69 383.742 21.47 383.742 21.19V18.7C383.742 18.42 383.872 18.21 384.132 18.07C384.392 17.93 384.802 17.86 385.362 17.86H386.142C386.722 17.86 387.132 17.93 387.372 18.07C387.632 18.21 387.762 18.42 387.762 18.7V21.19C387.762 21.47 387.632 21.69 387.372 21.85C387.132 21.99 386.722 22.06 386.142 22.06H385.362Z" fill="#02090A"/>
</svg>
