<svg width="41" height="41" viewBox="0 0 41 41" fill="none" xmlns="http://www.w3.org/2000/svg">
<path d="M32.49 25.5428C32.4616 25.7982 32.3405 26.0342 32.1499 26.2057C31.9594 26.3773 31.7126 26.4725 31.4566 26.4733C31.4193 26.4733 31.3807 26.4709 31.3411 26.4671C29.8702 26.3095 28.4589 25.7979 27.227 24.9759C26.1511 25.7359 24.8371 26.2892 23.2392 26.4671C23.1996 26.4709 23.161 26.4733 23.1237 26.4733C22.8572 26.4735 22.6008 26.3711 22.4072 26.1873C22.2136 26.0034 22.0976 25.7521 22.083 25.485C22.0684 25.2178 22.1564 24.9553 22.3289 24.7513C22.5014 24.5474 22.7452 24.4175 23.0101 24.3886C23.9173 24.2952 24.7954 24.0144 25.5891 23.5637C25.0875 23.0136 24.6534 22.405 24.2963 21.7511C24.1683 21.5087 24.1404 21.2254 24.2186 20.9625C24.2968 20.6996 24.4749 20.4781 24.7144 20.3458C24.9539 20.2135 25.2356 20.181 25.4987 20.2553C25.7618 20.3296 25.9853 20.5048 26.1209 20.7431C26.4203 21.2844 26.7863 21.7857 27.2105 22.2352C28.4094 20.8907 28.9959 19.2263 29.2331 18.1132H23.1247C22.8485 18.1132 22.5835 18.003 22.3882 17.807C22.1929 17.6109 22.0832 17.345 22.0832 17.0678C22.0832 16.7905 22.1929 16.5246 22.3882 16.3285C22.5835 16.1325 22.8485 16.0223 23.1247 16.0223H26.2491V14.9745C26.2491 14.6973 26.3589 14.4314 26.5542 14.2353C26.7495 14.0393 27.0144 13.9291 27.2906 13.9291C27.5668 13.9291 27.8318 14.0393 28.0271 14.2353C28.2224 14.4314 28.3321 14.6973 28.3321 14.9745V16.02H31.4566C31.7328 16.02 31.9977 16.1301 32.193 16.3262C32.3883 16.5222 32.4981 16.7881 32.4981 17.0654C32.4981 17.3427 32.3883 17.6086 32.193 17.8046C31.9977 18.0007 31.7328 18.1108 31.4566 18.1108H31.3562C31.1044 19.6068 30.342 21.7468 28.8371 23.4979C29.6769 23.9828 30.6082 24.2864 31.5716 24.3895C31.8463 24.42 32.0978 24.5587 32.2707 24.7751C32.4436 24.9915 32.5239 25.268 32.4938 25.5438L32.49 25.5428ZM20.6386 8.92205C20.7635 9.01969 20.8646 9.14467 20.9341 9.28745C21.0036 9.43023 21.0398 9.58706 21.0398 9.74599V30.655C21.0399 30.8138 21.0039 30.9706 20.9345 31.1134C20.8652 31.2562 20.7643 31.3812 20.6396 31.479C20.5148 31.5768 20.3695 31.6447 20.2147 31.6777C20.0599 31.7106 19.8996 31.7077 19.7461 31.6692C17.6079 31.1325 14.0412 29.1547 12.5721 26.4733H11.1454C10.1789 26.4723 9.25227 26.0864 8.56883 25.4004C7.88539 24.7144 7.501 23.7842 7.5 22.814V17.5869C7.50112 16.6168 7.88556 15.6867 8.56897 15.0007C9.25238 14.3147 10.179 13.9288 11.1454 13.9277H12.5721C14.0417 11.2462 17.6079 9.268 19.7461 8.7318C19.8995 8.69312 20.0596 8.69015 20.2143 8.72313C20.369 8.7561 20.5141 8.82414 20.6386 8.92205ZM18.9568 11.2169C17.1143 12.0261 14.897 13.6016 14.1949 15.3612C14.1173 15.555 13.9837 15.7211 13.8113 15.8381C13.6389 15.955 13.4356 16.0176 13.2275 16.0176H11.1454C10.7312 16.0181 10.3341 16.1835 10.0412 16.4775C9.74825 16.7715 9.58347 17.1702 9.58298 17.586V22.8131C9.58347 23.2289 9.74825 23.6275 10.0412 23.9216C10.3341 24.2156 10.7312 24.381 11.1454 24.3815H13.2284C13.4365 24.3816 13.6398 24.4442 13.8121 24.5612C13.9845 24.6781 14.1182 24.8441 14.1959 25.0379C14.897 26.7984 17.1153 28.3729 18.9578 29.1817L18.9568 11.2169Z" fill="#F9F9F9"/>
<path d="M32.7414 2.49927L38.2011 7.95904V37.9016H2.79885V2.49927H32.7414ZM33.6937 0.200417H0.5V40.2004H40.5V7.00674L39.8264 6.33375L34.3667 0.87398L33.6937 0.200417Z" fill="#F9F9F9"/>
</svg>
