<svg width="244" height="22" viewBox="0 0 244 22" fill="none" xmlns="http://www.w3.org/2000/svg">
<path d="M2.25738 21.4609C1.69738 21.4609 1.28738 21.3909 1.02738 21.2509C0.767383 21.0909 0.637383 20.8709 0.637383 20.5909V1.51088C0.637383 0.770877 0.987383 0.400877 1.68738 0.400877H10.1474C12.6874 0.400877 14.5974 0.950878 15.8774 2.05088C17.1774 3.13088 17.8274 4.75088 17.8274 6.91088C17.8274 9.07088 17.1774 10.7009 15.8774 11.8009C14.5974 12.9009 12.6874 13.4509 10.1474 13.4509H4.62738V20.5909C4.62738 20.8709 4.49738 21.0909 4.23738 21.2509C3.99738 21.3909 3.58738 21.4609 3.00738 21.4609H2.25738ZM4.62738 10.0909H10.1474C11.4274 10.0909 12.3474 9.84088 12.9074 9.34088C13.4874 8.84088 13.7774 8.03088 13.7774 6.91088C13.7774 5.81088 13.4874 5.01088 12.9074 4.51088C12.3474 4.01088 11.4274 3.76088 10.1474 3.76088H4.62738V10.0909ZM22.224 21.4609C21.564 21.4609 21.124 21.4109 20.904 21.3109C20.684 21.1909 20.574 21.0409 20.574 20.8609C20.574 20.7809 20.584 20.7009 20.604 20.6209C20.624 20.5409 20.654 20.4509 20.694 20.3509L28.374 1.24088C28.514 0.880877 28.744 0.640877 29.064 0.520878C29.404 0.400878 29.854 0.340878 30.414 0.340878H31.914C32.474 0.340878 32.914 0.400878 33.234 0.520878C33.574 0.640877 33.814 0.880877 33.954 1.24088L41.634 20.3509C41.674 20.4509 41.694 20.5409 41.694 20.6209C41.714 20.7009 41.724 20.7809 41.724 20.8609C41.724 21.0409 41.604 21.1909 41.364 21.3109C41.144 21.4109 40.784 21.4609 40.284 21.4609H39.144C38.744 21.4609 38.404 21.4209 38.124 21.3409C37.864 21.2409 37.674 21.0409 37.554 20.7409L31.914 5.89088C31.774 5.53088 31.634 5.16088 31.494 4.78088C31.374 4.38088 31.274 4.01088 31.194 3.67088H31.104C31.024 3.99088 30.914 4.35088 30.774 4.75088C30.654 5.13088 30.514 5.51088 30.354 5.89088L24.624 20.7409C24.524 21.0409 24.354 21.2409 24.114 21.3409C23.894 21.4209 23.614 21.4609 23.274 21.4609H22.224ZM24.834 16.6609V13.5109H37.254V16.6609H24.834ZM54.3046 21.6109C53.1046 21.6109 52.0046 21.5309 51.0046 21.3709C50.0246 21.2109 49.1746 21.0109 48.4546 20.7709C47.7546 20.5109 47.2046 20.2809 46.8046 20.0809C46.5646 19.9409 46.3646 19.8009 46.2046 19.6609C46.0446 19.5209 45.9646 19.3509 45.9646 19.1509C45.9646 18.9509 45.9946 18.7209 46.0546 18.4609C46.1146 18.1809 46.1946 17.9109 46.2946 17.6509C46.4146 17.3909 46.5346 17.1809 46.6546 17.0209C46.7946 16.8409 46.9346 16.7509 47.0746 16.7509C47.2746 16.7509 47.7046 16.8809 48.3646 17.1409C49.0446 17.3809 49.8846 17.6309 50.8846 17.8909C51.9046 18.1309 53.0046 18.2509 54.1846 18.2509C55.1846 18.2509 55.9946 18.1609 56.6146 17.9809C57.2546 17.8009 57.7246 17.5209 58.0246 17.1409C58.3246 16.7609 58.4746 16.2809 58.4746 15.7009C58.4746 15.1809 58.3446 14.7509 58.0846 14.4109C57.8246 14.0509 57.4446 13.7609 56.9446 13.5409C56.4646 13.3009 55.9046 13.0909 55.2646 12.9109C54.6246 12.7309 53.9246 12.5509 53.1646 12.3709C52.4246 12.1909 51.6546 11.9809 50.8546 11.7409C50.0746 11.5009 49.3446 11.1709 48.6646 10.7509C47.9846 10.3109 47.4246 9.74088 46.9846 9.04088C46.5646 8.32088 46.3546 7.40088 46.3546 6.28088C46.3546 5.24088 46.5746 4.34088 47.0146 3.58088C47.4746 2.82088 48.0846 2.19088 48.8446 1.69088C49.6246 1.19088 50.5046 0.820878 51.4846 0.580879C52.4846 0.320879 53.5146 0.190878 54.5746 0.190878C55.4546 0.190878 56.3146 0.250878 57.1546 0.370878C57.9946 0.490878 58.7446 0.640877 59.4046 0.820877C60.0646 1.00088 60.5546 1.18088 60.8746 1.36088C61.0746 1.48088 61.2346 1.60088 61.3546 1.72088C61.4946 1.82088 61.5646 1.95088 61.5646 2.11088C61.5646 2.27088 61.5346 2.49088 61.4746 2.77088C61.4346 3.03088 61.3646 3.30088 61.2646 3.58088C61.1846 3.84088 61.0746 4.06088 60.9346 4.24088C60.8146 4.42088 60.6746 4.51088 60.5146 4.51088C60.2946 4.51088 59.9046 4.43088 59.3446 4.27088C58.8046 4.09088 58.1346 3.93088 57.3346 3.79088C56.5546 3.63088 55.6446 3.55088 54.6046 3.55088C53.6446 3.55088 52.8446 3.64088 52.2046 3.82088C51.5646 4.00088 51.0846 4.27088 50.7646 4.63088C50.4646 4.99088 50.3146 5.44088 50.3146 5.98088C50.3146 6.56088 50.5146 7.01088 50.9146 7.33088C51.3346 7.65088 51.8846 7.92088 52.5646 8.14088C53.2646 8.34088 54.0446 8.55088 54.9046 8.77088C55.7646 8.99088 56.6346 9.24088 57.5146 9.52088C58.3946 9.78088 59.2046 10.1309 59.9446 10.5709C60.6846 11.0109 61.2846 11.6109 61.7446 12.3709C62.2046 13.1309 62.4346 14.1109 62.4346 15.3109C62.4346 16.4109 62.2146 17.3609 61.7746 18.1609C61.3546 18.9609 60.7646 19.6209 60.0046 20.1409C59.2446 20.6409 58.3746 21.0109 57.3946 21.2509C56.4146 21.4909 55.3846 21.6109 54.3046 21.6109ZM79.3429 21.6109C75.4829 21.6109 72.5629 20.7009 70.5829 18.8809C68.6229 17.0609 67.6429 14.4009 67.6429 10.9009C67.6429 7.38088 68.6229 4.72088 70.5829 2.92088C72.5629 1.10088 75.4829 0.190878 79.3429 0.190878C83.1829 0.190878 86.0829 1.10088 88.0429 2.92088C90.0229 4.72088 91.0129 7.38088 91.0129 10.9009C91.0129 14.4009 90.0229 17.0609 88.0429 18.8809C86.0829 20.7009 83.1829 21.6109 79.3429 21.6109ZM79.3429 18.2509C81.8429 18.2509 83.7429 17.6709 85.0429 16.5109C86.3429 15.3309 86.9929 13.4509 86.9929 10.8709C86.9929 8.31088 86.3429 6.45088 85.0429 5.29088C83.7429 4.13088 81.8429 3.55088 79.3429 3.55088C76.8229 3.55088 74.9129 4.13088 73.6129 5.29088C72.3129 6.45088 71.6629 8.31088 71.6629 10.8709C71.6629 13.4509 72.3129 15.3309 73.6129 16.5109C74.9129 17.6709 76.8229 18.2509 79.3429 18.2509ZM107.788 21.4609C107.128 21.4609 106.688 21.4109 106.468 21.3109C106.248 21.1909 106.138 21.0409 106.138 20.8609C106.138 20.7809 106.148 20.7009 106.168 20.6209C106.188 20.5409 106.218 20.4509 106.258 20.3509L113.938 1.24088C114.078 0.880877 114.308 0.640877 114.628 0.520878C114.968 0.400878 115.418 0.340878 115.978 0.340878H117.478C118.038 0.340878 118.478 0.400878 118.798 0.520878C119.138 0.640877 119.378 0.880877 119.518 1.24088L127.198 20.3509C127.238 20.4509 127.258 20.5409 127.258 20.6209C127.278 20.7009 127.288 20.7809 127.288 20.8609C127.288 21.0409 127.168 21.1909 126.928 21.3109C126.708 21.4109 126.348 21.4609 125.848 21.4609H124.708C124.308 21.4609 123.968 21.4209 123.688 21.3409C123.428 21.2409 123.238 21.0409 123.118 20.7409L117.478 5.89088C117.338 5.53088 117.198 5.16088 117.058 4.78088C116.938 4.38088 116.838 4.01088 116.758 3.67088H116.668C116.588 3.99088 116.478 4.35088 116.338 4.75088C116.218 5.13088 116.078 5.51088 115.918 5.89088L110.188 20.7409C110.088 21.0409 109.918 21.2409 109.678 21.3409C109.458 21.4209 109.178 21.4609 108.838 21.4609H107.788ZM110.398 16.6609V13.5109H122.818V16.6609H110.398ZM145.396 21.4609C144.836 21.4609 144.426 21.3909 144.166 21.2509C143.906 21.0909 143.776 20.8709 143.776 20.5909V1.51088C143.776 0.770877 144.126 0.400877 144.826 0.400877H153.286C155.826 0.400877 157.736 0.950878 159.016 2.05088C160.316 3.13088 160.966 4.75088 160.966 6.91088C160.966 9.07088 160.316 10.7009 159.016 11.8009C157.736 12.9009 155.826 13.4509 153.286 13.4509H147.766V20.5909C147.766 20.8709 147.636 21.0909 147.376 21.2509C147.136 21.3909 146.726 21.4609 146.146 21.4609H145.396ZM147.766 10.0909H153.286C154.566 10.0909 155.486 9.84088 156.046 9.34088C156.626 8.84088 156.916 8.03088 156.916 6.91088C156.916 5.81088 156.626 5.01088 156.046 4.51088C155.486 4.01088 154.566 3.76088 153.286 3.76088H147.766V10.0909ZM165.363 21.4609C164.703 21.4609 164.263 21.4109 164.043 21.3109C163.823 21.1909 163.713 21.0409 163.713 20.8609C163.713 20.7809 163.723 20.7009 163.743 20.6209C163.763 20.5409 163.793 20.4509 163.833 20.3509L171.513 1.24088C171.653 0.880877 171.883 0.640877 172.203 0.520878C172.543 0.400878 172.993 0.340878 173.553 0.340878H175.053C175.613 0.340878 176.053 0.400878 176.373 0.520878C176.713 0.640877 176.953 0.880877 177.093 1.24088L184.773 20.3509C184.813 20.4509 184.833 20.5409 184.833 20.6209C184.853 20.7009 184.863 20.7809 184.863 20.8609C184.863 21.0409 184.743 21.1909 184.503 21.3109C184.283 21.4109 183.923 21.4609 183.423 21.4609H182.283C181.883 21.4609 181.543 21.4209 181.263 21.3409C181.003 21.2409 180.813 21.0409 180.693 20.7409L175.053 5.89088C174.913 5.53088 174.773 5.16088 174.633 4.78088C174.513 4.38088 174.413 4.01088 174.333 3.67088H174.243C174.163 3.99088 174.053 4.35088 173.913 4.75088C173.793 5.13088 173.653 5.51088 173.493 5.89088L167.763 20.7409C167.663 21.0409 167.493 21.2409 167.253 21.3409C167.033 21.4209 166.753 21.4609 166.413 21.4609H165.363ZM167.973 16.6609V13.5109H180.393V16.6609H167.973ZM197.443 21.6109C196.243 21.6109 195.143 21.5309 194.143 21.3709C193.163 21.2109 192.313 21.0109 191.593 20.7709C190.893 20.5109 190.343 20.2809 189.943 20.0809C189.703 19.9409 189.503 19.8009 189.343 19.6609C189.183 19.5209 189.103 19.3509 189.103 19.1509C189.103 18.9509 189.133 18.7209 189.193 18.4609C189.253 18.1809 189.333 17.9109 189.433 17.6509C189.553 17.3909 189.673 17.1809 189.793 17.0209C189.933 16.8409 190.073 16.7509 190.213 16.7509C190.413 16.7509 190.843 16.8809 191.503 17.1409C192.183 17.3809 193.023 17.6309 194.023 17.8909C195.043 18.1309 196.143 18.2509 197.323 18.2509C198.323 18.2509 199.133 18.1609 199.753 17.9809C200.393 17.8009 200.863 17.5209 201.163 17.1409C201.463 16.7609 201.613 16.2809 201.613 15.7009C201.613 15.1809 201.483 14.7509 201.223 14.4109C200.963 14.0509 200.583 13.7609 200.083 13.5409C199.603 13.3009 199.043 13.0909 198.403 12.9109C197.763 12.7309 197.063 12.5509 196.303 12.3709C195.563 12.1909 194.793 11.9809 193.993 11.7409C193.213 11.5009 192.483 11.1709 191.803 10.7509C191.123 10.3109 190.563 9.74088 190.123 9.04088C189.703 8.32088 189.493 7.40088 189.493 6.28088C189.493 5.24088 189.713 4.34088 190.153 3.58088C190.613 2.82088 191.223 2.19088 191.983 1.69088C192.763 1.19088 193.643 0.820878 194.623 0.580879C195.623 0.320879 196.653 0.190878 197.713 0.190878C198.593 0.190878 199.453 0.250878 200.293 0.370878C201.133 0.490878 201.883 0.640877 202.543 0.820877C203.203 1.00088 203.693 1.18088 204.013 1.36088C204.213 1.48088 204.373 1.60088 204.493 1.72088C204.633 1.82088 204.703 1.95088 204.703 2.11088C204.703 2.27088 204.673 2.49088 204.613 2.77088C204.573 3.03088 204.503 3.30088 204.403 3.58088C204.323 3.84088 204.213 4.06088 204.073 4.24088C203.953 4.42088 203.813 4.51088 203.653 4.51088C203.433 4.51088 203.043 4.43088 202.483 4.27088C201.943 4.09088 201.273 3.93088 200.473 3.79088C199.693 3.63088 198.783 3.55088 197.743 3.55088C196.783 3.55088 195.983 3.64088 195.343 3.82088C194.703 4.00088 194.223 4.27088 193.903 4.63088C193.603 4.99088 193.453 5.44088 193.453 5.98088C193.453 6.56088 193.653 7.01088 194.053 7.33088C194.473 7.65088 195.023 7.92088 195.703 8.14088C196.403 8.34088 197.183 8.55088 198.043 8.77088C198.903 8.99088 199.773 9.24088 200.653 9.52088C201.533 9.78088 202.343 10.1309 203.083 10.5709C203.823 11.0109 204.423 11.6109 204.883 12.3709C205.343 13.1309 205.573 14.1109 205.573 15.3109C205.573 16.4109 205.353 17.3609 204.913 18.1609C204.493 18.9609 203.903 19.6209 203.143 20.1409C202.383 20.6409 201.513 21.0109 200.533 21.2509C199.553 21.4909 198.523 21.6109 197.443 21.6109ZM222.482 21.6109C218.622 21.6109 215.702 20.7009 213.722 18.8809C211.762 17.0609 210.782 14.4009 210.782 10.9009C210.782 7.38088 211.762 4.72088 213.722 2.92088C215.702 1.10088 218.622 0.190878 222.482 0.190878C226.322 0.190878 229.222 1.10088 231.182 2.92088C233.162 4.72088 234.152 7.38088 234.152 10.9009C234.152 14.4009 233.162 17.0609 231.182 18.8809C229.222 20.7009 226.322 21.6109 222.482 21.6109ZM222.482 18.2509C224.982 18.2509 226.882 17.6709 228.182 16.5109C229.482 15.3309 230.132 13.4509 230.132 10.8709C230.132 8.31088 229.482 6.45088 228.182 5.29088C226.882 4.13088 224.982 3.55088 222.482 3.55088C219.962 3.55088 218.052 4.13088 216.752 5.29088C215.452 6.45088 214.802 8.31088 214.802 10.8709C214.802 13.4509 215.452 15.3309 216.752 16.5109C218.052 17.6709 219.962 18.2509 222.482 18.2509ZM241.214 21.4609C240.654 21.4609 240.244 21.3909 239.984 21.2509C239.724 21.0909 239.594 20.8709 239.594 20.5909V18.1009C239.594 17.8209 239.724 17.6109 239.984 17.4709C240.244 17.3309 240.654 17.2609 241.214 17.2609H241.994C242.574 17.2609 242.984 17.3309 243.224 17.4709C243.484 17.6109 243.614 17.8209 243.614 18.1009V20.5909C243.614 20.8709 243.484 21.0909 243.224 21.2509C242.984 21.3909 242.574 21.4609 241.994 21.4609H241.214Z" fill="#F9F9F9"/>
</svg>
