<svg width="476" height="22" viewBox="0 0 476 22" fill="none" xmlns="http://www.w3.org/2000/svg">
<path d="M1.7093 21.4008C1.2693 21.4008 0.949297 21.3408 0.749297 21.2208C0.569297 21.1008 0.479297 20.9408 0.479297 20.7408V1.24082C0.479297 0.640819 0.789297 0.340819 1.4093 0.340819H9.8993C12.2593 0.340819 14.0293 0.850819 15.2093 1.87082C16.4093 2.87082 17.0093 4.37082 17.0093 6.37082C17.0093 8.37082 16.4093 9.88082 15.2093 10.9008C14.0293 11.9008 12.2593 12.4008 9.8993 12.4008H3.1793V20.7408C3.1793 20.9408 3.0893 21.1008 2.9093 21.2208C2.7293 21.3408 2.4093 21.4008 1.9493 21.4008H1.7093ZM3.1793 10.1208H9.8993C11.4393 10.1208 12.5493 9.83082 13.2293 9.25082C13.9293 8.65082 14.2793 7.69082 14.2793 6.37082C14.2793 5.05082 13.9293 4.10082 13.2293 3.52082C12.5493 2.92082 11.4393 2.62082 9.8993 2.62082H3.1793V10.1208ZM25.2171 21.4008C24.7771 21.4008 24.4571 21.3408 24.2571 21.2208C24.0771 21.1008 23.9871 20.9408 23.9871 20.7408V1.24082C23.9871 0.640819 24.2971 0.340819 24.9171 0.340819H33.4071C35.7671 0.340819 37.5371 0.840819 38.7171 1.84082C39.9171 2.84082 40.5171 4.35082 40.5171 6.37082C40.5171 7.15082 40.3671 7.88082 40.0671 8.56082C39.7671 9.22082 39.3571 9.78082 38.8371 10.2408C38.3371 10.7008 37.7471 11.0008 37.0671 11.1408V11.2608C37.7071 11.4608 38.2171 11.8808 38.5971 12.5208C38.9971 13.1608 39.3871 13.9508 39.7671 14.8908L42.1071 20.5008C42.1471 20.5808 42.1671 20.6608 42.1671 20.7408C42.1871 20.8208 42.1971 20.8808 42.1971 20.9208C42.1971 21.0608 42.0971 21.1808 41.8971 21.2808C41.6971 21.3608 41.3771 21.4008 40.9371 21.4008H40.6371C40.3371 21.4008 40.0771 21.3508 39.8571 21.2508C39.6371 21.1508 39.4771 21.0008 39.3771 20.8008L37.1571 15.3408C36.8571 14.5608 36.5471 13.9608 36.2271 13.5408C35.9071 13.1208 35.5271 12.8308 35.0871 12.6708C34.6471 12.4908 34.0871 12.4008 33.4071 12.4008H26.6871V20.7408C26.6871 20.9408 26.5971 21.1008 26.4171 21.2208C26.2371 21.3408 25.9171 21.4008 25.4571 21.4008H25.2171ZM26.6871 10.1208H33.4071C34.9471 10.1208 36.0571 9.83082 36.7371 9.25082C37.4371 8.65082 37.7871 7.69082 37.7871 6.37082C37.7871 5.05082 37.4371 4.10082 36.7371 3.52082C36.0571 2.92082 34.9471 2.62082 33.4071 2.62082H26.6871V10.1208ZM49.8898 21.3408C49.2698 21.3408 48.9598 21.0408 48.9598 20.4408V1.24082C48.9598 0.640819 49.2698 0.340819 49.8898 0.340819H63.5998C63.9998 0.340819 64.1998 0.640819 64.1998 1.24082V1.72082C64.1998 2.32082 63.9998 2.62082 63.5998 2.62082H51.6598V9.46082H62.6998C63.0998 9.46082 63.2998 9.76082 63.2998 10.3608V10.8408C63.2998 11.4408 63.0998 11.7408 62.6998 11.7408H51.6598V19.0608H63.6298C64.0298 19.0608 64.2298 19.3608 64.2298 19.9608V20.4408C64.2298 21.0408 64.0298 21.3408 63.6298 21.3408H49.8898ZM82.2818 21.5208C78.3218 21.5208 75.3418 20.6208 73.3418 18.8208C71.3418 17.0208 70.3418 14.3408 70.3418 10.7808C70.3418 7.26082 71.3418 4.61082 73.3418 2.83082C75.3418 1.05082 78.3218 0.160819 82.2818 0.160819C82.7618 0.160819 83.3118 0.19082 83.9318 0.25082C84.5518 0.310819 85.1718 0.390819 85.7918 0.490819C86.4318 0.590819 87.0018 0.710819 87.5018 0.850819C88.0218 0.970819 88.4118 1.10082 88.6718 1.24082C88.8918 1.38082 89.0618 1.52082 89.1818 1.66082C89.3218 1.78082 89.3918 1.90082 89.3918 2.02082C89.3918 2.14082 89.3618 2.29082 89.3018 2.47082C89.2418 2.63082 89.1618 2.80082 89.0618 2.98082C88.9618 3.14082 88.8518 3.28082 88.7318 3.40082C88.6118 3.50082 88.4918 3.55082 88.3718 3.55082C88.2518 3.55082 88.0318 3.50082 87.7118 3.40082C87.4118 3.28082 87.0118 3.15082 86.5118 3.01082C86.0118 2.85082 85.4118 2.72082 84.7118 2.62082C84.0118 2.50082 83.2018 2.44082 82.2818 2.44082C79.2218 2.44082 76.9218 3.14082 75.3818 4.54082C73.8418 5.94082 73.0718 8.02082 73.0718 10.7808C73.0718 12.6408 73.4118 14.2008 74.0918 15.4608C74.7918 16.7208 75.8218 17.6708 77.1818 18.3108C78.5418 18.9308 80.2418 19.2408 82.2818 19.2408C83.0218 19.2408 83.7518 19.2008 84.4718 19.1208C85.1918 19.0408 85.8318 18.9308 86.3918 18.7908C86.9518 18.6308 87.3618 18.4608 87.6218 18.2808L87.2618 19.8708V12.1908H81.9518C81.5518 12.1908 81.3518 11.8908 81.3518 11.2908V10.8408C81.3518 10.2408 81.5518 9.94082 81.9518 9.94082H88.9718C89.5918 9.94082 89.9018 10.2408 89.9018 10.8408V19.0008C89.9018 19.3208 89.8518 19.5508 89.7518 19.6908C89.6718 19.8308 89.5218 19.9608 89.3018 20.0808C88.7618 20.3608 88.0918 20.6108 87.2918 20.8308C86.4918 21.0508 85.6518 21.2208 84.7718 21.3408C83.9118 21.4608 83.0818 21.5208 82.2818 21.5208ZM108.252 21.5208C105.252 21.5208 102.982 20.9408 101.442 19.7808C99.9024 18.6008 99.1324 16.8808 99.1324 14.6208V0.94082C99.1324 0.720819 99.2224 0.560819 99.4024 0.460819C99.6024 0.340819 99.9224 0.28082 100.362 0.28082H100.602C101.062 0.28082 101.382 0.340819 101.562 0.460819C101.742 0.560819 101.832 0.720819 101.832 0.94082V14.7108C101.832 16.1908 102.372 17.3208 103.452 18.1008C104.552 18.8608 106.152 19.2408 108.252 19.2408C110.392 19.2408 112.002 18.8608 113.082 18.1008C114.182 17.3208 114.732 16.1908 114.732 14.7108V0.94082C114.732 0.720819 114.822 0.560819 115.002 0.460819C115.202 0.340819 115.522 0.28082 115.962 0.28082H116.202C116.662 0.28082 116.982 0.340819 117.162 0.460819C117.342 0.560819 117.432 0.720819 117.432 0.94082V14.6208C117.432 16.8808 116.652 18.6008 115.092 19.7808C113.552 20.9408 111.272 21.5208 108.252 21.5208ZM128.272 21.4008C127.832 21.4008 127.512 21.3408 127.312 21.2208C127.132 21.1008 127.042 20.9408 127.042 20.7408V0.94082C127.042 0.720819 127.132 0.560819 127.312 0.460819C127.512 0.340819 127.832 0.28082 128.272 0.28082H129.022C129.282 0.28082 129.492 0.300819 129.652 0.340819C129.832 0.38082 129.992 0.44082 130.132 0.52082C130.272 0.600819 130.392 0.710819 130.492 0.850819L142.042 16.2708C142.182 16.4508 142.332 16.6608 142.492 16.9008C142.652 17.1408 142.782 17.3708 142.882 17.5908L143.002 17.5608C142.982 17.4008 142.962 17.1908 142.942 16.9308C142.942 16.6508 142.942 16.3808 142.942 16.1208V0.94082C142.942 0.720819 143.032 0.560819 143.212 0.460819C143.412 0.340819 143.732 0.28082 144.172 0.28082H144.412C144.872 0.28082 145.192 0.340819 145.372 0.460819C145.552 0.560819 145.642 0.720819 145.642 0.94082V20.7408C145.642 20.9408 145.552 21.1008 145.372 21.2208C145.192 21.3408 144.872 21.4008 144.412 21.4008H143.692C143.412 21.4008 143.172 21.3808 142.972 21.3408C142.792 21.3008 142.642 21.2408 142.522 21.1608C142.402 21.0808 142.292 20.9808 142.192 20.8608L130.462 5.23082C130.362 5.09082 130.242 4.92082 130.102 4.72082C129.962 4.50082 129.842 4.29082 129.742 4.09082L129.622 4.12082C129.662 4.32082 129.692 4.56082 129.712 4.84082C129.732 5.10082 129.742 5.34082 129.742 5.56082V20.7408C129.742 20.9408 129.652 21.1008 129.472 21.2208C129.292 21.3408 128.972 21.4008 128.512 21.4008H128.272ZM161.77 21.4008C161.37 21.4008 161.08 21.3408 160.9 21.2208C160.72 21.1008 160.63 20.9408 160.63 20.7408V2.62082H153.4C153.02 2.62082 152.83 2.32082 152.83 1.72082V1.24082C152.83 0.640819 153.02 0.340819 153.4 0.340819H170.5C170.9 0.340819 171.1 0.640819 171.1 1.24082V1.72082C171.1 2.32082 170.9 2.62082 170.5 2.62082H163.33V20.7408C163.33 20.9408 163.24 21.1008 163.06 21.2208C162.88 21.3408 162.59 21.4008 162.19 21.4008H161.77ZM174.433 21.4008C173.993 21.4008 173.663 21.3608 173.443 21.2808C173.243 21.1808 173.143 21.0508 173.143 20.8908C173.143 20.8308 173.143 20.7708 173.143 20.7108C173.163 20.6308 173.193 20.5508 173.233 20.4708L181.483 0.910819C181.583 0.690819 181.753 0.530819 181.993 0.43082C182.233 0.33082 182.563 0.28082 182.983 0.28082H183.973C184.393 0.28082 184.723 0.33082 184.963 0.43082C185.223 0.530819 185.393 0.690819 185.473 0.910819L193.723 20.5008C193.763 20.5808 193.783 20.6508 193.783 20.7108C193.803 20.7708 193.813 20.8308 193.813 20.8908C193.813 21.0308 193.713 21.1508 193.513 21.2508C193.313 21.3508 192.983 21.4008 192.523 21.4008H192.253C191.933 21.4008 191.663 21.3708 191.443 21.3108C191.243 21.2508 191.093 21.0908 190.993 20.8308L184.483 4.90082C184.323 4.50082 184.143 4.04082 183.943 3.52082C183.763 3.00082 183.623 2.54082 183.523 2.14082H183.463C183.383 2.48082 183.233 2.91082 183.013 3.43082C182.813 3.95082 182.623 4.44082 182.443 4.90082L175.873 20.8308C175.773 21.0908 175.613 21.2508 175.393 21.3108C175.193 21.3708 174.943 21.4008 174.643 21.4008H174.433ZM177.133 15.9408V13.7208H189.703V15.9408H177.133ZM206.304 21.5208C205.224 21.5208 204.204 21.4308 203.244 21.2508C202.304 21.0708 201.484 20.8608 200.784 20.6208C200.084 20.3808 199.574 20.1708 199.254 19.9908C199.074 19.8908 198.914 19.7808 198.774 19.6608C198.654 19.5208 198.594 19.3808 198.594 19.2408C198.594 19.1408 198.614 19.0108 198.654 18.8508C198.694 18.6708 198.744 18.4908 198.804 18.3108C198.884 18.1308 198.964 17.9808 199.044 17.8608C199.144 17.7408 199.254 17.6808 199.374 17.6808C199.574 17.6808 199.984 17.8108 200.604 18.0708C201.244 18.3308 202.044 18.5908 203.004 18.8508C203.984 19.1108 205.084 19.2408 206.304 19.2408C207.524 19.2408 208.534 19.1108 209.334 18.8508C210.154 18.5908 210.764 18.2008 211.164 17.6808C211.584 17.1408 211.794 16.4908 211.794 15.7308C211.794 15.0708 211.644 14.5308 211.344 14.1108C211.044 13.6708 210.624 13.3208 210.084 13.0608C209.564 12.8008 208.964 12.5808 208.284 12.4008C207.624 12.2208 206.934 12.0608 206.214 11.9208C205.354 11.7408 204.494 11.5408 203.634 11.3208C202.794 11.0808 202.024 10.7608 201.324 10.3608C200.624 9.94082 200.054 9.39082 199.614 8.71082C199.194 8.01082 198.984 7.11082 198.984 6.01082C198.984 5.17082 199.174 4.39082 199.554 3.67082C199.934 2.95082 200.474 2.33082 201.174 1.81082C201.874 1.29082 202.694 0.890819 203.634 0.610819C204.594 0.310819 205.634 0.160819 206.754 0.160819C207.654 0.160819 208.504 0.220819 209.304 0.340819C210.104 0.440819 210.814 0.580819 211.434 0.760819C212.054 0.940819 212.534 1.12082 212.874 1.30082C213.054 1.38082 213.194 1.46082 213.294 1.54082C213.394 1.62082 213.444 1.74082 213.444 1.90082C213.444 2.02082 213.424 2.17082 213.384 2.35082C213.364 2.53082 213.324 2.72082 213.264 2.92082C213.204 3.10082 213.124 3.26082 213.024 3.40082C212.944 3.52082 212.854 3.58082 212.754 3.58082C212.554 3.58082 212.204 3.49082 211.704 3.31082C211.204 3.11082 210.544 2.92082 209.724 2.74082C208.904 2.54082 207.894 2.44082 206.694 2.44082C205.554 2.44082 204.614 2.58082 203.874 2.86082C203.134 3.14082 202.574 3.54082 202.194 4.06082C201.834 4.58082 201.654 5.20082 201.654 5.92082C201.654 6.70082 201.884 7.31082 202.344 7.75082C202.824 8.19082 203.464 8.54082 204.264 8.80082C205.084 9.04082 206.014 9.28082 207.054 9.52082C207.934 9.70082 208.804 9.92082 209.664 10.1808C210.544 10.4208 211.344 10.7508 212.064 11.1708C212.784 11.5908 213.364 12.1708 213.804 12.9108C214.244 13.6308 214.464 14.5608 214.464 15.7008C214.464 16.6008 214.274 17.4108 213.894 18.1308C213.534 18.8508 212.994 19.4708 212.274 19.9908C211.574 20.4908 210.714 20.8708 209.694 21.1308C208.694 21.3908 207.564 21.5208 206.304 21.5208ZM233.149 21.4008C232.589 21.4008 232.179 21.3308 231.919 21.1908C231.659 21.0308 231.529 20.8108 231.529 20.5308V1.45082C231.529 0.710819 231.879 0.340819 232.579 0.340819H245.209C245.729 0.340819 245.989 0.770819 245.989 1.63082V2.41082C245.989 3.27082 245.729 3.70082 245.209 3.70082H235.519V10.0008H244.879C245.399 10.0008 245.659 10.4308 245.659 11.2908V12.0708C245.659 12.9308 245.399 13.3608 244.879 13.3608H235.519V20.5308C235.519 20.8108 235.389 21.0308 235.129 21.1908C234.889 21.3308 234.479 21.4008 233.899 21.4008H233.149ZM254.225 21.4008C253.665 21.4008 253.255 21.3308 252.995 21.1908C252.735 21.0308 252.605 20.8108 252.605 20.5308V1.45082C252.605 0.710819 252.955 0.340819 253.655 0.340819H262.115C264.655 0.340819 266.565 0.880819 267.845 1.96082C269.145 3.02082 269.795 4.56082 269.795 6.58082C269.795 7.32082 269.655 8.03082 269.375 8.71082C269.095 9.37082 268.685 9.95082 268.145 10.4508C267.625 10.9308 266.985 11.2808 266.225 11.5008V11.6208C266.705 11.7808 267.135 12.1008 267.515 12.5808C267.915 13.0408 268.255 13.6208 268.535 14.3208L270.965 19.9908C271.045 20.1508 271.105 20.3108 271.145 20.4708C271.185 20.6108 271.205 20.7208 271.205 20.8008C271.205 21.0208 271.085 21.1808 270.845 21.2808C270.605 21.3608 270.195 21.4008 269.615 21.4008H268.715C268.315 21.4008 267.975 21.3508 267.695 21.2508C267.415 21.1308 267.205 20.9108 267.065 20.5908L264.905 15.5508C264.665 14.9508 264.425 14.4808 264.185 14.1408C263.945 13.8008 263.635 13.5608 263.255 13.4208C262.895 13.2608 262.395 13.1808 261.755 13.1808H256.595V20.5308C256.595 20.8108 256.465 21.0308 256.205 21.1908C255.965 21.3308 255.555 21.4008 254.975 21.4008H254.225ZM256.595 10.0308H262.115C263.395 10.0308 264.315 9.78082 264.875 9.28082C265.455 8.78082 265.745 7.97082 265.745 6.85082C265.745 5.75082 265.455 4.95082 264.875 4.45082C264.315 3.95082 263.395 3.70082 262.115 3.70082H256.595V10.0308ZM278.628 21.3408C277.928 21.3408 277.578 20.9708 277.578 20.2308V1.45082C277.578 0.710819 277.928 0.340819 278.628 0.340819H292.818C293.338 0.340819 293.598 0.770819 293.598 1.63082V2.41082C293.598 3.27082 293.338 3.70082 292.818 3.70082H281.568V8.92082H291.978C292.498 8.92082 292.758 9.35082 292.758 10.2108V10.9908C292.758 11.8508 292.498 12.2808 291.978 12.2808H281.568V17.9808H292.848C293.368 17.9808 293.628 18.4108 293.628 19.2708V20.0508C293.628 20.9108 293.368 21.3408 292.848 21.3408H278.628ZM310.96 21.5508C307.14 21.5508 304.28 20.6508 302.38 18.8508C300.5 17.0508 299.56 14.3708 299.56 10.8108C299.56 7.27082 300.54 4.61082 302.5 2.83082C304.46 1.03082 307.38 0.13082 311.26 0.13082C312.06 0.13082 312.85 0.18082 313.63 0.28082C314.41 0.38082 315.13 0.530819 315.79 0.730819C316.45 0.910819 317 1.11082 317.44 1.33082C317.82 1.51082 318.09 1.68082 318.25 1.84082C318.43 1.98082 318.52 2.16082 318.52 2.38082C318.52 2.52082 318.48 2.71082 318.4 2.95082C318.34 3.17082 318.26 3.40082 318.16 3.64082C318.06 3.88082 317.93 4.08082 317.77 4.24082C317.63 4.40082 317.48 4.48082 317.32 4.48082C317.1 4.48082 316.73 4.40082 316.21 4.24082C315.71 4.08082 315.05 3.92082 314.23 3.76082C313.43 3.58082 312.44 3.49082 311.26 3.49082C309.56 3.49082 308.14 3.72082 307 4.18082C305.86 4.64082 305 5.41082 304.42 6.49082C303.86 7.55082 303.58 8.99082 303.58 10.8108C303.58 12.6508 303.86 14.1108 304.42 15.1908C305 16.2508 305.86 17.0208 307 17.5008C308.14 17.9608 309.56 18.1908 311.26 18.1908C312.22 18.1908 313.07 18.1308 313.81 18.0108C314.55 17.8708 315.19 17.7208 315.73 17.5608C316.27 17.4008 316.71 17.2608 317.05 17.1408C317.41 17.0008 317.68 16.9308 317.86 16.9308C318.02 16.9308 318.16 17.0208 318.28 17.2008C318.42 17.3808 318.53 17.6008 318.61 17.8608C318.69 18.1008 318.75 18.3408 318.79 18.5808C318.85 18.8208 318.88 19.0108 318.88 19.1508C318.88 19.4108 318.81 19.6008 318.67 19.7208C318.55 19.8208 318.31 19.9608 317.95 20.1408C317.33 20.4208 316.64 20.6808 315.88 20.9208C315.12 21.1408 314.32 21.3008 313.48 21.4008C312.64 21.5008 311.8 21.5508 310.96 21.5508ZM335.567 21.5508C332.467 21.5508 330.067 20.9108 328.367 19.6308C326.667 18.3508 325.817 16.5508 325.817 14.2308V1.15082C325.817 0.870819 325.947 0.66082 326.207 0.52082C326.467 0.36082 326.877 0.28082 327.437 0.28082H328.187C328.767 0.28082 329.177 0.36082 329.417 0.52082C329.677 0.66082 329.807 0.870819 329.807 1.15082V14.0508C329.807 15.3708 330.307 16.3908 331.307 17.1108C332.307 17.8308 333.737 18.1908 335.597 18.1908C337.457 18.1908 338.887 17.8308 339.887 17.1108C340.887 16.3908 341.387 15.3708 341.387 14.0508V1.15082C341.387 0.870819 341.517 0.66082 341.777 0.52082C342.037 0.36082 342.447 0.28082 343.007 0.28082H343.757C344.337 0.28082 344.747 0.36082 344.987 0.52082C345.247 0.66082 345.377 0.870819 345.377 1.15082V14.2308C345.377 16.5508 344.527 18.3508 342.827 19.6308C341.127 20.9108 338.707 21.5508 335.567 21.5508ZM354.776 21.3408C354.076 21.3408 353.726 20.9708 353.726 20.2308V1.45082C353.726 0.710819 354.076 0.340819 354.776 0.340819H368.966C369.486 0.340819 369.746 0.770819 369.746 1.63082V2.41082C369.746 3.27082 369.486 3.70082 368.966 3.70082H357.716V8.92082H368.126C368.646 8.92082 368.906 9.35082 368.906 10.2108V10.9908C368.906 11.8508 368.646 12.2808 368.126 12.2808H357.716V17.9808H368.996C369.516 17.9808 369.776 18.4108 369.776 19.2708V20.0508C369.776 20.9108 369.516 21.3408 368.996 21.3408H354.776ZM378.678 21.4008C378.118 21.4008 377.708 21.3308 377.448 21.1908C377.188 21.0308 377.058 20.8108 377.058 20.5308V1.15082C377.058 0.870819 377.188 0.66082 377.448 0.52082C377.708 0.36082 378.118 0.28082 378.678 0.28082H379.608C379.908 0.28082 380.168 0.310819 380.388 0.370818C380.628 0.410819 380.838 0.490819 381.018 0.610819C381.198 0.730819 381.378 0.900819 381.558 1.12082L391.878 13.8108C392.138 14.1308 392.388 14.4908 392.628 14.8908C392.868 15.2708 393.048 15.5908 393.168 15.8508L393.288 15.8208C393.268 15.5408 393.238 15.2308 393.198 14.8908C393.178 14.5308 393.168 14.1608 393.168 13.7808V1.15082C393.168 0.870819 393.288 0.66082 393.528 0.52082C393.788 0.36082 394.198 0.28082 394.758 0.28082H395.298C395.878 0.28082 396.288 0.36082 396.528 0.52082C396.788 0.66082 396.918 0.870819 396.918 1.15082V20.5308C396.918 20.8108 396.788 21.0308 396.528 21.1908C396.288 21.3308 395.878 21.4008 395.298 21.4008H394.368C394.088 21.4008 393.838 21.3808 393.618 21.3408C393.398 21.3008 393.208 21.2308 393.048 21.1308C392.888 21.0108 392.738 20.8608 392.598 20.6808L382.038 7.72082C381.798 7.42082 381.558 7.08082 381.318 6.70082C381.098 6.32082 380.918 6.00082 380.778 5.74082L380.658 5.77082C380.698 6.05082 380.728 6.37082 380.748 6.73082C380.788 7.07082 380.808 7.43082 380.808 7.81082V20.5308C380.808 20.8108 380.688 21.0308 380.448 21.1908C380.208 21.3308 379.798 21.4008 379.218 21.4008H378.678ZM412.207 21.4008C411.647 21.4008 411.237 21.3308 410.977 21.1908C410.737 21.0308 410.617 20.8108 410.617 20.5308V3.70082H404.017C403.497 3.70082 403.237 3.27082 403.237 2.41082V1.63082C403.237 0.770819 403.497 0.340819 404.017 0.340819H421.177C421.717 0.340819 421.987 0.770819 421.987 1.63082V2.41082C421.987 3.27082 421.717 3.70082 421.177 3.70082H414.607V20.5308C414.607 20.8108 414.477 21.0308 414.217 21.1908C413.977 21.3308 413.577 21.4008 413.017 21.4008H412.207ZM429.372 21.3408C428.672 21.3408 428.322 20.9708 428.322 20.2308V1.45082C428.322 0.710819 428.672 0.340819 429.372 0.340819H443.562C444.082 0.340819 444.342 0.770819 444.342 1.63082V2.41082C444.342 3.27082 444.082 3.70082 443.562 3.70082H432.312V8.92082H442.722C443.242 8.92082 443.502 9.35082 443.502 10.2108V10.9908C443.502 11.8508 443.242 12.2808 442.722 12.2808H432.312V17.9808H443.592C444.112 17.9808 444.372 18.4108 444.372 19.2708V20.0508C444.372 20.9108 444.112 21.3408 443.592 21.3408H429.372ZM457.954 21.5508C456.754 21.5508 455.654 21.4708 454.654 21.3108C453.674 21.1508 452.824 20.9508 452.104 20.7108C451.404 20.4508 450.854 20.2208 450.454 20.0208C450.214 19.8808 450.014 19.7408 449.854 19.6008C449.694 19.4608 449.614 19.2908 449.614 19.0908C449.614 18.8908 449.644 18.6608 449.704 18.4008C449.764 18.1208 449.844 17.8508 449.944 17.5908C450.064 17.3308 450.184 17.1208 450.304 16.9608C450.444 16.7808 450.584 16.6908 450.724 16.6908C450.924 16.6908 451.354 16.8208 452.014 17.0808C452.694 17.3208 453.534 17.5708 454.534 17.8308C455.554 18.0708 456.654 18.1908 457.834 18.1908C458.834 18.1908 459.644 18.1008 460.264 17.9208C460.904 17.7408 461.374 17.4608 461.674 17.0808C461.974 16.7008 462.124 16.2208 462.124 15.6408C462.124 15.1208 461.994 14.6908 461.734 14.3508C461.474 13.9908 461.094 13.7008 460.594 13.4808C460.114 13.2408 459.554 13.0308 458.914 12.8508C458.274 12.6708 457.574 12.4908 456.814 12.3108C456.074 12.1308 455.304 11.9208 454.504 11.6808C453.724 11.4408 452.994 11.1108 452.314 10.6908C451.634 10.2508 451.074 9.68082 450.634 8.98082C450.214 8.26082 450.004 7.34082 450.004 6.22082C450.004 5.18082 450.224 4.28082 450.664 3.52082C451.124 2.76082 451.734 2.13082 452.494 1.63082C453.274 1.13082 454.154 0.760819 455.134 0.52082C456.134 0.26082 457.164 0.13082 458.224 0.13082C459.104 0.13082 459.964 0.19082 460.804 0.310819C461.644 0.430819 462.394 0.580819 463.054 0.760819C463.714 0.940819 464.204 1.12082 464.524 1.30082C464.724 1.42082 464.884 1.54082 465.004 1.66082C465.144 1.76082 465.214 1.89082 465.214 2.05082C465.214 2.21082 465.184 2.43082 465.124 2.71082C465.084 2.97082 465.014 3.24082 464.914 3.52082C464.834 3.78082 464.724 4.00082 464.584 4.18082C464.464 4.36082 464.324 4.45082 464.164 4.45082C463.944 4.45082 463.554 4.37082 462.994 4.21082C462.454 4.03082 461.784 3.87082 460.984 3.73082C460.204 3.57082 459.294 3.49082 458.254 3.49082C457.294 3.49082 456.494 3.58082 455.854 3.76082C455.214 3.94082 454.734 4.21082 454.414 4.57082C454.114 4.93082 453.964 5.38082 453.964 5.92082C453.964 6.50082 454.164 6.95082 454.564 7.27082C454.984 7.59082 455.534 7.86082 456.214 8.08082C456.914 8.28082 457.694 8.49082 458.554 8.71082C459.414 8.93082 460.284 9.18082 461.164 9.46082C462.044 9.72082 462.854 10.0708 463.594 10.5108C464.334 10.9508 464.934 11.5508 465.394 12.3108C465.854 13.0708 466.084 14.0508 466.084 15.2508C466.084 16.3508 465.864 17.3008 465.424 18.1008C465.004 18.9008 464.414 19.5608 463.654 20.0808C462.894 20.5808 462.024 20.9508 461.044 21.1908C460.064 21.4308 459.034 21.5508 457.954 21.5508ZM473.002 21.4008C472.442 21.4008 472.032 21.3308 471.772 21.1908C471.512 21.0308 471.382 20.8108 471.382 20.5308V18.0408C471.382 17.7608 471.512 17.5508 471.772 17.4108C472.032 17.2708 472.442 17.2008 473.002 17.2008H473.782C474.362 17.2008 474.772 17.2708 475.012 17.4108C475.272 17.5508 475.402 17.7608 475.402 18.0408V20.5308C475.402 20.8108 475.272 21.0308 475.012 21.1908C474.772 21.3308 474.362 21.4008 473.782 21.4008H473.002Z" fill="#02090A"/>
</svg>
