<svg width="53" height="53" viewBox="0 0 53 53" fill="none" xmlns="http://www.w3.org/2000/svg">
<path d="M32.6324 0.4021H6.55342C5.69286 0.401966 4.8407 0.57135 4.04561 0.900579C3.25052 1.22981 2.52807 1.71243 1.91951 2.32089C1.31096 2.92935 0.828222 3.65173 0.498869 4.44677C0.169517 5.24181 -1.04363e-08 6.09394 0 6.9545L0 46.0964C0 47.8345 0.690448 49.5014 1.91945 50.7304C3.14846 51.9594 4.81535 52.6499 6.55342 52.6499H19.6776C21.4522 52.6499 22.441 50.6222 21.3706 49.2078L21.3348 49.1609C21.1354 48.8932 20.8764 48.6756 20.5783 48.5254C20.2802 48.3752 19.9512 48.2965 19.6174 48.2955H6.55546C5.97222 48.2955 5.41287 48.0639 5.00046 47.6514C4.58805 47.239 4.35636 46.6797 4.35636 46.0964V6.9545C4.35636 6.37162 4.58777 5.81257 4.99974 5.40022C5.41171 4.98787 5.97054 4.75594 6.55342 4.7554H32.6324C32.9212 4.7554 33.2072 4.81228 33.474 4.9228C33.7408 5.03331 33.9832 5.1953 34.1874 5.3995C34.3916 5.60371 34.5536 5.84613 34.6641 6.11294C34.7746 6.37975 34.8315 6.66571 34.8315 6.9545V15.6427C34.8331 16.2193 35.063 16.7718 35.4709 17.1793C35.8788 17.5869 36.4316 17.8163 37.0082 17.8173C37.5851 17.8165 38.1382 17.5871 38.5464 17.1793C38.9545 16.7716 39.1845 16.2187 39.1858 15.6417V6.9545C39.1858 6.09394 39.0163 5.24181 38.687 4.44677C38.3576 3.65173 37.8749 2.92935 37.2663 2.32089C36.6578 1.71243 35.9353 1.22981 35.1402 0.900579C34.3451 0.57135 33.493 0.401966 32.6324 0.4021Z" fill="#F9F9F9"/>
<path d="M19.6775 22.1716H10.8444C10.2781 22.1732 9.73556 22.3989 9.33517 22.7993C8.93479 23.1997 8.70914 23.7423 8.70752 24.3085V24.3891C8.70914 24.9553 8.93479 25.4979 9.33517 25.8983C9.73556 26.2987 10.2781 26.5243 10.8444 26.526H19.6204C19.9541 26.5248 20.283 26.446 20.5811 26.2958C20.8792 26.1456 21.1382 25.9281 21.3378 25.6606L21.3735 25.6137C22.4409 24.1983 21.4521 22.1716 19.6775 22.1716Z" fill="#F9F9F9"/>
<path d="M10.8852 37.4102H15.3753C15.907 37.4116 16.4204 37.2159 16.8162 36.8608C17.2121 36.5057 17.4622 36.0164 17.5182 35.4876C17.5182 35.4733 17.5182 35.4591 17.5233 35.4438C17.5555 35.143 17.5241 34.8388 17.4311 34.5509C17.3381 34.2631 17.1856 33.998 16.9835 33.7729C16.7815 33.5479 16.5343 33.3678 16.2581 33.2444C15.9819 33.1211 15.6829 33.0572 15.3804 33.0569H10.8903C10.6044 33.0568 10.3212 33.113 10.057 33.2223C9.79283 33.3316 9.55276 33.4919 9.35053 33.694C9.14831 33.8962 8.98788 34.1362 8.87843 34.4003C8.76898 34.6645 8.71265 34.9476 8.71265 35.2335C8.71265 35.8101 8.94141 36.3631 9.34873 36.7712C9.75605 37.1793 10.3086 37.4091 10.8852 37.4102Z" fill="#F9F9F9"/>
<path d="M37.0091 22.1716C28.6077 22.1716 21.7695 29.0087 21.7695 37.4102C21.7695 45.8117 28.6077 52.6498 37.0091 52.6498C45.4106 52.6498 52.2477 45.8127 52.2477 37.4102C52.2477 29.0077 45.4106 22.1716 37.0091 22.1716ZM37.0091 48.2955C34.8562 48.2957 32.7515 47.6575 30.9613 46.4615C29.1711 45.2655 27.7758 43.5656 26.9517 41.5765C26.1277 39.5875 25.912 37.3988 26.3319 35.2872C26.7518 33.1756 27.7884 31.236 29.3107 29.7135C30.833 28.1911 32.7726 27.1543 34.8841 26.7342C36.9957 26.3141 39.1844 26.5296 41.1735 27.3534C43.1626 28.1773 44.8627 29.5725 46.0588 31.3626C47.255 33.1527 47.8934 35.2573 47.8934 37.4102C47.8902 40.296 46.7424 43.0627 44.702 45.1033C42.6615 47.144 39.8949 48.292 37.0091 48.2955Z" fill="#F9F9F9"/>
<path d="M28.3004 11.2864H10.8842C9.68204 11.2864 8.70752 12.2609 8.70752 13.463V13.464C8.70752 14.6662 9.68204 15.6407 10.8842 15.6407H28.3004C29.5026 15.6407 30.4771 14.6662 30.4771 13.464V13.463C30.4771 12.2609 29.5026 11.2864 28.3004 11.2864Z" fill="#F9F9F9"/>
<path d="M44.3483 35.9336L44.3391 35.9438L39.6021 40.6787C38.9956 41.2852 38.2757 41.7663 37.4833 42.0945C36.6909 42.4227 35.8417 42.5916 34.984 42.5916C34.1263 42.5916 33.2771 42.4227 32.4847 42.0945C31.6923 41.7663 30.9723 41.2852 30.3659 40.6787L29.6781 39.9961L29.6618 39.9787C29.2646 39.5732 29.0417 39.0284 29.0408 38.4608C29.0398 37.8932 29.2608 37.3476 29.6567 36.9408L29.6781 36.9183C29.8801 36.7162 30.12 36.5558 30.3841 36.4464C30.6481 36.337 30.9311 36.2806 31.2169 36.2806C31.5028 36.2806 31.7858 36.337 32.0498 36.4464C32.3139 36.5558 32.5538 36.7162 32.7558 36.9183L33.4446 37.6061C33.8593 38.0022 34.4106 38.2232 34.984 38.2232C35.5574 38.2232 36.1087 38.0022 36.5234 37.6061L41.2604 32.8712C41.6671 32.4618 42.2199 32.2308 42.797 32.229C43.374 32.2272 43.9282 32.4547 44.3376 32.8615C44.7469 33.2683 44.9779 33.821 44.9797 34.3981C44.9815 34.9752 44.754 35.5293 44.3473 35.9387L44.3483 35.9336Z" fill="#F9F9F9"/>
</svg>
