<svg width="456" height="18" viewBox="0 0 456 18" fill="none" xmlns="http://www.w3.org/2000/svg">
<path d="M6.08 17.9808C5.28 17.9808 4.54667 17.9275 3.88 17.8208C3.22667 17.7142 2.66 17.5808 2.18 17.4208C1.71333 17.2475 1.34667 17.0942 1.08 16.9608C0.92 16.8675 0.786667 16.7742 0.68 16.6808C0.573333 16.5875 0.52 16.4742 0.52 16.3408C0.52 16.2075 0.54 16.0542 0.58 15.8808C0.62 15.6942 0.673333 15.5142 0.74 15.3408C0.82 15.1675 0.9 15.0275 0.98 14.9208C1.07333 14.8008 1.16667 14.7408 1.26 14.7408C1.39333 14.7408 1.68 14.8275 2.12 15.0008C2.57333 15.1608 3.13333 15.3275 3.8 15.5008C4.48 15.6608 5.21333 15.7408 6 15.7408C6.66667 15.7408 7.20667 15.6808 7.62 15.5608C8.04667 15.4408 8.36 15.2542 8.56 15.0008C8.76 14.7475 8.86 14.4275 8.86 14.0408C8.86 13.6942 8.77333 13.4075 8.6 13.1808C8.42667 12.9408 8.17333 12.7475 7.84 12.6008C7.52 12.4408 7.14667 12.3008 6.72 12.1808C6.29333 12.0608 5.82667 11.9408 5.32 11.8208C4.82667 11.7008 4.31333 11.5608 3.78 11.4008C3.26 11.2408 2.77333 11.0208 2.32 10.7408C1.86667 10.4475 1.49333 10.0675 1.2 9.60082C0.92 9.12082 0.78 8.50749 0.78 7.76082C0.78 7.06749 0.926667 6.46749 1.22 5.96082C1.52667 5.45415 1.93333 5.03415 2.44 4.70082C2.96 4.36749 3.54667 4.12082 4.2 3.96082C4.86667 3.78749 5.55333 3.70082 6.26 3.70082C6.84667 3.70082 7.42 3.74082 7.98 3.82082C8.54 3.90082 9.04 4.00082 9.48 4.12082C9.92 4.24082 10.2467 4.36082 10.46 4.48082C10.5933 4.56082 10.7 4.64082 10.78 4.72082C10.8733 4.78749 10.92 4.87415 10.92 4.98082C10.92 5.08749 10.9 5.23415 10.86 5.42082C10.8333 5.59415 10.7867 5.77415 10.72 5.96082C10.6667 6.13415 10.5933 6.28082 10.5 6.40082C10.42 6.52082 10.3267 6.58082 10.22 6.58082C10.0733 6.58082 9.81333 6.52749 9.44 6.42082C9.08 6.30082 8.63333 6.19415 8.1 6.10082C7.58 5.99415 6.97333 5.94082 6.28 5.94082C5.64 5.94082 5.10667 6.00082 4.68 6.12082C4.25333 6.24082 3.93333 6.42082 3.72 6.66082C3.52 6.90082 3.42 7.20082 3.42 7.56082C3.42 7.94749 3.55333 8.24749 3.82 8.46082C4.1 8.67415 4.46667 8.85415 4.92 9.00082C5.38667 9.13415 5.90667 9.27415 6.48 9.42082C7.05333 9.56749 7.63333 9.73415 8.22 9.92082C8.80667 10.0942 9.34667 10.3275 9.84 10.6208C10.3333 10.9142 10.7333 11.3142 11.04 11.8208C11.3467 12.3275 11.5 12.9808 11.5 13.7808C11.5 14.5142 11.3533 15.1475 11.06 15.6808C10.78 16.2142 10.3867 16.6542 9.88 17.0008C9.37333 17.3342 8.79333 17.5808 8.14 17.7408C7.48667 17.9008 6.8 17.9808 6.08 17.9808ZM22.1722 17.9808C20.1055 17.9808 18.5055 17.5542 17.3722 16.7008C16.2389 15.8475 15.6722 14.6475 15.6722 13.1008V4.38082C15.6722 4.19415 15.7589 4.05415 15.9322 3.96082C16.1055 3.85415 16.3789 3.80082 16.7522 3.80082H17.2522C17.6389 3.80082 17.9122 3.85415 18.0722 3.96082C18.2455 4.05415 18.3322 4.19415 18.3322 4.38082V12.9808C18.3322 13.8608 18.6655 14.5408 19.3322 15.0208C19.9989 15.5008 20.9522 15.7408 22.1922 15.7408C23.4322 15.7408 24.3855 15.5008 25.0522 15.0208C25.7189 14.5408 26.0522 13.8608 26.0522 12.9808V4.38082C26.0522 4.19415 26.1389 4.05415 26.3122 3.96082C26.4855 3.85415 26.7589 3.80082 27.1322 3.80082H27.6322C28.0189 3.80082 28.2922 3.85415 28.4522 3.96082C28.6255 4.05415 28.7122 4.19415 28.7122 4.38082V13.1008C28.7122 14.6475 28.1455 15.8475 27.0122 16.7008C25.8789 17.5542 24.2655 17.9808 22.1722 17.9808ZM35.3584 17.8808C34.9851 17.8808 34.7118 17.8342 34.5384 17.7408C34.3651 17.6342 34.2784 17.4875 34.2784 17.3008V4.38082C34.2784 4.19415 34.3651 4.05415 34.5384 3.96082C34.7118 3.85415 34.9851 3.80082 35.3584 3.80082H36.2184C36.5251 3.80082 36.7851 3.84749 36.9984 3.94082C37.2251 4.02082 37.4118 4.16749 37.5584 4.38082L41.7584 10.5408C41.8918 10.7408 42.0184 10.9475 42.1384 11.1608C42.2718 11.3608 42.3651 11.5142 42.4184 11.6208C42.5118 11.4608 42.6184 11.2808 42.7384 11.0808C42.8584 10.8675 42.9718 10.6875 43.0784 10.5408L47.3184 4.40082C47.4784 4.17415 47.6584 4.02082 47.8584 3.94082C48.0718 3.84749 48.3251 3.80082 48.6184 3.80082H49.4384C49.8251 3.80082 50.0984 3.85415 50.2584 3.96082C50.4318 4.05415 50.5184 4.19415 50.5184 4.38082V17.3008C50.5184 17.4875 50.4318 17.6342 50.2584 17.7408C50.0984 17.8342 49.8251 17.8808 49.4384 17.8808H49.0784C48.7051 17.8808 48.4318 17.8342 48.2584 17.7408C48.0984 17.6342 48.0184 17.4875 48.0184 17.3008V8.68082C48.0184 8.49415 48.0184 8.32082 48.0184 8.16082C48.0318 7.98749 48.0451 7.82082 48.0584 7.66082L47.9784 7.64082C47.9251 7.76082 47.8451 7.90749 47.7384 8.08082C47.6318 8.25415 47.5184 8.42749 47.3984 8.60082L43.7984 13.6808C43.6251 13.9342 43.4451 14.1008 43.2584 14.1808C43.0718 14.2608 42.8251 14.3008 42.5184 14.3008H42.2784C41.9718 14.3008 41.7184 14.2608 41.5184 14.1808C41.3318 14.1008 41.1518 13.9408 40.9784 13.7008L37.3984 8.56082C37.2784 8.37415 37.1651 8.20082 37.0584 8.04082C36.9651 7.86749 36.8851 7.72082 36.8184 7.60082L36.7384 7.62082C36.7518 7.74082 36.7584 7.89415 36.7584 8.08082C36.7718 8.26749 36.7784 8.47415 36.7784 8.70082V17.3008C36.7784 17.4875 36.6984 17.6342 36.5384 17.7408C36.3784 17.8342 36.1051 17.8808 35.7184 17.8808H35.3584ZM55.7984 17.8808C55.3584 17.8808 55.0651 17.8475 54.9184 17.7808C54.7718 17.7008 54.6984 17.6008 54.6984 17.4808C54.6984 17.4275 54.7051 17.3742 54.7184 17.3208C54.7318 17.2675 54.7518 17.2075 54.7784 17.1408L59.8984 4.40082C59.9918 4.16082 60.1451 4.00082 60.3584 3.92082C60.5851 3.84082 60.8851 3.80082 61.2584 3.80082H62.2584C62.6318 3.80082 62.9251 3.84082 63.1384 3.92082C63.3651 4.00082 63.5251 4.16082 63.6184 4.40082L68.7384 17.1408C68.7651 17.2075 68.7784 17.2675 68.7784 17.3208C68.7918 17.3742 68.7984 17.4275 68.7984 17.4808C68.7984 17.6008 68.7184 17.7008 68.5584 17.7808C68.4118 17.8475 68.1718 17.8808 67.8384 17.8808H67.0784C66.8118 17.8808 66.5851 17.8542 66.3984 17.8008C66.2251 17.7342 66.0984 17.6008 66.0184 17.4008L62.2584 7.50082C62.1651 7.26082 62.0718 7.01415 61.9784 6.76082C61.8984 6.49415 61.8318 6.24749 61.7784 6.02082H61.7184C61.6651 6.23415 61.5918 6.47415 61.4984 6.74082C61.4184 6.99415 61.3251 7.24749 61.2184 7.50082L57.3984 17.4008C57.3318 17.6008 57.2184 17.7342 57.0584 17.8008C56.9118 17.8542 56.7251 17.8808 56.4984 17.8808H55.7984ZM57.5384 14.6808V12.5808H65.8184V14.6808H57.5384ZM75.8239 17.8808C75.4506 17.8808 75.1772 17.8342 75.0039 17.7408C74.8439 17.6342 74.7639 17.4875 74.7639 17.3008V6.08082H70.3639C70.0172 6.08082 69.8439 5.79415 69.8439 5.22082V4.70082C69.8439 4.12749 70.0172 3.84082 70.3639 3.84082H81.8039C82.1639 3.84082 82.3439 4.12749 82.3439 4.70082V5.22082C82.3439 5.79415 82.1639 6.08082 81.8039 6.08082H77.4239V17.3008C77.4239 17.4875 77.3372 17.6342 77.1639 17.7408C77.0039 17.8342 76.7372 17.8808 76.3639 17.8808H75.8239ZM87.2675 17.8408C86.8008 17.8408 86.5675 17.5942 86.5675 17.1008V4.58082C86.5675 4.08749 86.8008 3.84082 87.2675 3.84082H96.7275C97.0742 3.84082 97.2475 4.12749 97.2475 4.70082V5.22082C97.2475 5.79415 97.0742 6.08082 96.7275 6.08082H89.2275V9.56082H96.1675C96.5142 9.56082 96.6875 9.84749 96.6875 10.4208V10.9408C96.6875 11.5142 96.5142 11.8008 96.1675 11.8008H89.2275V15.6008H96.7475C97.0942 15.6008 97.2675 15.8875 97.2675 16.4608V16.9808C97.2675 17.5542 97.0942 17.8408 96.7475 17.8408H87.2675ZM108.447 17.8808C108.007 17.8808 107.714 17.8475 107.567 17.7808C107.42 17.7008 107.347 17.6008 107.347 17.4808C107.347 17.4275 107.354 17.3742 107.367 17.3208C107.38 17.2675 107.4 17.2075 107.427 17.1408L112.547 4.40082C112.64 4.16082 112.794 4.00082 113.007 3.92082C113.234 3.84082 113.534 3.80082 113.907 3.80082H114.907C115.28 3.80082 115.574 3.84082 115.787 3.92082C116.014 4.00082 116.174 4.16082 116.267 4.40082L121.387 17.1408C121.414 17.2075 121.427 17.2675 121.427 17.3208C121.44 17.3742 121.447 17.4275 121.447 17.4808C121.447 17.6008 121.367 17.7008 121.207 17.7808C121.06 17.8475 120.82 17.8808 120.487 17.8808H119.727C119.46 17.8808 119.234 17.8542 119.047 17.8008C118.874 17.7342 118.747 17.6008 118.667 17.4008L114.907 7.50082C114.814 7.26082 114.72 7.01415 114.627 6.76082C114.547 6.49415 114.48 6.24749 114.427 6.02082H114.367C114.314 6.23415 114.24 6.47415 114.147 6.74082C114.067 6.99415 113.974 7.24749 113.867 7.50082L110.047 17.4008C109.98 17.6008 109.867 17.7342 109.707 17.8008C109.56 17.8542 109.374 17.8808 109.147 17.8808H108.447ZM110.187 14.6808V12.5808H118.467V14.6808H110.187ZM133.179 17.8408C132.685 17.8408 132.439 17.5942 132.439 17.1008V4.38082C132.439 4.19415 132.525 4.05415 132.699 3.96082C132.872 3.85415 133.145 3.80082 133.519 3.80082H134.019C134.405 3.80082 134.679 3.85415 134.839 3.96082C135.012 4.05415 135.099 4.19415 135.099 4.38082V15.6008H141.419C141.779 15.6008 141.959 15.8875 141.959 16.4608V16.9808C141.959 17.5542 141.779 17.8408 141.419 17.8408H133.179ZM145.56 17.8808C145.12 17.8808 144.827 17.8475 144.68 17.7808C144.533 17.7008 144.46 17.6008 144.46 17.4808C144.46 17.4275 144.467 17.3742 144.48 17.3208C144.493 17.2675 144.513 17.2075 144.54 17.1408L149.66 4.40082C149.753 4.16082 149.907 4.00082 150.12 3.92082C150.347 3.84082 150.647 3.80082 151.02 3.80082H152.02C152.393 3.80082 152.687 3.84082 152.9 3.92082C153.127 4.00082 153.287 4.16082 153.38 4.40082L158.5 17.1408C158.527 17.2075 158.54 17.2675 158.54 17.3208C158.553 17.3742 158.56 17.4275 158.56 17.4808C158.56 17.6008 158.48 17.7008 158.32 17.7808C158.173 17.8475 157.933 17.8808 157.6 17.8808H156.84C156.573 17.8808 156.347 17.8542 156.16 17.8008C155.987 17.7342 155.86 17.6008 155.78 17.4008L152.02 7.50082C151.927 7.26082 151.833 7.01415 151.74 6.76082C151.66 6.49415 151.593 6.24749 151.54 6.02082H151.48C151.427 6.23415 151.353 6.47415 151.26 6.74082C151.18 6.99415 151.087 7.24749 150.98 7.50082L147.16 17.4008C147.093 17.6008 146.98 17.7342 146.82 17.8008C146.673 17.8542 146.487 17.8808 146.26 17.8808H145.56ZM147.3 14.6808V12.5808H155.58V14.6808H147.3ZM173.992 17.8808C173.619 17.8808 173.345 17.8342 173.172 17.7408C173.012 17.6342 172.932 17.4875 172.932 17.3008V6.08082H168.532C168.185 6.08082 168.012 5.79415 168.012 5.22082V4.70082C168.012 4.12749 168.185 3.84082 168.532 3.84082H179.972C180.332 3.84082 180.512 4.12749 180.512 4.70082V5.22082C180.512 5.79415 180.332 6.08082 179.972 6.08082H175.592V17.3008C175.592 17.4875 175.505 17.6342 175.332 17.7408C175.172 17.8342 174.905 17.8808 174.532 17.8808H173.992ZM185.815 17.8808C185.442 17.8808 185.169 17.8342 184.995 17.7408C184.822 17.6342 184.735 17.4875 184.735 17.3008V4.58082C184.735 4.08749 184.969 3.84082 185.435 3.84082H191.075C192.769 3.84082 194.042 4.20082 194.895 4.92082C195.762 5.62749 196.195 6.65415 196.195 8.00082C196.195 8.49415 196.102 8.96749 195.915 9.42082C195.729 9.86082 195.455 10.2475 195.095 10.5808C194.749 10.9008 194.322 11.1342 193.815 11.2808V11.3608C194.135 11.4675 194.422 11.6808 194.675 12.0008C194.942 12.3075 195.169 12.6942 195.355 13.1608L196.975 16.9408C197.029 17.0475 197.069 17.1542 197.095 17.2608C197.122 17.3542 197.135 17.4275 197.135 17.4808C197.135 17.6275 197.055 17.7342 196.895 17.8008C196.735 17.8542 196.462 17.8808 196.075 17.8808H195.475C195.209 17.8808 194.982 17.8475 194.795 17.7808C194.609 17.7008 194.469 17.5542 194.375 17.3408L192.935 13.9808C192.775 13.5808 192.615 13.2675 192.455 13.0408C192.295 12.8142 192.089 12.6542 191.835 12.5608C191.595 12.4542 191.262 12.4008 190.835 12.4008H187.395V17.3008C187.395 17.4875 187.309 17.6342 187.135 17.7408C186.975 17.8342 186.702 17.8808 186.315 17.8808H185.815ZM187.395 10.3008H191.075C191.929 10.3008 192.542 10.1342 192.915 9.80082C193.302 9.46749 193.495 8.92749 193.495 8.18082C193.495 7.44749 193.302 6.91415 192.915 6.58082C192.542 6.24749 191.929 6.08082 191.075 6.08082H187.395V10.3008ZM200.904 17.8808C200.464 17.8808 200.171 17.8475 200.024 17.7808C199.877 17.7008 199.804 17.6008 199.804 17.4808C199.804 17.4275 199.811 17.3742 199.824 17.3208C199.837 17.2675 199.857 17.2075 199.884 17.1408L205.004 4.40082C205.097 4.16082 205.251 4.00082 205.464 3.92082C205.691 3.84082 205.991 3.80082 206.364 3.80082H207.364C207.737 3.80082 208.031 3.84082 208.244 3.92082C208.471 4.00082 208.631 4.16082 208.724 4.40082L213.844 17.1408C213.871 17.2075 213.884 17.2675 213.884 17.3208C213.897 17.3742 213.904 17.4275 213.904 17.4808C213.904 17.6008 213.824 17.7008 213.664 17.7808C213.517 17.8475 213.277 17.8808 212.944 17.8808H212.184C211.917 17.8808 211.691 17.8542 211.504 17.8008C211.331 17.7342 211.204 17.6008 211.124 17.4008L207.364 7.50082C207.271 7.26082 207.177 7.01415 207.084 6.76082C207.004 6.49415 206.937 6.24749 206.884 6.02082H206.824C206.771 6.23415 206.697 6.47415 206.604 6.74082C206.524 6.99415 206.431 7.24749 206.324 7.50082L202.504 17.4008C202.437 17.6008 202.324 17.7342 202.164 17.8008C202.017 17.8542 201.831 17.8808 201.604 17.8808H200.904ZM202.644 14.6808V12.5808H210.924V14.6808H202.644ZM219.171 17.8808C218.798 17.8808 218.524 17.8342 218.351 17.7408C218.178 17.6342 218.091 17.4875 218.091 17.3008V4.38082C218.091 4.19415 218.178 4.05415 218.351 3.96082C218.524 3.85415 218.798 3.80082 219.171 3.80082H219.791C219.991 3.80082 220.164 3.82082 220.311 3.86082C220.471 3.88749 220.611 3.94082 220.731 4.02082C220.851 4.10082 220.971 4.21415 221.091 4.36082L227.971 12.8208C228.144 13.0342 228.311 13.2742 228.471 13.5408C228.631 13.7942 228.751 14.0075 228.831 14.1808L228.911 14.1608C228.898 13.9742 228.878 13.7675 228.851 13.5408C228.838 13.3008 228.831 13.0542 228.831 12.8008V4.38082C228.831 4.19415 228.911 4.05415 229.071 3.96082C229.244 3.85415 229.518 3.80082 229.891 3.80082H230.251C230.638 3.80082 230.911 3.85415 231.071 3.96082C231.244 4.05415 231.331 4.19415 231.331 4.38082V17.3008C231.331 17.4875 231.244 17.6342 231.071 17.7408C230.911 17.8342 230.638 17.8808 230.251 17.8808H229.631C229.444 17.8808 229.278 17.8675 229.131 17.8408C228.984 17.8142 228.858 17.7675 228.751 17.7008C228.644 17.6208 228.544 17.5208 228.451 17.4008L221.411 8.76082C221.251 8.56082 221.091 8.33415 220.931 8.08082C220.784 7.82749 220.664 7.61415 220.571 7.44082L220.491 7.46082C220.518 7.64749 220.538 7.86082 220.551 8.10082C220.578 8.32749 220.591 8.56749 220.591 8.82082V17.3008C220.591 17.4875 220.511 17.6342 220.351 17.7408C220.191 17.8342 219.918 17.8808 219.531 17.8808H219.171ZM241.283 17.9808C240.483 17.9808 239.75 17.9275 239.083 17.8208C238.43 17.7142 237.863 17.5808 237.383 17.4208C236.916 17.2475 236.55 17.0942 236.283 16.9608C236.123 16.8675 235.99 16.7742 235.883 16.6808C235.776 16.5875 235.723 16.4742 235.723 16.3408C235.723 16.2075 235.743 16.0542 235.783 15.8808C235.823 15.6942 235.876 15.5142 235.943 15.3408C236.023 15.1675 236.103 15.0275 236.183 14.9208C236.276 14.8008 236.37 14.7408 236.463 14.7408C236.596 14.7408 236.883 14.8275 237.323 15.0008C237.776 15.1608 238.336 15.3275 239.003 15.5008C239.683 15.6608 240.416 15.7408 241.203 15.7408C241.87 15.7408 242.41 15.6808 242.823 15.5608C243.25 15.4408 243.563 15.2542 243.763 15.0008C243.963 14.7475 244.063 14.4275 244.063 14.0408C244.063 13.6942 243.976 13.4075 243.803 13.1808C243.63 12.9408 243.376 12.7475 243.043 12.6008C242.723 12.4408 242.35 12.3008 241.923 12.1808C241.496 12.0608 241.03 11.9408 240.523 11.8208C240.03 11.7008 239.516 11.5608 238.983 11.4008C238.463 11.2408 237.976 11.0208 237.523 10.7408C237.07 10.4475 236.696 10.0675 236.403 9.60082C236.123 9.12082 235.983 8.50749 235.983 7.76082C235.983 7.06749 236.13 6.46749 236.423 5.96082C236.73 5.45415 237.136 5.03415 237.643 4.70082C238.163 4.36749 238.75 4.12082 239.403 3.96082C240.07 3.78749 240.756 3.70082 241.463 3.70082C242.05 3.70082 242.623 3.74082 243.183 3.82082C243.743 3.90082 244.243 4.00082 244.683 4.12082C245.123 4.24082 245.45 4.36082 245.663 4.48082C245.796 4.56082 245.903 4.64082 245.983 4.72082C246.076 4.78749 246.123 4.87415 246.123 4.98082C246.123 5.08749 246.103 5.23415 246.063 5.42082C246.036 5.59415 245.99 5.77415 245.923 5.96082C245.87 6.13415 245.796 6.28082 245.703 6.40082C245.623 6.52082 245.53 6.58082 245.423 6.58082C245.276 6.58082 245.016 6.52749 244.643 6.42082C244.283 6.30082 243.836 6.19415 243.303 6.10082C242.783 5.99415 242.176 5.94082 241.483 5.94082C240.843 5.94082 240.31 6.00082 239.883 6.12082C239.456 6.24082 239.136 6.42082 238.923 6.66082C238.723 6.90082 238.623 7.20082 238.623 7.56082C238.623 7.94749 238.756 8.24749 239.023 8.46082C239.303 8.67415 239.67 8.85415 240.123 9.00082C240.59 9.13415 241.11 9.27415 241.683 9.42082C242.256 9.56749 242.836 9.73415 243.423 9.92082C244.01 10.0942 244.55 10.3275 245.043 10.6208C245.536 10.9142 245.936 11.3142 246.243 11.8208C246.55 12.3275 246.703 12.9808 246.703 13.7808C246.703 14.5142 246.556 15.1475 246.263 15.6808C245.983 16.2142 245.59 16.6542 245.083 17.0008C244.576 17.3342 243.996 17.5808 243.343 17.7408C242.69 17.9008 242.003 17.9808 241.283 17.9808ZM252.155 17.8808C251.782 17.8808 251.509 17.8342 251.335 17.7408C251.162 17.6342 251.075 17.4875 251.075 17.3008V4.38082C251.075 4.19415 251.162 4.05415 251.335 3.96082C251.509 3.85415 251.782 3.80082 252.155 3.80082H252.655C253.042 3.80082 253.315 3.85415 253.475 3.96082C253.649 4.05415 253.735 4.19415 253.735 4.38082V17.3008C253.735 17.4875 253.649 17.6342 253.475 17.7408C253.315 17.8342 253.042 17.8808 252.655 17.8808H252.155ZM266.182 17.9808C263.635 17.9808 261.728 17.3808 260.462 16.1808C259.208 14.9808 258.582 13.1942 258.582 10.8208C258.582 8.46082 259.235 6.68749 260.542 5.50082C261.848 4.30082 263.795 3.70082 266.382 3.70082C266.915 3.70082 267.442 3.73415 267.962 3.80082C268.482 3.86749 268.962 3.96749 269.402 4.10082C269.842 4.22082 270.208 4.35415 270.502 4.50082C270.755 4.62082 270.935 4.73415 271.042 4.84082C271.162 4.93415 271.222 5.05415 271.222 5.20082C271.222 5.29415 271.195 5.42082 271.142 5.58082C271.102 5.72749 271.048 5.88082 270.982 6.04082C270.915 6.20082 270.828 6.33415 270.722 6.44082C270.628 6.54749 270.528 6.60082 270.422 6.60082C270.275 6.60082 270.028 6.54749 269.682 6.44082C269.348 6.33415 268.908 6.22749 268.362 6.12082C267.828 6.00082 267.168 5.94082 266.382 5.94082C265.248 5.94082 264.302 6.09415 263.542 6.40082C262.782 6.70749 262.208 7.22082 261.822 7.94082C261.448 8.64749 261.262 9.60749 261.262 10.8208C261.262 12.0475 261.448 13.0208 261.822 13.7408C262.208 14.4475 262.782 14.9608 263.542 15.2808C264.302 15.5875 265.248 15.7408 266.382 15.7408C267.022 15.7408 267.588 15.7008 268.082 15.6208C268.575 15.5275 269.002 15.4275 269.362 15.3208C269.722 15.2142 270.015 15.1208 270.242 15.0408C270.482 14.9475 270.662 14.9008 270.782 14.9008C270.888 14.9008 270.982 14.9608 271.062 15.0808C271.155 15.2008 271.228 15.3475 271.282 15.5208C271.335 15.6808 271.375 15.8408 271.402 16.0008C271.442 16.1608 271.462 16.2875 271.462 16.3808C271.462 16.5542 271.415 16.6808 271.322 16.7608C271.242 16.8275 271.082 16.9208 270.842 17.0408C270.428 17.2275 269.968 17.4008 269.462 17.5608C268.955 17.7075 268.422 17.8142 267.862 17.8808C267.302 17.9475 266.742 17.9808 266.182 17.9808ZM277.366 17.8808C276.993 17.8808 276.72 17.8342 276.546 17.7408C276.373 17.6342 276.286 17.4875 276.286 17.3008V4.38082C276.286 4.19415 276.373 4.05415 276.546 3.96082C276.72 3.85415 276.993 3.80082 277.366 3.80082H277.866C278.253 3.80082 278.526 3.85415 278.686 3.96082C278.86 4.05415 278.946 4.19415 278.946 4.38082V17.3008C278.946 17.4875 278.86 17.6342 278.686 17.7408C278.526 17.8342 278.253 17.8808 277.866 17.8808H277.366ZM291.593 17.9808C289.019 17.9808 287.073 17.3742 285.752 16.1608C284.446 14.9475 283.793 13.1742 283.793 10.8408C283.793 8.49415 284.446 6.72082 285.752 5.52082C287.073 4.30749 289.019 3.70082 291.593 3.70082C294.153 3.70082 296.086 4.30749 297.393 5.52082C298.713 6.72082 299.373 8.49415 299.373 10.8408C299.373 13.1742 298.713 14.9475 297.393 16.1608C296.086 17.3742 294.153 17.9808 291.593 17.9808ZM291.593 15.7408C293.259 15.7408 294.526 15.3542 295.393 14.5808C296.259 13.7942 296.693 12.5408 296.693 10.8208C296.693 9.11415 296.259 7.87415 295.393 7.10082C294.526 6.32749 293.259 5.94082 291.593 5.94082C289.913 5.94082 288.639 6.32749 287.773 7.10082C286.906 7.87415 286.473 9.11415 286.473 10.8208C286.473 12.5408 286.906 13.7942 287.773 14.5808C288.639 15.3542 289.913 15.7408 291.593 15.7408ZM290.453 2.84082C290.226 2.84082 290.053 2.82082 289.933 2.78082C289.826 2.74082 289.773 2.67415 289.773 2.58082C289.773 2.52749 289.786 2.46749 289.813 2.40082C289.853 2.32082 289.919 2.23415 290.013 2.14082L291.233 0.960819C291.446 0.76082 291.666 0.620819 291.893 0.540819C292.119 0.460819 292.453 0.420819 292.893 0.420819C293.306 0.420819 293.626 0.447486 293.853 0.500819C294.079 0.554153 294.193 0.647486 294.193 0.780819C294.193 0.874153 294.146 0.974153 294.053 1.08082C293.973 1.18749 293.793 1.32082 293.513 1.48082L291.913 2.44082C291.673 2.58749 291.453 2.69415 291.253 2.76082C291.053 2.81415 290.786 2.84082 290.453 2.84082ZM305.312 17.8808C304.938 17.8808 304.665 17.8342 304.492 17.7408C304.318 17.6342 304.232 17.4875 304.232 17.3008V4.38082C304.232 4.19415 304.318 4.05415 304.492 3.96082C304.665 3.85415 304.938 3.80082 305.312 3.80082H305.932C306.132 3.80082 306.305 3.82082 306.452 3.86082C306.612 3.88749 306.752 3.94082 306.872 4.02082C306.992 4.10082 307.112 4.21415 307.232 4.36082L314.112 12.8208C314.285 13.0342 314.452 13.2742 314.612 13.5408C314.772 13.7942 314.892 14.0075 314.972 14.1808L315.052 14.1608C315.038 13.9742 315.018 13.7675 314.992 13.5408C314.978 13.3008 314.972 13.0542 314.972 12.8008V4.38082C314.972 4.19415 315.052 4.05415 315.212 3.96082C315.385 3.85415 315.658 3.80082 316.032 3.80082H316.392C316.778 3.80082 317.052 3.85415 317.212 3.96082C317.385 4.05415 317.472 4.19415 317.472 4.38082V17.3008C317.472 17.4875 317.385 17.6342 317.212 17.7408C317.052 17.8342 316.778 17.8808 316.392 17.8808H315.772C315.585 17.8808 315.418 17.8675 315.272 17.8408C315.125 17.8142 314.998 17.7675 314.892 17.7008C314.785 17.6208 314.685 17.5208 314.592 17.4008L307.552 8.76082C307.392 8.56082 307.232 8.33415 307.072 8.08082C306.925 7.82749 306.805 7.61415 306.712 7.44082L306.632 7.46082C306.658 7.64749 306.678 7.86082 306.692 8.10082C306.718 8.32749 306.732 8.56749 306.732 8.82082V17.3008C306.732 17.4875 306.652 17.6342 306.492 17.7408C306.332 17.8342 306.058 17.8808 305.672 17.8808H305.312ZM336.728 17.9808C334.182 17.9808 332.275 17.3808 331.008 16.1808C329.755 14.9808 329.128 13.1942 329.128 10.8208C329.128 8.46082 329.782 6.68749 331.088 5.50082C332.395 4.30082 334.342 3.70082 336.928 3.70082C337.462 3.70082 337.988 3.73415 338.508 3.80082C339.028 3.86749 339.508 3.96749 339.948 4.10082C340.388 4.22082 340.755 4.35415 341.048 4.50082C341.302 4.62082 341.482 4.73415 341.588 4.84082C341.708 4.93415 341.768 5.05415 341.768 5.20082C341.768 5.29415 341.742 5.42082 341.688 5.58082C341.648 5.72749 341.595 5.88082 341.528 6.04082C341.462 6.20082 341.375 6.33415 341.268 6.44082C341.175 6.54749 341.075 6.60082 340.968 6.60082C340.822 6.60082 340.575 6.54749 340.228 6.44082C339.895 6.33415 339.455 6.22749 338.908 6.12082C338.375 6.00082 337.715 5.94082 336.928 5.94082C335.795 5.94082 334.848 6.09415 334.088 6.40082C333.328 6.70749 332.755 7.22082 332.368 7.94082C331.995 8.64749 331.808 9.60749 331.808 10.8208C331.808 12.0475 331.995 13.0208 332.368 13.7408C332.755 14.4475 333.328 14.9608 334.088 15.2808C334.848 15.5875 335.795 15.7408 336.928 15.7408C337.568 15.7408 338.135 15.7008 338.628 15.6208C339.122 15.5275 339.548 15.4275 339.908 15.3208C340.268 15.2142 340.562 15.1208 340.788 15.0408C341.028 14.9475 341.208 14.9008 341.328 14.9008C341.435 14.9008 341.528 14.9608 341.608 15.0808C341.702 15.2008 341.775 15.3475 341.828 15.5208C341.882 15.6808 341.922 15.8408 341.948 16.0008C341.988 16.1608 342.008 16.2875 342.008 16.3808C342.008 16.5542 341.962 16.6808 341.868 16.7608C341.788 16.8275 341.628 16.9208 341.388 17.0408C340.975 17.2275 340.515 17.4008 340.008 17.5608C339.502 17.7075 338.968 17.8142 338.408 17.8808C337.848 17.9475 337.288 17.9808 336.728 17.9808ZM347.913 17.8808C347.54 17.8808 347.266 17.8342 347.093 17.7408C346.92 17.6342 346.833 17.4875 346.833 17.3008V4.38082C346.833 4.19415 346.92 4.05415 347.093 3.96082C347.266 3.85415 347.54 3.80082 347.913 3.80082H348.413C348.8 3.80082 349.073 3.85415 349.233 3.96082C349.406 4.05415 349.493 4.19415 349.493 4.38082V17.3008C349.493 17.4875 349.406 17.6342 349.233 17.7408C349.073 17.8342 348.8 17.8808 348.413 17.8808H347.913ZM356.319 17.8808C355.946 17.8808 355.673 17.8342 355.499 17.7408C355.326 17.6342 355.239 17.4875 355.239 17.3008V4.58082C355.239 4.08749 355.473 3.84082 355.939 3.84082H361.579C363.273 3.84082 364.546 4.20082 365.399 4.92082C366.266 5.62749 366.699 6.65415 366.699 8.00082C366.699 8.49415 366.606 8.96749 366.419 9.42082C366.233 9.86082 365.959 10.2475 365.599 10.5808C365.253 10.9008 364.826 11.1342 364.319 11.2808V11.3608C364.639 11.4675 364.926 11.6808 365.179 12.0008C365.446 12.3075 365.673 12.6942 365.859 13.1608L367.479 16.9408C367.533 17.0475 367.573 17.1542 367.599 17.2608C367.626 17.3542 367.639 17.4275 367.639 17.4808C367.639 17.6275 367.559 17.7342 367.399 17.8008C367.239 17.8542 366.966 17.8808 366.579 17.8808H365.979C365.713 17.8808 365.486 17.8475 365.299 17.7808C365.113 17.7008 364.973 17.5542 364.879 17.3408L363.439 13.9808C363.279 13.5808 363.119 13.2675 362.959 13.0408C362.799 12.8142 362.593 12.6542 362.339 12.5608C362.099 12.4542 361.766 12.4008 361.339 12.4008H357.899V17.3008C357.899 17.4875 357.813 17.6342 357.639 17.7408C357.479 17.8342 357.206 17.8808 356.819 17.8808H356.319ZM357.899 10.3008H361.579C362.433 10.3008 363.046 10.1342 363.419 9.80082C363.806 9.46749 363.999 8.92749 363.999 8.18082C363.999 7.44749 363.806 6.91415 363.419 6.58082C363.046 6.24749 362.433 6.08082 361.579 6.08082H357.899V10.3008ZM378.393 17.9808C375.846 17.9808 373.939 17.3808 372.673 16.1808C371.419 14.9808 370.793 13.1942 370.793 10.8208C370.793 8.46082 371.446 6.68749 372.752 5.50082C374.059 4.30082 376.006 3.70082 378.593 3.70082C379.126 3.70082 379.653 3.73415 380.173 3.80082C380.693 3.86749 381.173 3.96749 381.613 4.10082C382.053 4.22082 382.419 4.35415 382.713 4.50082C382.966 4.62082 383.146 4.73415 383.253 4.84082C383.373 4.93415 383.433 5.05415 383.433 5.20082C383.433 5.29415 383.406 5.42082 383.353 5.58082C383.313 5.72749 383.259 5.88082 383.193 6.04082C383.126 6.20082 383.039 6.33415 382.933 6.44082C382.839 6.54749 382.739 6.60082 382.633 6.60082C382.486 6.60082 382.239 6.54749 381.893 6.44082C381.559 6.33415 381.119 6.22749 380.573 6.12082C380.039 6.00082 379.379 5.94082 378.593 5.94082C377.459 5.94082 376.513 6.09415 375.753 6.40082C374.993 6.70749 374.419 7.22082 374.033 7.94082C373.659 8.64749 373.473 9.60749 373.473 10.8208C373.473 12.0475 373.659 13.0208 374.033 13.7408C374.419 14.4475 374.993 14.9608 375.753 15.2808C376.513 15.5875 377.459 15.7408 378.593 15.7408C379.233 15.7408 379.799 15.7008 380.293 15.6208C380.786 15.5275 381.213 15.4275 381.572 15.3208C381.933 15.2142 382.226 15.1208 382.453 15.0408C382.693 14.9475 382.873 14.9008 382.993 14.9008C383.099 14.9008 383.193 14.9608 383.273 15.0808C383.366 15.2008 383.439 15.3475 383.493 15.5208C383.546 15.6808 383.586 15.8408 383.613 16.0008C383.653 16.1608 383.673 16.2875 383.673 16.3808C383.673 16.5542 383.626 16.6808 383.533 16.7608C383.453 16.8275 383.293 16.9208 383.053 17.0408C382.639 17.2275 382.179 17.4008 381.673 17.5608C381.166 17.7075 380.633 17.8142 380.073 17.8808C379.513 17.9475 378.953 17.9808 378.393 17.9808ZM394.797 17.9808C392.731 17.9808 391.131 17.5542 389.997 16.7008C388.864 15.8475 388.297 14.6475 388.297 13.1008V4.38082C388.297 4.19415 388.384 4.05415 388.557 3.96082C388.731 3.85415 389.004 3.80082 389.377 3.80082H389.877C390.264 3.80082 390.537 3.85415 390.697 3.96082C390.871 4.05415 390.957 4.19415 390.957 4.38082V12.9808C390.957 13.8608 391.291 14.5408 391.957 15.0208C392.624 15.5008 393.577 15.7408 394.817 15.7408C396.057 15.7408 397.011 15.5008 397.677 15.0208C398.344 14.5408 398.677 13.8608 398.677 12.9808V4.38082C398.677 4.19415 398.764 4.05415 398.937 3.96082C399.111 3.85415 399.384 3.80082 399.757 3.80082H400.257C400.644 3.80082 400.917 3.85415 401.077 3.96082C401.251 4.05415 401.337 4.19415 401.337 4.38082V13.1008C401.337 14.6475 400.771 15.8475 399.637 16.7008C398.504 17.5542 396.891 17.9808 394.797 17.9808ZM407.643 17.8408C407.15 17.8408 406.903 17.5942 406.903 17.1008V4.38082C406.903 4.19415 406.99 4.05415 407.163 3.96082C407.337 3.85415 407.61 3.80082 407.983 3.80082H408.483C408.87 3.80082 409.143 3.85415 409.303 3.96082C409.477 4.05415 409.563 4.19415 409.563 4.38082V15.6008H415.883C416.243 15.6008 416.423 15.8875 416.423 16.4608V16.9808C416.423 17.5542 416.243 17.8408 415.883 17.8408H407.643ZM420.025 17.8808C419.585 17.8808 419.292 17.8475 419.145 17.7808C418.998 17.7008 418.925 17.6008 418.925 17.4808C418.925 17.4275 418.932 17.3742 418.945 17.3208C418.958 17.2675 418.978 17.2075 419.005 17.1408L424.125 4.40082C424.218 4.16082 424.372 4.00082 424.585 3.92082C424.812 3.84082 425.112 3.80082 425.485 3.80082H426.485C426.858 3.80082 427.152 3.84082 427.365 3.92082C427.592 4.00082 427.752 4.16082 427.845 4.40082L432.965 17.1408C432.992 17.2075 433.005 17.2675 433.005 17.3208C433.018 17.3742 433.025 17.4275 433.025 17.4808C433.025 17.6008 432.945 17.7008 432.785 17.7808C432.638 17.8475 432.398 17.8808 432.065 17.8808H431.305C431.038 17.8808 430.812 17.8542 430.625 17.8008C430.452 17.7342 430.325 17.6008 430.245 17.4008L426.485 7.50082C426.392 7.26082 426.298 7.01415 426.205 6.76082C426.125 6.49415 426.058 6.24749 426.005 6.02082H425.945C425.892 6.23415 425.818 6.47415 425.725 6.74082C425.645 6.99415 425.552 7.24749 425.445 7.50082L421.625 17.4008C421.558 17.6008 421.445 17.7342 421.285 17.8008C421.138 17.8542 420.952 17.8808 420.725 17.8808H420.025ZM421.765 14.6808V12.5808H430.045V14.6808H421.765ZM438.292 17.8808C437.919 17.8808 437.645 17.8342 437.472 17.7408C437.299 17.6342 437.212 17.4875 437.212 17.3008V4.58082C437.212 4.08749 437.445 3.84082 437.912 3.84082H443.552C445.245 3.84082 446.519 4.20082 447.372 4.92082C448.239 5.62749 448.672 6.65415 448.672 8.00082C448.672 8.49415 448.579 8.96749 448.392 9.42082C448.205 9.86082 447.932 10.2475 447.572 10.5808C447.225 10.9008 446.799 11.1342 446.292 11.2808V11.3608C446.612 11.4675 446.899 11.6808 447.152 12.0008C447.419 12.3075 447.645 12.6942 447.832 13.1608L449.452 16.9408C449.505 17.0475 449.545 17.1542 449.572 17.2608C449.599 17.3542 449.612 17.4275 449.612 17.4808C449.612 17.6275 449.532 17.7342 449.372 17.8008C449.212 17.8542 448.939 17.8808 448.552 17.8808H447.952C447.685 17.8808 447.459 17.8475 447.272 17.7808C447.085 17.7008 446.945 17.5542 446.852 17.3408L445.412 13.9808C445.252 13.5808 445.092 13.2675 444.932 13.0408C444.772 12.8142 444.565 12.6542 444.312 12.5608C444.072 12.4542 443.739 12.4008 443.312 12.4008H439.872V17.3008C439.872 17.4875 439.785 17.6342 439.612 17.7408C439.452 17.8342 439.179 17.8808 438.792 17.8808H438.292ZM439.872 10.3008H443.552C444.405 10.3008 445.019 10.1342 445.392 9.80082C445.779 9.46749 445.972 8.92749 445.972 8.18082C445.972 7.44749 445.779 6.91415 445.392 6.58082C445.019 6.24749 444.405 6.08082 443.552 6.08082H439.872V10.3008ZM454.1 17.8808C453.727 17.8808 453.454 17.8342 453.28 17.7408C453.107 17.6342 453.02 17.4875 453.02 17.3008V15.6408C453.02 15.4542 453.107 15.3142 453.28 15.2208C453.454 15.1275 453.727 15.0808 454.1 15.0808H454.62C455.007 15.0808 455.28 15.1275 455.44 15.2208C455.614 15.3142 455.7 15.4542 455.7 15.6408V17.3008C455.7 17.4875 455.614 17.6342 455.44 17.7408C455.28 17.8342 455.007 17.8808 454.62 17.8808H454.1Z" fill="#F9F9F9"/>
</svg>
