<svg width="324" height="72" viewBox="0 0 324 72" fill="none" xmlns="http://www.w3.org/2000/svg">
<path d="M9.73473 31.0858C8.33473 31.0858 7.05139 30.9925 5.88473 30.8058C4.74139 30.6192 3.74973 30.3858 2.90973 30.1058C2.09306 29.8025 1.45139 29.5342 0.984727 29.3008C0.704727 29.1375 0.471393 28.9742 0.284727 28.8108C0.0980599 28.6475 0.00472658 28.4492 0.00472658 28.2158C0.00472658 27.9825 0.0397266 27.7142 0.109727 27.4108C0.179727 27.0842 0.27306 26.7692 0.389727 26.4658C0.529727 26.1625 0.669727 25.9175 0.809727 25.7308C0.97306 25.5208 1.13639 25.4158 1.29973 25.4158C1.53306 25.4158 2.03473 25.5675 2.80473 25.8708C3.59806 26.1508 4.57806 26.4425 5.74473 26.7458C6.93473 27.0258 8.21806 27.1658 9.59473 27.1658C10.7614 27.1658 11.7064 27.0608 12.4297 26.8508C13.1764 26.6408 13.7247 26.3142 14.0747 25.8708C14.4247 25.4275 14.5997 24.8675 14.5997 24.1908C14.5997 23.5842 14.4481 23.0825 14.1447 22.6858C13.8414 22.2658 13.3981 21.9275 12.8147 21.6708C12.2547 21.3908 11.6014 21.1458 10.8547 20.9358C10.1081 20.7258 9.29139 20.5158 8.40473 20.3058C7.54139 20.0958 6.64306 19.8508 5.70973 19.5708C4.79973 19.2908 3.94806 18.9058 3.15473 18.4158C2.36139 17.9025 1.70806 17.2375 1.19473 16.4208C0.704727 15.5808 0.459727 14.5075 0.459727 13.2008C0.459727 11.9875 0.716393 10.9375 1.22973 10.0508C1.76639 9.16415 2.47806 8.42915 3.36473 7.84582C4.27473 7.26249 5.30139 6.83082 6.44473 6.55082C7.61139 6.24749 8.81306 6.09582 10.0497 6.09582C11.0764 6.09582 12.0797 6.16582 13.0597 6.30582C14.0397 6.44582 14.9147 6.62082 15.6847 6.83082C16.4547 7.04082 17.0264 7.25082 17.3997 7.46082C17.6331 7.60082 17.8197 7.74082 17.9597 7.88082C18.1231 7.99749 18.2047 8.14915 18.2047 8.33582C18.2047 8.52249 18.1697 8.77915 18.0997 9.10582C18.0531 9.40915 17.9714 9.72415 17.8547 10.0508C17.7614 10.3542 17.6331 10.6108 17.4697 10.8208C17.3297 11.0308 17.1664 11.1358 16.9797 11.1358C16.7231 11.1358 16.2681 11.0425 15.6147 10.8558C14.9847 10.6458 14.2031 10.4592 13.2697 10.2958C12.3597 10.1092 11.2981 10.0158 10.0847 10.0158C8.96473 10.0158 8.03139 10.1208 7.28473 10.3308C6.53806 10.5408 5.97806 10.8558 5.60473 11.2758C5.25473 11.6958 5.07973 12.2208 5.07973 12.8508C5.07973 13.5275 5.31306 14.0525 5.77973 14.4258C6.26973 14.7992 6.91139 15.1142 7.70473 15.3708C8.52139 15.6042 9.43139 15.8492 10.4347 16.1058C11.4381 16.3625 12.4531 16.6542 13.4797 16.9808C14.5064 17.2842 15.4514 17.6925 16.3147 18.2058C17.1781 18.7192 17.8781 19.4192 18.4147 20.3058C18.9514 21.1925 19.2197 22.3358 19.2197 23.7358C19.2197 25.0192 18.9631 26.1275 18.4497 27.0608C17.9597 27.9942 17.2714 28.7642 16.3847 29.3708C15.4981 29.9542 14.4831 30.3858 13.3397 30.6658C12.1964 30.9458 10.9947 31.0858 9.73473 31.0858ZM37.8961 31.0858C34.2794 31.0858 31.4794 30.3392 29.4961 28.8458C27.5127 27.3525 26.5211 25.2525 26.5211 22.5458V7.28582C26.5211 6.95915 26.6727 6.71415 26.9761 6.55082C27.2794 6.36415 27.7577 6.27082 28.4111 6.27082H29.2861C29.9627 6.27082 30.4411 6.36415 30.7211 6.55082C31.0244 6.71415 31.1761 6.95915 31.1761 7.28582V22.3358C31.1761 23.8758 31.7594 25.0658 32.9261 25.9058C34.0927 26.7458 35.7611 27.1658 37.9311 27.1658C40.1011 27.1658 41.7694 26.7458 42.9361 25.9058C44.1027 25.0658 44.6861 23.8758 44.6861 22.3358V7.28582C44.6861 6.95915 44.8377 6.71415 45.1411 6.55082C45.4444 6.36415 45.9227 6.27082 46.5761 6.27082H47.4511C48.1277 6.27082 48.6061 6.36415 48.8861 6.55082C49.1894 6.71415 49.3411 6.95915 49.3411 7.28582V22.5458C49.3411 25.2525 48.3494 27.3525 46.3661 28.8458C44.3827 30.3392 41.5594 31.0858 37.8961 31.0858ZM66.432 31.0858C65.032 31.0858 63.7487 30.9925 62.582 30.8058C61.4387 30.6192 60.447 30.3858 59.607 30.1058C58.7903 29.8025 58.1487 29.5342 57.682 29.3008C57.402 29.1375 57.1687 28.9742 56.982 28.8108C56.7953 28.6475 56.702 28.4492 56.702 28.2158C56.702 27.9825 56.737 27.7142 56.807 27.4108C56.877 27.0842 56.9703 26.7692 57.087 26.4658C57.227 26.1625 57.367 25.9175 57.507 25.7308C57.6703 25.5208 57.8337 25.4158 57.997 25.4158C58.2303 25.4158 58.732 25.5675 59.502 25.8708C60.2953 26.1508 61.2753 26.4425 62.442 26.7458C63.632 27.0258 64.9153 27.1658 66.292 27.1658C67.4587 27.1658 68.4037 27.0608 69.127 26.8508C69.8737 26.6408 70.422 26.3142 70.772 25.8708C71.122 25.4275 71.297 24.8675 71.297 24.1908C71.297 23.5842 71.1453 23.0825 70.842 22.6858C70.5387 22.2658 70.0953 21.9275 69.512 21.6708C68.952 21.3908 68.2987 21.1458 67.552 20.9358C66.8053 20.7258 65.9887 20.5158 65.102 20.3058C64.2387 20.0958 63.3403 19.8508 62.407 19.5708C61.497 19.2908 60.6453 18.9058 59.852 18.4158C59.0587 17.9025 58.4053 17.2375 57.892 16.4208C57.402 15.5808 57.157 14.5075 57.157 13.2008C57.157 11.9875 57.4137 10.9375 57.927 10.0508C58.4637 9.16415 59.1753 8.42915 60.062 7.84582C60.972 7.26249 61.9987 6.83082 63.142 6.55082C64.3087 6.24749 65.5103 6.09582 66.747 6.09582C67.7737 6.09582 68.777 6.16582 69.757 6.30582C70.737 6.44582 71.612 6.62082 72.382 6.83082C73.152 7.04082 73.7237 7.25082 74.097 7.46082C74.3303 7.60082 74.517 7.74082 74.657 7.88082C74.8203 7.99749 74.902 8.14915 74.902 8.33582C74.902 8.52249 74.867 8.77915 74.797 9.10582C74.7503 9.40915 74.6687 9.72415 74.552 10.0508C74.4587 10.3542 74.3303 10.6108 74.167 10.8208C74.027 11.0308 73.8637 11.1358 73.677 11.1358C73.4203 11.1358 72.9653 11.0425 72.312 10.8558C71.682 10.6458 70.9003 10.4592 69.967 10.2958C69.057 10.1092 67.9953 10.0158 66.782 10.0158C65.662 10.0158 64.7287 10.1208 63.982 10.3308C63.2353 10.5408 62.6753 10.8558 62.302 11.2758C61.952 11.6958 61.777 12.2208 61.777 12.8508C61.777 13.5275 62.0103 14.0525 62.477 14.4258C62.967 14.7992 63.6087 15.1142 64.402 15.3708C65.2187 15.6042 66.1287 15.8492 67.132 16.1058C68.1353 16.3625 69.1503 16.6542 70.177 16.9808C71.2037 17.2842 72.1487 17.6925 73.012 18.2058C73.8753 18.7192 74.5753 19.4192 75.112 20.3058C75.6487 21.1925 75.917 22.3358 75.917 23.7358C75.917 25.0192 75.6603 26.1275 75.147 27.0608C74.657 27.9942 73.9687 28.7642 73.082 29.3708C72.1953 29.9542 71.1803 30.3858 70.037 30.6658C68.8937 30.9458 67.692 31.0858 66.432 31.0858ZM95.2933 31.0858C90.8367 31.0858 87.5 30.0358 85.2833 27.9358C83.09 25.8358 81.9933 22.7092 81.9933 18.5558C81.9933 14.4258 83.1367 11.3225 85.4233 9.24582C87.71 7.14582 91.1167 6.09582 95.6433 6.09582C96.5767 6.09582 97.4983 6.15415 98.4083 6.27082C99.3183 6.38749 100.158 6.56249 100.928 6.79582C101.698 7.00582 102.34 7.23915 102.853 7.49582C103.297 7.70582 103.612 7.90415 103.798 8.09082C104.008 8.25415 104.113 8.46415 104.113 8.72082C104.113 8.88415 104.067 9.10582 103.973 9.38582C103.903 9.64249 103.81 9.91082 103.693 10.1908C103.577 10.4708 103.425 10.7042 103.238 10.8908C103.075 11.0775 102.9 11.1708 102.713 11.1708C102.457 11.1708 102.025 11.0775 101.418 10.8908C100.835 10.7042 100.065 10.5175 99.1083 10.3308C98.175 10.1208 97.02 10.0158 95.6433 10.0158C93.66 10.0158 92.0033 10.2842 90.6733 10.8208C89.3433 11.3575 88.34 12.2558 87.6633 13.5158C87.01 14.7525 86.6833 16.4325 86.6833 18.5558C86.6833 20.7025 87.01 22.4058 87.6633 23.6658C88.34 24.9025 89.3433 25.8008 90.6733 26.3608C92.0033 26.8975 93.66 27.1658 95.6433 27.1658C96.7633 27.1658 97.755 27.0958 98.6183 26.9558C99.4817 26.7925 100.228 26.6175 100.858 26.4308C101.488 26.2442 102.002 26.0808 102.398 25.9408C102.818 25.7775 103.133 25.6958 103.343 25.6958C103.53 25.6958 103.693 25.8008 103.833 26.0108C103.997 26.2208 104.125 26.4775 104.218 26.7808C104.312 27.0608 104.382 27.3408 104.428 27.6208C104.498 27.9008 104.533 28.1225 104.533 28.2858C104.533 28.5892 104.452 28.8108 104.288 28.9508C104.148 29.0675 103.868 29.2308 103.448 29.4408C102.725 29.7675 101.92 30.0708 101.033 30.3508C100.147 30.6075 99.2133 30.7942 98.2333 30.9108C97.2533 31.0275 96.2733 31.0858 95.2933 31.0858ZM114.867 30.9108C114.213 30.9108 113.735 30.8292 113.432 30.6658C113.128 30.4792 112.977 30.2225 112.977 29.8958V7.63582C112.977 6.77249 113.385 6.34082 114.202 6.34082H124.072C127.035 6.34082 129.263 6.97082 130.757 8.23082C132.273 9.46749 133.032 11.2642 133.032 13.6208C133.032 14.4842 132.868 15.3125 132.542 16.1058C132.215 16.8758 131.737 17.5525 131.107 18.1358C130.5 18.6958 129.753 19.1042 128.867 19.3608V19.5008C129.427 19.6875 129.928 20.0608 130.372 20.6208C130.838 21.1575 131.235 21.8342 131.562 22.6508L134.397 29.2658C134.49 29.4525 134.56 29.6392 134.607 29.8258C134.653 29.9892 134.677 30.1175 134.677 30.2108C134.677 30.4675 134.537 30.6542 134.257 30.7708C133.977 30.8642 133.498 30.9108 132.822 30.9108H131.772C131.305 30.9108 130.908 30.8525 130.582 30.7358C130.255 30.5958 130.01 30.3392 129.847 29.9658L127.327 24.0858C127.047 23.3858 126.767 22.8375 126.487 22.4408C126.207 22.0442 125.845 21.7642 125.402 21.6008C124.982 21.4142 124.398 21.3208 123.652 21.3208H117.632V29.8958C117.632 30.2225 117.48 30.4792 117.177 30.6658C116.897 30.8292 116.418 30.9108 115.742 30.9108H114.867ZM117.632 17.6458H124.072C125.565 17.6458 126.638 17.3542 127.292 16.7708C127.968 16.1875 128.307 15.2425 128.307 13.9358C128.307 12.6525 127.968 11.7192 127.292 11.1358C126.638 10.5525 125.565 10.2608 124.072 10.2608H117.632V17.6458ZM144.001 30.9108C143.348 30.9108 142.87 30.8292 142.566 30.6658C142.263 30.4792 142.111 30.2225 142.111 29.8958V7.28582C142.111 6.95915 142.263 6.71415 142.566 6.55082C142.87 6.36415 143.348 6.27082 144.001 6.27082H144.876C145.553 6.27082 146.031 6.36415 146.311 6.55082C146.615 6.71415 146.766 6.95915 146.766 7.28582V29.8958C146.766 30.2225 146.615 30.4792 146.311 30.6658C146.031 30.8292 145.553 30.9108 144.876 30.9108H144.001ZM142.461 4.59082C142.065 4.59082 141.761 4.55582 141.551 4.48582C141.365 4.41582 141.271 4.29915 141.271 4.13582C141.271 4.04249 141.295 3.93749 141.341 3.82082C141.411 3.68082 141.528 3.52915 141.691 3.36582L143.826 1.30082C144.2 0.950819 144.585 0.705819 144.981 0.565818C145.378 0.425818 145.961 0.355819 146.731 0.355819C147.455 0.355819 148.015 0.402485 148.411 0.495819C148.808 0.589152 149.006 0.752486 149.006 0.985819C149.006 1.14915 148.925 1.32415 148.761 1.51082C148.621 1.69749 148.306 1.93082 147.816 2.21082L145.016 3.89082C144.596 4.14749 144.211 4.33415 143.861 4.45082C143.511 4.54415 143.045 4.59082 142.461 4.59082ZM157.942 30.8408C157.102 30.8408 156.682 30.4092 156.682 29.5458V7.63582C156.682 6.77249 157.102 6.34082 157.942 6.34082H167.987C169.901 6.34082 171.441 6.60915 172.607 7.14582C173.797 7.65915 174.672 8.38249 175.232 9.31582C175.816 10.2258 176.107 11.2992 176.107 12.5358C176.107 13.3525 175.944 14.1225 175.617 14.8458C175.291 15.5458 174.836 16.1642 174.252 16.7008C173.692 17.2142 173.039 17.6108 172.292 17.8908L172.327 18.0308C173.284 18.2175 174.124 18.5908 174.847 19.1508C175.571 19.7108 176.131 20.3875 176.527 21.1808C176.924 21.9742 177.122 22.8375 177.122 23.7708C177.122 25.3808 176.784 26.7108 176.107 27.7608C175.454 28.8108 174.462 29.5925 173.132 30.1058C171.826 30.5958 170.192 30.8408 168.232 30.8408H157.942ZM161.267 26.9208H168.617C169.924 26.9208 170.881 26.6525 171.487 26.1158C172.094 25.5558 172.397 24.7158 172.397 23.5958C172.397 22.4992 172.047 21.6825 171.347 21.1458C170.647 20.6092 169.551 20.3408 168.057 20.3408H161.267V26.9208ZM161.267 16.4208H167.602C168.886 16.4208 169.831 16.1642 170.437 15.6508C171.067 15.1375 171.382 14.3325 171.382 13.2358C171.382 12.2092 171.079 11.4508 170.472 10.9608C169.889 10.4708 168.932 10.2258 167.602 10.2258H161.267V16.4208ZM186.054 30.8408C185.237 30.8408 184.829 30.4092 184.829 29.5458V7.63582C184.829 6.77249 185.237 6.34082 186.054 6.34082H202.609C203.216 6.34082 203.519 6.84249 203.519 7.84582V8.75582C203.519 9.75915 203.216 10.2608 202.609 10.2608H189.484V16.3508H201.629C202.236 16.3508 202.539 16.8525 202.539 17.8558V18.7658C202.539 19.7692 202.236 20.2708 201.629 20.2708H189.484V26.9208H202.644C203.251 26.9208 203.554 27.4225 203.554 28.4258V29.3358C203.554 30.3392 203.251 30.8408 202.644 30.8408H186.054ZM219.82 30.9108C219.166 30.9108 218.688 30.8292 218.385 30.6658C218.105 30.4792 217.965 30.2225 217.965 29.8958V10.2608H210.265C209.658 10.2608 209.355 9.75915 209.355 8.75582V7.84582C209.355 6.84249 209.658 6.34082 210.265 6.34082H230.285C230.915 6.34082 231.23 6.84249 231.23 7.84582V8.75582C231.23 9.75915 230.915 10.2608 230.285 10.2608H222.62V29.8958C222.62 30.2225 222.468 30.4792 222.165 30.6658C221.885 30.8292 221.418 30.9108 220.765 30.9108H219.82ZM239.846 30.8408C239.029 30.8408 238.621 30.4092 238.621 29.5458V7.63582C238.621 6.77249 239.029 6.34082 239.846 6.34082H256.401C257.008 6.34082 257.311 6.84249 257.311 7.84582V8.75582C257.311 9.75915 257.008 10.2608 256.401 10.2608H243.276V16.3508H255.421C256.028 16.3508 256.331 16.8525 256.331 17.8558V18.7658C256.331 19.7692 256.028 20.2708 255.421 20.2708H243.276V26.9208H256.436C257.043 26.9208 257.346 27.4225 257.346 28.4258V29.3358C257.346 30.3392 257.043 30.8408 256.436 30.8408H239.846ZM276.91 30.9108C276.14 30.9108 275.627 30.8525 275.37 30.7358C275.113 30.5958 274.985 30.4208 274.985 30.2108C274.985 30.1175 274.997 30.0242 275.02 29.9308C275.043 29.8375 275.078 29.7325 275.125 29.6158L284.085 7.32082C284.248 6.90082 284.517 6.62082 284.89 6.48082C285.287 6.34082 285.812 6.27082 286.465 6.27082H288.215C288.868 6.27082 289.382 6.34082 289.755 6.48082C290.152 6.62082 290.432 6.90082 290.595 7.32082L299.555 29.6158C299.602 29.7325 299.625 29.8375 299.625 29.9308C299.648 30.0242 299.66 30.1175 299.66 30.2108C299.66 30.4208 299.52 30.5958 299.24 30.7358C298.983 30.8525 298.563 30.9108 297.98 30.9108H296.65C296.183 30.9108 295.787 30.8642 295.46 30.7708C295.157 30.6542 294.935 30.4208 294.795 30.0708L288.215 12.7458C288.052 12.3258 287.888 11.8942 287.725 11.4508C287.585 10.9842 287.468 10.5525 287.375 10.1558H287.27C287.177 10.5292 287.048 10.9492 286.885 11.4158C286.745 11.8592 286.582 12.3025 286.395 12.7458L279.71 30.0708C279.593 30.4208 279.395 30.6542 279.115 30.7708C278.858 30.8642 278.532 30.9108 278.135 30.9108H276.91ZM279.955 25.3108V21.6358H294.445V25.3108H279.955ZM308.282 30.8408C307.419 30.8408 306.987 30.4092 306.987 29.5458V7.28582C306.987 6.95915 307.139 6.71415 307.442 6.55082C307.746 6.36415 308.224 6.27082 308.877 6.27082H309.752C310.429 6.27082 310.907 6.36415 311.187 6.55082C311.491 6.71415 311.642 6.95915 311.642 7.28582V26.9208H322.702C323.332 26.9208 323.647 27.4225 323.647 28.4258V29.3358C323.647 30.3392 323.332 30.8408 322.702 30.8408H308.282Z" fill="#F9F9F9"/>
<path d="M46.972 70.9108C46.3187 70.9108 45.8403 70.8292 45.537 70.6658C45.2337 70.4792 45.082 70.2225 45.082 69.8958V47.2858C45.082 46.9592 45.2337 46.7142 45.537 46.5508C45.8403 46.3642 46.3187 46.2708 46.972 46.2708H48.057C48.407 46.2708 48.7103 46.3058 48.967 46.3758C49.247 46.4225 49.492 46.5158 49.702 46.6558C49.912 46.7958 50.122 46.9942 50.332 47.2508L62.372 62.0558C62.6753 62.4292 62.967 62.8492 63.247 63.3158C63.527 63.7592 63.737 64.1325 63.877 64.4358L64.017 64.4008C63.9937 64.0742 63.9587 63.7125 63.912 63.3158C63.8887 62.8958 63.877 62.4642 63.877 62.0208V47.2858C63.877 46.9592 64.017 46.7142 64.297 46.5508C64.6003 46.3642 65.0787 46.2708 65.732 46.2708H66.362C67.0387 46.2708 67.517 46.3642 67.797 46.5508C68.1003 46.7142 68.252 46.9592 68.252 47.2858V69.8958C68.252 70.2225 68.1003 70.4792 67.797 70.6658C67.517 70.8292 67.0387 70.9108 66.362 70.9108H65.277C64.9503 70.9108 64.6587 70.8875 64.402 70.8408C64.1453 70.7942 63.9237 70.7125 63.737 70.5958C63.5503 70.4558 63.3753 70.2808 63.212 70.0708L50.892 54.9508C50.612 54.6008 50.332 54.2042 50.052 53.7608C49.7953 53.3175 49.5853 52.9442 49.422 52.6408L49.282 52.6758C49.3287 53.0025 49.3637 53.3758 49.387 53.7958C49.4337 54.1925 49.457 54.6125 49.457 55.0558V69.8958C49.457 70.2225 49.317 70.4792 49.037 70.6658C48.757 70.8292 48.2787 70.9108 47.602 70.9108H46.972ZM79.5433 70.8408C78.7267 70.8408 78.3183 70.4092 78.3183 69.5458V47.6358C78.3183 46.7725 78.7267 46.3408 79.5433 46.3408H96.0983C96.705 46.3408 97.0083 46.8425 97.0083 47.8458V48.7558C97.0083 49.7592 96.705 50.2608 96.0983 50.2608H82.9733V56.3508H95.1183C95.725 56.3508 96.0283 56.8525 96.0283 57.8558V58.7658C96.0283 59.7692 95.725 60.2708 95.1183 60.2708H82.9733V66.9208H96.1333C96.74 66.9208 97.0433 67.4225 97.0433 68.4258V69.3358C97.0433 70.3392 96.74 70.8408 96.1333 70.8408H79.5433ZM111.769 70.9108C111.116 70.9108 110.579 70.8408 110.159 70.7008C109.762 70.5608 109.506 70.2808 109.389 69.8608L102.879 47.5658C102.856 47.4492 102.832 47.3442 102.809 47.2508C102.786 47.1575 102.774 47.0642 102.774 46.9708C102.774 46.7375 102.902 46.5625 103.159 46.4458C103.439 46.3292 103.871 46.2708 104.454 46.2708H105.784C106.251 46.2708 106.647 46.3175 106.974 46.4108C107.324 46.5042 107.546 46.7375 107.639 47.1108L112.574 67.0258H112.714L117.509 47.3208C117.602 46.8775 117.847 46.5975 118.244 46.4808C118.664 46.3408 119.189 46.2708 119.819 46.2708H121.534C122.187 46.2708 122.712 46.3408 123.109 46.4808C123.529 46.5975 123.786 46.8775 123.879 47.3208L128.534 67.0258H128.674L133.749 47.1108C133.842 46.7608 134.029 46.5392 134.309 46.4458C134.589 46.3292 134.927 46.2708 135.324 46.2708H136.549C137.342 46.2708 137.856 46.3292 138.089 46.4458C138.346 46.5625 138.474 46.7375 138.474 46.9708C138.474 47.0642 138.462 47.1575 138.439 47.2508C138.416 47.3442 138.381 47.4492 138.334 47.5658L131.824 69.8608C131.707 70.2808 131.439 70.5608 131.019 70.7008C130.622 70.8408 130.109 70.9108 129.479 70.9108H127.694C127.064 70.9108 126.539 70.8525 126.119 70.7358C125.699 70.5958 125.442 70.3042 125.349 69.8608L120.694 50.7508H120.554L115.899 69.8608C115.782 70.3042 115.514 70.5958 115.094 70.7358C114.697 70.8525 114.172 70.9108 113.519 70.9108H111.769ZM153.132 71.0858C151.732 71.0858 150.449 70.9925 149.282 70.8058C148.139 70.6192 147.147 70.3858 146.307 70.1058C145.491 69.8025 144.849 69.5342 144.382 69.3008C144.102 69.1375 143.869 68.9742 143.682 68.8108C143.496 68.6475 143.402 68.4492 143.402 68.2158C143.402 67.9825 143.437 67.7142 143.507 67.4108C143.577 67.0842 143.671 66.7692 143.787 66.4658C143.927 66.1625 144.067 65.9175 144.207 65.7308C144.371 65.5208 144.534 65.4158 144.697 65.4158C144.931 65.4158 145.432 65.5675 146.202 65.8708C146.996 66.1508 147.976 66.4425 149.142 66.7458C150.332 67.0258 151.616 67.1658 152.992 67.1658C154.159 67.1658 155.104 67.0608 155.827 66.8508C156.574 66.6408 157.122 66.3142 157.472 65.8708C157.822 65.4275 157.997 64.8675 157.997 64.1908C157.997 63.5842 157.846 63.0825 157.542 62.6858C157.239 62.2658 156.796 61.9275 156.212 61.6708C155.652 61.3908 154.999 61.1458 154.252 60.9358C153.506 60.7258 152.689 60.5158 151.802 60.3058C150.939 60.0958 150.041 59.8508 149.107 59.5708C148.197 59.2908 147.346 58.9058 146.552 58.4158C145.759 57.9025 145.106 57.2375 144.592 56.4208C144.102 55.5808 143.857 54.5075 143.857 53.2008C143.857 51.9875 144.114 50.9375 144.627 50.0508C145.164 49.1642 145.876 48.4292 146.762 47.8458C147.672 47.2625 148.699 46.8308 149.842 46.5508C151.009 46.2475 152.211 46.0958 153.447 46.0958C154.474 46.0958 155.477 46.1658 156.457 46.3058C157.437 46.4458 158.312 46.6208 159.082 46.8308C159.852 47.0408 160.424 47.2508 160.797 47.4608C161.031 47.6008 161.217 47.7408 161.357 47.8808C161.521 47.9975 161.602 48.1492 161.602 48.3358C161.602 48.5225 161.567 48.7792 161.497 49.1058C161.451 49.4092 161.369 49.7242 161.252 50.0508C161.159 50.3542 161.031 50.6108 160.867 50.8208C160.727 51.0308 160.564 51.1358 160.377 51.1358C160.121 51.1358 159.666 51.0425 159.012 50.8558C158.382 50.6458 157.601 50.4592 156.667 50.2958C155.757 50.1092 154.696 50.0158 153.482 50.0158C152.362 50.0158 151.429 50.1208 150.682 50.3308C149.936 50.5408 149.376 50.8558 149.002 51.2758C148.652 51.6958 148.477 52.2208 148.477 52.8508C148.477 53.5275 148.711 54.0525 149.177 54.4258C149.667 54.7992 150.309 55.1142 151.102 55.3708C151.919 55.6042 152.829 55.8492 153.832 56.1058C154.836 56.3625 155.851 56.6542 156.877 56.9808C157.904 57.2842 158.849 57.6925 159.712 58.2058C160.576 58.7192 161.276 59.4192 161.812 60.3058C162.349 61.1925 162.617 62.3358 162.617 63.7358C162.617 65.0192 162.361 66.1275 161.847 67.0608C161.357 67.9942 160.669 68.7642 159.782 69.3708C158.896 69.9542 157.881 70.3858 156.737 70.6658C155.594 70.9458 154.392 71.0858 153.132 71.0858ZM171.564 70.8408C170.7 70.8408 170.269 70.4092 170.269 69.5458V47.2858C170.269 46.9592 170.42 46.7142 170.724 46.5508C171.027 46.3642 171.505 46.2708 172.159 46.2708H173.034C173.71 46.2708 174.189 46.3642 174.469 46.5508C174.772 46.7142 174.924 46.9592 174.924 47.2858V66.9208H185.984C186.614 66.9208 186.929 67.4225 186.929 68.4258V69.3358C186.929 70.3392 186.614 70.8408 185.984 70.8408H171.564ZM195.296 70.8408C194.48 70.8408 194.071 70.4092 194.071 69.5458V47.6358C194.071 46.7725 194.48 46.3408 195.296 46.3408H211.851C212.458 46.3408 212.761 46.8425 212.761 47.8458V48.7558C212.761 49.7592 212.458 50.2608 211.851 50.2608H198.726V56.3508H210.871C211.478 56.3508 211.781 56.8525 211.781 57.8558V58.7658C211.781 59.7692 211.478 60.2708 210.871 60.2708H198.726V66.9208H211.886C212.493 66.9208 212.796 67.4225 212.796 68.4258V69.3358C212.796 70.3392 212.493 70.8408 211.886 70.8408H195.296ZM229.062 70.9108C228.409 70.9108 227.93 70.8292 227.627 70.6658C227.347 70.4792 227.207 70.2225 227.207 69.8958V50.2608H219.507C218.9 50.2608 218.597 49.7592 218.597 48.7558V47.8458C218.597 46.8425 218.9 46.3408 219.507 46.3408H239.527C240.157 46.3408 240.472 46.8425 240.472 47.8458V48.7558C240.472 49.7592 240.157 50.2608 239.527 50.2608H231.862V69.8958C231.862 70.2225 231.71 70.4792 231.407 70.6658C231.127 70.8292 230.66 70.9108 230.007 70.9108H229.062ZM255.633 70.9108C254.98 70.9108 254.502 70.8292 254.198 70.6658C253.918 70.4792 253.778 70.2225 253.778 69.8958V50.2608H246.078C245.472 50.2608 245.168 49.7592 245.168 48.7558V47.8458C245.168 46.8425 245.472 46.3408 246.078 46.3408H266.098C266.728 46.3408 267.043 46.8425 267.043 47.8458V48.7558C267.043 49.7592 266.728 50.2608 266.098 50.2608H258.433V69.8958C258.433 70.2225 258.282 70.4792 257.978 70.6658C257.698 70.8292 257.232 70.9108 256.578 70.9108H255.633ZM275.66 70.8408C274.843 70.8408 274.435 70.4092 274.435 69.5458V47.6358C274.435 46.7725 274.843 46.3408 275.66 46.3408H292.215C292.821 46.3408 293.125 46.8425 293.125 47.8458V48.7558C293.125 49.7592 292.821 50.2608 292.215 50.2608H279.09V56.3508H291.235C291.841 56.3508 292.145 56.8525 292.145 57.8558V58.7658C292.145 59.7692 291.841 60.2708 291.235 60.2708H279.09V66.9208H292.25C292.856 66.9208 293.16 67.4225 293.16 68.4258V69.3358C293.16 70.3392 292.856 70.8408 292.25 70.8408H275.66ZM303.545 70.9108C302.892 70.9108 302.414 70.8292 302.11 70.6658C301.807 70.4792 301.655 70.2225 301.655 69.8958V47.6358C301.655 46.7725 302.064 46.3408 302.88 46.3408H312.75C315.714 46.3408 317.942 46.9708 319.435 48.2308C320.952 49.4675 321.71 51.2642 321.71 53.6208C321.71 54.4842 321.547 55.3125 321.22 56.1058C320.894 56.8758 320.415 57.5525 319.785 58.1358C319.179 58.6958 318.432 59.1042 317.545 59.3608V59.5008C318.105 59.6875 318.607 60.0608 319.05 60.6208C319.517 61.1575 319.914 61.8342 320.24 62.6508L323.075 69.2658C323.169 69.4525 323.239 69.6392 323.285 69.8258C323.332 69.9892 323.355 70.1175 323.355 70.2108C323.355 70.4675 323.215 70.6542 322.935 70.7708C322.655 70.8642 322.177 70.9108 321.5 70.9108H320.45C319.984 70.9108 319.587 70.8525 319.26 70.7358C318.934 70.5958 318.689 70.3392 318.525 69.9658L316.005 64.0858C315.725 63.3858 315.445 62.8375 315.165 62.4408C314.885 62.0442 314.524 61.7642 314.08 61.6008C313.66 61.4142 313.077 61.3208 312.33 61.3208H306.31V69.8958C306.31 70.2225 306.159 70.4792 305.855 70.6658C305.575 70.8292 305.097 70.9108 304.42 70.9108H303.545ZM306.31 57.6458H312.75C314.244 57.6458 315.317 57.3542 315.97 56.7708C316.647 56.1875 316.985 55.2425 316.985 53.9358C316.985 52.6525 316.647 51.7192 315.97 51.1358C315.317 50.5525 314.244 50.2608 312.75 50.2608H306.31V57.6458Z" fill="#05DD71"/>
</svg>
