<svg width="162" height="58" viewBox="0 0 162 58" fill="none" xmlns="http://www.w3.org/2000/svg">
<path d="M150.448 13.7276V16.0876C146.929 13.2844 142.548 11.7849 138.05 11.8435C126.23 11.8435 116.97 21.7916 116.97 34.4984C116.931 40.062 118.878 45.457 122.462 49.7132C124.48 52.0244 126.97 53.876 129.764 55.1428C132.559 56.4097 135.592 57.0624 138.661 57.0569C142.97 57.1192 147.156 55.6209 150.448 52.8384V55.2113C150.447 55.3388 150.471 55.4653 150.519 55.5834C150.567 55.7015 150.638 55.8091 150.728 55.8998C150.817 55.9906 150.924 56.0628 151.041 56.1124C151.159 56.162 151.285 56.1879 151.412 56.1888H160.717C160.974 56.1854 161.219 56.0807 161.398 55.8976C161.578 55.7144 161.677 55.4677 161.676 55.2113V13.7276C161.676 13.6009 161.652 13.4753 161.605 13.358C161.557 13.2406 161.487 13.1338 161.398 13.0437C161.309 12.9535 161.203 12.8817 161.086 12.8325C160.969 12.7832 160.844 12.7574 160.717 12.7566H151.393C151.266 12.7566 151.14 12.7818 151.022 12.8306C150.905 12.8795 150.798 12.9511 150.709 13.0414C150.619 13.1316 150.548 13.2387 150.5 13.3565C150.452 13.4743 150.428 13.6004 150.429 13.7276M151.29 34.5177C151.29 40.4017 146.789 46.2149 139.953 46.2149C133.381 46.2149 128.622 41.1541 128.622 34.5177C128.622 27.1482 134.056 22.7754 139.818 22.7754C146.969 22.7754 151.29 28.6273 151.29 34.5177Z" fill="#02090A"/>
<path d="M27.2122 46.543C24.6013 46.543 22.7107 45.7391 21.4761 44.1636C20.5308 42.9804 20.0935 41.3985 20.0935 38.7941V22.7755H32.1251C32.3641 22.7723 32.5926 22.6768 32.7627 22.509C32.9329 22.3412 33.0316 22.1141 33.0383 21.8752V13.6119C33.0391 13.4912 33.0162 13.3714 32.9707 13.2595C32.9253 13.1476 32.8583 13.0458 32.7735 12.9598C32.6887 12.8738 32.5878 12.8054 32.4765 12.7584C32.3653 12.7114 32.2459 12.6868 32.1251 12.6859H20.0935V1.62532C20.0935 1.3689 19.9921 1.12288 19.8114 0.940965C19.6307 0.759048 19.3853 0.655995 19.1289 0.654297L9.38657 0.654297C9.13016 0.655995 8.88483 0.759048 8.70411 0.940965C8.5234 1.12288 8.42198 1.3689 8.42199 1.62532V12.6859H1.57341C1.44674 12.6868 1.32147 12.7125 1.20477 12.7618C1.08806 12.8111 0.982197 12.8828 0.893224 12.973C0.80425 13.0632 0.733908 13.17 0.686214 13.2873C0.63852 13.4047 0.614409 13.5303 0.615256 13.6569V21.8045C0.614409 21.9312 0.63852 22.0568 0.686214 22.1741C0.733908 22.2915 0.80425 22.3983 0.893224 22.4884C0.982197 22.5786 1.08806 22.6504 1.20477 22.6996C1.32147 22.7489 1.44674 22.7747 1.57341 22.7755H8.42199V37.7395C8.42199 43.855 9.38014 47.739 11.6373 50.7293C14.6854 54.832 19.8298 57.0055 26.5241 57.0055C31.6686 57.0055 34.9739 55.7773 36.7551 54.3625C36.9925 54.1447 37.1518 53.855 37.2087 53.5379C37.2656 53.2208 37.217 52.8938 37.0702 52.607C36.8194 52.2533 32.8453 45.887 32.8453 45.887C32.658 45.6076 32.3685 45.4128 32.0391 45.3442C31.7098 45.2757 31.3666 45.339 31.0834 45.5205C29.887 46.1381 28.5702 46.4871 27.225 46.543" fill="#02090A"/>
<path d="M55.6032 11.792C52.7237 11.7574 49.8709 12.347 47.241 13.5204C44.6112 14.6938 42.2668 16.423 40.3692 18.5891C36.6219 23.0145 34.6068 28.6488 34.6974 34.4469C34.6974 47.7261 43.9446 57.0054 57.2044 57.0054C62.9181 57.028 68.4507 55.0021 72.7986 51.2951C72.9787 51.1343 73.1909 50.9285 73.4417 50.7099C73.6102 50.5429 73.7122 50.3204 73.7288 50.0838C73.7453 49.8471 73.6753 49.6125 73.5317 49.4238L68.9145 43.2761C68.8349 43.1669 68.7327 43.076 68.6149 43.0096C68.4971 42.9433 68.3665 42.9029 68.2318 42.8913C68.0971 42.8798 67.9615 42.8972 67.8341 42.9425C67.7067 42.9878 67.5905 43.0599 67.4934 43.1539C67.2233 43.4112 66.9082 43.7005 66.5738 43.9706C64.0425 46.1412 60.8342 47.3622 57.5002 47.4238C51.4169 47.4238 46.7354 43.3018 46.0795 37.3921H74.4706C74.8111 37.3906 75.1389 37.2628 75.3907 37.0336C75.6426 36.8044 75.8004 36.4899 75.8338 36.151C75.8853 35.598 75.9367 34.8649 75.9367 33.9839C76.0168 28.2521 73.9919 22.69 70.2457 18.3512C68.4186 16.2712 66.1652 14.6089 63.6387 13.4772C61.1121 12.3454 58.3716 11.7706 55.6032 11.792ZM55.6032 21.3671C59.2558 21.3671 63.455 24.1708 63.963 28.7237H46.6004C47.147 25.1612 50.7224 21.3671 55.6418 21.3671" fill="#02090A"/>
<path opacity="0.7" d="M97.074 45.8805V39.675C97.1354 36.8646 97.6433 34.0819 98.5787 31.431C99.5276 28.4726 101.036 25.724 103.022 23.3349L105.704 19.856V34.3762L97.074 45.8805Z" fill="#02090A"/>
<path opacity="0.9" d="M105.736 19.8559L111.434 12.48C111.644 12.1909 111.945 11.9802 112.288 11.8812C112.632 11.7822 112.999 11.8006 113.331 11.9334C113.672 12.075 113.962 12.3168 114.163 12.6268C114.364 12.9368 114.466 13.3004 114.456 13.6696L114.437 22.8332L105.736 34.3761V19.8559Z" fill="#02090A"/>
<path opacity="0.5" d="M114.437 22.8335V28.1066C114.498 31.1679 114.017 34.2158 113.015 37.1094C112.177 39.7489 110.912 42.2338 109.273 44.466L105.787 48.9674V34.3764L114.437 22.8335Z" fill="#02090A"/>
<path d="M105.736 34.3765V48.961L100.083 56.3176C99.8707 56.6131 99.5647 56.8284 99.2148 56.9287C98.8648 57.029 98.4912 57.0086 98.1543 56.8706C97.8141 56.7275 97.525 56.4854 97.3243 56.1758C97.1236 55.8661 97.0207 55.5033 97.0289 55.1344V45.8808L105.736 34.3765Z" fill="#02090A"/>
<path opacity="0.7" d="M95.8651 45.8805V39.675C95.8061 36.8649 95.3003 34.0821 94.3667 31.431C93.4132 28.4733 91.9027 25.7252 89.9168 23.3349L87.2352 19.856V34.3762L95.8651 45.8805Z" fill="#02090A"/>
<path opacity="0.9" d="M87.2159 19.8558L81.5184 12.4799C81.3091 12.1913 81.0095 11.9809 80.667 11.8818C80.3246 11.7828 79.9589 11.8009 79.6279 11.9333C79.2862 12.0742 78.9955 12.3158 78.7944 12.6259C78.5934 12.9361 78.4916 13.3001 78.5025 13.6695L78.5475 22.8331L87.2159 34.376V19.8558Z" fill="#02090A"/>
<path opacity="0.5" d="M78.5411 22.8335V28.1066C78.479 31.1684 78.9624 34.2169 79.9687 37.1094C80.8049 39.75 82.0693 42.2353 83.7113 44.466L87.1902 48.9674V34.3764L78.5411 22.8335Z" fill="#02090A"/>
<path d="M87.2159 34.3765V48.961L92.8684 56.3176C93.0794 56.6061 93.3798 56.8167 93.7229 56.9167C94.066 57.0168 94.4325 57.0005 94.7655 56.8707C95.1061 56.7283 95.3958 56.4863 95.5966 56.1765C95.7974 55.8667 95.8999 55.5035 95.8908 55.1344V45.8808L87.2159 34.3765Z" fill="#02090A"/>
</svg>
