<svg width="41" height="41" viewBox="0 0 41 41" fill="none" xmlns="http://www.w3.org/2000/svg">
<path d="M20.0028 20.2424C18.4092 20.2425 16.8757 19.6317 15.716 18.535C14.5563 17.4384 13.8579 15.9386 13.7637 14.3424C13.542 10.5211 16.5639 7.48906 20.3719 7.71197C21.9937 7.80964 23.5138 8.53711 24.61 9.7402C25.7063 10.9433 26.2926 12.5274 26.2446 14.1568C26.1966 15.7863 25.5181 17.3329 24.3529 18.4689C23.1877 19.6049 21.6274 20.241 20.0028 20.2424ZM20.0028 9.79066C19.1786 9.79056 18.3729 10.0357 17.6876 10.495C17.0023 10.9544 16.4682 11.6073 16.1527 12.3713C15.8373 13.1352 15.7547 13.9759 15.9154 14.7869C16.0761 15.598 16.4729 16.343 17.0557 16.9277C17.6384 17.5125 18.3809 17.9107 19.1892 18.0721C19.9975 18.2335 20.8353 18.1507 21.5968 17.8343C22.3582 17.5178 23.009 16.982 23.4669 16.2944C23.9248 15.6068 24.1692 14.7985 24.1692 13.9716C24.1692 12.8628 23.7302 11.7995 22.9489 11.0156C22.1675 10.2316 21.1078 9.79115 20.0028 9.79115V9.79066Z" fill="#F9F9F9"/>
<path d="M28.3333 32.7004C28.1965 32.7005 28.061 32.6735 27.9345 32.621C27.8081 32.5685 27.6932 32.4914 27.5964 32.3943C27.4996 32.2973 27.4229 32.182 27.3705 32.0551C27.3182 31.9282 27.2913 31.7923 27.2914 31.6549V27.43C27.2906 26.6106 26.9658 25.825 26.3884 25.2456C25.8109 24.6662 25.028 24.3404 24.2114 24.3396H15.7887C14.9721 24.3404 14.1891 24.6662 13.6117 25.2456C13.0342 25.825 12.7095 26.6106 12.7087 27.43V31.6554C12.7087 31.7927 12.6817 31.9286 12.6294 32.0554C12.577 32.1823 12.5002 32.2975 12.4035 32.3945C12.3067 32.4916 12.1918 32.5685 12.0654 32.621C11.939 32.6735 11.8035 32.7005 11.6667 32.7004C11.53 32.7004 11.3945 32.6734 11.2682 32.6209C11.1418 32.5684 11.027 32.4914 10.9303 32.3943C10.8336 32.2973 10.7569 32.1821 10.7045 32.0553C10.6522 31.9286 10.6252 31.7927 10.6252 31.6554V27.43C10.6269 26.0564 11.1715 24.7397 12.1394 23.7684C13.1074 22.7972 14.4198 22.2508 15.7887 22.2491H24.2114C25.5803 22.2508 26.8926 22.7972 27.8606 23.7684C28.8286 24.7397 29.3731 26.0564 29.3748 27.43V31.6554C29.3748 31.9326 29.2651 32.1984 29.0698 32.3943C28.8745 32.5903 28.6095 32.7004 28.3333 32.7004Z" fill="#F9F9F9"/>
<path d="M32.7414 2.49927L38.2011 7.95904V37.9016H2.79885V2.49927H32.7414ZM33.6937 0.200417H0.5V40.2004H40.5V7.00674L39.8264 6.33375L34.3667 0.87398L33.6937 0.200417Z" fill="#F9F9F9"/>
</svg>
