<svg width="23" height="25" viewBox="0 0 23 25" fill="none" xmlns="http://www.w3.org/2000/svg">
<path d="M0 24.2996L1.65153 18.0469C0.319612 15.6112 -0.103551 12.7689 0.459691 10.0416C1.02293 7.31433 2.5348 4.88499 4.71786 3.19938C6.90092 1.51377 9.60874 0.684961 12.3444 0.865035C15.0801 1.04511 17.6602 2.22199 19.6112 4.17972C21.5621 6.13745 22.7532 8.7447 22.9657 11.5231C23.1782 14.3014 22.398 17.0645 20.7682 19.3052C19.1384 21.546 16.7683 23.1142 14.0929 23.722C11.4175 24.3298 8.61614 23.9364 6.20299 22.6141L0 24.2996ZM6.50209 20.2743L6.88571 20.5057C8.63361 21.5588 10.6751 21.9946 12.6921 21.7452C14.7091 21.4957 16.5883 20.5751 18.0368 19.1266C19.4853 17.6782 20.4218 15.7833 20.7003 13.7374C20.9788 11.6914 20.5837 9.60928 19.5765 7.81542C18.5694 6.02157 17.0068 4.61676 15.1322 3.81993C13.2576 3.02309 11.1764 2.87899 9.21284 3.41008C7.24929 3.94116 5.51372 5.1176 4.27658 6.75607C3.03945 8.39454 2.37025 10.403 2.37326 12.4684C2.37162 14.181 2.83755 15.8605 3.71919 17.3199L3.95977 17.723L3.03648 21.2129L6.50209 20.2743Z" fill="#F9F9F9"/>
<path fill-rule="evenodd" clip-rule="evenodd" d="M15.8122 14.075C15.5873 13.8906 15.324 13.7608 15.0423 13.6955C14.7606 13.6302 14.4679 13.6311 14.1867 13.6982C13.764 13.8767 13.4909 14.5508 13.2178 14.8879C13.1603 14.9687 13.0756 15.0254 12.9799 15.0473C12.8841 15.0692 12.7838 15.0549 12.6977 15.0069C11.1504 14.3909 9.85346 13.2612 9.01751 11.8013C8.94621 11.7102 8.91246 11.5945 8.92338 11.4786C8.93429 11.3627 8.98902 11.2557 9.07603 11.18C9.38061 10.8735 9.60424 10.4938 9.72623 10.0762C9.75332 9.61549 9.6495 9.15661 9.42714 8.75425C9.25524 8.19016 8.92808 7.68788 8.48434 7.30675C8.25547 7.20211 8.0017 7.16703 7.75364 7.20573C7.50559 7.24443 7.27386 7.35527 7.08639 7.52487C6.76094 7.8103 6.50262 8.1663 6.33046 8.56666C6.15829 8.96702 6.07666 9.40154 6.09158 9.83822C6.09258 10.0834 6.12315 10.3276 6.1826 10.5653C6.33359 11.1363 6.56578 11.6818 6.87182 12.1846C7.09263 12.5698 7.33355 12.9426 7.59355 13.3016C8.43853 14.4808 9.50068 15.4819 10.7211 16.2495C11.3334 16.6396 11.988 16.9567 12.6717 17.1947C13.3819 17.5219 14.1661 17.6476 14.9409 17.5582C15.3824 17.4903 15.8006 17.3131 16.1589 17.0422C16.5172 16.7714 16.8045 16.4152 16.9955 16.005C17.1078 15.7571 17.1419 15.4801 17.0931 15.2118C16.976 14.6632 16.2543 14.3393 15.8122 14.075Z" fill="#F9F9F9"/>
</svg>
