<svg width="29" height="21" viewBox="0 0 29 21" fill="none" xmlns="http://www.w3.org/2000/svg">
<path d="M27.6469 3.73873C27.3226 2.5179 26.3673 1.55557 25.1535 1.22892C22.9551 0.636719 14.1367 0.636719 14.1367 0.636719C14.1367 0.636719 5.31827 0.636719 3.11866 1.22892C1.90605 1.55557 0.950775 2.51673 0.626474 3.73873C0.0366211 5.95244 0.0366211 10.5702 0.0366211 10.5702C0.0366211 10.5702 0.0366211 15.188 0.626474 17.4017C0.950775 18.6225 1.90605 19.5849 3.11984 19.9115C5.31827 20.5037 14.1367 20.5037 14.1367 20.5037C14.1367 20.5037 22.9551 20.5037 25.1547 19.9115C26.3673 19.5849 27.3226 18.6237 27.6481 17.4017C28.2367 15.188 28.2367 10.5702 28.2367 10.5702C28.2367 10.5702 28.2367 5.95244 27.6469 3.73873ZM11.2532 14.7638V6.37662L18.6229 10.5702L11.2532 14.7638Z" fill="#F9F9F9"/>
</svg>
